<svg xmlns="http://www.w3.org/2000/svg" viewBox="0 0 1536 1024" width="1536" height="1024"><rect width="1536" height="1024" fill="#232931" /><rect y="0" width="1536" height="128" fill="#393e46" opacity="0.25" /><rect y="128" width="1536" height="128" fill="#393e46" opacity="0.37" /><rect y="256" width="1536" height="128" fill="#393e46" opacity="0.49" /><circle cx="1186" cy="383" r="158" fill="#f95959" /><circle cx="1186" cy="383" r="132" fill="#eeeeee" /><rect x="1029" y="395" width="314" height="10" fill="#232931" /><rect x="1034" y="421" width="304" height="10" fill="#232931" /><rect x="1044" y="447" width="284" height="10" fill="#232931" /><polygon points="-40,1024 -40,731 50,731 50,537 256,537 256,691 430,691 430,517 592,517 592,739 734,739 734,581 934,581 934,607 1044,607 1044,705 1270,705 1270,663 1426,663 1426,549 1554,549 1554,503 1790,503 1616,1024" fill="#4ecca3" /><polygon points="-40,1024 -40,389 190,389 190,523 294,523 294,621 510,621 510,507 718,507 718,453 820,453 820,535 1022,535 1022,597 1252,597 1252,559 1470,559 1470,625 1696,625 1616,1024" fill="#a5ecd7" /><polygon points="-40,1024 -40,471 152,471 152,509 384,509 384,375 540,375 540,485 768,485 768,499 980,499 980,549 1186,549 1186,487 1308,487 1308,405 1540,405 1540,311 1718,311 1616,1024" fill="#393e46" /><rect x="1299" y="336" width="3" height="3" fill="#eeeeee" /><rect x="78" y="367" width="4" height="4" fill="#eeeeee" /><rect x="1285" y="346" width="7" height="7" fill="#eeeeee" /><rect x="104" y="129" width="7" height="7" fill="#eeeeee" /><rect x="1383" y="276" width="6" height="6" fill="#eeeeee" /><rect x="946" y="259" width="5" height="5" fill="#eeeeee" /><rect x="1209" y="254" width="7" height="7" fill="#eeeeee" /><rect x="684" y="373" width="6" height="6" fill="#eeeeee" /><rect x="891" y="408" width="3" height="3" fill="#eeeeee" /><rect x="982" y="87" width="7" height="7" fill="#eeeeee" /><rect x="1069" y="354" width="5" height="5" fill="#eeeeee" /><rect x="1456" y="41" width="5" height="5" fill="#eeeeee" /><rect x="1359" y="220" width="7" height="7" fill="#eeeeee" /><rect x="186" y="363" width="7" height="7" fill="#eeeeee" /><rect x="353" y="134" width="3" height="3" fill="#eeeeee" /><rect x="1396" y="157" width="4" height="4" fill="#eeeeee" /><rect x="1251" y="224" width="7" height="7" fill="#eeeeee" /><rect x="94" y="63" width="5" height="5" fill="#eeeeee" /><rect x="85" y="106" width="6" height="6" fill="#eeeeee" /><rect x="504" y="209" width="4" height="4" fill="#eeeeee" /><rect x="567" y="420" width="6" height="6" fill="#eeeeee" /><rect x="706" y="211" width="3" height="3" fill="#eeeeee" /><rect x="265" y="270" width="5" height="5" fill="#eeeeee" /><rect x="316" y="197" width="4" height="4" fill="#eeeeee" /><rect x="1355" y="296" width="3" height="3" fill="#eeeeee" /><rect x="1510" y="295" width="6" height="6" fill="#eeeeee" /><rect x="381" y="114" width="3" height="3" fill="#eeeeee" /><rect x="320" y="121" width="3" height="3" fill="#eeeeee" /><rect x="31" y="364" width="4" height="4" fill="#eeeeee" /><rect x="970" y="315" width="4" height="4" fill="#eeeeee" /><rect x="433" y="150" width="5" height="5" fill="#eeeeee" /><rect x="516" y="493" width="4" height="4" fill="#eeeeee" /><rect x="1203" y="112" width="4" height="4" fill="#eeeeee" /><rect x="110" y="271" width="6" height="6" fill="#eeeeee" /><rect x="421" y="378" width="4" height="4" fill="#eeeeee" /><rect x="1416" y="289" width="5" height="5" fill="#eeeeee" /><rect x="1287" y="52" width="4" height="4" fill="#eeeeee" /><rect x="466" y="163" width="5" height="5" fill="#eeeeee" /><rect x="857" y="286" width="5" height="5" fill="#eeeeee" /><rect x="972" y="21" width="7" height="7" fill="#eeeeee" /><rect y="0" width="1536" height="1" fill="#000" opacity="0.10" /><rect y="8" width="1536" height="1" fill="#000" opacity="0.10" /><rect y="16" width="1536" height="1" fill="#000" opacity="0.10" /><rect y="24" width="1536" height="1" fill="#000" opacity="0.10" /><rect y="32" width="1536" height="1" fill="#000" opacity="0.10" /><rect y="40" width="1536" height="1" fill="#000" opacity="0.10" /><rect y="48" width="1536" height="1" fill="#000" opacity="0.10" /><rect y="56" width="1536" height="1" fill="#000" opacity="0.10" /><rect y="64" width="1536" height="1" fill="#000" opacity="0.10" /><rect y="72" width="1536" height="1" fill="#000" opacity="0.10" /><rect y="80" width="1536" height="1" fill="#000" opacity="0.10" /><rect y="88" width="1536" height="1" fill="#000" opacity="0.10" /><rect y="96" width="1536" height="1" fill="#000" opacity="0.10" /><rect y="104" width="1536" height="1" fill="#000" opacity="0.10" /><rect y="112" width="1536" height="1" fill="#000" opacity="0.10" /><rect y="120" width="1536" height="1" fill="#000" opacity="0.10" /><rect y="128" width="1536" height="1" fill="#000" opacity="0.10" /><rect y="136" width="1536" height="1" fill="#000" opacity="0.10" /><rect y="144" width="1536" height="1" fill="#000" opacity="0.10" /><rect y="152" width="1536" height="1" fill="#000" opacity="0.10" /><rect y="160" width="1536" height="1" fill="#000" opacity="0.10" /><rect y="168" width="1536" height="1" fill="#000" opacity="0.10" /><rect y="176" width="1536" height="1" fill="#000" opacity="0.10" /><rect y="184" width="1536" height="1" fill="#000" opacity="0.10" /><rect y="192" width="1536" height="1" fill="#000" opacity="0.10" /><rect y="200" width="1536" height="1" fill="#000" opacity="0.10" /><rect y="208" width="1536" height="1" fill="#000" opacity="0.10" /><rect y="216" width="1536" height="1" fill="#000" opacity="0.10" /><rect y="224" width="1536" height="1" fill="#000" opacity="0.10" /><rect y="232" width="1536" height="1" fill="#000" opacity="0.10" /><rect y="240" width="1536" height="1" fill="#000" opacity="0.10" /><rect y="248" width="1536" height="1" fill="#000" opacity="0.10" /><rect y="256" width="1536" height="1" fill="#000" opacity="0.10" /><rect y="264" width="1536" height="1" fill="#000" opacity="0.10" /><rect y="272" width="1536" height="1" fill="#000" opacity="0.10" /><rect y="280" width="1536" height="1" fill="#000" opacity="0.10" /><rect y="288" width="1536" height="1" fill="#000" opacity="0.10" /><rect y="296" width="1536" height="1" fill="#000" opacity="0.10" /><rect y="304" width="1536" height="1" fill="#000" opacity="0.10" /><rect y="312" width="1536" height="1" fill="#000" opacity="0.10" /><rect y="320" width="1536" height="1" fill="#000" opacity="0.10" /><rect y="328" width="1536" height="1" fill="#000" opacity="0.10" /><rect y="336" width="1536" height="1" fill="#000" opacity="0.10" /><rect y="344" width="1536" height="1" fill="#000" opacity="0.10" /><rect y="352" width="1536" height="1" fill="#000" opacity="0.10" /><rect y="360" width="1536" height="1" fill="#000" opacity="0.10" /><rect y="368" width="1536" height="1" fill="#000" opacity="0.10" /><rect y="376" width="1536" height="1" fill="#000" opacity="0.10" /><rect y="384" width="1536" height="1" fill="#000" opacity="0.10" /><rect y="392" width="1536" height="1" fill="#000" opacity="0.10" /><rect y="400" width="1536" height="1" fill="#000" opacity="0.10" /><rect y="408" width="1536" height="1" fill="#000" opacity="0.10" /><rect y="416" width="1536" height="1" fill="#000" opacity="0.10" /><rect y="424" width="1536" height="1" fill="#000" opacity="0.10" /><rect y="432" width="1536" height="1" fill="#000" opacity="0.10" /><rect y="440" width="1536" height="1" fill="#000" opacity="0.10" /><rect y="448" width="1536" height="1" fill="#000" opacity="0.10" /><rect y="456" width="1536" height="1" fill="#000" opacity="0.10" /><rect y="464" width="1536" height="1" fill="#000" opacity="0.10" /><rect y="472" width="1536" height="1" fill="#000" opacity="0.10" /><rect y="480" width="1536" height="1" fill="#000" opacity="0.10" /><rect y="488" width="1536" height="1" fill="#000" opacity="0.10" /><rect y="496" width="1536" height="1" fill="#000" opacity="0.10" /><rect y="504" width="1536" height="1" fill="#000" opacity="0.10" /><rect y="512" width="1536" height="1" fill="#000" opacity="0.10" /><rect y="520" width="1536" height="1" fill="#000" opacity="0.10" /><rect y="528" width="1536" height="1" fill="#000" opacity="0.10" /><rect y="536" width="1536" height="1" fill="#000" opacity="0.10" /><rect y="544" width="1536" height="1" fill="#000" opacity="0.10" /><rect y="552" width="1536" height="1" fill="#000" opacity="0.10" /><rect y="560" width="1536" height="1" fill="#000" opacity="0.10" /><rect y="568" width="1536" height="1" fill="#000" opacity="0.10" /><rect y="576" width="1536" height="1" fill="#000" opacity="0.10" /><rect y="584" width="1536" height="1" fill="#000" opacity="0.10" /><rect y="592" width="1536" height="1" fill="#000" opacity="0.10" /><rect y="600" width="1536" height="1" fill="#000" opacity="0.10" /><rect y="608" width="1536" height="1" fill="#000" opacity="0.10" /><rect y="616" width="1536" height="1" fill="#000" opacity="0.10" /><rect y="624" width="1536" height="1" fill="#000" opacity="0.10" /><rect y="632" width="1536" height="1" fill="#000" opacity="0.10" /><rect y="640" width="1536" height="1" fill="#000" opacity="0.10" /><rect y="648" width="1536" height="1" fill="#000" opacity="0.10" /><rect y="656" width="1536" height="1" fill="#000" opacity="0.10" /><rect y="664" width="1536" height="1" fill="#000" opacity="0.10" /><rect y="672" width="1536" height="1" fill="#000" opacity="0.10" /><rect y="680" width="1536" height="1" fill="#000" opacity="0.10" /><rect y="688" width="1536" height="1" fill="#000" opacity="0.10" /><rect y="696" width="1536" height="1" fill="#000" opacity="0.10" /><rect y="704" width="1536" height="1" fill="#000" opacity="0.10" /><rect y="712" width="1536" height="1" fill="#000" opacity="0.10" /><rect y="720" width="1536" height="1" fill="#000" opacity="0.10" /><rect y="728" width="1536" height="1" fill="#000" opacity="0.10" /><rect y="736" width="1536" height="1" fill="#000" opacity="0.10" /><rect y="744" width="1536" height="1" fill="#000" opacity="0.10" /><rect y="752" width="1536" height="1" fill="#000" opacity="0.10" /><rect y="760" width="1536" height="1" fill="#000" opacity="0.10" /><rect y="768" width="1536" height="1" fill="#000" opacity="0.10" /><rect y="776" width="1536" height="1" fill="#000" opacity="0.10" /><rect y="784" width="1536" height="1" fill="#000" opacity="0.10" /><rect y="792" width="1536" height="1" fill="#000" opacity="0.10" /><rect y="800" width="1536" height="1" fill="#000" opacity="0.10" /><rect y="808" width="1536" height="1" fill="#000" opacity="0.10" /><rect y="816" width="1536" height="1" fill="#000" opacity="0.10" /><rect y="824" width="1536" height="1" fill="#000" opacity="0.10" /><rect y="832" width="1536" height="1" fill="#000" opacity="0.10" /><rect y="840" width="1536" height="1" fill="#000" opacity="0.10" /><rect y="848" width="1536" height="1" fill="#000" opacity="0.10" /><rect y="856" width="1536" height="1" fill="#000" opacity="0.10" /><rect y="864" width="1536" height="1" fill="#000" opacity="0.10" /><rect y="872" width="1536" height="1" fill="#000" opacity="0.10" /><rect y="880" width="1536" height="1" fill="#000" opacity="0.10" /><rect y="888" width="1536" height="1" fill="#000" opacity="0.10" /><rect y="896" width="1536" height="1" fill="#000" opacity="0.10" /><rect y="904" width="1536" height="1" fill="#000" opacity="0.10" /><rect y="912" width="1536" height="1" fill="#000" opacity="0.10" /><rect y="920" width="1536" height="1" fill="#000" opacity="0.10" /><rect y="928" width="1536" height="1" fill="#000" opacity="0.10" /><rect y="936" width="1536" height="1" fill="#000" opacity="0.10" /><rect y="944" width="1536" height="1" fill="#000" opacity="0.10" /><rect y="952" width="1536" height="1" fill="#000" opacity="0.10" /><rect y="960" width="1536" height="1" fill="#000" opacity="0.10" /><rect y="968" width="1536" height="1" fill="#000" opacity="0.10" /><rect y="976" width="1536" height="1" fill="#000" opacity="0.10" /><rect y="984" width="1536" height="1" fill="#000" opacity="0.10" /><rect y="992" width="1536" height="1" fill="#000" opacity="0.10" /><rect y="1000" width="1536" height="1" fill="#000" opacity="0.10" /><rect y="1008" width="1536" height="1" fill="#000" opacity="0.10" /><rect y="1016" width="1536" height="1" fill="#000" opacity="0.10" /><rect width="1536" height="26" fill="#000" opacity="0.35" /><rect y="998" width="1536" height="26" fill="#000" opacity="0.35" /></svg>