<svg xmlns="http://www.w3.org/2000/svg" viewBox="0 0 1536 1024" width="1536" height="1024" role="img"><title>Preview banner: fork-build-and-run-a-vs-code-extension-locally-the</title><rect width="1536" height="1024" fill="#0d1117" /><path d="M0 0 L0 1024 M64 0 L64 1024 M128 0 L128 1024 M192 0 L192 1024 M256 0 L256 1024 M320 0 L320 1024 M384 0 L384 1024 M448 0 L448 1024 M512 0 L512 1024 M576 0 L576 1024 M640 0 L640 1024 M704 0 L704 1024 M768 0 L768 1024 M832 0 L832 1024 M896 0 L896 1024 M960 0 L960 1024 M1024 0 L1024 1024 M1088 0 L1088 1024 M1152 0 L1152 1024 M1216 0 L1216 1024 M1280 0 L1280 1024 M1344 0 L1344 1024 M1408 0 L1408 1024 M1472 0 L1472 1024 M1536 0 L1536 1024 M0 0 L1536 0 M0 64 L1536 64 M0 128 L1536 128 M0 192 L1536 192 M0 256 L1536 256 M0 320 L1536 320 M0 384 L1536 384 M0 448 L1536 448 M0 512 L1536 512 M0 576 L1536 576 M0 640 L1536 640 M0 704 L1536 704 M0 768 L1536 768 M0 832 L1536 832 M0 896 L1536 896 M0 960 L1536 960 M0 1024 L1536 1024" stroke="#161b22" stroke-width="1" fill="none" stroke-opacity="0.9" /><path d="M800 448 L800 416 L800 480 L800 576 L800 576" fill="none" stroke="#7ea6c9" stroke-width="4" stroke-opacity="0.85" stroke-linecap="square" stroke-linejoin="miter" /><path d="M64 96 L0 96 L0 96 L0 96 L96 96 L256 96" fill="none" stroke="#7ea6c9" stroke-width="4" stroke-opacity="0.85" stroke-linecap="square" stroke-linejoin="miter" /><path d="M416 64 L416 128 L416 96 L416 96 L416 192 L416 96" fill="none" stroke="#7ea6c9" stroke-width="3" stroke-opacity="0.85" stroke-linecap="square" stroke-linejoin="miter" /><path d="M128 928 L96 928 L0 928 L32 928 L192 928 L32 928 L96 928 L256 928" fill="none" stroke="#4b6178" stroke-width="3" stroke-opacity="0.85" stroke-linecap="square" stroke-linejoin="miter" /><path d="M608 512 L608 416 L608 416 L608 288" fill="none" stroke="#7ea6c9" stroke-width="2" stroke-opacity="0.85" stroke-linecap="square" stroke-linejoin="miter" /><path d="M192 224 L224 224 L192 224 L320 224 L288 224" fill="none" stroke="#4b6178" stroke-width="2" stroke-opacity="0.85" stroke-linecap="square" stroke-linejoin="miter" /><path d="M1376 768 L1376 800 L1376 832 L1376 704 L1376 800 L1376 832 L1376 832 L1376 960" fill="none" stroke="#4b6178" stroke-width="3" stroke-opacity="0.85" stroke-linecap="square" stroke-linejoin="miter" /><path d="M704 224 L768 224 L864 224 L832 224 L736 224 L736 224" fill="none" stroke="#7ea6c9" stroke-width="2" stroke-opacity="0.85" stroke-linecap="square" stroke-linejoin="miter" /><path d="M544 704 L544 736 L544 800 L544 672 L544 544 L544 416" fill="none" stroke="#4b6178" stroke-width="4" stroke-opacity="0.85" stroke-linecap="square" stroke-linejoin="miter" /><path d="M768 32 L928 32 L928 32 L768 32 L704 32" fill="none" stroke="#7ea6c9" stroke-width="3" stroke-opacity="0.85" stroke-linecap="square" stroke-linejoin="miter" /><path d="M1184 320 L1184 384 L1184 320 L1184 288 L1184 224 L1184 96 L1184 0 L1184 96" fill="none" stroke="#4b6178" stroke-width="3" stroke-opacity="0.85" stroke-linecap="square" stroke-linejoin="miter" /><path d="M1280 32 L1216 32 L1312 32 L1440 32 L1472 32 L1408 32 L1536 32" fill="none" stroke="#4b6178" stroke-width="2" stroke-opacity="0.85" stroke-linecap="square" stroke-linejoin="miter" /><path d="M1056 704 L1056 672 L1056 544 L1056 416 L1056 448 L1056 320" fill="none" stroke="#7ea6c9" stroke-width="2" stroke-opacity="0.85" stroke-linecap="square" stroke-linejoin="miter" /><path d="M768 32 L800 32 L736 32 L704 32 L736 32 L768 32" fill="none" stroke="#7ea6c9" stroke-width="2" stroke-opacity="0.85" stroke-linecap="square" stroke-linejoin="miter" /><path d="M1376 768 L1376 672 L1376 768 L1376 896 L1376 928 L1376 800 L1376 800" fill="none" stroke="#7ea6c9" stroke-width="2" stroke-opacity="0.85" stroke-linecap="square" stroke-linejoin="miter" /><path d="M1280 32 L1216 32 L1312 32 L1408 32 L1248 32 L1184 32 L1152 32 L992 32" fill="none" stroke="#7ea6c9" stroke-width="4" stroke-opacity="0.85" stroke-linecap="square" stroke-linejoin="miter" /><path d="M224 128 L224 0 L224 0 L224 0 L224 0 L224 0 L224 0" fill="none" stroke="#4b6178" stroke-width="3" stroke-opacity="0.85" stroke-linecap="square" stroke-linejoin="miter" /><path d="M640 928 L640 928 L544 928 L512 928 L608 928 L448 928 L448 928" fill="none" stroke="#4b6178" stroke-width="2" stroke-opacity="0.85" stroke-linecap="square" stroke-linejoin="miter" /><path d="M928 64 L928 96 L928 64 L928 0" fill="none" stroke="#7ea6c9" stroke-width="2" stroke-opacity="0.85" stroke-linecap="square" stroke-linejoin="miter" /><path d="M768 32 L704 32 L640 32 L640 32 L800 32 L832 32 L672 32" fill="none" stroke="#7ea6c9" stroke-width="3" stroke-opacity="0.85" stroke-linecap="square" stroke-linejoin="miter" /><path d="M544 704 L544 672 L544 640 L544 608 L544 480 L544 480" fill="none" stroke="#7ea6c9" stroke-width="2" stroke-opacity="0.85" stroke-linecap="square" stroke-linejoin="miter" /><path d="M768 32 L704 32 L736 32 L608 32 L512 32 L480 32" fill="none" stroke="#7ea6c9" stroke-width="2" stroke-opacity="0.85" stroke-linecap="square" stroke-linejoin="miter" /><path d="M864 768 L864 864 L864 736 L864 608 L864 704 L864 608" fill="none" stroke="#7ea6c9" stroke-width="4" stroke-opacity="0.85" stroke-linecap="square" stroke-linejoin="miter" /><path d="M832 352 L672 352 L640 352 L736 352" fill="none" stroke="#7ea6c9" stroke-width="3" stroke-opacity="0.85" stroke-linecap="square" stroke-linejoin="miter" /><path d="M1312 960 L1312 992 L1312 1024 L1312 992 L1312 1024 L1312 1024" fill="none" stroke="#4b6178" stroke-width="2" stroke-opacity="0.85" stroke-linecap="square" stroke-linejoin="miter" /><path d="M1024 288 L960 288 L960 288 L800 288 L640 288 L512 288 L608 288" fill="none" stroke="#7ea6c9" stroke-width="4" stroke-opacity="0.85" stroke-linecap="square" stroke-linejoin="miter" /><path d="M800 960 L800 992 L800 992 L800 1024 L800 1024 L800 1024 L800 960" fill="none" stroke="#7ea6c9" stroke-width="4" stroke-opacity="0.85" stroke-linecap="square" stroke-linejoin="miter" /><path d="M1472 480 L1376 480 L1248 480 L1088 480 L1088 480" fill="none" stroke="#7ea6c9" stroke-width="2" stroke-opacity="0.85" stroke-linecap="square" stroke-linejoin="miter" /><path d="M608 0 L608 0 L608 0 L608 0" fill="none" stroke="#7ea6c9" stroke-width="2" stroke-opacity="0.85" stroke-linecap="square" stroke-linejoin="miter" /><path d="M704 736 L640 736 L768 736 L928 736 L896 736 L928 736" fill="none" stroke="#7ea6c9" stroke-width="2" stroke-opacity="0.85" stroke-linecap="square" stroke-linejoin="miter" /><path d="M544 192 L544 128 L544 128 L544 128" fill="none" stroke="#7ea6c9" stroke-width="3" stroke-opacity="0.85" stroke-linecap="square" stroke-linejoin="miter" /><path d="M384 672 L416 672 L384 672 L224 672 L96 672 L192 672" fill="none" stroke="#7ea6c9" stroke-width="4" stroke-opacity="0.85" stroke-linecap="square" stroke-linejoin="miter" /><path d="M992 896 L992 800 L992 832 L992 704 L992 640 L992 672" fill="none" stroke="#7ea6c9" stroke-width="2" stroke-opacity="0.85" stroke-linecap="square" stroke-linejoin="miter" /><path d="M448 992 L512 992 L608 992 L512 992 L352 992 L512 992 L448 992" fill="none" stroke="#7ea6c9" stroke-width="3" stroke-opacity="0.85" stroke-linecap="square" stroke-linejoin="miter" /><path d="M480 896 L480 960 L480 928 L480 960 L480 864 L480 736 L480 704" fill="none" stroke="#4b6178" stroke-width="2" stroke-opacity="0.85" stroke-linecap="square" stroke-linejoin="miter" /><path d="M384 672 L256 672 L160 672 L224 672 L352 672" fill="none" stroke="#4b6178" stroke-width="3" stroke-opacity="0.85" stroke-linecap="square" stroke-linejoin="miter" /><path d="M288 448 L288 544 L288 640 L288 608 L288 544" fill="none" stroke="#7ea6c9" stroke-width="3" stroke-opacity="0.85" stroke-linecap="square" stroke-linejoin="miter" /><path d="M1088 96 L1248 96 L1376 96 L1472 96" fill="none" stroke="#7ea6c9" stroke-width="3" stroke-opacity="0.85" stroke-linecap="square" stroke-linejoin="miter" /><path d="M544 704 L544 640 L544 672 L544 800" fill="none" stroke="#7ea6c9" stroke-width="4" stroke-opacity="0.85" stroke-linecap="square" stroke-linejoin="miter" /><path d="M384 160 L352 160 L224 160 L192 160 L224 160 L160 160" fill="none" stroke="#7ea6c9" stroke-width="2" stroke-opacity="0.85" stroke-linecap="square" stroke-linejoin="miter" /><path d="M992 384 L992 352 L992 288 L992 224" fill="none" stroke="#7ea6c9" stroke-width="4" stroke-opacity="0.85" stroke-linecap="square" stroke-linejoin="miter" /><path d="M1088 608 L1088 608 L928 608 L896 608 L800 608 L768 608" fill="none" stroke="#7ea6c9" stroke-width="4" stroke-opacity="0.85" stroke-linecap="square" stroke-linejoin="miter" /><path d="M928 576 L928 672 L928 608 L928 544 L928 416 L928 384" fill="none" stroke="#4b6178" stroke-width="3" stroke-opacity="0.85" stroke-linecap="square" stroke-linejoin="miter" /><path d="M128 416 L0 416 L32 416 L0 416 L64 416 L224 416 L192 416" fill="none" stroke="#4b6178" stroke-width="3" stroke-opacity="0.85" stroke-linecap="square" stroke-linejoin="miter" /><path d="M416 576 L416 512 L416 416 L416 320 L416 192 L416 224 L416 224" fill="none" stroke="#7ea6c9" stroke-width="2" stroke-opacity="0.85" stroke-linecap="square" stroke-linejoin="miter" /><path d="M1088 608 L1248 608 L1280 608 L1344 608 L1248 608 L1344 608 L1472 608" fill="none" stroke="#4b6178" stroke-width="3" stroke-opacity="0.85" stroke-linecap="square" stroke-linejoin="miter" /><path d="M96 0 L96 0 L96 64 L96 128" fill="none" stroke="#7ea6c9" stroke-width="2" stroke-opacity="0.85" stroke-linecap="square" stroke-linejoin="miter" /><path d="M1216 736 L1184 736 L1024 736 L1024 736 L960 736 L928 736 L1088 736" fill="none" stroke="#7ea6c9" stroke-width="4" stroke-opacity="0.85" stroke-linecap="square" stroke-linejoin="miter" /><path d="M736 640 L736 672 L736 800 L736 896 L736 992 L736 1024 L736 1024 L736 1024" fill="none" stroke="#7ea6c9" stroke-width="3" stroke-opacity="0.85" stroke-linecap="square" stroke-linejoin="miter" /><path d="M64 608 L0 608 L0 608 L160 608 L32 608 L96 608 L0 608" fill="none" stroke="#4b6178" stroke-width="3" stroke-opacity="0.85" stroke-linecap="square" stroke-linejoin="miter" /><path d="M96 0 L96 0 L96 0 L96 0" fill="none" stroke="#7ea6c9" stroke-width="2" stroke-opacity="0.85" stroke-linecap="square" stroke-linejoin="miter" /><path d="M192 736 L96 736 L96 736 L64 736 L192 736" fill="none" stroke="#7ea6c9" stroke-width="3" stroke-opacity="0.85" stroke-linecap="square" stroke-linejoin="miter" /><path d="M864 256 L864 192 L864 160 L864 192 L864 64 L864 0" fill="none" stroke="#4b6178" stroke-width="3" stroke-opacity="0.85" stroke-linecap="square" stroke-linejoin="miter" /><path d="M1344 864 L1440 864 L1536 864 L1504 864 L1376 864 L1312 864 L1248 864 L1344 864" fill="none" stroke="#4b6178" stroke-width="3" stroke-opacity="0.85" stroke-linecap="square" stroke-linejoin="miter" /><path d="M544 192 L544 224 L544 256 L544 256" fill="none" stroke="#4b6178" stroke-width="3" stroke-opacity="0.85" stroke-linecap="square" stroke-linejoin="miter" /><path d="M1408 672 L1280 672 L1408 672 L1248 672 L1152 672 L1120 672 L1120 672" fill="none" stroke="#7ea6c9" stroke-width="3" stroke-opacity="0.85" stroke-linecap="square" stroke-linejoin="miter" /><path d="M1184 832 L1184 960 L1184 960 L1184 992 L1184 960" fill="none" stroke="#7ea6c9" stroke-width="4" stroke-opacity="0.85" stroke-linecap="square" stroke-linejoin="miter" /><path d="M1472 992 L1344 992 L1216 992 L1120 992 L1120 992" fill="none" stroke="#7ea6c9" stroke-width="4" stroke-opacity="0.85" stroke-linecap="square" stroke-linejoin="miter" /><path d="M608 512 L608 448 L608 512 L608 576 L608 512" fill="none" stroke="#4b6178" stroke-width="2" stroke-opacity="0.85" stroke-linecap="square" stroke-linejoin="miter" /><path d="M128 928 L64 928 L0 928 L0 928 L96 928 L160 928 L288 928" fill="none" stroke="#7ea6c9" stroke-width="3" stroke-opacity="0.85" stroke-linecap="square" stroke-linejoin="miter" /><path d="M1440 64 L1440 0 L1440 32 L1440 0 L1440 0" fill="none" stroke="#4b6178" stroke-width="2" stroke-opacity="0.85" stroke-linecap="square" stroke-linejoin="miter" /><path d="M192 224 L288 224 L448 224 L480 224 L480 224 L608 224 L448 224" fill="none" stroke="#7ea6c9" stroke-width="2" stroke-opacity="0.85" stroke-linecap="square" stroke-linejoin="miter" /><path d="M224 128 L224 192 L224 64 L224 160 L224 160 L224 96 L224 0" fill="none" stroke="#4b6178" stroke-width="3" stroke-opacity="0.85" stroke-linecap="square" stroke-linejoin="miter" /><path d="M640 928 L768 928 L672 928 L768 928 L672 928 L512 928 L672 928" fill="none" stroke="#7ea6c9" stroke-width="3" stroke-opacity="0.85" stroke-linecap="square" stroke-linejoin="miter" /><circle cx="800" cy="448" r="7" fill="#0d1117" stroke="#7ea6c9" stroke-width="3" /><circle cx="800" cy="576" r="7" fill="#0d1117" stroke="#7ea6c9" stroke-width="3" /><circle cx="64" cy="96" r="7" fill="#0d1117" stroke="#7ea6c9" stroke-width="3" /><circle cx="256" cy="96" r="7" fill="#0d1117" stroke="#7ea6c9" stroke-width="3" /><circle cx="416" cy="64" r="7" fill="#0d1117" stroke="#7ea6c9" stroke-width="3" /><circle cx="416" cy="96" r="7" fill="#0d1117" stroke="#7ea6c9" stroke-width="3" /><circle cx="128" cy="928" r="7" fill="#0d1117" stroke="#7ea6c9" stroke-width="3" /><circle cx="256" cy="928" r="7" fill="#0d1117" stroke="#7ea6c9" stroke-width="3" /><circle cx="608" cy="512" r="7" fill="#0d1117" stroke="#7ea6c9" stroke-width="3" /><circle cx="608" cy="288" r="7" fill="#0d1117" stroke="#7ea6c9" stroke-width="3" /><circle cx="192" cy="224" r="7" fill="#0d1117" stroke="#7ea6c9" stroke-width="3" /><circle cx="288" cy="224" r="7" fill="#0d1117" stroke="#7ea6c9" stroke-width="3" /><circle cx="1376" cy="768" r="7" fill="#0d1117" stroke="#7ea6c9" stroke-width="3" /><circle cx="1376" cy="960" r="7" fill="#0d1117" stroke="#7ea6c9" stroke-width="3" /><circle cx="704" cy="224" r="7" fill="#0d1117" stroke="#7ea6c9" stroke-width="3" /><circle cx="736" cy="224" r="7" fill="#0d1117" stroke="#7ea6c9" stroke-width="3" /><circle cx="544" cy="704" r="7" fill="#0d1117" stroke="#7ea6c9" stroke-width="3" /><circle cx="544" cy="416" r="7" fill="#0d1117" stroke="#7ea6c9" stroke-width="3" /><circle cx="768" cy="32" r="7" fill="#0d1117" stroke="#7ea6c9" stroke-width="3" /><circle cx="704" cy="32" r="7" fill="#0d1117" stroke="#7ea6c9" stroke-width="3" /><circle cx="1184" cy="320" r="7" fill="#0d1117" stroke="#7ea6c9" stroke-width="3" /><circle cx="1184" cy="96" r="7" fill="#0d1117" stroke="#7ea6c9" stroke-width="3" /><circle cx="1280" cy="32" r="7" fill="#0d1117" stroke="#7ea6c9" stroke-width="3" /><circle cx="1536" cy="32" r="7" fill="#0d1117" stroke="#7ea6c9" stroke-width="3" /><circle cx="1056" cy="704" r="7" fill="#0d1117" stroke="#7ea6c9" stroke-width="3" /><circle cx="1056" cy="320" r="7" fill="#0d1117" stroke="#7ea6c9" stroke-width="3" /><circle cx="768" cy="32" r="7" fill="#0d1117" stroke="#7ea6c9" stroke-width="3" /><circle cx="768" cy="32" r="7" fill="#0d1117" stroke="#7ea6c9" stroke-width="3" /><circle cx="1376" cy="768" r="7" fill="#0d1117" stroke="#7ea6c9" stroke-width="3" /><circle cx="1376" cy="800" r="7" fill="#0d1117" stroke="#7ea6c9" stroke-width="3" /><circle cx="1280" cy="32" r="7" fill="#0d1117" stroke="#7ea6c9" stroke-width="3" /><circle cx="992" cy="32" r="7" fill="#0d1117" stroke="#7ea6c9" stroke-width="3" /><circle cx="224" cy="128" r="7" fill="#0d1117" stroke="#7ea6c9" stroke-width="3" /><circle cx="224" cy="0" r="7" fill="#0d1117" stroke="#7ea6c9" stroke-width="3" /><circle cx="640" cy="928" r="7" fill="#0d1117" stroke="#7ea6c9" stroke-width="3" /><circle cx="448" cy="928" r="7" fill="#0d1117" stroke="#7ea6c9" stroke-width="3" /><circle cx="928" cy="64" r="7" fill="#0d1117" stroke="#7ea6c9" stroke-width="3" /><circle cx="928" cy="0" r="7" fill="#0d1117" stroke="#7ea6c9" stroke-width="3" /><circle cx="768" cy="32" r="7" fill="#0d1117" stroke="#7ea6c9" stroke-width="3" /><circle cx="672" cy="32" r="7" fill="#0d1117" stroke="#7ea6c9" stroke-width="3" /><circle cx="544" cy="704" r="7" fill="#0d1117" stroke="#7ea6c9" stroke-width="3" /><circle cx="544" cy="480" r="7" fill="#0d1117" stroke="#7ea6c9" stroke-width="3" /><circle cx="768" cy="32" r="7" fill="#0d1117" stroke="#7ea6c9" stroke-width="3" /><circle cx="480" cy="32" r="7" fill="#0d1117" stroke="#7ea6c9" stroke-width="3" /><circle cx="864" cy="768" r="7" fill="#0d1117" stroke="#7ea6c9" stroke-width="3" /><circle cx="864" cy="608" r="7" fill="#0d1117" stroke="#7ea6c9" stroke-width="3" /><circle cx="832" cy="352" r="7" fill="#0d1117" stroke="#7ea6c9" stroke-width="3" /><circle cx="736" cy="352" r="7" fill="#0d1117" stroke="#7ea6c9" stroke-width="3" /><circle cx="1312" cy="960" r="7" fill="#0d1117" stroke="#7ea6c9" stroke-width="3" /><circle cx="1312" cy="1024" r="7" fill="#0d1117" stroke="#7ea6c9" stroke-width="3" /><circle cx="1024" cy="288" r="7" fill="#0d1117" stroke="#7ea6c9" stroke-width="3" /><circle cx="608" cy="288" r="7" fill="#0d1117" stroke="#7ea6c9" stroke-width="3" /><circle cx="800" cy="960" r="7" fill="#0d1117" stroke="#7ea6c9" stroke-width="3" /><circle cx="800" cy="960" r="7" fill="#0d1117" stroke="#7ea6c9" stroke-width="3" /><circle cx="1472" cy="480" r="7" fill="#0d1117" stroke="#7ea6c9" stroke-width="3" /><circle cx="1088" cy="480" r="7" fill="#0d1117" stroke="#7ea6c9" stroke-width="3" /><circle cx="608" cy="0" r="7" fill="#0d1117" stroke="#7ea6c9" stroke-width="3" /><circle cx="608" cy="0" r="7" fill="#0d1117" stroke="#7ea6c9" stroke-width="3" /><circle cx="704" cy="736" r="7" fill="#0d1117" stroke="#7ea6c9" stroke-width="3" /><circle cx="928" cy="736" r="7" fill="#0d1117" stroke="#7ea6c9" stroke-width="3" /><circle cx="544" cy="192" r="7" fill="#0d1117" stroke="#7ea6c9" stroke-width="3" /><circle cx="544" cy="128" r="7" fill="#0d1117" stroke="#7ea6c9" stroke-width="3" /><circle cx="384" cy="672" r="7" fill="#0d1117" stroke="#7ea6c9" stroke-width="3" /><circle cx="192" cy="672" r="7" fill="#0d1117" stroke="#7ea6c9" stroke-width="3" /><circle cx="992" cy="896" r="7" fill="#0d1117" stroke="#7ea6c9" stroke-width="3" /><circle cx="992" cy="672" r="7" fill="#0d1117" stroke="#7ea6c9" stroke-width="3" /><circle cx="448" cy="992" r="7" fill="#0d1117" stroke="#7ea6c9" stroke-width="3" /><circle cx="448" cy="992" r="7" fill="#0d1117" stroke="#7ea6c9" stroke-width="3" /><circle cx="480" cy="896" r="7" fill="#0d1117" stroke="#7ea6c9" stroke-width="3" /><circle cx="480" cy="704" r="7" fill="#0d1117" stroke="#7ea6c9" stroke-width="3" /><circle cx="384" cy="672" r="7" fill="#0d1117" stroke="#7ea6c9" stroke-width="3" /><circle cx="352" cy="672" r="7" fill="#0d1117" stroke="#7ea6c9" stroke-width="3" /><circle cx="288" cy="448" r="7" fill="#0d1117" stroke="#7ea6c9" stroke-width="3" /><circle cx="288" cy="544" r="7" fill="#0d1117" stroke="#7ea6c9" stroke-width="3" /><circle cx="1088" cy="96" r="7" fill="#0d1117" stroke="#7ea6c9" stroke-width="3" /><circle cx="1472" cy="96" r="7" fill="#0d1117" stroke="#7ea6c9" stroke-width="3" /><circle cx="544" cy="704" r="7" fill="#0d1117" stroke="#7ea6c9" stroke-width="3" /><circle cx="544" cy="800" r="7" fill="#0d1117" stroke="#7ea6c9" stroke-width="3" /><circle cx="384" cy="160" r="7" fill="#0d1117" stroke="#7ea6c9" stroke-width="3" /><circle cx="160" cy="160" r="7" fill="#0d1117" stroke="#7ea6c9" stroke-width="3" /><circle cx="992" cy="384" r="7" fill="#0d1117" stroke="#7ea6c9" stroke-width="3" /><circle cx="992" cy="224" r="7" fill="#0d1117" stroke="#7ea6c9" stroke-width="3" /><circle cx="1088" cy="608" r="7" fill="#0d1117" stroke="#7ea6c9" stroke-width="3" /><circle cx="768" cy="608" r="7" fill="#0d1117" stroke="#7ea6c9" stroke-width="3" /><circle cx="928" cy="576" r="7" fill="#0d1117" stroke="#7ea6c9" stroke-width="3" /><circle cx="928" cy="384" r="7" fill="#0d1117" stroke="#7ea6c9" stroke-width="3" /><circle cx="128" cy="416" r="7" fill="#0d1117" stroke="#7ea6c9" stroke-width="3" /><circle cx="192" cy="416" r="7" fill="#0d1117" stroke="#7ea6c9" stroke-width="3" /><circle cx="416" cy="576" r="7" fill="#0d1117" stroke="#7ea6c9" stroke-width="3" /><circle cx="416" cy="224" r="7" fill="#0d1117" stroke="#7ea6c9" stroke-width="3" /><circle cx="1088" cy="608" r="7" fill="#0d1117" stroke="#7ea6c9" stroke-width="3" /><circle cx="1472" cy="608" r="7" fill="#0d1117" stroke="#7ea6c9" stroke-width="3" /><circle cx="96" cy="0" r="7" fill="#0d1117" stroke="#7ea6c9" stroke-width="3" /><circle cx="96" cy="128" r="7" fill="#0d1117" stroke="#7ea6c9" stroke-width="3" /><circle cx="1216" cy="736" r="7" fill="#0d1117" stroke="#7ea6c9" stroke-width="3" /><circle cx="1088" cy="736" r="7" fill="#0d1117" stroke="#7ea6c9" stroke-width="3" /><circle cx="736" cy="640" r="7" fill="#0d1117" stroke="#7ea6c9" stroke-width="3" /><circle cx="736" cy="1024" r="7" fill="#0d1117" stroke="#7ea6c9" stroke-width="3" /><circle cx="64" cy="608" r="7" fill="#0d1117" stroke="#7ea6c9" stroke-width="3" /><circle cx="0" cy="608" r="7" fill="#0d1117" stroke="#7ea6c9" stroke-width="3" /><circle cx="96" cy="0" r="7" fill="#0d1117" stroke="#7ea6c9" stroke-width="3" /><circle cx="96" cy="0" r="7" fill="#0d1117" stroke="#7ea6c9" stroke-width="3" /><circle cx="192" cy="736" r="7" fill="#0d1117" stroke="#7ea6c9" stroke-width="3" /><circle cx="192" cy="736" r="7" fill="#0d1117" stroke="#7ea6c9" stroke-width="3" /><circle cx="864" cy="256" r="7" fill="#0d1117" stroke="#7ea6c9" stroke-width="3" /><circle cx="864" cy="0" r="7" fill="#0d1117" stroke="#7ea6c9" stroke-width="3" /><circle cx="1344" cy="864" r="7" fill="#0d1117" stroke="#7ea6c9" stroke-width="3" /><circle cx="1344" cy="864" r="7" fill="#0d1117" stroke="#7ea6c9" stroke-width="3" /><circle cx="544" cy="192" r="7" fill="#0d1117" stroke="#7ea6c9" stroke-width="3" /><circle cx="544" cy="256" r="7" fill="#0d1117" stroke="#7ea6c9" stroke-width="3" /><circle cx="1408" cy="672" r="7" fill="#0d1117" stroke="#7ea6c9" stroke-width="3" /><circle cx="1120" cy="672" r="7" fill="#0d1117" stroke="#7ea6c9" stroke-width="3" /><circle cx="1184" cy="832" r="7" fill="#0d1117" stroke="#7ea6c9" stroke-width="3" /><circle cx="1184" cy="960" r="7" fill="#0d1117" stroke="#7ea6c9" stroke-width="3" /><circle cx="1472" cy="992" r="7" fill="#0d1117" stroke="#7ea6c9" stroke-width="3" /><circle cx="1120" cy="992" r="7" fill="#0d1117" stroke="#7ea6c9" stroke-width="3" /><circle cx="608" cy="512" r="7" fill="#0d1117" stroke="#7ea6c9" stroke-width="3" /><circle cx="608" cy="512" r="7" fill="#0d1117" stroke="#7ea6c9" stroke-width="3" /><circle cx="128" cy="928" r="7" fill="#0d1117" stroke="#7ea6c9" stroke-width="3" /><circle cx="288" cy="928" r="7" fill="#0d1117" stroke="#7ea6c9" stroke-width="3" /><circle cx="1440" cy="64" r="7" fill="#0d1117" stroke="#7ea6c9" stroke-width="3" /><circle cx="1440" cy="0" r="7" fill="#0d1117" stroke="#7ea6c9" stroke-width="3" /><circle cx="192" cy="224" r="7" fill="#0d1117" stroke="#7ea6c9" stroke-width="3" /><circle cx="448" cy="224" r="7" fill="#0d1117" stroke="#7ea6c9" stroke-width="3" /><circle cx="224" cy="128" r="7" fill="#0d1117" stroke="#7ea6c9" stroke-width="3" /><circle cx="224" cy="0" r="7" fill="#0d1117" stroke="#7ea6c9" stroke-width="3" /><circle cx="640" cy="928" r="7" fill="#0d1117" stroke="#7ea6c9" stroke-width="3" /><circle cx="672" cy="928" r="7" fill="#0d1117" stroke="#7ea6c9" stroke-width="3" /><rect x="288" y="320" width="160" height="64" rx="6" fill="#26303d" stroke="#dbe7f0" stroke-width="2" /><rect x="296" y="384" width="6" height="10" fill="#dbe7f0" /><rect x="312" y="384" width="6" height="10" fill="#dbe7f0" /><rect x="328" y="384" width="6" height="10" fill="#dbe7f0" /><rect x="344" y="384" width="6" height="10" fill="#dbe7f0" /><rect x="360" y="384" width="6" height="10" fill="#dbe7f0" /><rect x="376" y="384" width="6" height="10" fill="#dbe7f0" /><rect x="392" y="384" width="6" height="10" fill="#dbe7f0" /><rect x="408" y="384" width="6" height="10" fill="#dbe7f0" /><rect x="424" y="384" width="6" height="10" fill="#dbe7f0" /><rect x="440" y="384" width="6" height="10" fill="#dbe7f0" /><rect x="288" y="64" width="160" height="64" rx="6" fill="#26303d" stroke="#dbe7f0" stroke-width="2" /><rect x="296" y="128" width="6" height="10" fill="#dbe7f0" /><rect x="312" y="128" width="6" height="10" fill="#dbe7f0" /><rect x="328" y="128" width="6" height="10" fill="#dbe7f0" /><rect x="344" y="128" width="6" height="10" fill="#dbe7f0" /><rect x="360" y="128" width="6" height="10" fill="#dbe7f0" /><rect x="376" y="128" width="6" height="10" fill="#dbe7f0" /><rect x="392" y="128" width="6" height="10" fill="#dbe7f0" /><rect x="408" y="128" width="6" height="10" fill="#dbe7f0" /><rect x="424" y="128" width="6" height="10" fill="#dbe7f0" /><rect x="440" y="128" width="6" height="10" fill="#dbe7f0" /><rect x="544" y="704" width="96" height="64" rx="6" fill="#26303d" stroke="#dbe7f0" stroke-width="2" /><rect x="552" y="768" width="6" height="10" fill="#dbe7f0" /><rect x="568" y="768" width="6" height="10" fill="#dbe7f0" /><rect x="584" y="768" width="6" height="10" fill="#dbe7f0" /><rect x="600" y="768" width="6" height="10" fill="#dbe7f0" /><rect x="616" y="768" width="6" height="10" fill="#dbe7f0" /><rect x="632" y="768" width="6" height="10" fill="#dbe7f0" /><rect x="96" y="704" width="128" height="64" rx="6" fill="#26303d" stroke="#dbe7f0" stroke-width="2" /><rect x="104" y="768" width="6" height="10" fill="#dbe7f0" /><rect x="120" y="768" width="6" height="10" fill="#dbe7f0" /><rect x="136" y="768" width="6" height="10" fill="#dbe7f0" /><rect x="152" y="768" width="6" height="10" fill="#dbe7f0" /><rect x="168" y="768" width="6" height="10" fill="#dbe7f0" /><rect x="184" y="768" width="6" height="10" fill="#dbe7f0" /><rect x="200" y="768" width="6" height="10" fill="#dbe7f0" /><rect x="216" y="768" width="6" height="10" fill="#dbe7f0" /><rect x="928" y="320" width="160" height="64" rx="6" fill="#26303d" stroke="#dbe7f0" stroke-width="2" /><rect x="936" y="384" width="6" height="10" fill="#dbe7f0" /><rect x="952" y="384" width="6" height="10" fill="#dbe7f0" /><rect x="968" y="384" width="6" height="10" fill="#dbe7f0" /><rect x="984" y="384" width="6" height="10" fill="#dbe7f0" /><rect x="1000" y="384" width="6" height="10" fill="#dbe7f0" /><rect x="1016" y="384" width="6" height="10" fill="#dbe7f0" /><rect x="1032" y="384" width="6" height="10" fill="#dbe7f0" /><rect x="1048" y="384" width="6" height="10" fill="#dbe7f0" /><rect x="1064" y="384" width="6" height="10" fill="#dbe7f0" /><rect x="1080" y="384" width="6" height="10" fill="#dbe7f0" /><rect x="672" y="448" width="160" height="64" rx="6" fill="#26303d" stroke="#dbe7f0" stroke-width="2" /><rect x="680" y="512" width="6" height="10" fill="#dbe7f0" /><rect x="696" y="512" width="6" height="10" fill="#dbe7f0" /><rect x="712" y="512" width="6" height="10" fill="#dbe7f0" /><rect x="728" y="512" width="6" height="10" fill="#dbe7f0" /><rect x="744" y="512" width="6" height="10" fill="#dbe7f0" /><rect x="760" y="512" width="6" height="10" fill="#dbe7f0" /><rect x="776" y="512" width="6" height="10" fill="#dbe7f0" /><rect x="792" y="512" width="6" height="10" fill="#dbe7f0" /><rect x="808" y="512" width="6" height="10" fill="#dbe7f0" /><rect x="824" y="512" width="6" height="10" fill="#dbe7f0" /></svg>