<svg xmlns="http://www.w3.org/2000/svg" viewBox="0 0 1536 1024" width="1536" height="1024" role="img"><title>Preview banner: fzf-m-the-multi-select-functions-and-the-one-time-</title><rect width="1536" height="1024" fill="#101a14" /><path d="M0 0 L0 1024 M64 0 L64 1024 M128 0 L128 1024 M192 0 L192 1024 M256 0 L256 1024 M320 0 L320 1024 M384 0 L384 1024 M448 0 L448 1024 M512 0 L512 1024 M576 0 L576 1024 M640 0 L640 1024 M704 0 L704 1024 M768 0 L768 1024 M832 0 L832 1024 M896 0 L896 1024 M960 0 L960 1024 M1024 0 L1024 1024 M1088 0 L1088 1024 M1152 0 L1152 1024 M1216 0 L1216 1024 M1280 0 L1280 1024 M1344 0 L1344 1024 M1408 0 L1408 1024 M1472 0 L1472 1024 M1536 0 L1536 1024 M0 0 L1536 0 M0 64 L1536 64 M0 128 L1536 128 M0 192 L1536 192 M0 256 L1536 256 M0 320 L1536 320 M0 384 L1536 384 M0 448 L1536 448 M0 512 L1536 512 M0 576 L1536 576 M0 640 L1536 640 M0 704 L1536 704 M0 768 L1536 768 M0 832 L1536 832 M0 896 L1536 896 M0 960 L1536 960 M0 1024 L1536 1024" stroke="#1b2f22" stroke-width="1" fill="none" stroke-opacity="0.9" /><path d="M1184 832 L1184 864 L1184 960 L1184 1024 L1184 992 L1184 1024 L1184 896" fill="none" stroke="#a3c9a8" stroke-width="4" stroke-opacity="0.85" stroke-linecap="square" stroke-linejoin="miter" /><path d="M320 864 L288 864 L384 864 L480 864 L384 864 L224 864" fill="none" stroke="#a3c9a8" stroke-width="4" stroke-opacity="0.85" stroke-linecap="square" stroke-linejoin="miter" /><path d="M672 832 L672 736 L672 736 L672 704 L672 576 L672 448" fill="none" stroke="#a3c9a8" stroke-width="4" stroke-opacity="0.85" stroke-linecap="square" stroke-linejoin="miter" /><path d="M384 672 L224 672 L192 672 L32 672 L192 672 L192 672 L128 672" fill="none" stroke="#a3c9a8" stroke-width="2" stroke-opacity="0.85" stroke-linecap="square" stroke-linejoin="miter" /><path d="M672 832 L672 928 L672 864 L672 864 L672 736 L672 736 L672 736" fill="none" stroke="#6f9e6f" stroke-width="2" stroke-opacity="0.85" stroke-linecap="square" stroke-linejoin="miter" /><path d="M832 864 L896 864 L960 864 L1120 864" fill="none" stroke="#a3c9a8" stroke-width="2" stroke-opacity="0.85" stroke-linecap="square" stroke-linejoin="miter" /><path d="M1312 448 L1312 352 L1312 352 L1312 256 L1312 256" fill="none" stroke="#a3c9a8" stroke-width="4" stroke-opacity="0.85" stroke-linecap="square" stroke-linejoin="miter" /><path d="M64 96 L0 96 L0 96 L0 96 L0 96 L0 96" fill="none" stroke="#a3c9a8" stroke-width="4" stroke-opacity="0.85" stroke-linecap="square" stroke-linejoin="miter" /><path d="M416 64 L416 0 L416 128 L416 192" fill="none" stroke="#a3c9a8" stroke-width="2" stroke-opacity="0.85" stroke-linecap="square" stroke-linejoin="miter" /><path d="M1280 32 L1152 32 L1056 32 L992 32 L992 32 L1024 32 L1024 32 L1056 32" fill="none" stroke="#a3c9a8" stroke-width="3" stroke-opacity="0.85" stroke-linecap="square" stroke-linejoin="miter" /><path d="M736 128 L736 192 L736 288 L736 288 L736 160 L736 288 L736 192 L736 192" fill="none" stroke="#a3c9a8" stroke-width="4" stroke-opacity="0.85" stroke-linecap="square" stroke-linejoin="miter" /><path d="M1088 96 L1088 96 L1248 96 L1312 96" fill="none" stroke="#6f9e6f" stroke-width="2" stroke-opacity="0.85" stroke-linecap="square" stroke-linejoin="miter" /><path d="M1056 704 L1056 736 L1056 704 L1056 672" fill="none" stroke="#6f9e6f" stroke-width="4" stroke-opacity="0.85" stroke-linecap="square" stroke-linejoin="miter" /><path d="M896 160 L1024 160 L960 160 L1024 160" fill="none" stroke="#6f9e6f" stroke-width="3" stroke-opacity="0.85" stroke-linecap="square" stroke-linejoin="miter" /><path d="M608 0 L608 32 L608 0 L608 96 L608 192 L608 256 L608 192 L608 128" fill="none" stroke="#6f9e6f" stroke-width="3" stroke-opacity="0.85" stroke-linecap="square" stroke-linejoin="miter" /><path d="M960 480 L960 480 L832 480 L960 480 L960 480 L1056 480 L1024 480 L1184 480" fill="none" stroke="#a3c9a8" stroke-width="3" stroke-opacity="0.85" stroke-linecap="square" stroke-linejoin="miter" /><path d="M1184 320 L1184 224 L1184 96 L1184 64 L1184 160" fill="none" stroke="#a3c9a8" stroke-width="4" stroke-opacity="0.85" stroke-linecap="square" stroke-linejoin="miter" /><path d="M960 480 L800 480 L896 480 L896 480 L896 480 L832 480 L704 480" fill="none" stroke="#a3c9a8" stroke-width="3" stroke-opacity="0.85" stroke-linecap="square" stroke-linejoin="miter" /><path d="M1504 384 L1504 320 L1504 288 L1504 384 L1504 512 L1504 608 L1504 576" fill="none" stroke="#a3c9a8" stroke-width="3" stroke-opacity="0.85" stroke-linecap="square" stroke-linejoin="miter" /><path d="M1408 160 L1280 160 L1344 160 L1184 160 L1152 160 L1056 160 L1184 160" fill="none" stroke="#6f9e6f" stroke-width="2" stroke-opacity="0.85" stroke-linecap="square" stroke-linejoin="miter" /><path d="M1184 320 L1184 352 L1184 224 L1184 128 L1184 128 L1184 96 L1184 224 L1184 96" fill="none" stroke="#a3c9a8" stroke-width="4" stroke-opacity="0.85" stroke-linecap="square" stroke-linejoin="miter" /><path d="M1280 32 L1408 32 L1472 32 L1536 32 L1536 32 L1536 32 L1440 32 L1536 32" fill="none" stroke="#a3c9a8" stroke-width="2" stroke-opacity="0.85" stroke-linecap="square" stroke-linejoin="miter" /><path d="M1248 128 L1248 160 L1248 288 L1248 192 L1248 128 L1248 256 L1248 160 L1248 256" fill="none" stroke="#a3c9a8" stroke-width="4" stroke-opacity="0.85" stroke-linecap="square" stroke-linejoin="miter" /><path d="M64 96 L0 96 L0 96 L0 96" fill="none" stroke="#a3c9a8" stroke-width="4" stroke-opacity="0.85" stroke-linecap="square" stroke-linejoin="miter" /><path d="M544 704 L544 704 L544 736 L544 704" fill="none" stroke="#a3c9a8" stroke-width="2" stroke-opacity="0.85" stroke-linecap="square" stroke-linejoin="miter" /><path d="M384 160 L256 160 L160 160 L224 160 L160 160 L320 160" fill="none" stroke="#a3c9a8" stroke-width="4" stroke-opacity="0.85" stroke-linecap="square" stroke-linejoin="miter" /><path d="M480 384 L480 320 L480 448 L480 320 L480 352" fill="none" stroke="#a3c9a8" stroke-width="4" stroke-opacity="0.85" stroke-linecap="square" stroke-linejoin="miter" /><path d="M512 288 L384 288 L384 288 L416 288" fill="none" stroke="#6f9e6f" stroke-width="3" stroke-opacity="0.85" stroke-linecap="square" stroke-linejoin="miter" /><path d="M1248 640 L1248 768 L1248 832 L1248 896 L1248 960 L1248 928 L1248 864" fill="none" stroke="#a3c9a8" stroke-width="3" stroke-opacity="0.85" stroke-linecap="square" stroke-linejoin="miter" /><path d="M128 416 L224 416 L384 416 L416 416 L384 416" fill="none" stroke="#a3c9a8" stroke-width="4" stroke-opacity="0.85" stroke-linecap="square" stroke-linejoin="miter" /><path d="M544 192 L544 192 L544 224 L544 128 L544 64 L544 192 L544 128 L544 256" fill="none" stroke="#6f9e6f" stroke-width="4" stroke-opacity="0.85" stroke-linecap="square" stroke-linejoin="miter" /><path d="M128 416 L256 416 L224 416 L96 416 L0 416 L0 416 L0 416 L0 416" fill="none" stroke="#a3c9a8" stroke-width="2" stroke-opacity="0.85" stroke-linecap="square" stroke-linejoin="miter" /><path d="M608 0 L608 32 L608 0 L608 0 L608 32 L608 128 L608 224" fill="none" stroke="#a3c9a8" stroke-width="3" stroke-opacity="0.85" stroke-linecap="square" stroke-linejoin="miter" /><path d="M1024 288 L1152 288 L1312 288 L1280 288 L1344 288 L1472 288 L1408 288 L1376 288" fill="none" stroke="#6f9e6f" stroke-width="2" stroke-opacity="0.85" stroke-linecap="square" stroke-linejoin="miter" /><path d="M992 384 L992 512 L992 448 L992 384 L992 256 L992 384 L992 512" fill="none" stroke="#a3c9a8" stroke-width="3" stroke-opacity="0.85" stroke-linecap="square" stroke-linejoin="miter" /><path d="M896 160 L960 160 L992 160 L896 160 L928 160 L1024 160 L1184 160 L1312 160" fill="none" stroke="#a3c9a8" stroke-width="4" stroke-opacity="0.85" stroke-linecap="square" stroke-linejoin="miter" /><path d="M1376 768 L1376 736 L1376 864 L1376 960" fill="none" stroke="#6f9e6f" stroke-width="2" stroke-opacity="0.85" stroke-linecap="square" stroke-linejoin="miter" /><path d="M1472 480 L1504 480 L1408 480 L1472 480 L1440 480 L1376 480 L1472 480" fill="none" stroke="#a3c9a8" stroke-width="2" stroke-opacity="0.85" stroke-linecap="square" stroke-linejoin="miter" /><path d="M480 384 L480 320 L480 448 L480 544 L480 416 L480 288 L480 192" fill="none" stroke="#a3c9a8" stroke-width="3" stroke-opacity="0.85" stroke-linecap="square" stroke-linejoin="miter" /><path d="M384 160 L384 160 L352 160 L320 160 L160 160" fill="none" stroke="#6f9e6f" stroke-width="3" stroke-opacity="0.85" stroke-linecap="square" stroke-linejoin="miter" /><path d="M288 960 L288 992 L288 864 L288 928" fill="none" stroke="#6f9e6f" stroke-width="4" stroke-opacity="0.85" stroke-linecap="square" stroke-linejoin="miter" /><path d="M640 416 L800 416 L832 416 L864 416" fill="none" stroke="#a3c9a8" stroke-width="2" stroke-opacity="0.85" stroke-linecap="square" stroke-linejoin="miter" /><path d="M864 256 L864 352 L864 256 L864 288 L864 416" fill="none" stroke="#6f9e6f" stroke-width="4" stroke-opacity="0.85" stroke-linecap="square" stroke-linejoin="miter" /><path d="M384 672 L224 672 L128 672 L256 672" fill="none" stroke="#a3c9a8" stroke-width="3" stroke-opacity="0.85" stroke-linecap="square" stroke-linejoin="miter" /><path d="M1120 512 L1120 640 L1120 512 L1120 512 L1120 608" fill="none" stroke="#6f9e6f" stroke-width="2" stroke-opacity="0.85" stroke-linecap="square" stroke-linejoin="miter" /><path d="M128 928 L0 928 L96 928 L0 928 L0 928 L64 928 L224 928 L224 928" fill="none" stroke="#a3c9a8" stroke-width="3" stroke-opacity="0.85" stroke-linecap="square" stroke-linejoin="miter" /><path d="M608 512 L608 576 L608 640 L608 736 L608 800 L608 704 L608 672" fill="none" stroke="#a3c9a8" stroke-width="2" stroke-opacity="0.85" stroke-linecap="square" stroke-linejoin="miter" /><path d="M1024 800 L1024 800 L1152 800 L1088 800 L992 800 L928 800 L1056 800 L960 800" fill="none" stroke="#a3c9a8" stroke-width="2" stroke-opacity="0.85" stroke-linecap="square" stroke-linejoin="miter" /><path d="M992 896 L992 864 L992 960 L992 928 L992 992 L992 928 L992 800 L992 800" fill="none" stroke="#a3c9a8" stroke-width="2" stroke-opacity="0.85" stroke-linecap="square" stroke-linejoin="miter" /><path d="M832 864 L992 864 L864 864 L896 864 L1056 864 L1216 864 L1184 864" fill="none" stroke="#6f9e6f" stroke-width="3" stroke-opacity="0.85" stroke-linecap="square" stroke-linejoin="miter" /><path d="M864 256 L864 128 L864 224 L864 224" fill="none" stroke="#a3c9a8" stroke-width="3" stroke-opacity="0.85" stroke-linecap="square" stroke-linejoin="miter" /><path d="M448 992 L384 992 L320 992 L288 992" fill="none" stroke="#6f9e6f" stroke-width="4" stroke-opacity="0.85" stroke-linecap="square" stroke-linejoin="miter" /><path d="M928 64 L928 64 L928 0 L928 64 L928 96 L928 128 L928 224" fill="none" stroke="#a3c9a8" stroke-width="2" stroke-opacity="0.85" stroke-linecap="square" stroke-linejoin="miter" /><path d="M576 96 L608 96 L608 96 L704 96 L704 96 L672 96 L672 96" fill="none" stroke="#a3c9a8" stroke-width="3" stroke-opacity="0.85" stroke-linecap="square" stroke-linejoin="miter" /><path d="M96 512 L96 512 L96 384 L96 288" fill="none" stroke="#6f9e6f" stroke-width="4" stroke-opacity="0.85" stroke-linecap="square" stroke-linejoin="miter" /><path d="M192 224 L352 224 L480 224 L544 224 L576 224 L640 224 L800 224 L960 224" fill="none" stroke="#a3c9a8" stroke-width="2" stroke-opacity="0.85" stroke-linecap="square" stroke-linejoin="miter" /><path d="M1440 64 L1440 0 L1440 128 L1440 96 L1440 224 L1440 128 L1440 256" fill="none" stroke="#6f9e6f" stroke-width="2" stroke-opacity="0.85" stroke-linecap="square" stroke-linejoin="miter" /><path d="M1088 96 L1056 96 L928 96 L896 96 L768 96 L864 96 L800 96 L896 96" fill="none" stroke="#a3c9a8" stroke-width="2" stroke-opacity="0.85" stroke-linecap="square" stroke-linejoin="miter" /><path d="M288 448 L288 384 L288 256 L288 288 L288 192 L288 160 L288 128 L288 256" fill="none" stroke="#a3c9a8" stroke-width="2" stroke-opacity="0.85" stroke-linecap="square" stroke-linejoin="miter" /><path d="M1408 672 L1248 672 L1344 672 L1216 672 L1216 672 L1376 672 L1472 672" fill="none" stroke="#6f9e6f" stroke-width="3" stroke-opacity="0.85" stroke-linecap="square" stroke-linejoin="miter" /><path d="M672 832 L672 960 L672 1024 L672 1024 L672 1024" fill="none" stroke="#a3c9a8" stroke-width="3" stroke-opacity="0.85" stroke-linecap="square" stroke-linejoin="miter" /><path d="M448 992 L608 992 L768 992 L864 992 L768 992 L832 992 L768 992 L768 992" fill="none" stroke="#6f9e6f" stroke-width="4" stroke-opacity="0.85" stroke-linecap="square" stroke-linejoin="miter" /><path d="M1184 832 L1184 800 L1184 864 L1184 960 L1184 832 L1184 800" fill="none" stroke="#6f9e6f" stroke-width="2" stroke-opacity="0.85" stroke-linecap="square" stroke-linejoin="miter" /><path d="M1408 672 L1408 672 L1376 672 L1504 672 L1472 672 L1376 672 L1408 672" fill="none" stroke="#a3c9a8" stroke-width="4" stroke-opacity="0.85" stroke-linecap="square" stroke-linejoin="miter" /><circle cx="1184" cy="832" r="7" fill="#101a14" stroke="#a3c9a8" stroke-width="3" /><circle cx="1184" cy="896" r="7" fill="#101a14" stroke="#a3c9a8" stroke-width="3" /><circle cx="320" cy="864" r="7" fill="#101a14" stroke="#a3c9a8" stroke-width="3" /><circle cx="224" cy="864" r="7" fill="#101a14" stroke="#a3c9a8" stroke-width="3" /><circle cx="672" cy="832" r="7" fill="#101a14" stroke="#a3c9a8" stroke-width="3" /><circle cx="672" cy="448" r="7" fill="#101a14" stroke="#a3c9a8" stroke-width="3" /><circle cx="384" cy="672" r="7" fill="#101a14" stroke="#a3c9a8" stroke-width="3" /><circle cx="128" cy="672" r="7" fill="#101a14" stroke="#a3c9a8" stroke-width="3" /><circle cx="672" cy="832" r="7" fill="#101a14" stroke="#a3c9a8" stroke-width="3" /><circle cx="672" cy="736" r="7" fill="#101a14" stroke="#a3c9a8" stroke-width="3" /><circle cx="832" cy="864" r="7" fill="#101a14" stroke="#a3c9a8" stroke-width="3" /><circle cx="1120" cy="864" r="7" fill="#101a14" stroke="#a3c9a8" stroke-width="3" /><circle cx="1312" cy="448" r="7" fill="#101a14" stroke="#a3c9a8" stroke-width="3" /><circle cx="1312" cy="256" r="7" fill="#101a14" stroke="#a3c9a8" stroke-width="3" /><circle cx="64" cy="96" r="7" fill="#101a14" stroke="#a3c9a8" stroke-width="3" /><circle cx="0" cy="96" r="7" fill="#101a14" stroke="#a3c9a8" stroke-width="3" /><circle cx="416" cy="64" r="7" fill="#101a14" stroke="#a3c9a8" stroke-width="3" /><circle cx="416" cy="192" r="7" fill="#101a14" stroke="#a3c9a8" stroke-width="3" /><circle cx="1280" cy="32" r="7" fill="#101a14" stroke="#a3c9a8" stroke-width="3" /><circle cx="1056" cy="32" r="7" fill="#101a14" stroke="#a3c9a8" stroke-width="3" /><circle cx="736" cy="128" r="7" fill="#101a14" stroke="#a3c9a8" stroke-width="3" /><circle cx="736" cy="192" r="7" fill="#101a14" stroke="#a3c9a8" stroke-width="3" /><circle cx="1088" cy="96" r="7" fill="#101a14" stroke="#a3c9a8" stroke-width="3" /><circle cx="1312" cy="96" r="7" fill="#101a14" stroke="#a3c9a8" stroke-width="3" /><circle cx="1056" cy="704" r="7" fill="#101a14" stroke="#a3c9a8" stroke-width="3" /><circle cx="1056" cy="672" r="7" fill="#101a14" stroke="#a3c9a8" stroke-width="3" /><circle cx="896" cy="160" r="7" fill="#101a14" stroke="#a3c9a8" stroke-width="3" /><circle cx="1024" cy="160" r="7" fill="#101a14" stroke="#a3c9a8" stroke-width="3" /><circle cx="608" cy="0" r="7" fill="#101a14" stroke="#a3c9a8" stroke-width="3" /><circle cx="608" cy="128" r="7" fill="#101a14" stroke="#a3c9a8" stroke-width="3" /><circle cx="960" cy="480" r="7" fill="#101a14" stroke="#a3c9a8" stroke-width="3" /><circle cx="1184" cy="480" r="7" fill="#101a14" stroke="#a3c9a8" stroke-width="3" /><circle cx="1184" cy="320" r="7" fill="#101a14" stroke="#a3c9a8" stroke-width="3" /><circle cx="1184" cy="160" r="7" fill="#101a14" stroke="#a3c9a8" stroke-width="3" /><circle cx="960" cy="480" r="7" fill="#101a14" stroke="#a3c9a8" stroke-width="3" /><circle cx="704" cy="480" r="7" fill="#101a14" stroke="#a3c9a8" stroke-width="3" /><circle cx="1504" cy="384" r="7" fill="#101a14" stroke="#a3c9a8" stroke-width="3" /><circle cx="1504" cy="576" r="7" fill="#101a14" stroke="#a3c9a8" stroke-width="3" /><circle cx="1408" cy="160" r="7" fill="#101a14" stroke="#a3c9a8" stroke-width="3" /><circle cx="1184" cy="160" r="7" fill="#101a14" stroke="#a3c9a8" stroke-width="3" /><circle cx="1184" cy="320" r="7" fill="#101a14" stroke="#a3c9a8" stroke-width="3" /><circle cx="1184" cy="96" r="7" fill="#101a14" stroke="#a3c9a8" stroke-width="3" /><circle cx="1280" cy="32" r="7" fill="#101a14" stroke="#a3c9a8" stroke-width="3" /><circle cx="1536" cy="32" r="7" fill="#101a14" stroke="#a3c9a8" stroke-width="3" /><circle cx="1248" cy="128" r="7" fill="#101a14" stroke="#a3c9a8" stroke-width="3" /><circle cx="1248" cy="256" r="7" fill="#101a14" stroke="#a3c9a8" stroke-width="3" /><circle cx="64" cy="96" r="7" fill="#101a14" stroke="#a3c9a8" stroke-width="3" /><circle cx="0" cy="96" r="7" fill="#101a14" stroke="#a3c9a8" stroke-width="3" /><circle cx="544" cy="704" r="7" fill="#101a14" stroke="#a3c9a8" stroke-width="3" /><circle cx="544" cy="704" r="7" fill="#101a14" stroke="#a3c9a8" stroke-width="3" /><circle cx="384" cy="160" r="7" fill="#101a14" stroke="#a3c9a8" stroke-width="3" /><circle cx="320" cy="160" r="7" fill="#101a14" stroke="#a3c9a8" stroke-width="3" /><circle cx="480" cy="384" r="7" fill="#101a14" stroke="#a3c9a8" stroke-width="3" /><circle cx="480" cy="352" r="7" fill="#101a14" stroke="#a3c9a8" stroke-width="3" /><circle cx="512" cy="288" r="7" fill="#101a14" stroke="#a3c9a8" stroke-width="3" /><circle cx="416" cy="288" r="7" fill="#101a14" stroke="#a3c9a8" stroke-width="3" /><circle cx="1248" cy="640" r="7" fill="#101a14" stroke="#a3c9a8" stroke-width="3" /><circle cx="1248" cy="864" r="7" fill="#101a14" stroke="#a3c9a8" stroke-width="3" /><circle cx="128" cy="416" r="7" fill="#101a14" stroke="#a3c9a8" stroke-width="3" /><circle cx="384" cy="416" r="7" fill="#101a14" stroke="#a3c9a8" stroke-width="3" /><circle cx="544" cy="192" r="7" fill="#101a14" stroke="#a3c9a8" stroke-width="3" /><circle cx="544" cy="256" r="7" fill="#101a14" stroke="#a3c9a8" stroke-width="3" /><circle cx="128" cy="416" r="7" fill="#101a14" stroke="#a3c9a8" stroke-width="3" /><circle cx="0" cy="416" r="7" fill="#101a14" stroke="#a3c9a8" stroke-width="3" /><circle cx="608" cy="0" r="7" fill="#101a14" stroke="#a3c9a8" stroke-width="3" /><circle cx="608" cy="224" r="7" fill="#101a14" stroke="#a3c9a8" stroke-width="3" /><circle cx="1024" cy="288" r="7" fill="#101a14" stroke="#a3c9a8" stroke-width="3" /><circle cx="1376" cy="288" r="7" fill="#101a14" stroke="#a3c9a8" stroke-width="3" /><circle cx="992" cy="384" r="7" fill="#101a14" stroke="#a3c9a8" stroke-width="3" /><circle cx="992" cy="512" r="7" fill="#101a14" stroke="#a3c9a8" stroke-width="3" /><circle cx="896" cy="160" r="7" fill="#101a14" stroke="#a3c9a8" stroke-width="3" /><circle cx="1312" cy="160" r="7" fill="#101a14" stroke="#a3c9a8" stroke-width="3" /><circle cx="1376" cy="768" r="7" fill="#101a14" stroke="#a3c9a8" stroke-width="3" /><circle cx="1376" cy="960" r="7" fill="#101a14" stroke="#a3c9a8" stroke-width="3" /><circle cx="1472" cy="480" r="7" fill="#101a14" stroke="#a3c9a8" stroke-width="3" /><circle cx="1472" cy="480" r="7" fill="#101a14" stroke="#a3c9a8" stroke-width="3" /><circle cx="480" cy="384" r="7" fill="#101a14" stroke="#a3c9a8" stroke-width="3" /><circle cx="480" cy="192" r="7" fill="#101a14" stroke="#a3c9a8" stroke-width="3" /><circle cx="384" cy="160" r="7" fill="#101a14" stroke="#a3c9a8" stroke-width="3" /><circle cx="160" cy="160" r="7" fill="#101a14" stroke="#a3c9a8" stroke-width="3" /><circle cx="288" cy="960" r="7" fill="#101a14" stroke="#a3c9a8" stroke-width="3" /><circle cx="288" cy="928" r="7" fill="#101a14" stroke="#a3c9a8" stroke-width="3" /><circle cx="640" cy="416" r="7" fill="#101a14" stroke="#a3c9a8" stroke-width="3" /><circle cx="864" cy="416" r="7" fill="#101a14" stroke="#a3c9a8" stroke-width="3" /><circle cx="864" cy="256" r="7" fill="#101a14" stroke="#a3c9a8" stroke-width="3" /><circle cx="864" cy="416" r="7" fill="#101a14" stroke="#a3c9a8" stroke-width="3" /><circle cx="384" cy="672" r="7" fill="#101a14" stroke="#a3c9a8" stroke-width="3" /><circle cx="256" cy="672" r="7" fill="#101a14" stroke="#a3c9a8" stroke-width="3" /><circle cx="1120" cy="512" r="7" fill="#101a14" stroke="#a3c9a8" stroke-width="3" /><circle cx="1120" cy="608" r="7" fill="#101a14" stroke="#a3c9a8" stroke-width="3" /><circle cx="128" cy="928" r="7" fill="#101a14" stroke="#a3c9a8" stroke-width="3" /><circle cx="224" cy="928" r="7" fill="#101a14" stroke="#a3c9a8" stroke-width="3" /><circle cx="608" cy="512" r="7" fill="#101a14" stroke="#a3c9a8" stroke-width="3" /><circle cx="608" cy="672" r="7" fill="#101a14" stroke="#a3c9a8" stroke-width="3" /><circle cx="1024" cy="800" r="7" fill="#101a14" stroke="#a3c9a8" stroke-width="3" /><circle cx="960" cy="800" r="7" fill="#101a14" stroke="#a3c9a8" stroke-width="3" /><circle cx="992" cy="896" r="7" fill="#101a14" stroke="#a3c9a8" stroke-width="3" /><circle cx="992" cy="800" r="7" fill="#101a14" stroke="#a3c9a8" stroke-width="3" /><circle cx="832" cy="864" r="7" fill="#101a14" stroke="#a3c9a8" stroke-width="3" /><circle cx="1184" cy="864" r="7" fill="#101a14" stroke="#a3c9a8" stroke-width="3" /><circle cx="864" cy="256" r="7" fill="#101a14" stroke="#a3c9a8" stroke-width="3" /><circle cx="864" cy="224" r="7" fill="#101a14" stroke="#a3c9a8" stroke-width="3" /><circle cx="448" cy="992" r="7" fill="#101a14" stroke="#a3c9a8" stroke-width="3" /><circle cx="288" cy="992" r="7" fill="#101a14" stroke="#a3c9a8" stroke-width="3" /><circle cx="928" cy="64" r="7" fill="#101a14" stroke="#a3c9a8" stroke-width="3" /><circle cx="928" cy="224" r="7" fill="#101a14" stroke="#a3c9a8" stroke-width="3" /><circle cx="576" cy="96" r="7" fill="#101a14" stroke="#a3c9a8" stroke-width="3" /><circle cx="672" cy="96" r="7" fill="#101a14" stroke="#a3c9a8" stroke-width="3" /><circle cx="96" cy="512" r="7" fill="#101a14" stroke="#a3c9a8" stroke-width="3" /><circle cx="96" cy="288" r="7" fill="#101a14" stroke="#a3c9a8" stroke-width="3" /><circle cx="192" cy="224" r="7" fill="#101a14" stroke="#a3c9a8" stroke-width="3" /><circle cx="960" cy="224" r="7" fill="#101a14" stroke="#a3c9a8" stroke-width="3" /><circle cx="1440" cy="64" r="7" fill="#101a14" stroke="#a3c9a8" stroke-width="3" /><circle cx="1440" cy="256" r="7" fill="#101a14" stroke="#a3c9a8" stroke-width="3" /><circle cx="1088" cy="96" r="7" fill="#101a14" stroke="#a3c9a8" stroke-width="3" /><circle cx="896" cy="96" r="7" fill="#101a14" stroke="#a3c9a8" stroke-width="3" /><circle cx="288" cy="448" r="7" fill="#101a14" stroke="#a3c9a8" stroke-width="3" /><circle cx="288" cy="256" r="7" fill="#101a14" stroke="#a3c9a8" stroke-width="3" /><circle cx="1408" cy="672" r="7" fill="#101a14" stroke="#a3c9a8" stroke-width="3" /><circle cx="1472" cy="672" r="7" fill="#101a14" stroke="#a3c9a8" stroke-width="3" /><circle cx="672" cy="832" r="7" fill="#101a14" stroke="#a3c9a8" stroke-width="3" /><circle cx="672" cy="1024" r="7" fill="#101a14" stroke="#a3c9a8" stroke-width="3" /><circle cx="448" cy="992" r="7" fill="#101a14" stroke="#a3c9a8" stroke-width="3" /><circle cx="768" cy="992" r="7" fill="#101a14" stroke="#a3c9a8" stroke-width="3" /><circle cx="1184" cy="832" r="7" fill="#101a14" stroke="#a3c9a8" stroke-width="3" /><circle cx="1184" cy="800" r="7" fill="#101a14" stroke="#a3c9a8" stroke-width="3" /><circle cx="1408" cy="672" r="7" fill="#101a14" stroke="#a3c9a8" stroke-width="3" /><circle cx="1408" cy="672" r="7" fill="#101a14" stroke="#a3c9a8" stroke-width="3" /><rect x="1184" y="704" width="96" height="64" rx="6" fill="#2f5d3f" stroke="#e9edc9" stroke-width="2" /><rect x="1192" y="768" width="6" height="10" fill="#e9edc9" /><rect x="1208" y="768" width="6" height="10" fill="#e9edc9" /><rect x="1224" y="768" width="6" height="10" fill="#e9edc9" /><rect x="1240" y="768" width="6" height="10" fill="#e9edc9" /><rect x="1256" y="768" width="6" height="10" fill="#e9edc9" /><rect x="1272" y="768" width="6" height="10" fill="#e9edc9" /><rect x="1056" y="576" width="96" height="64" rx="6" fill="#2f5d3f" stroke="#e9edc9" stroke-width="2" /><rect x="1064" y="640" width="6" height="10" fill="#e9edc9" /><rect x="1080" y="640" width="6" height="10" fill="#e9edc9" /><rect x="1096" y="640" width="6" height="10" fill="#e9edc9" /><rect x="1112" y="640" width="6" height="10" fill="#e9edc9" /><rect x="1128" y="640" width="6" height="10" fill="#e9edc9" /><rect x="1144" y="640" width="6" height="10" fill="#e9edc9" /><rect x="416" y="192" width="160" height="64" rx="6" fill="#2f5d3f" stroke="#e9edc9" stroke-width="2" /><rect x="424" y="256" width="6" height="10" fill="#e9edc9" /><rect x="440" y="256" width="6" height="10" fill="#e9edc9" /><rect x="456" y="256" width="6" height="10" fill="#e9edc9" /><rect x="472" y="256" width="6" height="10" fill="#e9edc9" /><rect x="488" y="256" width="6" height="10" fill="#e9edc9" /><rect x="504" y="256" width="6" height="10" fill="#e9edc9" /><rect x="520" y="256" width="6" height="10" fill="#e9edc9" /><rect x="536" y="256" width="6" height="10" fill="#e9edc9" /><rect x="552" y="256" width="6" height="10" fill="#e9edc9" /><rect x="568" y="256" width="6" height="10" fill="#e9edc9" /><rect x="416" y="448" width="160" height="64" rx="6" fill="#2f5d3f" stroke="#e9edc9" stroke-width="2" /><rect x="424" y="512" width="6" height="10" fill="#e9edc9" /><rect x="440" y="512" width="6" height="10" fill="#e9edc9" /><rect x="456" y="512" width="6" height="10" fill="#e9edc9" /><rect x="472" y="512" width="6" height="10" fill="#e9edc9" /><rect x="488" y="512" width="6" height="10" fill="#e9edc9" /><rect x="504" y="512" width="6" height="10" fill="#e9edc9" /><rect x="520" y="512" width="6" height="10" fill="#e9edc9" /><rect x="536" y="512" width="6" height="10" fill="#e9edc9" /><rect x="552" y="512" width="6" height="10" fill="#e9edc9" /><rect x="568" y="512" width="6" height="10" fill="#e9edc9" /><rect x="288" y="448" width="96" height="64" rx="6" fill="#2f5d3f" stroke="#e9edc9" stroke-width="2" /><rect x="296" y="512" width="6" height="10" fill="#e9edc9" /><rect x="312" y="512" width="6" height="10" fill="#e9edc9" /><rect x="328" y="512" width="6" height="10" fill="#e9edc9" /><rect x="344" y="512" width="6" height="10" fill="#e9edc9" /><rect x="360" y="512" width="6" height="10" fill="#e9edc9" /><rect x="376" y="512" width="6" height="10" fill="#e9edc9" /><rect x="480" y="64" width="160" height="64" rx="6" fill="#2f5d3f" stroke="#e9edc9" stroke-width="2" /><rect x="488" y="128" width="6" height="10" fill="#e9edc9" /><rect x="504" y="128" width="6" height="10" fill="#e9edc9" /><rect x="520" y="128" width="6" height="10" fill="#e9edc9" /><rect x="536" y="128" width="6" height="10" fill="#e9edc9" /><rect x="552" y="128" width="6" height="10" fill="#e9edc9" /><rect x="568" y="128" width="6" height="10" fill="#e9edc9" /><rect x="584" y="128" width="6" height="10" fill="#e9edc9" /><rect x="600" y="128" width="6" height="10" fill="#e9edc9" /><rect x="616" y="128" width="6" height="10" fill="#e9edc9" /><rect x="632" y="128" width="6" height="10" fill="#e9edc9" /></svg>