<svg xmlns="http://www.w3.org/2000/svg" viewBox="0 0 1536 1024" width="1536" height="1024" role="img" aria-labelledby="t d" data-generator="trace-bloom/1" data-seed="1678899755">
<title id="t">How the Robot Picks What to Write Next (and When It Refuses)</title>
<desc id="d">Trace Bloom generative banner for “How the Robot Picks What to Write Next (and When It Refuses)”. A isometric lattice probed by 3 emitters; interference blooms mark where the wavefronts meet. Seed 1678899755.</desc>
<style>
@keyframes tb-sweep{from{opacity:.3}to{opacity:1}}
@keyframes tb-breathe{0%,100%{opacity:.68}50%{opacity:1}}
@keyframes tb-probe{0%,100%{opacity:.6}50%{opacity:1}}
.sig{animation:tb-sweep .7s cubic-bezier(.2,.7,.3,1) both}
.b0{animation-delay:0.00s}.b1{animation-delay:0.19s}.b2{animation-delay:0.37s}.b3{animation-delay:0.56s}.b4{animation-delay:0.74s}.b5{animation-delay:0.93s}.b6{animation-delay:1.11s}.b7{animation-delay:1.30s}.b8{animation-delay:1.49s}.b9{animation-delay:1.67s}.b10{animation-delay:1.86s}.b11{animation-delay:2.04s}.b12{animation-delay:2.23s}.b13{animation-delay:2.41s}
.bloom{animation:tb-breathe 7s ease-in-out infinite}
.probe{animation:tb-probe 4.2s ease-in-out infinite}
@media (prefers-reduced-motion:reduce){
.sig,.bloom,.probe{animation:none!important;opacity:1!important}
}</style>
<defs>
<linearGradient id="bg" x1="0" y1="0" x2="1" y2="1">
<stop offset="0" stop-color="#040a12"/><stop offset="1" stop-color="#0a1526"/></linearGradient>
<linearGradient id="scrim" x1="0" y1="0" x2="1" y2="0">
<stop offset="0" stop-color="#040a12" stop-opacity="0.94"/>
<stop offset="0.38" stop-color="#040a12" stop-opacity="0.8"/>
<stop offset="0.72" stop-color="#040a12" stop-opacity="0.12"/>
<stop offset="0.9" stop-color="#040a12" stop-opacity="0"/></linearGradient>
<linearGradient id="floor" x1="0" y1="1" x2="0" y2="0">
<stop offset="0" stop-color="#040a12" stop-opacity="0.5"/>
<stop offset="0.46" stop-color="#040a12" stop-opacity="0"/></linearGradient>
<radialGradient id="bc">
<stop offset="0" stop-color="#38bdf8" stop-opacity="0.95"/>
<stop offset="0.18" stop-color="#38bdf8" stop-opacity="0.5"/>
<stop offset="0.5" stop-color="#38bdf8" stop-opacity="0.14"/>
<stop offset="1" stop-color="#38bdf8" stop-opacity="0"/></radialGradient>
<radialGradient id="bw">
<stop offset="0" stop-color="#818cf8" stop-opacity="0.95"/>
<stop offset="0.18" stop-color="#818cf8" stop-opacity="0.5"/>
<stop offset="0.5" stop-color="#818cf8" stop-opacity="0.14"/>
<stop offset="1" stop-color="#818cf8" stop-opacity="0"/></radialGradient>
<pattern id="scan" width="4" height="4" patternUnits="userSpaceOnUse">
<rect width="4" height="1" fill="#040a12" opacity="0.22"/></pattern>
</defs>
<rect width="1536" height="1024" fill="url(#bg)"/>
<path d="M327.7 54.8L403 72.1M327.7 54.8L300.5 97.4M403 72.1L471.2 87.9M403 72.1L374.6 113.3M403 72.1L442.1 126.8M539.9 106.4L506.5 143.7M539.9 106.4L574.5 159.2M603.1 118.8L574.5 159.2M672.7 135L748.1 151.5M672.7 135L644.9 175.3M748.1 151.5L814.9 171.4M748.1 151.5L720.1 191.9M748.1 151.5L784 213.9M814.9 171.4L880.7 191.1M814.9 171.4L784 213.9M880.7 191.1L922.8 250.3M948.4 209L1017.7 221.7M1094.1 237.1L1166.9 252.9M1094.1 237.1L1139.3 292.9M1166.9 252.9L1139.3 292.9M1236.9 273.8L1202.1 313.5M1300 288L1368.6 303.6M1300 288L1333.8 348M1368.6 303.6L1436 319.3M1368.6 303.6L1333.8 348M1436 319.3L1405.5 365M1586.2 347.1L1549.2 393M1586.2 347.1L1624.9 408.8M1653 367.1L1624.9 408.8M300.5 97.4L374.6 113.3M300.5 97.4L343.8 151.2M374.6 113.3L442.1 126.8M442.1 126.8L506.5 143.7M506.5 143.7L574.5 159.2M506.5 143.7L477.7 183M644.9 175.3L684.3 234.4M720.1 191.9L684.3 234.4M853 234.5L922.8 250.3M853 234.5L896.7 291M922.8 250.3L991.3 263.2M1066.8 277.1L1139.3 292.9M1066.8 277.1L1040.4 317.9M1139.3 292.9L1202.1 313.5M1202.1 313.5L1267.3 330.7M1202.1 313.5L1238 368.8M1267.3 330.7L1333.8 348M1333.8 348L1309.6 389.2M1405.5 365L1472.2 377.7M1405.5 365L1375.9 406.3M1472.2 377.7L1549.2 393M1472.2 377.7L1443.7 420.5M1549.2 393L1515 444.2M1549.2 393L1595.3 457.5M268.7 134.6L343.8 151.2M343.8 151.2L312.2 188.6M343.8 151.2L384.6 204.1M411.4 164.1L477.7 183M477.7 183L548.1 200.5M477.7 183L451.6 223.9M612.7 219.8L684.3 234.4M612.7 219.8L583.9 259.6M684.3 234.4L651.8 272.8M755.1 253.9L826.8 274.7M826.8 274.7L896.7 291M826.8 274.7L867.4 329.8M896.7 291L867.4 329.8M966.9 305.6L1040.4 317.9M1040.4 317.9L1109 331.3M1109 331.3L1171.4 351.2M1109 331.3L1077.6 369.9M1109 331.3L1139.8 387.2M1238 368.8L1309.6 389.2M1238 368.8L1285 429.1M1375.9 406.3L1353.5 448.4M1443.7 420.5L1417.2 464.2M1443.7 420.5L1486.5 479.5M1515 444.2L1595.3 457.5M1515 444.2L1560.3 494M1595.3 457.5L1560.3 494M239.1 174L312.2 188.6M239.1 174L282.8 227.8M312.2 188.6L282.8 227.8M312.2 188.6L353.5 241.3M384.6 204.1L451.6 223.9M451.6 223.9L518.4 245M518.4 245L483.1 279.9M651.8 272.8L728.1 293.3M651.8 272.8L621.6 311M651.8 272.8L695.5 327.7M728.1 293.3L695.5 327.7M799.9 313.8L867.4 329.8M867.4 329.8L934.9 343.9M867.4 329.8L834.2 368M867.4 329.8L902.5 384.8M934.9 343.9L1006.7 356.4M934.9 343.9L902.5 384.8M934.9 343.9L975.1 396.5M1006.7 356.4L1077.6 369.9M1006.7 356.4L975.1 396.5M1006.7 356.4L1044 412.1M1077.6 369.9L1139.8 387.2M1139.8 387.2L1210.7 407.6M1139.8 387.2L1182.3 445.3M1210.7 407.6L1285 429.1M1285 429.1L1255.4 465.5M1353.5 448.4L1417.2 464.2M1353.5 448.4L1323.2 483.7M1353.5 448.4L1389.6 501.6M1417.2 464.2L1389.6 501.6M1486.5 479.5L1560.3 494M1486.5 479.5L1461.3 517.4M1560.3 494L1531.9 531.1M211.7 214.7L282.8 227.8M211.7 214.7L180.4 253.1M211.7 214.7L251.8 268.4M282.8 227.8L353.5 241.3M282.8 227.8L251.8 268.4M353.5 241.3L417.5 259M353.5 241.3L324.6 283.5M417.5 259L483.1 279.9M417.5 259L391.1 301.1M417.5 259L455.4 320.8M483.1 279.9L553.5 298.8M483.1 279.9L455.4 320.8M553.5 298.8L598 353.7M621.6 311L695.5 327.7M695.5 327.7L770.2 350.9M695.5 327.7L672.6 370.3M770.2 350.9L834.2 368M770.2 350.9L741.9 390.2M770.2 350.9L810.7 410.5M834.2 368L810.7 410.5M902.5 384.8L975.1 396.5M902.5 384.8L875.2 426.8M975.1 396.5L1044 412.1M1044 412.1L1112.7 426.8M1044 412.1L1017.4 453.3M1112.7 426.8L1182.3 445.3M1112.7 426.8L1083.5 465.6M1182.3 445.3L1156.2 485.2M1255.4 465.5L1323.2 483.7M1255.4 465.5L1229 504.8M1323.2 483.7L1389.6 501.6M1323.2 483.7L1298.8 524.4M1461.3 517.4L1531.9 531.1M1461.3 517.4L1436.1 556.3M1461.3 517.4L1508.3 571.5M1531.9 531.1L1508.3 571.5M180.4 253.1L152.7 293.5M180.4 253.1L218.1 306.5M324.6 283.5L293.7 321.6M324.6 283.5L364.1 342.8M527 340.2L598 353.7M527 340.2L498.7 382.6M672.6 370.3L708.5 427.4M741.9 390.2L810.7 410.5M741.9 390.2L708.5 427.4M810.7 410.5L875.2 426.8M810.7 410.5L776.9 445.3M875.2 426.8L946.9 440M875.2 426.8L848.2 466.1M875.2 426.8L919.2 480.1M946.9 440L1017.4 453.3M946.9 440L919.2 480.1M1017.4 453.3L985.5 493M1229 504.8L1199.4 543M1363.1 540.3L1436.1 556.3M1363.1 540.3L1336.8 580.5M1436.1 556.3L1508.3 571.5M1436.1 556.3L1407.8 594.4M1508.3 571.5L1477.9 613.5M218.1 306.5L293.7 321.6M218.1 306.5L187.9 345.2M293.7 321.6L263.5 363.3M364.1 342.8L402.1 402.9M431.1 365.1L498.7 382.6M431.1 365.1L471.1 421.8M498.7 382.6L569.6 395M498.7 382.6L471.1 421.8M569.6 395L641.3 411.6M569.6 395L541.6 435.9M569.6 395L609.7 451.1M641.3 411.6L708.5 427.4M641.3 411.6L609.7 451.1M708.5 427.4L776.9 445.3M708.5 427.4L677.5 465.5M776.9 445.3L848.2 466.1M848.2 466.1L818 502.8M919.2 480.1L886 515.7M985.5 493L1052.5 507.1M985.5 493L953.5 530.2M1052.5 507.1L1127.3 524.2M1052.5 507.1L1019.6 549M1127.3 524.2L1096 567.3M1199.4 543L1167.2 583.7M1270.7 563.8L1336.8 580.5M1270.7 563.8L1240.7 604.7M1270.7 563.8L1305.1 621.9M1336.8 580.5L1407.8 594.4M1407.8 594.4L1375.2 633.5M1407.8 594.4L1441.9 649.1M1477.9 613.5L1441.9 649.1M122.9 333.1L187.9 345.2M122.9 333.1L93.9 372.7M122.9 333.1L157.6 383.8M187.9 345.2L263.5 363.3M187.9 345.2L157.6 383.8M332.4 380.4L402.1 402.9M332.4 380.4L300.6 417.8M471.1 421.8L437.5 454.5M471.1 421.8L506.4 469.9M541.6 435.9L506.4 469.9M609.7 451.1L677.5 465.5M609.7 451.1L577.2 488.1M747.2 483.8L716.4 521.6M747.2 483.8L787.6 540.1M818 502.8L787.6 540.1M886 515.7L854.9 553.3M953.5 530.2L1019.6 549M953.5 530.2L920.6 566.9M1019.6 549L1096 567.3M1019.6 549L989 587.3M1096 567.3L1167.2 583.7M1096 567.3L1064.9 610.3M1167.2 583.7L1240.7 604.7M1167.2 583.7L1208.1 647.8M1240.7 604.7L1208.1 647.8M1240.7 604.7L1274.9 662M1305.1 621.9L1375.2 633.5M1305.1 621.9L1341.7 672.6M1375.2 633.5L1441.9 649.1M1375.2 633.5L1341.7 672.6M93.9 372.7L157.6 383.8M93.9 372.7L128.3 427.2M157.6 383.8L128.3 427.2M229.3 400.1L300.6 417.8M229.3 400.1L201 444.5M300.6 417.8L370.6 438.4M370.6 438.4L437.5 454.5M370.6 438.4L341.4 476.8M437.5 454.5L506.4 469.9M506.4 469.9L577.2 488.1M506.4 469.9L477.5 509.5M577.2 488.1L643.4 504.2M577.2 488.1L545.3 525.4M643.4 504.2L716.4 521.6M716.4 521.6L687.8 561.4M787.6 540.1L854.9 553.3M787.6 540.1L763 582.3M854.9 553.3L920.6 566.9M854.9 553.3L826 594.5M854.9 553.3L895.7 609.5M920.6 566.9L895.7 609.5M1064.9 610.3L1108.5 668M1135.8 626.2L1208.1 647.8M1135.8 626.2L1108.5 668M1208.1 647.8L1274.9 662M1208.1 647.8L1178.6 687.1M1274.9 662L1341.7 672.6M1274.9 662L1248.2 702.9M1341.7 672.6L1408.7 685.1M63.3 413.1L128.3 427.2M128.3 427.2L99.4 467.6M128.3 427.2L170.9 488.9M201 444.5L272 459.9M201 444.5L170.9 488.9M272 459.9L341.4 476.8M341.4 476.8L413.5 494.8M341.4 476.8L385.9 534M413.5 494.8L477.5 509.5M413.5 494.8L453.4 552.4M477.5 509.5L453.4 552.4M477.5 509.5L519.2 568.4M545.3 525.4L611.2 543.2M545.3 525.4L519.2 568.4M611.2 543.2L687.8 561.4M611.2 543.2L587.7 585.8M687.8 561.4L763 582.3M687.8 561.4L732.1 622.4M763 582.3L826 594.5M763 582.3L732.1 622.4M826 594.5L865.5 649.9M895.7 609.5L962.3 631.4M895.7 609.5L865.5 649.9M895.7 609.5L936.2 671.6M962.3 631.4L1035.9 649.6M1035.9 649.6L1009.9 690.2M1108.5 668L1178.6 687.1M1108.5 668L1080.2 708.1M1178.6 687.1L1248.2 702.9M1248.2 702.9L1217.6 741.2M1315.3 712.8L1386.8 728.3M1315.3 712.8L1288.9 753.6M31 449.9L99.4 467.6M31 449.9L8.2 492.7M31 449.9L71.6 510.8M99.4 467.6L170.9 488.9M99.4 467.6L137.8 530.3M170.9 488.9L240.5 504.2M240.5 504.2L209.9 546.2M240.5 504.2L283.6 557.4M313.5 516.8L385.9 534M313.5 516.8L283.6 557.4M313.5 516.8L359.7 576M453.4 552.4L519.2 568.4M453.4 552.4L426 596.5M519.2 568.4L587.7 585.8M587.7 585.8L661.9 603.1M587.7 585.8L560.6 625.6M661.9 603.1L629.9 642.3M732.1 622.4L801.4 637.8M732.1 622.4L699.3 658.8M732.1 622.4L768.6 673.4M801.4 637.8L865.5 649.9M865.5 649.9L936.2 671.6M865.5 649.9L903.8 706.8M1009.9 690.2L1080.2 708.1M1009.9 690.2L976.4 725.1M1009.9 690.2L1044.1 742.2M1148.3 727.1L1217.6 741.2M1217.6 741.2L1288.9 753.6M1217.6 741.2L1184.4 778.9M1288.9 753.6L1358.1 767.5M1288.9 753.6L1255.2 792.5M8.2 492.7L71.6 510.8M8.2 492.7L-19.4 532.9M71.6 510.8L112.8 570.7M137.8 530.3L209.9 546.2M137.8 530.3L112.8 570.7M283.6 557.4L359.7 576M359.7 576L426 596.5M359.7 576L327.1 619.2M491.5 608.8L560.6 625.6M560.6 625.6L629.9 642.3M560.6 625.6L531.6 664.1M629.9 642.3L699.3 658.8M629.9 642.3L599.8 679.9M699.3 658.8L666.7 696.6M768.6 673.4L835 687.5M768.6 673.4L737.1 710.4M768.6 673.4L803.2 724.1M835 687.5L903.8 706.8M835 687.5L803.2 724.1M903.8 706.8L976.4 725.1M903.8 706.8L946.5 763.5M976.4 725.1L1013.2 781.1M1044.1 742.2L1116.2 764.3M1044.1 742.2L1084 801.2M1116.2 764.3L1084 801.2M1184.4 778.9L1151.3 816.2M1255.2 792.5L1329.5 807.1M1255.2 792.5L1294 841M1329.5 807.1L1294 841M-19.4 532.9L-51.5 571.6M45 551.6L112.8 570.7M45 551.6L79.7 604.4M112.8 570.7L182.3 586.3M182.3 586.3L256.6 603.9M256.6 603.9L228.6 644.2M327.1 619.2L396.1 638.3M327.1 619.2L296.6 657.6M396.1 638.3L362.1 675.5M464.4 649.8L531.6 664.1M531.6 664.1L575.8 721.9M666.7 696.6L737.1 710.4M666.7 696.6L644.6 740.5M666.7 696.6L711.7 752.6M737.1 710.4L803.2 724.1M737.1 710.4L711.7 752.6M737.1 710.4L779.5 766.8M875 745.3L946.5 763.5M875 745.3L923.7 807.6M946.5 763.5L1013.2 781.1M946.5 763.5L923.7 807.6M1084 801.2L1151.3 816.2M1084 801.2L1056.8 841.9M1151.3 816.2L1220.6 827.2M1151.3 816.2L1125.9 857.5M1220.6 827.2L1193.6 868.7M-51.5 571.6L12.9 587.6M-51.5 571.6L-82.1 610.3M12.9 587.6L79.7 604.4M12.9 587.6L-17.7 625.5M79.7 604.4L151.6 623.7M79.7 604.4L50 642.3M79.7 604.4L124.5 663.7M151.6 623.7L228.6 644.2M151.6 623.7L124.5 663.7M296.6 657.6L265.3 696.5M296.6 657.6L332.5 715.2M362.1 675.5L430.5 689.4M362.1 675.5L332.5 715.2M430.5 689.4L402.9 728.9M502.8 703.3L474.2 742.9M575.8 721.9L644.6 740.5M644.6 740.5L711.7 752.6M644.6 740.5L683.6 795.4M711.7 752.6L779.5 766.8M711.7 752.6L683.6 795.4M779.5 766.8L852.4 787.9M852.4 787.9L923.7 807.6M852.4 787.9L821.4 824.8M923.7 807.6L988.5 823.2M923.7 807.6L891.7 845M923.7 807.6L960.4 862.8M988.5 823.2L1030 883.7M1056.8 841.9L1125.9 857.5M1056.8 841.9L1030 883.7M1125.9 857.5L1099.4 898.3M1193.6 868.7L1264.6 881.8M1193.6 868.7L1166.5 911.4M1193.6 868.7L1235.6 926.5M1264.6 881.8L1235.6 926.5M-82.1 610.3L-17.7 625.5M-82.1 610.3L-115.9 654.5M-17.7 625.5L50 642.3M50 642.3L124.5 663.7M50 642.3L20.9 682.9M124.5 663.7L197.9 681.8M124.5 663.7L90.9 698.9M197.9 681.8L161.9 714.9M197.9 681.8L236.5 737.2M265.3 696.5L236.5 737.2M265.3 696.5L305.1 755.9M332.5 715.2L402.9 728.9M332.5 715.2L305.1 755.9M402.9 728.9L378.1 770.6M474.2 742.9L449.8 785.3M474.2 742.9L518.1 801.6M549.2 763.2L612 781M612 781L582.8 821.7M683.6 795.4L650.9 835.5M683.6 795.4L721.9 848M751.9 809.1L721.9 848M821.4 824.8L891.7 845M821.4 824.8L862 884.1M960.4 862.8L999.6 923.3M1030 883.7L1099.4 898.3M1099.4 898.3L1166.5 911.4M1099.4 898.3L1141.7 957.5M1166.5 911.4L1235.6 926.5M1166.5 911.4L1141.7 957.5M1235.6 926.5L1212 969.6M-115.9 654.5L-49.3 668.1M20.9 682.9L90.9 698.9M90.9 698.9L161.9 714.9M236.5 737.2L305.1 755.9M378.1 770.6L449.8 785.3M518.1 801.6L582.8 821.7M582.8 821.7L650.9 835.5M650.9 835.5L721.9 848M721.9 848L792.3 863.8" stroke="#17304f" stroke-width="1.5" fill="none" stroke-opacity="0.95"/>
<path class="sig b0" d="M1193.6 868.7L1264.6 881.8M1193.6 868.7L1166.5 911.4M1193.6 868.7L1235.6 926.5" stroke="#808bf6" stroke-width="4.4" stroke-opacity="1" fill="none" stroke-linecap="round"/>
<path class="sig b0" d="M1166.9 252.9L1139.3 292.9M768.6 673.4L737.1 710.4M835 687.5L903.8 706.8" stroke="#309dd1" stroke-width="2.6" stroke-opacity="0.85" fill="none" stroke-linecap="round"/>
<path class="sig b0" d="M1264.6 881.8L1235.6 926.5M1166.5 911.4L1235.6 926.5M1235.6 926.5L1212 969.6" stroke="#6977d1" stroke-width="2.6" stroke-opacity="0.85" fill="none" stroke-linecap="round"/>
<path class="sig b0" d="M1066.8 277.1L1139.3 292.9M1139.3 292.9L1202.1 313.5M768.6 673.4L835 687.5M835 687.5L803.2 724.1M737.1 710.4L803.2 724.1" stroke="#297eac" stroke-width="1.7" stroke-opacity="0.6" fill="none" stroke-linecap="round"/>
<path class="sig b1" d="M666.7 696.6L711.7 752.6M737.1 710.4L711.7 752.6M737.1 710.4L779.5 766.8M644.6 740.5L711.7 752.6M711.7 752.6L779.5 766.8M711.7 752.6L683.6 795.4M1030 883.7L1099.4 898.3" stroke="#38bcf6" stroke-width="4.4" stroke-opacity="1" fill="none" stroke-linecap="round"/>
<path class="sig b1" d="M1220.6 827.2L1193.6 868.7" stroke="#808bf6" stroke-width="4.4" stroke-opacity="1" fill="none" stroke-linecap="round"/>
<path class="sig b1" d="M1236.9 273.8L1202.1 313.5M1066.8 277.1L1040.4 317.9M1202.1 313.5L1267.3 330.7M687.8 561.4L732.1 622.4" stroke="#6977d1" stroke-width="2.6" stroke-opacity="0.85" fill="none" stroke-linecap="round"/>
<path class="sig b1" d="M865.5 649.9L903.8 706.8M666.7 696.6L737.1 710.4M644.6 740.5L683.6 795.4M779.5 766.8L852.4 787.9M1125.9 857.5L1099.4 898.3" stroke="#309dd1" stroke-width="2.6" stroke-opacity="0.85" fill="none" stroke-linecap="round"/>
<path class="sig b1" d="M1202.1 313.5L1238 368.8M732.1 622.4L699.3 658.8M699.3 658.8L666.7 696.6M903.8 706.8L976.4 725.1M903.8 706.8L946.5 763.5" stroke="#5163ac" stroke-width="1.7" stroke-opacity="0.6" fill="none" stroke-linecap="round"/>
<path class="sig b1" d="M732.1 622.4L768.6 673.4M666.7 696.6L644.6 740.5M1099.4 898.3L1141.7 957.5" stroke="#297eac" stroke-width="1.7" stroke-opacity="0.6" fill="none" stroke-linecap="round"/>
<path class="sig b2" d="M747.2 483.8L716.4 521.6M716.4 521.6L687.8 561.4M611.2 543.2L687.8 561.4M1035.9 649.6L1009.9 690.2M1009.9 690.2L976.4 725.1M629.9 642.3L699.3 658.8M976.4 725.1L1013.2 781.1M875 745.3L946.5 763.5M875 745.3L923.7 807.6M946.5 763.5L1013.2 781.1M946.5 763.5L923.7 807.6M923.7 807.6L891.7 845M751.9 809.1L721.9 848M582.8 821.7L650.9 835.5M721.9 848L792.3 863.8" stroke="#808bf6" stroke-width="4.4" stroke-opacity="1" fill="none" stroke-linecap="round"/>
<path class="sig b2" d="M1217.6 741.2L1184.4 778.9M1184.4 778.9L1151.3 816.2M1056.8 841.9L1125.9 857.5M1056.8 841.9L1030 883.7" stroke="#38bcf6" stroke-width="4.4" stroke-opacity="1" fill="none" stroke-linecap="round"/>
<path class="sig b2" d="M1267.3 330.7L1333.8 348M1040.4 317.9L1109 331.3M747.2 483.8L787.6 540.1M818 502.8L787.6 540.1M687.8 561.4L763 582.3M661.9 603.1L629.9 642.3M629.9 642.3L599.8 679.9M852.4 787.9L923.7 807.6M923.7 807.6L988.5 823.2M650.9 835.5L721.9 848" stroke="#6977d1" stroke-width="2.6" stroke-opacity="0.85" fill="none" stroke-linecap="round"/>
<path class="sig b2" d="M895.7 609.5L865.5 649.9M1084 801.2L1151.3 816.2M1084 801.2L1056.8 841.9M1151.3 816.2L1125.9 857.5M988.5 823.2L1030 883.7" stroke="#309dd1" stroke-width="2.6" stroke-opacity="0.85" fill="none" stroke-linecap="round"/>
<path class="sig b2" d="M966.9 305.6L1040.4 317.9M1238 368.8L1285 429.1M787.6 540.1L854.9 553.3M854.9 553.3L826 594.5M575.8 721.9L644.6 740.5M852.4 787.9L821.4 824.8" stroke="#5163ac" stroke-width="1.7" stroke-opacity="0.6" fill="none" stroke-linecap="round"/>
<path class="sig b2" d="M826 594.5L865.5 649.9M801.4 637.8L865.5 649.9M865.5 649.9L936.2 671.6M683.6 795.4L650.9 835.5" stroke="#297eac" stroke-width="1.7" stroke-opacity="0.6" fill="none" stroke-linecap="round"/>
<path class="sig b3" d="M1139.8 387.2L1210.7 407.6" stroke="#38bcf6" stroke-width="4.4" stroke-opacity="1" fill="none" stroke-linecap="round"/>
<path class="sig b3" d="M1009.9 690.2L1044.1 742.2M923.7 807.6L960.4 862.8M612 781L582.8 821.7M518.1 801.6L582.8 821.7" stroke="#808bf6" stroke-width="4.4" stroke-opacity="1" fill="none" stroke-linecap="round"/>
<path class="sig b3" d="M1006.7 356.4L1077.6 369.9M1077.6 369.9L1139.8 387.2M1139.8 387.2L1182.3 445.3M1210.7 407.6L1285 429.1M1255.4 465.5L1323.2 483.7M776.9 445.3L848.2 466.1M519.2 568.4L587.7 585.8M491.5 608.8L560.6 625.6" stroke="#309dd1" stroke-width="2.6" stroke-opacity="0.85" fill="none" stroke-linecap="round"/>
<path class="sig b3" d="M848.2 466.1L818 502.8M985.5 493L953.5 530.2M953.5 530.2L920.6 566.9M643.4 504.2L716.4 521.6M962.3 631.4L1035.9 649.6M1009.9 690.2L1080.2 708.1M560.6 625.6L629.9 642.3M1044.1 742.2L1116.2 764.3M1044.1 742.2L1084 801.2M531.6 664.1L575.8 721.9M821.4 824.8L891.7 845" stroke="#6977d1" stroke-width="2.6" stroke-opacity="0.85" fill="none" stroke-linecap="round"/>
<path class="sig b3" d="M1300 288L1368.6 303.6M1300 288L1333.8 348M1368.6 303.6L1436 319.3M1109 331.3L1171.4 351.2M1109 331.3L1139.8 387.2M1285 429.1L1255.4 465.5M1255.4 465.5L1229 504.8M895.7 609.5L962.3 631.4M1108.5 668L1080.2 708.1M1248.2 702.9L1217.6 741.2M587.7 585.8L560.6 625.6M1116.2 764.3L1084 801.2" stroke="#297eac" stroke-width="1.7" stroke-opacity="0.6" fill="none" stroke-linecap="round"/>
<path class="sig b3" d="M875.2 426.8L848.2 466.1M886 515.7L854.9 553.3M854.9 553.3L920.6 566.9M611.2 543.2L587.7 585.8M1148.3 727.1L1217.6 741.2M1217.6 741.2L1288.9 753.6" stroke="#5163ac" stroke-width="1.7" stroke-opacity="0.6" fill="none" stroke-linecap="round"/>
<path class="sig b4" d="M934.9 343.9L1006.7 356.4M934.9 343.9L975.1 396.5M1006.7 356.4L975.1 396.5M810.7 410.5L776.9 445.3M708.5 427.4L776.9 445.3M1064.9 610.3L1108.5 668M1135.8 626.2L1108.5 668M477.5 509.5L519.2 568.4M545.3 525.4L519.2 568.4M453.4 552.4L519.2 568.4" stroke="#38bcf6" stroke-width="4.4" stroke-opacity="1" fill="none" stroke-linecap="round"/>
<path class="sig b4" d="M1240.7 604.7L1274.9 662M1315.3 712.8L1288.9 753.6M1288.9 753.6L1358.1 767.5M1288.9 753.6L1255.2 792.5" stroke="#808bf6" stroke-width="4.4" stroke-opacity="1" fill="none" stroke-linecap="round"/>
<path class="sig b4" d="M934.9 343.9L902.5 384.8M1006.7 356.4L1044 412.1M902.5 384.8L975.1 396.5M975.1 396.5L1044 412.1M810.7 410.5L875.2 426.8M1019.6 549L989 587.3M506.4 469.9L577.2 488.1M577.2 488.1L545.3 525.4M1135.8 626.2L1208.1 647.8" stroke="#309dd1" stroke-width="2.6" stroke-opacity="0.85" fill="none" stroke-linecap="round"/>
<path class="sig b4" d="M1208.1 647.8L1274.9 662M1274.9 662L1341.7 672.6M1315.3 712.8L1386.8 728.3M1255.2 792.5L1294 841" stroke="#6977d1" stroke-width="2.6" stroke-opacity="0.85" fill="none" stroke-linecap="round"/>
<path class="sig b4" d="M1405.5 365L1375.9 406.3M1182.3 445.3L1156.2 485.2M1017.4 453.3L985.5 493M985.5 493L1052.5 507.1M953.5 530.2L1019.6 549M1274.9 662L1248.2 702.9M1255.2 792.5L1329.5 807.1" stroke="#5163ac" stroke-width="1.7" stroke-opacity="0.6" fill="none" stroke-linecap="round"/>
<path class="sig b4" d="M867.4 329.8L902.5 384.8M1353.5 448.4L1323.2 483.7M1044 412.1L1017.4 453.3M1323.2 483.7L1389.6 501.6M1323.2 483.7L1298.8 524.4M946.9 440L919.2 480.1M1229 504.8L1199.4 543M1052.5 507.1L1019.6 549M609.7 451.1L577.2 488.1M1019.6 549L1096 567.3M1108.5 668L1178.6 687.1M464.4 649.8L531.6 664.1M474.2 742.9L518.1 801.6" stroke="#297eac" stroke-width="1.7" stroke-opacity="0.6" fill="none" stroke-linecap="round"/>
<path class="sig b5" d="M1472.2 377.7L1443.7 420.5M1443.7 420.5L1417.2 464.2" stroke="#808bf6" stroke-width="4.4" stroke-opacity="1" fill="none" stroke-linecap="round"/>
<path class="sig b5" d="M770.2 350.9L741.9 390.2M770.2 350.9L810.7 410.5M834.2 368L810.7 410.5M741.9 390.2L810.7 410.5M741.9 390.2L708.5 427.4M1407.8 594.4L1375.2 633.5M502.8 703.3L474.2 742.9M474.2 742.9L449.8 785.3" stroke="#38bcf6" stroke-width="4.4" stroke-opacity="1" fill="none" stroke-linecap="round"/>
<path class="sig b5" d="M1405.5 365L1472.2 377.7M826.8 274.7L896.7 291M1112.7 426.8L1083.5 465.6M498.7 382.6L569.6 395M569.6 395L641.3 411.6M569.6 395L541.6 435.9M1270.7 563.8L1240.7 604.7M1167.2 583.7L1240.7 604.7M1240.7 604.7L1208.1 647.8" stroke="#6977d1" stroke-width="2.6" stroke-opacity="0.85" fill="none" stroke-linecap="round"/>
<path class="sig b5" d="M770.2 350.9L834.2 368M1096 567.3L1064.9 610.3M1305.1 621.9L1375.2 633.5M1375.2 633.5L1441.9 649.1M506.4 469.9L477.5 509.5M477.5 509.5L453.4 552.4" stroke="#309dd1" stroke-width="2.6" stroke-opacity="0.85" fill="none" stroke-linecap="round"/>
<path class="sig b5" d="M826.8 274.7L867.4 329.8M896.7 291L867.4 329.8M799.9 313.8L867.4 329.8M1353.5 448.4L1417.2 464.2M1417.2 464.2L1389.6 501.6M569.6 395L609.7 451.1M641.3 411.6L609.7 451.1M609.7 451.1L677.5 465.5M1167.2 583.7L1208.1 647.8" stroke="#5163ac" stroke-width="1.7" stroke-opacity="0.6" fill="none" stroke-linecap="round"/>
<path class="sig b5" d="M867.4 329.8L934.9 343.9M867.4 329.8L834.2 368M672.6 370.3L708.5 427.4M641.3 411.6L708.5 427.4M708.5 427.4L677.5 465.5M1270.7 563.8L1336.8 580.5M1270.7 563.8L1305.1 621.9M471.1 421.8L506.4 469.9M1305.1 621.9L1341.7 672.6M1375.2 633.5L1341.7 672.6M437.5 454.5L506.4 469.9M1341.7 672.6L1408.7 685.1M1329.5 807.1L1294 841M378.1 770.6L449.8 785.3" stroke="#297eac" stroke-width="1.7" stroke-opacity="0.6" fill="none" stroke-linecap="round"/>
<path class="sig b6" d="M1586.2 347.1L1549.2 393M1461.3 517.4L1436.1 556.3M1363.1 540.3L1436.1 556.3M1363.1 540.3L1336.8 580.5M1436.1 556.3L1407.8 594.4M1336.8 580.5L1407.8 594.4M1407.8 594.4L1441.9 649.1" stroke="#38bcf6" stroke-width="4.4" stroke-opacity="1" fill="none" stroke-linecap="round"/>
<path class="sig b6" d="M1443.7 420.5L1486.5 479.5M430.5 689.4L402.9 728.9" stroke="#808bf6" stroke-width="4.4" stroke-opacity="1" fill="none" stroke-linecap="round"/>
<path class="sig b6" d="M853 234.5L896.7 291M755.1 253.9L826.8 274.7M651.8 272.8L695.5 327.7M728.1 293.3L695.5 327.7M621.6 311L695.5 327.7M695.5 327.7L672.6 370.3M370.6 438.4L341.4 476.8M341.4 476.8L413.5 494.8M359.7 576L426 596.5M359.7 576L327.1 619.2M402.9 728.9L378.1 770.6" stroke="#6977d1" stroke-width="2.6" stroke-opacity="0.85" fill="none" stroke-linecap="round"/>
<path class="sig b6" d="M1549.2 393L1515 444.2M1549.2 393L1595.3 457.5M1477.9 613.5L1441.9 649.1" stroke="#309dd1" stroke-width="2.6" stroke-opacity="0.85" fill="none" stroke-linecap="round"/>
<path class="sig b6" d="M1486.5 479.5L1461.3 517.4" stroke="#297eac" stroke-width="1.7" stroke-opacity="0.6" fill="none" stroke-linecap="round"/>
<path class="sig b6" d="M431.1 365.1L498.7 382.6M370.6 438.4L437.5 454.5M313.5 516.8L359.7 576M283.6 557.4L359.7 576" stroke="#5163ac" stroke-width="1.7" stroke-opacity="0.6" fill="none" stroke-linecap="round"/>
<path class="sig b7" d="M1586.2 347.1L1624.9 408.8M396.1 638.3L362.1 675.5M296.6 657.6L265.3 696.5" stroke="#38bcf6" stroke-width="4.4" stroke-opacity="1" fill="none" stroke-linecap="round"/>
<path class="sig b7" d="M651.8 272.8L728.1 293.3M651.8 272.8L621.6 311" stroke="#808bf6" stroke-width="4.4" stroke-opacity="1" fill="none" stroke-linecap="round"/>
<path class="sig b7" d="M684.3 234.4L651.8 272.8M332.5 715.2L402.9 728.9" stroke="#6977d1" stroke-width="2.6" stroke-opacity="0.85" fill="none" stroke-linecap="round"/>
<path class="sig b7" d="M1515 444.2L1595.3 457.5M1436.1 556.3L1508.3 571.5M240.5 504.2L283.6 557.4M362.1 675.5L332.5 715.2" stroke="#309dd1" stroke-width="2.6" stroke-opacity="0.85" fill="none" stroke-linecap="round"/>
<path class="sig b7" d="M880.7 191.1L922.8 250.3M922.8 250.3L991.3 263.2M1515 444.2L1560.3 494M1461.3 517.4L1508.3 571.5M527 340.2L598 353.7M201 444.5L272 459.9M327.1 619.2L396.1 638.3M296.6 657.6L332.5 715.2M332.5 715.2L305.1 755.9" stroke="#297eac" stroke-width="1.7" stroke-opacity="0.6" fill="none" stroke-linecap="round"/>
<path class="sig b7" d="M853 234.5L922.8 250.3M1486.5 479.5L1560.3 494M1560.3 494L1531.9 531.1M1531.9 531.1L1508.3 571.5M300.6 417.8L370.6 438.4M272 459.9L341.4 476.8M341.4 476.8L385.9 534" stroke="#5163ac" stroke-width="1.7" stroke-opacity="0.6" fill="none" stroke-linecap="round"/>
<path class="sig b8" d="M265.3 696.5L236.5 737.2M265.3 696.5L305.1 755.9M236.5 737.2L305.1 755.9" stroke="#38bcf6" stroke-width="4.4" stroke-opacity="1" fill="none" stroke-linecap="round"/>
<path class="sig b8" d="M672.7 135L748.1 151.5M672.7 135L644.9 175.3M748.1 151.5L720.1 191.9M612.7 219.8L583.9 259.6M229.3 400.1L201 444.5M201 444.5L170.9 488.9M170.9 488.9L240.5 504.2M240.5 504.2L209.9 546.2" stroke="#309dd1" stroke-width="2.6" stroke-opacity="0.85" fill="none" stroke-linecap="round"/>
<path class="sig b8" d="M748.1 151.5L814.9 171.4M814.9 171.4L880.7 191.1M644.9 175.3L684.3 234.4M720.1 191.9L684.3 234.4M612.7 219.8L684.3 234.4M553.5 298.8L598 353.7M332.4 380.4L402.1 402.9" stroke="#297eac" stroke-width="1.7" stroke-opacity="0.6" fill="none" stroke-linecap="round"/>
<path class="sig b8" d="M483.1 279.9L553.5 298.8" stroke="#5163ac" stroke-width="1.7" stroke-opacity="0.6" fill="none" stroke-linecap="round"/>
<path class="sig b9" d="M518.4 245L483.1 279.9M483.1 279.9L455.4 320.8M157.6 383.8L128.3 427.2M128.3 427.2L99.4 467.6M99.4 467.6L137.8 530.3M137.8 530.3L112.8 570.7M124.5 663.7L197.9 681.8M197.9 681.8L161.9 714.9" stroke="#6977d1" stroke-width="2.6" stroke-opacity="0.85" fill="none" stroke-linecap="round"/>
<path class="sig b9" d="M814.9 171.4L784 213.9M417.5 259L483.1 279.9M417.5 259L455.4 320.8" stroke="#5163ac" stroke-width="1.7" stroke-opacity="0.6" fill="none" stroke-linecap="round"/>
<path class="sig b9" d="M364.1 342.8L402.1 402.9M197.9 681.8L236.5 737.2" stroke="#297eac" stroke-width="1.7" stroke-opacity="0.6" fill="none" stroke-linecap="round"/>
<path class="sig b10" d="M151.6 623.7L124.5 663.7M124.5 663.7L90.9 698.9M90.9 698.9L161.9 714.9" stroke="#808bf6" stroke-width="4.4" stroke-opacity="1" fill="none" stroke-linecap="round"/>
<path class="sig b10" d="M122.9 333.1L157.6 383.8M187.9 345.2L157.6 383.8M93.9 372.7L157.6 383.8M93.9 372.7L128.3 427.2M63.3 413.1L128.3 427.2M31 449.9L99.4 467.6M71.6 510.8L112.8 570.7M45 551.6L112.8 570.7M112.8 570.7L182.3 586.3M79.7 604.4L124.5 663.7M50 642.3L124.5 663.7" stroke="#6977d1" stroke-width="2.6" stroke-opacity="0.85" fill="none" stroke-linecap="round"/>
<path class="sig b10" d="M477.7 183L451.6 223.9M384.6 204.1L451.6 223.9" stroke="#297eac" stroke-width="1.7" stroke-opacity="0.6" fill="none" stroke-linecap="round"/>
<path class="sig b10" d="M122.9 333.1L187.9 345.2M122.9 333.1L93.9 372.7M31 449.9L8.2 492.7M31 449.9L71.6 510.8M79.7 604.4L151.6 623.7" stroke="#5163ac" stroke-width="1.7" stroke-opacity="0.6" fill="none" stroke-linecap="round"/>
<path class="sig b11" d="M256.6 603.9L228.6 644.2M-51.5 571.6L12.9 587.6M12.9 587.6L-17.7 625.5" stroke="#38bcf6" stroke-width="4.4" stroke-opacity="1" fill="none" stroke-linecap="round"/>
<path class="sig b11" d="M-19.4 532.9L-51.5 571.6M12.9 587.6L79.7 604.4M-17.7 625.5L50 642.3" stroke="#309dd1" stroke-width="2.6" stroke-opacity="0.85" fill="none" stroke-linecap="round"/>
<path class="sig b11" d="M539.9 106.4L506.5 143.7M506.5 143.7L477.7 183M343.8 151.2L312.2 188.6M343.8 151.2L384.6 204.1M411.4 164.1L477.7 183M477.7 183L548.1 200.5M239.1 174L312.2 188.6M239.1 174L282.8 227.8M312.2 188.6L282.8 227.8M312.2 188.6L353.5 241.3M282.8 227.8L353.5 241.3M282.8 227.8L251.8 268.4M182.3 586.3L256.6 603.9M50 642.3L20.9 682.9" stroke="#297eac" stroke-width="1.7" stroke-opacity="0.6" fill="none" stroke-linecap="round"/>
<path class="sig b12" d="M-51.5 571.6L-82.1 610.3M-82.1 610.3L-17.7 625.5" stroke="#38bcf6" stroke-width="4.4" stroke-opacity="1" fill="none" stroke-linecap="round"/>
<path class="sig b12" d="M403 72.1L442.1 126.8M603.1 118.8L574.5 159.2M300.5 97.4L374.6 113.3M374.6 113.3L442.1 126.8" stroke="#5163ac" stroke-width="1.7" stroke-opacity="0.6" fill="none" stroke-linecap="round"/>
<path class="sig b12" d="M-82.1 610.3L-115.9 654.5" stroke="#297eac" stroke-width="1.7" stroke-opacity="0.6" fill="none" stroke-linecap="round"/>
<path class="sig b13" d="M-115.9 654.5L-49.3 668.1" stroke="#6977d1" stroke-width="2.6" stroke-opacity="0.85" fill="none" stroke-linecap="round"/>
<path class="sig b13" d="M327.7 54.8L403 72.1M327.7 54.8L300.5 97.4M403 72.1L471.2 87.9M403 72.1L374.6 113.3" stroke="#5163ac" stroke-width="1.7" stroke-opacity="0.6" fill="none" stroke-linecap="round"/>
<circle class="sig bloom b4" cx="810.7" cy="410.5" r="46.3" fill="url(#bc)"/>
<circle class="sig bloom b4" cx="776.9" cy="445.3" r="46.3" fill="url(#bc)"/>
<circle class="sig bloom b4" cx="1135.8" cy="626.2" r="46.3" fill="url(#bc)"/>
<circle class="sig bloom b3" cx="1035.9" cy="649.6" r="46.3" fill="url(#bw)"/>
<circle class="sig bloom b4" cx="1315.3" cy="712.8" r="46.3" fill="url(#bw)"/>
<circle class="sig bloom b2" cx="1009.9" cy="690.2" r="46.3" fill="url(#bw)"/>
<circle class="sig bloom b3" cx="1148.3" cy="727.1" r="46.3" fill="url(#bw)"/>
<circle class="sig bloom b4" cx="1288.9" cy="753.6" r="46.3" fill="url(#bw)"/>
<circle class="sig bloom b3" cx="1044.1" cy="742.2" r="46.3" fill="url(#bw)"/>
<circle class="sig bloom b4" cx="1255.2" cy="792.5" r="46.3" fill="url(#bw)"/>
<circle class="sig bloom b1" cx="711.7" cy="752.6" r="46.3" fill="url(#bc)"/>
<circle class="sig bloom b1" cx="779.5" cy="766.8" r="46.3" fill="url(#bc)"/>
<circle class="sig bloom b3" cx="751.9" cy="809.1" r="46.3" fill="url(#bw)"/>
<circle class="sig bloom b2" cx="1030" cy="883.7" r="46.3" fill="url(#bc)"/>
<circle class="sig b4" cx="810.7" cy="410.5" r="3.2" fill="#38bdf8" fill-opacity="0.9"/>
<circle class="sig b4" cx="776.9" cy="445.3" r="3.2" fill="#38bdf8" fill-opacity="0.9"/>
<circle class="sig b4" cx="1135.8" cy="626.2" r="3.2" fill="#38bdf8" fill-opacity="0.9"/>
<circle class="sig b3" cx="1035.9" cy="649.6" r="3.2" fill="#818cf8" fill-opacity="0.9"/>
<circle class="sig b4" cx="1315.3" cy="712.8" r="3.2" fill="#818cf8" fill-opacity="0.9"/>
<circle class="sig b2" cx="1009.9" cy="690.2" r="3.2" fill="#818cf8" fill-opacity="0.9"/>
<g class="sig probe b0"><circle cx="1166.9" cy="252.9" r="15" fill="none" stroke="#e8f3ff" stroke-width="2.2" stroke-opacity="0.75"/><circle cx="1166.9" cy="252.9" r="4.5" fill="#e8f3ff" fill-opacity="0.9"/></g>
<g class="sig probe b0"><circle cx="1235.6" cy="926.5" r="15" fill="none" stroke="#e8f3ff" stroke-width="2.2" stroke-opacity="0.75"/><circle cx="1235.6" cy="926.5" r="4.5" fill="#e8f3ff" fill-opacity="0.9"/></g>
<g class="sig probe b0"><circle cx="803.2" cy="724.1" r="15" fill="none" stroke="#e8f3ff" stroke-width="2.2" stroke-opacity="0.75"/><circle cx="803.2" cy="724.1" r="4.5" fill="#e8f3ff" fill-opacity="0.9"/></g>
<g class="sig b13" opacity="0.6"><circle cx="1549.2" cy="393" r="26" fill="none" stroke="#7593b5" stroke-width="1.6" stroke-dasharray="5 7"/><circle cx="1549.2" cy="393" r="3" fill="#7593b5"/></g>
<rect width="1536" height="1024" fill="url(#scan)" opacity="0.5"/>
<rect width="1536" height="1024" fill="url(#floor)"/>
<rect width="1536" height="1024" fill="url(#scrim)"/>
<g class="type">
<text x="96" y="326.8" font-family="ui-monospace, 'SF Mono', SFMono-Regular, Menlo, Consolas, 'Liberation Mono', monospace" font-size="26" font-weight="600" letter-spacing="6" fill="#38bdf8">META   ·   2026-06-29</text>
<text x="96" y="442.8" font-family="Inter, 'Helvetica Neue', Helvetica, Arial, sans-serif" font-size="72" font-weight="700" letter-spacing="-2" fill="#e8f3ff">How the Robot Picks</text>
<text x="96" y="522.0" font-family="Inter, 'Helvetica Neue', Helvetica, Arial, sans-serif" font-size="72" font-weight="700" letter-spacing="-2" fill="#e8f3ff">What to Write Next</text>
<text x="96" y="601.2" font-family="Inter, 'Helvetica Neue', Helvetica, Arial, sans-serif" font-size="72" font-weight="700" letter-spacing="-2" fill="#e8f3ff">(and When It Refuses)</text>
<rect x="96" y="653.2" width="112" height="4" fill="#38bdf8" opacity="0.9"/>
<text x="96" y="711.2" font-family="ui-monospace, 'SF Mono', SFMono-Regular, Menlo, Consolas, 'Liberation Mono', monospace" font-size="24" font-weight="500" letter-spacing="1" fill="#7593b5">by claude   ·   lifehacker.dev</text>
</g>
</svg>
