<svg xmlns="http://www.w3.org/2000/svg" viewBox="0 0 1536 1024" width="1536" height="1024"><rect width="1536" height="1024" fill="#03071e" /><rect y="0" width="1536" height="128" fill="#370617" opacity="0.25" /><rect y="128" width="1536" height="128" fill="#370617" opacity="0.37" /><rect y="256" width="1536" height="128" fill="#370617" opacity="0.49" /><circle cx="988" cy="301" r="180" fill="#ffba08" /><circle cx="988" cy="301" r="154" fill="#f48c06" /><rect x="809" y="313" width="358" height="10" fill="#03071e" /><rect x="814" y="339" width="348" height="10" fill="#03071e" /><rect x="822" y="365" width="332" height="10" fill="#03071e" /><polygon points="-40,1024 -40,621 94,621 94,535 222,535 222,689 334,689 334,667 456,667 456,637 556,637 556,599 776,599 776,689 922,689 922,739 1042,739 1042,549 1208,549 1208,495 1324,495 1324,597 1530,597 1530,515 1662,515 1616,1024" fill="#9d0208" /><polygon points="-40,1024 -40,497 160,497 160,475 270,475 270,397 412,397 412,499 550,499 550,597 712,597 712,403 844,403 844,485 1072,485 1072,567 1208,567 1208,493 1310,493 1310,603 1492,603 1492,581 1640,581 1616,1024" fill="#dc2f02" /><polygon points="-40,1024 -40,495 70,495 70,365 200,365 200,327 366,327 366,421 466,421 466,407 556,407 556,537 706,537 706,327 922,327 922,341 1080,341 1080,355 1294,355 1294,493 1408,493 1408,427 1502,427 1502,277 1680,277 1616,1024" fill="#370617" /><rect x="597" y="106" width="6" height="6" fill="#f48c06" /><rect x="1528" y="209" width="7" height="7" fill="#f48c06" /><rect x="55" y="420" width="6" height="6" fill="#f48c06" /><rect x="194" y="211" width="3" height="3" fill="#f48c06" /><rect x="777" y="270" width="6" height="6" fill="#f48c06" /><rect x="1340" y="197" width="6" height="6" fill="#f48c06" /><rect x="843" y="296" width="7" height="7" fill="#f48c06" /><rect x="486" y="295" width="7" height="7" fill="#f48c06" /><rect x="381" y="114" width="7" height="7" fill="#f48c06" /><rect x="1344" y="121" width="4" height="4" fill="#f48c06" /><rect x="31" y="364" width="7" height="7" fill="#f48c06" /><rect x="458" y="315" width="3" height="3" fill="#f48c06" /><rect x="1457" y="150" width="5" height="5" fill="#f48c06" /><rect x="516" y="493" width="5" height="5" fill="#f48c06" /><rect x="179" y="112" width="4" height="4" fill="#f48c06" /><rect x="622" y="271" width="4" height="4" fill="#f48c06" /><rect x="1445" y="378" width="5" height="5" fill="#f48c06" /><rect x="1416" y="289" width="5" height="5" fill="#f48c06" /><rect x="1287" y="52" width="7" height="7" fill="#f48c06" /><rect x="1490" y="163" width="7" height="7" fill="#f48c06" /><rect x="857" y="286" width="5" height="5" fill="#f48c06" /><rect x="972" y="21" width="6" height="6" fill="#f48c06" /><rect x="283" y="184" width="3" height="3" fill="#f48c06" /><rect x="502" y="503" width="6" height="6" fill="#f48c06" /><rect x="717" y="386" width="6" height="6" fill="#f48c06" /><rect x="720" y="201" width="5" height="5" fill="#f48c06" /><rect x="751" y="508" width="5" height="5" fill="#f48c06" /><rect x="1242" y="267" width="6" height="6" fill="#f48c06" /><rect x="513" y="166" width="4" height="4" fill="#f48c06" /><rect x="660" y="317" width="4" height="4" fill="#f48c06" /><rect x="643" y="0" width="5" height="5" fill="#f48c06" /><rect x="1150" y="479" width="5" height="5" fill="#f48c06" /><rect x="245" y="138" width="6" height="6" fill="#f48c06" /><rect x="792" y="369" width="4" height="4" fill="#f48c06" /><rect x="1495" y="196" width="6" height="6" fill="#f48c06" /><rect x="738" y="115" width="6" height="6" fill="#f48c06" /><rect x="425" y="302" width="7" height="7" fill="#f48c06" /><rect x="92" y="357" width="4" height="4" fill="#f48c06" /><rect x="1259" y="72" width="4" height="4" fill="#f48c06" /><rect x="1030" y="199" width="3" height="3" fill="#f48c06" /><rect y="0" width="1536" height="1" fill="#000" opacity="0.10" /><rect y="8" width="1536" height="1" fill="#000" opacity="0.10" /><rect y="16" width="1536" height="1" fill="#000" opacity="0.10" /><rect y="24" width="1536" height="1" fill="#000" opacity="0.10" /><rect y="32" width="1536" height="1" fill="#000" opacity="0.10" /><rect y="40" width="1536" height="1" fill="#000" opacity="0.10" /><rect y="48" width="1536" height="1" fill="#000" opacity="0.10" /><rect y="56" width="1536" height="1" fill="#000" opacity="0.10" /><rect y="64" width="1536" height="1" fill="#000" opacity="0.10" /><rect y="72" width="1536" height="1" fill="#000" opacity="0.10" /><rect y="80" width="1536" height="1" fill="#000" opacity="0.10" /><rect y="88" width="1536" height="1" fill="#000" opacity="0.10" /><rect y="96" width="1536" height="1" fill="#000" opacity="0.10" /><rect y="104" width="1536" height="1" fill="#000" opacity="0.10" /><rect y="112" width="1536" height="1" fill="#000" opacity="0.10" /><rect y="120" width="1536" height="1" fill="#000" opacity="0.10" /><rect y="128" width="1536" height="1" fill="#000" opacity="0.10" /><rect y="136" width="1536" height="1" fill="#000" opacity="0.10" /><rect y="144" width="1536" height="1" fill="#000" opacity="0.10" /><rect y="152" width="1536" height="1" fill="#000" opacity="0.10" /><rect y="160" width="1536" height="1" fill="#000" opacity="0.10" /><rect y="168" width="1536" height="1" fill="#000" opacity="0.10" /><rect y="176" width="1536" height="1" fill="#000" opacity="0.10" /><rect y="184" width="1536" height="1" fill="#000" opacity="0.10" /><rect y="192" width="1536" height="1" fill="#000" opacity="0.10" /><rect y="200" width="1536" height="1" fill="#000" opacity="0.10" /><rect y="208" width="1536" height="1" fill="#000" opacity="0.10" /><rect y="216" width="1536" height="1" fill="#000" opacity="0.10" /><rect y="224" width="1536" height="1" fill="#000" opacity="0.10" /><rect y="232" width="1536" height="1" fill="#000" opacity="0.10" /><rect y="240" width="1536" height="1" fill="#000" opacity="0.10" /><rect y="248" width="1536" height="1" fill="#000" opacity="0.10" /><rect y="256" width="1536" height="1" fill="#000" opacity="0.10" /><rect y="264" width="1536" height="1" fill="#000" opacity="0.10" /><rect y="272" width="1536" height="1" fill="#000" opacity="0.10" /><rect y="280" width="1536" height="1" fill="#000" opacity="0.10" /><rect y="288" width="1536" height="1" fill="#000" opacity="0.10" /><rect y="296" width="1536" height="1" fill="#000" opacity="0.10" /><rect y="304" width="1536" height="1" fill="#000" opacity="0.10" /><rect y="312" width="1536" height="1" fill="#000" opacity="0.10" /><rect y="320" width="1536" height="1" fill="#000" opacity="0.10" /><rect y="328" width="1536" height="1" fill="#000" opacity="0.10" /><rect y="336" width="1536" height="1" fill="#000" opacity="0.10" /><rect y="344" width="1536" height="1" fill="#000" opacity="0.10" /><rect y="352" width="1536" height="1" fill="#000" opacity="0.10" /><rect y="360" width="1536" height="1" fill="#000" opacity="0.10" /><rect y="368" width="1536" height="1" fill="#000" opacity="0.10" /><rect y="376" width="1536" height="1" fill="#000" opacity="0.10" /><rect y="384" width="1536" height="1" fill="#000" opacity="0.10" /><rect y="392" width="1536" height="1" fill="#000" opacity="0.10" /><rect y="400" width="1536" height="1" fill="#000" opacity="0.10" /><rect y="408" width="1536" height="1" fill="#000" opacity="0.10" /><rect y="416" width="1536" height="1" fill="#000" opacity="0.10" /><rect y="424" width="1536" height="1" fill="#000" opacity="0.10" /><rect y="432" width="1536" height="1" fill="#000" opacity="0.10" /><rect y="440" width="1536" height="1" fill="#000" opacity="0.10" /><rect y="448" width="1536" height="1" fill="#000" opacity="0.10" /><rect y="456" width="1536" height="1" fill="#000" opacity="0.10" /><rect y="464" width="1536" height="1" fill="#000" opacity="0.10" /><rect y="472" width="1536" height="1" fill="#000" opacity="0.10" /><rect y="480" width="1536" height="1" fill="#000" opacity="0.10" /><rect y="488" width="1536" height="1" fill="#000" opacity="0.10" /><rect y="496" width="1536" height="1" fill="#000" opacity="0.10" /><rect y="504" width="1536" height="1" fill="#000" opacity="0.10" /><rect y="512" width="1536" height="1" fill="#000" opacity="0.10" /><rect y="520" width="1536" height="1" fill="#000" opacity="0.10" /><rect y="528" width="1536" height="1" fill="#000" opacity="0.10" /><rect y="536" width="1536" height="1" fill="#000" opacity="0.10" /><rect y="544" width="1536" height="1" fill="#000" opacity="0.10" /><rect y="552" width="1536" height="1" fill="#000" opacity="0.10" /><rect y="560" width="1536" height="1" fill="#000" opacity="0.10" /><rect y="568" width="1536" height="1" fill="#000" opacity="0.10" /><rect y="576" width="1536" height="1" fill="#000" opacity="0.10" /><rect y="584" width="1536" height="1" fill="#000" opacity="0.10" /><rect y="592" width="1536" height="1" fill="#000" opacity="0.10" /><rect y="600" width="1536" height="1" fill="#000" opacity="0.10" /><rect y="608" width="1536" height="1" fill="#000" opacity="0.10" /><rect y="616" width="1536" height="1" fill="#000" opacity="0.10" /><rect y="624" width="1536" height="1" fill="#000" opacity="0.10" /><rect y="632" width="1536" height="1" fill="#000" opacity="0.10" /><rect y="640" width="1536" height="1" fill="#000" opacity="0.10" /><rect y="648" width="1536" height="1" fill="#000" opacity="0.10" /><rect y="656" width="1536" height="1" fill="#000" opacity="0.10" /><rect y="664" width="1536" height="1" fill="#000" opacity="0.10" /><rect y="672" width="1536" height="1" fill="#000" opacity="0.10" /><rect y="680" width="1536" height="1" fill="#000" opacity="0.10" /><rect y="688" width="1536" height="1" fill="#000" opacity="0.10" /><rect y="696" width="1536" height="1" fill="#000" opacity="0.10" /><rect y="704" width="1536" height="1" fill="#000" opacity="0.10" /><rect y="712" width="1536" height="1" fill="#000" opacity="0.10" /><rect y="720" width="1536" height="1" fill="#000" opacity="0.10" /><rect y="728" width="1536" height="1" fill="#000" opacity="0.10" /><rect y="736" width="1536" height="1" fill="#000" opacity="0.10" /><rect y="744" width="1536" height="1" fill="#000" opacity="0.10" /><rect y="752" width="1536" height="1" fill="#000" opacity="0.10" /><rect y="760" width="1536" height="1" fill="#000" opacity="0.10" /><rect y="768" width="1536" height="1" fill="#000" opacity="0.10" /><rect y="776" width="1536" height="1" fill="#000" opacity="0.10" /><rect y="784" width="1536" height="1" fill="#000" opacity="0.10" /><rect y="792" width="1536" height="1" fill="#000" opacity="0.10" /><rect y="800" width="1536" height="1" fill="#000" opacity="0.10" /><rect y="808" width="1536" height="1" fill="#000" opacity="0.10" /><rect y="816" width="1536" height="1" fill="#000" opacity="0.10" /><rect y="824" width="1536" height="1" fill="#000" opacity="0.10" /><rect y="832" width="1536" height="1" fill="#000" opacity="0.10" /><rect y="840" width="1536" height="1" fill="#000" opacity="0.10" /><rect y="848" width="1536" height="1" fill="#000" opacity="0.10" /><rect y="856" width="1536" height="1" fill="#000" opacity="0.10" /><rect y="864" width="1536" height="1" fill="#000" opacity="0.10" /><rect y="872" width="1536" height="1" fill="#000" opacity="0.10" /><rect y="880" width="1536" height="1" fill="#000" opacity="0.10" /><rect y="888" width="1536" height="1" fill="#000" opacity="0.10" /><rect y="896" width="1536" height="1" fill="#000" opacity="0.10" /><rect y="904" width="1536" height="1" fill="#000" opacity="0.10" /><rect y="912" width="1536" height="1" fill="#000" opacity="0.10" /><rect y="920" width="1536" height="1" fill="#000" opacity="0.10" /><rect y="928" width="1536" height="1" fill="#000" opacity="0.10" /><rect y="936" width="1536" height="1" fill="#000" opacity="0.10" /><rect y="944" width="1536" height="1" fill="#000" opacity="0.10" /><rect y="952" width="1536" height="1" fill="#000" opacity="0.10" /><rect y="960" width="1536" height="1" fill="#000" opacity="0.10" /><rect y="968" width="1536" height="1" fill="#000" opacity="0.10" /><rect y="976" width="1536" height="1" fill="#000" opacity="0.10" /><rect y="984" width="1536" height="1" fill="#000" opacity="0.10" /><rect y="992" width="1536" height="1" fill="#000" opacity="0.10" /><rect y="1000" width="1536" height="1" fill="#000" opacity="0.10" /><rect y="1008" width="1536" height="1" fill="#000" opacity="0.10" /><rect y="1016" width="1536" height="1" fill="#000" opacity="0.10" /><rect width="1536" height="26" fill="#000" opacity="0.35" /><rect y="998" width="1536" height="26" fill="#000" opacity="0.35" /></svg>