<svg xmlns="http://www.w3.org/2000/svg" viewBox="0 0 1536 1024" width="1536" height="1024"><rect width="1536" height="1024" fill="#1f0a24" /><rect y="0" width="1536" height="128" fill="#571089" opacity="0.25" /><rect y="128" width="1536" height="128" fill="#571089" opacity="0.37" /><rect y="256" width="1536" height="128" fill="#571089" opacity="0.49" /><circle cx="1075" cy="370" r="165" fill="#8093f1" /><circle cx="1075" cy="370" r="139" fill="#b388eb" /><rect x="911" y="382" width="328" height="10" fill="#1f0a24" /><rect x="916" y="408" width="318" height="10" fill="#1f0a24" /><rect x="926" y="434" width="298" height="10" fill="#1f0a24" /><polygon points="-40,1024 -40,688 153,688 153,670 274,670 274,488 395,488 395,738 602,738 602,524 777,524 777,562 878,562 878,560 1081,560 1081,686 1218,686 1218,664 1431,664 1431,698 1648,698 1616,1024" fill="#ab51e3" /><polygon points="-40,1024 -40,604 89,604 89,426 182,426 182,444 379,444 379,622 540,622 540,500 769,500 769,598 956,598 956,564 1073,564 1073,442 1198,442 1198,416 1329,416 1329,582 1446,582 1446,512 1675,512 1616,1024" fill="#f7aef8" /><polygon points="-40,1024 -40,366 197,366 197,468 290,468 290,482 409,482 409,396 606,396 606,330 751,330 751,448 974,448 974,334 1091,334 1091,536 1182,536 1182,294 1413,294 1413,400 1564,400 1564,306 1785,306 1616,1024" fill="#571089" /><rect x="1200" y="297" width="7" height="7" fill="#b388eb" /><rect x="1103" y="476" width="5" height="5" fill="#b388eb" /><rect x="954" y="107" width="5" height="5" fill="#b388eb" /><rect x="97" y="390" width="5" height="5" fill="#b388eb" /><rect x="628" y="413" width="5" height="5" fill="#b388eb" /><rect x="1507" y="480" width="3" height="3" fill="#b388eb" /><rect x="1374" y="319" width="7" height="7" fill="#b388eb" /><rect x="1365" y="362" width="3" height="3" fill="#b388eb" /><rect x="248" y="465" width="7" height="7" fill="#b388eb" /><rect x="311" y="164" width="5" height="5" fill="#b388eb" /><rect x="1474" y="467" width="7" height="7" fill="#b388eb" /><rect x="521" y="14" width="3" height="3" fill="#b388eb" /><rect x="60" y="453" width="6" height="6" fill="#b388eb" /><rect x="1099" y="40" width="3" height="3" fill="#b388eb" /><rect x="230" y="39" width="7" height="7" fill="#b388eb" /><rect x="1149" y="370" width="5" height="5" fill="#b388eb" /><rect x="64" y="377" width="6" height="6" fill="#b388eb" /><rect x="287" y="108" width="5" height="5" fill="#b388eb" /><rect x="1226" y="59" width="6" height="6" fill="#b388eb" /><rect x="177" y="406" width="6" height="6" fill="#b388eb" /><rect x="1284" y="237" width="3" height="3" fill="#b388eb" /><rect x="1459" y="368" width="5" height="5" fill="#b388eb" /><rect x="878" y="15" width="3" height="3" fill="#b388eb" /><rect x="1189" y="122" width="3" height="3" fill="#b388eb" /><rect x="136" y="33" width="5" height="5" fill="#b388eb" /><rect x="519" y="308" width="6" height="6" fill="#b388eb" /><rect x="1234" y="419" width="6" height="6" fill="#b388eb" /><rect x="89" y="30" width="3" height="3" fill="#b388eb" /><rect x="716" y="277" width="5" height="5" fill="#b388eb" /><rect x="27" y="440" width="7" height="7" fill="#b388eb" /><rect x="758" y="247" width="7" height="7" fill="#b388eb" /><rect x="461" y="130" width="6" height="6" fill="#b388eb" /><rect x="976" y="457" width="3" height="3" fill="#b388eb" /><rect x="1007" y="252" width="4" height="4" fill="#b388eb" /><rect x="986" y="11" width="4" height="4" fill="#b388eb" /><rect x="1281" y="422" width="7" height="7" fill="#b388eb" /><rect x="404" y="61" width="6" height="6" fill="#b388eb" /><rect x="387" y="256" width="5" height="5" fill="#b388eb" /><rect x="894" y="223" width="6" height="6" fill="#b388eb" /><rect x="501" y="394" width="7" height="7" fill="#b388eb" /><rect y="0" width="1536" height="1" fill="#000" opacity="0.10" /><rect y="8" width="1536" height="1" fill="#000" opacity="0.10" /><rect y="16" width="1536" height="1" fill="#000" opacity="0.10" /><rect y="24" width="1536" height="1" fill="#000" opacity="0.10" /><rect y="32" width="1536" height="1" fill="#000" opacity="0.10" /><rect y="40" width="1536" height="1" fill="#000" opacity="0.10" /><rect y="48" width="1536" height="1" fill="#000" opacity="0.10" /><rect y="56" width="1536" height="1" fill="#000" opacity="0.10" /><rect y="64" width="1536" height="1" fill="#000" opacity="0.10" /><rect y="72" width="1536" height="1" fill="#000" opacity="0.10" /><rect y="80" width="1536" height="1" fill="#000" opacity="0.10" /><rect y="88" width="1536" height="1" fill="#000" opacity="0.10" /><rect y="96" width="1536" height="1" fill="#000" opacity="0.10" /><rect y="104" width="1536" height="1" fill="#000" opacity="0.10" /><rect y="112" width="1536" height="1" fill="#000" opacity="0.10" /><rect y="120" width="1536" height="1" fill="#000" opacity="0.10" /><rect y="128" width="1536" height="1" fill="#000" opacity="0.10" /><rect y="136" width="1536" height="1" fill="#000" opacity="0.10" /><rect y="144" width="1536" height="1" fill="#000" opacity="0.10" /><rect y="152" width="1536" height="1" fill="#000" opacity="0.10" /><rect y="160" width="1536" height="1" fill="#000" opacity="0.10" /><rect y="168" width="1536" height="1" fill="#000" opacity="0.10" /><rect y="176" width="1536" height="1" fill="#000" opacity="0.10" /><rect y="184" width="1536" height="1" fill="#000" opacity="0.10" /><rect y="192" width="1536" height="1" fill="#000" opacity="0.10" /><rect y="200" width="1536" height="1" fill="#000" opacity="0.10" /><rect y="208" width="1536" height="1" fill="#000" opacity="0.10" /><rect y="216" width="1536" height="1" fill="#000" opacity="0.10" /><rect y="224" width="1536" height="1" fill="#000" opacity="0.10" /><rect y="232" width="1536" height="1" fill="#000" opacity="0.10" /><rect y="240" width="1536" height="1" fill="#000" opacity="0.10" /><rect y="248" width="1536" height="1" fill="#000" opacity="0.10" /><rect y="256" width="1536" height="1" fill="#000" opacity="0.10" /><rect y="264" width="1536" height="1" fill="#000" opacity="0.10" /><rect y="272" width="1536" height="1" fill="#000" opacity="0.10" /><rect y="280" width="1536" height="1" fill="#000" opacity="0.10" /><rect y="288" width="1536" height="1" fill="#000" opacity="0.10" /><rect y="296" width="1536" height="1" fill="#000" opacity="0.10" /><rect y="304" width="1536" height="1" fill="#000" opacity="0.10" /><rect y="312" width="1536" height="1" fill="#000" opacity="0.10" /><rect y="320" width="1536" height="1" fill="#000" opacity="0.10" /><rect y="328" width="1536" height="1" fill="#000" opacity="0.10" /><rect y="336" width="1536" height="1" fill="#000" opacity="0.10" /><rect y="344" width="1536" height="1" fill="#000" opacity="0.10" /><rect y="352" width="1536" height="1" fill="#000" opacity="0.10" /><rect y="360" width="1536" height="1" fill="#000" opacity="0.10" /><rect y="368" width="1536" height="1" fill="#000" opacity="0.10" /><rect y="376" width="1536" height="1" fill="#000" opacity="0.10" /><rect y="384" width="1536" height="1" fill="#000" opacity="0.10" /><rect y="392" width="1536" height="1" fill="#000" opacity="0.10" /><rect y="400" width="1536" height="1" fill="#000" opacity="0.10" /><rect y="408" width="1536" height="1" fill="#000" opacity="0.10" /><rect y="416" width="1536" height="1" fill="#000" opacity="0.10" /><rect y="424" width="1536" height="1" fill="#000" opacity="0.10" /><rect y="432" width="1536" height="1" fill="#000" opacity="0.10" /><rect y="440" width="1536" height="1" fill="#000" opacity="0.10" /><rect y="448" width="1536" height="1" fill="#000" opacity="0.10" /><rect y="456" width="1536" height="1" fill="#000" opacity="0.10" /><rect y="464" width="1536" height="1" fill="#000" opacity="0.10" /><rect y="472" width="1536" height="1" fill="#000" opacity="0.10" /><rect y="480" width="1536" height="1" fill="#000" opacity="0.10" /><rect y="488" width="1536" height="1" fill="#000" opacity="0.10" /><rect y="496" width="1536" height="1" fill="#000" opacity="0.10" /><rect y="504" width="1536" height="1" fill="#000" opacity="0.10" /><rect y="512" width="1536" height="1" fill="#000" opacity="0.10" /><rect y="520" width="1536" height="1" fill="#000" opacity="0.10" /><rect y="528" width="1536" height="1" fill="#000" opacity="0.10" /><rect y="536" width="1536" height="1" fill="#000" opacity="0.10" /><rect y="544" width="1536" height="1" fill="#000" opacity="0.10" /><rect y="552" width="1536" height="1" fill="#000" opacity="0.10" /><rect y="560" width="1536" height="1" fill="#000" opacity="0.10" /><rect y="568" width="1536" height="1" fill="#000" opacity="0.10" /><rect y="576" width="1536" height="1" fill="#000" opacity="0.10" /><rect y="584" width="1536" height="1" fill="#000" opacity="0.10" /><rect y="592" width="1536" height="1" fill="#000" opacity="0.10" /><rect y="600" width="1536" height="1" fill="#000" opacity="0.10" /><rect y="608" width="1536" height="1" fill="#000" opacity="0.10" /><rect y="616" width="1536" height="1" fill="#000" opacity="0.10" /><rect y="624" width="1536" height="1" fill="#000" opacity="0.10" /><rect y="632" width="1536" height="1" fill="#000" opacity="0.10" /><rect y="640" width="1536" height="1" fill="#000" opacity="0.10" /><rect y="648" width="1536" height="1" fill="#000" opacity="0.10" /><rect y="656" width="1536" height="1" fill="#000" opacity="0.10" /><rect y="664" width="1536" height="1" fill="#000" opacity="0.10" /><rect y="672" width="1536" height="1" fill="#000" opacity="0.10" /><rect y="680" width="1536" height="1" fill="#000" opacity="0.10" /><rect y="688" width="1536" height="1" fill="#000" opacity="0.10" /><rect y="696" width="1536" height="1" fill="#000" opacity="0.10" /><rect y="704" width="1536" height="1" fill="#000" opacity="0.10" /><rect y="712" width="1536" height="1" fill="#000" opacity="0.10" /><rect y="720" width="1536" height="1" fill="#000" opacity="0.10" /><rect y="728" width="1536" height="1" fill="#000" opacity="0.10" /><rect y="736" width="1536" height="1" fill="#000" opacity="0.10" /><rect y="744" width="1536" height="1" fill="#000" opacity="0.10" /><rect y="752" width="1536" height="1" fill="#000" opacity="0.10" /><rect y="760" width="1536" height="1" fill="#000" opacity="0.10" /><rect y="768" width="1536" height="1" fill="#000" opacity="0.10" /><rect y="776" width="1536" height="1" fill="#000" opacity="0.10" /><rect y="784" width="1536" height="1" fill="#000" opacity="0.10" /><rect y="792" width="1536" height="1" fill="#000" opacity="0.10" /><rect y="800" width="1536" height="1" fill="#000" opacity="0.10" /><rect y="808" width="1536" height="1" fill="#000" opacity="0.10" /><rect y="816" width="1536" height="1" fill="#000" opacity="0.10" /><rect y="824" width="1536" height="1" fill="#000" opacity="0.10" /><rect y="832" width="1536" height="1" fill="#000" opacity="0.10" /><rect y="840" width="1536" height="1" fill="#000" opacity="0.10" /><rect y="848" width="1536" height="1" fill="#000" opacity="0.10" /><rect y="856" width="1536" height="1" fill="#000" opacity="0.10" /><rect y="864" width="1536" height="1" fill="#000" opacity="0.10" /><rect y="872" width="1536" height="1" fill="#000" opacity="0.10" /><rect y="880" width="1536" height="1" fill="#000" opacity="0.10" /><rect y="888" width="1536" height="1" fill="#000" opacity="0.10" /><rect y="896" width="1536" height="1" fill="#000" opacity="0.10" /><rect y="904" width="1536" height="1" fill="#000" opacity="0.10" /><rect y="912" width="1536" height="1" fill="#000" opacity="0.10" /><rect y="920" width="1536" height="1" fill="#000" opacity="0.10" /><rect y="928" width="1536" height="1" fill="#000" opacity="0.10" /><rect y="936" width="1536" height="1" fill="#000" opacity="0.10" /><rect y="944" width="1536" height="1" fill="#000" opacity="0.10" /><rect y="952" width="1536" height="1" fill="#000" opacity="0.10" /><rect y="960" width="1536" height="1" fill="#000" opacity="0.10" /><rect y="968" width="1536" height="1" fill="#000" opacity="0.10" /><rect y="976" width="1536" height="1" fill="#000" opacity="0.10" /><rect y="984" width="1536" height="1" fill="#000" opacity="0.10" /><rect y="992" width="1536" height="1" fill="#000" opacity="0.10" /><rect y="1000" width="1536" height="1" fill="#000" opacity="0.10" /><rect y="1008" width="1536" height="1" fill="#000" opacity="0.10" /><rect y="1016" width="1536" height="1" fill="#000" opacity="0.10" /><rect width="1536" height="26" fill="#000" opacity="0.35" /><rect y="998" width="1536" height="26" fill="#000" opacity="0.35" /></svg>