<svg xmlns="http://www.w3.org/2000/svg" viewBox="0 0 1536 1024" width="1536" height="1024"><rect width="1536" height="1024" fill="#1f0a24" /><rect y="0" width="1536" height="128" fill="#571089" opacity="0.25" /><rect y="128" width="1536" height="128" fill="#571089" opacity="0.37" /><rect y="256" width="1536" height="128" fill="#571089" opacity="0.49" /><circle cx="907" cy="282" r="189" fill="#8093f1" /><circle cx="907" cy="282" r="163" fill="#b388eb" /><rect x="719" y="294" width="376" height="10" fill="#1f0a24" /><rect x="723" y="320" width="368" height="10" fill="#1f0a24" /><rect x="732" y="346" width="350" height="10" fill="#1f0a24" /><polygon points="-40,1024 -40,648 125,648 125,586 236,586 236,676 415,676 415,762 586,762 586,644 679,644 679,598 918,598 918,744 1103,744 1103,498 1262,498 1262,672 1381,672 1381,578 1586,578 1586,744 1751,744 1616,1024" fill="#ab51e3" /><polygon points="-40,1024 -40,418 167,418 167,444 292,444 292,374 457,374 457,508 694,508 694,526 797,526 797,544 906,544 906,410 1087,410 1087,656 1274,656 1274,382 1493,382 1493,520 1606,520 1606,466 1753,466 1616,1024" fill="#f7aef8" /><polygon points="-40,1024 -40,336 103,336 103,414 298,414 298,540 511,540 511,298 696,298 696,508 905,508 905,438 1030,438 1030,440 1167,440 1167,430 1336,430 1336,448 1571,448 1571,282 1748,282 1616,1024" fill="#571089" /><rect x="824" y="273" width="7" height="7" fill="#b388eb" /><rect x="631" y="228" width="6" height="6" fill="#b388eb" /><rect x="1026" y="275" width="4" height="4" fill="#b388eb" /><rect x="841" y="78" width="6" height="6" fill="#b388eb" /><rect x="1148" y="261" width="7" height="7" fill="#b388eb" /><rect x="907" y="104" width="4" height="4" fill="#b388eb" /><rect x="806" y="359" width="3" height="3" fill="#b388eb" /><rect x="1469" y="434" width="6" height="6" fill="#b388eb" /><rect x="1152" y="185" width="3" height="3" fill="#b388eb" /><rect x="607" y="172" width="7" height="7" fill="#b388eb" /><rect x="778" y="379" width="6" height="6" fill="#b388eb" /><rect x="1521" y="470" width="4" height="4" fill="#b388eb" /><rect x="836" y="45" width="5" height="5" fill="#b388eb" /><rect x="243" y="432" width="4" height="4" fill="#b388eb" /><rect x="942" y="335" width="3" height="3" fill="#b388eb" /><rect x="997" y="186" width="4" height="4" fill="#b388eb" /><rect x="200" y="353" width="4" height="4" fill="#b388eb" /><rect x="327" y="372" width="6" height="6" fill="#b388eb" /><rect x="786" y="227" width="6" height="6" fill="#b388eb" /><rect x="921" y="94" width="7" height="7" fill="#b388eb" /><rect x="780" y="85" width="4" height="4" fill="#b388eb" /><rect x="347" y="504" width="6" height="6" fill="#b388eb" /><rect x="822" y="55" width="7" height="7" fill="#b388eb" /><rect x="1293" y="194" width="7" height="7" fill="#b388eb" /><rect x="1040" y="265" width="5" height="5" fill="#b388eb" /><rect x="815" y="316" width="5" height="5" fill="#b388eb" /><rect x="26" y="331" width="3" height="3" fill="#b388eb" /><rect x="65" y="486" width="7" height="7" fill="#b388eb" /><rect x="1492" y="381" width="5" height="5" fill="#b388eb" /><rect x="1219" y="320" width="4" height="4" fill="#b388eb" /><rect x="958" y="31" width="7" height="7" fill="#b388eb" /><rect x="1333" y="458" width="5" height="5" fill="#b388eb" /><rect x="88" y="433" width="5" height="5" fill="#b388eb" /><rect x="23" y="4" width="7" height="7" fill="#b388eb" /><rect x="546" y="179" width="5" height="5" fill="#b388eb" /><rect x="1001" y="110" width="5" height="5" fill="#b388eb" /><rect x="412" y="421" width="6" height="6" fill="#b388eb" /><rect x="811" y="392" width="6" height="6" fill="#b388eb" /><rect x="838" y="263" width="6" height="6" fill="#b388eb" /><rect x="605" y="466" width="6" height="6" fill="#b388eb" /><rect y="0" width="1536" height="1" fill="#000" opacity="0.10" /><rect y="8" width="1536" height="1" fill="#000" opacity="0.10" /><rect y="16" width="1536" height="1" fill="#000" opacity="0.10" /><rect y="24" width="1536" height="1" fill="#000" opacity="0.10" /><rect y="32" width="1536" height="1" fill="#000" opacity="0.10" /><rect y="40" width="1536" height="1" fill="#000" opacity="0.10" /><rect y="48" width="1536" height="1" fill="#000" opacity="0.10" /><rect y="56" width="1536" height="1" fill="#000" opacity="0.10" /><rect y="64" width="1536" height="1" fill="#000" opacity="0.10" /><rect y="72" width="1536" height="1" fill="#000" opacity="0.10" /><rect y="80" width="1536" height="1" fill="#000" opacity="0.10" /><rect y="88" width="1536" height="1" fill="#000" opacity="0.10" /><rect y="96" width="1536" height="1" fill="#000" opacity="0.10" /><rect y="104" width="1536" height="1" fill="#000" opacity="0.10" /><rect y="112" width="1536" height="1" fill="#000" opacity="0.10" /><rect y="120" width="1536" height="1" fill="#000" opacity="0.10" /><rect y="128" width="1536" height="1" fill="#000" opacity="0.10" /><rect y="136" width="1536" height="1" fill="#000" opacity="0.10" /><rect y="144" width="1536" height="1" fill="#000" opacity="0.10" /><rect y="152" width="1536" height="1" fill="#000" opacity="0.10" /><rect y="160" width="1536" height="1" fill="#000" opacity="0.10" /><rect y="168" width="1536" height="1" fill="#000" opacity="0.10" /><rect y="176" width="1536" height="1" fill="#000" opacity="0.10" /><rect y="184" width="1536" height="1" fill="#000" opacity="0.10" /><rect y="192" width="1536" height="1" fill="#000" opacity="0.10" /><rect y="200" width="1536" height="1" fill="#000" opacity="0.10" /><rect y="208" width="1536" height="1" fill="#000" opacity="0.10" /><rect y="216" width="1536" height="1" fill="#000" opacity="0.10" /><rect y="224" width="1536" height="1" fill="#000" opacity="0.10" /><rect y="232" width="1536" height="1" fill="#000" opacity="0.10" /><rect y="240" width="1536" height="1" fill="#000" opacity="0.10" /><rect y="248" width="1536" height="1" fill="#000" opacity="0.10" /><rect y="256" width="1536" height="1" fill="#000" opacity="0.10" /><rect y="264" width="1536" height="1" fill="#000" opacity="0.10" /><rect y="272" width="1536" height="1" fill="#000" opacity="0.10" /><rect y="280" width="1536" height="1" fill="#000" opacity="0.10" /><rect y="288" width="1536" height="1" fill="#000" opacity="0.10" /><rect y="296" width="1536" height="1" fill="#000" opacity="0.10" /><rect y="304" width="1536" height="1" fill="#000" opacity="0.10" /><rect y="312" width="1536" height="1" fill="#000" opacity="0.10" /><rect y="320" width="1536" height="1" fill="#000" opacity="0.10" /><rect y="328" width="1536" height="1" fill="#000" opacity="0.10" /><rect y="336" width="1536" height="1" fill="#000" opacity="0.10" /><rect y="344" width="1536" height="1" fill="#000" opacity="0.10" /><rect y="352" width="1536" height="1" fill="#000" opacity="0.10" /><rect y="360" width="1536" height="1" fill="#000" opacity="0.10" /><rect y="368" width="1536" height="1" fill="#000" opacity="0.10" /><rect y="376" width="1536" height="1" fill="#000" opacity="0.10" /><rect y="384" width="1536" height="1" fill="#000" opacity="0.10" /><rect y="392" width="1536" height="1" fill="#000" opacity="0.10" /><rect y="400" width="1536" height="1" fill="#000" opacity="0.10" /><rect y="408" width="1536" height="1" fill="#000" opacity="0.10" /><rect y="416" width="1536" height="1" fill="#000" opacity="0.10" /><rect y="424" width="1536" height="1" fill="#000" opacity="0.10" /><rect y="432" width="1536" height="1" fill="#000" opacity="0.10" /><rect y="440" width="1536" height="1" fill="#000" opacity="0.10" /><rect y="448" width="1536" height="1" fill="#000" opacity="0.10" /><rect y="456" width="1536" height="1" fill="#000" opacity="0.10" /><rect y="464" width="1536" height="1" fill="#000" opacity="0.10" /><rect y="472" width="1536" height="1" fill="#000" opacity="0.10" /><rect y="480" width="1536" height="1" fill="#000" opacity="0.10" /><rect y="488" width="1536" height="1" fill="#000" opacity="0.10" /><rect y="496" width="1536" height="1" fill="#000" opacity="0.10" /><rect y="504" width="1536" height="1" fill="#000" opacity="0.10" /><rect y="512" width="1536" height="1" fill="#000" opacity="0.10" /><rect y="520" width="1536" height="1" fill="#000" opacity="0.10" /><rect y="528" width="1536" height="1" fill="#000" opacity="0.10" /><rect y="536" width="1536" height="1" fill="#000" opacity="0.10" /><rect y="544" width="1536" height="1" fill="#000" opacity="0.10" /><rect y="552" width="1536" height="1" fill="#000" opacity="0.10" /><rect y="560" width="1536" height="1" fill="#000" opacity="0.10" /><rect y="568" width="1536" height="1" fill="#000" opacity="0.10" /><rect y="576" width="1536" height="1" fill="#000" opacity="0.10" /><rect y="584" width="1536" height="1" fill="#000" opacity="0.10" /><rect y="592" width="1536" height="1" fill="#000" opacity="0.10" /><rect y="600" width="1536" height="1" fill="#000" opacity="0.10" /><rect y="608" width="1536" height="1" fill="#000" opacity="0.10" /><rect y="616" width="1536" height="1" fill="#000" opacity="0.10" /><rect y="624" width="1536" height="1" fill="#000" opacity="0.10" /><rect y="632" width="1536" height="1" fill="#000" opacity="0.10" /><rect y="640" width="1536" height="1" fill="#000" opacity="0.10" /><rect y="648" width="1536" height="1" fill="#000" opacity="0.10" /><rect y="656" width="1536" height="1" fill="#000" opacity="0.10" /><rect y="664" width="1536" height="1" fill="#000" opacity="0.10" /><rect y="672" width="1536" height="1" fill="#000" opacity="0.10" /><rect y="680" width="1536" height="1" fill="#000" opacity="0.10" /><rect y="688" width="1536" height="1" fill="#000" opacity="0.10" /><rect y="696" width="1536" height="1" fill="#000" opacity="0.10" /><rect y="704" width="1536" height="1" fill="#000" opacity="0.10" /><rect y="712" width="1536" height="1" fill="#000" opacity="0.10" /><rect y="720" width="1536" height="1" fill="#000" opacity="0.10" /><rect y="728" width="1536" height="1" fill="#000" opacity="0.10" /><rect y="736" width="1536" height="1" fill="#000" opacity="0.10" /><rect y="744" width="1536" height="1" fill="#000" opacity="0.10" /><rect y="752" width="1536" height="1" fill="#000" opacity="0.10" /><rect y="760" width="1536" height="1" fill="#000" opacity="0.10" /><rect y="768" width="1536" height="1" fill="#000" opacity="0.10" /><rect y="776" width="1536" height="1" fill="#000" opacity="0.10" /><rect y="784" width="1536" height="1" fill="#000" opacity="0.10" /><rect y="792" width="1536" height="1" fill="#000" opacity="0.10" /><rect y="800" width="1536" height="1" fill="#000" opacity="0.10" /><rect y="808" width="1536" height="1" fill="#000" opacity="0.10" /><rect y="816" width="1536" height="1" fill="#000" opacity="0.10" /><rect y="824" width="1536" height="1" fill="#000" opacity="0.10" /><rect y="832" width="1536" height="1" fill="#000" opacity="0.10" /><rect y="840" width="1536" height="1" fill="#000" opacity="0.10" /><rect y="848" width="1536" height="1" fill="#000" opacity="0.10" /><rect y="856" width="1536" height="1" fill="#000" opacity="0.10" /><rect y="864" width="1536" height="1" fill="#000" opacity="0.10" /><rect y="872" width="1536" height="1" fill="#000" opacity="0.10" /><rect y="880" width="1536" height="1" fill="#000" opacity="0.10" /><rect y="888" width="1536" height="1" fill="#000" opacity="0.10" /><rect y="896" width="1536" height="1" fill="#000" opacity="0.10" /><rect y="904" width="1536" height="1" fill="#000" opacity="0.10" /><rect y="912" width="1536" height="1" fill="#000" opacity="0.10" /><rect y="920" width="1536" height="1" fill="#000" opacity="0.10" /><rect y="928" width="1536" height="1" fill="#000" opacity="0.10" /><rect y="936" width="1536" height="1" fill="#000" opacity="0.10" /><rect y="944" width="1536" height="1" fill="#000" opacity="0.10" /><rect y="952" width="1536" height="1" fill="#000" opacity="0.10" /><rect y="960" width="1536" height="1" fill="#000" opacity="0.10" /><rect y="968" width="1536" height="1" fill="#000" opacity="0.10" /><rect y="976" width="1536" height="1" fill="#000" opacity="0.10" /><rect y="984" width="1536" height="1" fill="#000" opacity="0.10" /><rect y="992" width="1536" height="1" fill="#000" opacity="0.10" /><rect y="1000" width="1536" height="1" fill="#000" opacity="0.10" /><rect y="1008" width="1536" height="1" fill="#000" opacity="0.10" /><rect y="1016" width="1536" height="1" fill="#000" opacity="0.10" /><rect width="1536" height="26" fill="#000" opacity="0.35" /><rect y="998" width="1536" height="26" fill="#000" opacity="0.35" /></svg>