<svg xmlns="http://www.w3.org/2000/svg" viewBox="0 0 1536 1024" width="1536" height="1024" role="img"><title>Preview banner: hacks</title><rect width="1536" height="1024" fill="#0b0f17" /><path d="M0 0 L0 1024 M64 0 L64 1024 M128 0 L128 1024 M192 0 L192 1024 M256 0 L256 1024 M320 0 L320 1024 M384 0 L384 1024 M448 0 L448 1024 M512 0 L512 1024 M576 0 L576 1024 M640 0 L640 1024 M704 0 L704 1024 M768 0 L768 1024 M832 0 L832 1024 M896 0 L896 1024 M960 0 L960 1024 M1024 0 L1024 1024 M1088 0 L1088 1024 M1152 0 L1152 1024 M1216 0 L1216 1024 M1280 0 L1280 1024 M1344 0 L1344 1024 M1408 0 L1408 1024 M1472 0 L1472 1024 M1536 0 L1536 1024 M0 0 L1536 0 M0 64 L1536 64 M0 128 L1536 128 M0 192 L1536 192 M0 256 L1536 256 M0 320 L1536 320 M0 384 L1536 384 M0 448 L1536 448 M0 512 L1536 512 M0 576 L1536 576 M0 640 L1536 640 M0 704 L1536 704 M0 768 L1536 768 M0 832 L1536 832 M0 896 L1536 896 M0 960 L1536 960 M0 1024 L1536 1024" stroke="#171b2e" stroke-width="1" fill="none" stroke-opacity="0.9" /><path d="M928 64 L928 160 L928 192 L928 160 L928 128 L928 192 L928 192 L928 224" fill="none" stroke="#22d3ee" stroke-width="3" stroke-opacity="0.85" stroke-linecap="square" stroke-linejoin="miter" /><path d="M1024 800 L1024 800 L992 800 L928 800 L896 800 L896 800 L928 800 L1088 800" fill="none" stroke="#22d3ee" stroke-width="2" stroke-opacity="0.85" stroke-linecap="square" stroke-linejoin="miter" /><path d="M992 896 L992 928 L992 896 L992 896 L992 1024 L992 1024 L992 1024" fill="none" stroke="#22d3ee" stroke-width="2" stroke-opacity="0.85" stroke-linecap="square" stroke-linejoin="miter" /><path d="M384 672 L224 672 L224 672 L384 672" fill="none" stroke="#d946ef" stroke-width="2" stroke-opacity="0.85" stroke-linecap="square" stroke-linejoin="miter" /><path d="M1120 512 L1120 640 L1120 768 L1120 864 L1120 992" fill="none" stroke="#22d3ee" stroke-width="4" stroke-opacity="0.85" stroke-linecap="square" stroke-linejoin="miter" /><path d="M1152 928 L1120 928 L1088 928 L1216 928 L1248 928 L1216 928 L1344 928 L1440 928" fill="none" stroke="#22d3ee" stroke-width="3" stroke-opacity="0.85" stroke-linecap="square" stroke-linejoin="miter" /><path d="M608 512 L608 608 L608 544 L608 640 L608 768 L608 896 L608 992 L608 960" fill="none" stroke="#22d3ee" stroke-width="4" stroke-opacity="0.85" stroke-linecap="square" stroke-linejoin="miter" /><path d="M1472 992 L1408 992 L1376 992 L1216 992 L1280 992" fill="none" stroke="#22d3ee" stroke-width="2" stroke-opacity="0.85" stroke-linecap="square" stroke-linejoin="miter" /><path d="M96 512 L96 640 L96 544 L96 640" fill="none" stroke="#22d3ee" stroke-width="3" stroke-opacity="0.85" stroke-linecap="square" stroke-linejoin="miter" /><path d="M192 224 L128 224 L0 224 L0 224 L32 224 L0 224" fill="none" stroke="#d946ef" stroke-width="2" stroke-opacity="0.85" stroke-linecap="square" stroke-linejoin="miter" /><path d="M544 704 L544 608 L544 640 L544 704 L544 800" fill="none" stroke="#d946ef" stroke-width="3" stroke-opacity="0.85" stroke-linecap="square" stroke-linejoin="miter" /><path d="M320 352 L448 352 L416 352 L576 352 L640 352 L800 352 L960 352 L992 352" fill="none" stroke="#22d3ee" stroke-width="2" stroke-opacity="0.85" stroke-linecap="square" stroke-linejoin="miter" /><path d="M544 704 L544 640 L544 736 L544 800 L544 832 L544 832" fill="none" stroke="#22d3ee" stroke-width="2" stroke-opacity="0.85" stroke-linecap="square" stroke-linejoin="miter" /><path d="M768 32 L704 32 L864 32 L992 32" fill="none" stroke="#d946ef" stroke-width="4" stroke-opacity="0.85" stroke-linecap="square" stroke-linejoin="miter" /><path d="M480 384 L480 512 L480 416 L480 512 L480 544" fill="none" stroke="#d946ef" stroke-width="4" stroke-opacity="0.85" stroke-linecap="square" stroke-linejoin="miter" /><path d="M0 288 L128 288 L160 288 L128 288" fill="none" stroke="#22d3ee" stroke-width="4" stroke-opacity="0.85" stroke-linecap="square" stroke-linejoin="miter" /><path d="M1248 640 L1248 736 L1248 672 L1248 640" fill="none" stroke="#d946ef" stroke-width="4" stroke-opacity="0.85" stroke-linecap="square" stroke-linejoin="miter" /><path d="M1344 864 L1248 864 L1344 864 L1408 864 L1536 864" fill="none" stroke="#d946ef" stroke-width="3" stroke-opacity="0.85" stroke-linecap="square" stroke-linejoin="miter" /><path d="M1504 896 L1504 800 L1504 896 L1504 992 L1504 896 L1504 896" fill="none" stroke="#d946ef" stroke-width="4" stroke-opacity="0.85" stroke-linecap="square" stroke-linejoin="miter" /><path d="M1472 992 L1536 992 L1408 992 L1408 992 L1536 992" fill="none" stroke="#d946ef" stroke-width="3" stroke-opacity="0.85" stroke-linecap="square" stroke-linejoin="miter" /><path d="M608 512 L608 608 L608 576 L608 640 L608 576 L608 672" fill="none" stroke="#22d3ee" stroke-width="4" stroke-opacity="0.85" stroke-linecap="square" stroke-linejoin="miter" /><path d="M576 96 L544 96 L544 96 L640 96 L480 96 L352 96 L448 96 L480 96" fill="none" stroke="#d946ef" stroke-width="2" stroke-opacity="0.85" stroke-linecap="square" stroke-linejoin="miter" /><path d="M288 448 L288 448 L288 416 L288 288 L288 384" fill="none" stroke="#22d3ee" stroke-width="3" stroke-opacity="0.85" stroke-linecap="square" stroke-linejoin="miter" /><path d="M64 96 L0 96 L128 96 L32 96" fill="none" stroke="#22d3ee" stroke-width="3" stroke-opacity="0.85" stroke-linecap="square" stroke-linejoin="miter" /><path d="M32 704 L32 704 L32 704 L32 768 L32 672 L32 800 L32 704 L32 736" fill="none" stroke="#22d3ee" stroke-width="4" stroke-opacity="0.85" stroke-linecap="square" stroke-linejoin="miter" /><path d="M1152 928 L1120 928 L1248 928 L1248 928" fill="none" stroke="#d946ef" stroke-width="4" stroke-opacity="0.85" stroke-linecap="square" stroke-linejoin="miter" /><path d="M352 768 L352 704 L352 608 L352 640 L352 704 L352 608 L352 576" fill="none" stroke="#22d3ee" stroke-width="2" stroke-opacity="0.85" stroke-linecap="square" stroke-linejoin="miter" /><path d="M768 32 L800 32 L832 32 L704 32 L608 32 L608 32 L448 32 L608 32" fill="none" stroke="#d946ef" stroke-width="4" stroke-opacity="0.85" stroke-linecap="square" stroke-linejoin="miter" /><path d="M224 128 L224 256 L224 288 L224 352 L224 448 L224 320 L224 192 L224 128" fill="none" stroke="#22d3ee" stroke-width="2" stroke-opacity="0.85" stroke-linecap="square" stroke-linejoin="miter" /><path d="M576 96 L608 96 L448 96 L480 96 L640 96 L736 96 L672 96" fill="none" stroke="#22d3ee" stroke-width="4" stroke-opacity="0.85" stroke-linecap="square" stroke-linejoin="miter" /><path d="M96 512 L96 384 L96 320 L96 384 L96 512 L96 384 L96 352 L96 448" fill="none" stroke="#d946ef" stroke-width="2" stroke-opacity="0.85" stroke-linecap="square" stroke-linejoin="miter" /><path d="M448 992 L288 992 L128 992 L64 992 L96 992 L64 992 L0 992" fill="none" stroke="#22d3ee" stroke-width="4" stroke-opacity="0.85" stroke-linecap="square" stroke-linejoin="miter" /><path d="M1504 896 L1504 992 L1504 1024 L1504 896 L1504 832 L1504 832 L1504 832" fill="none" stroke="#22d3ee" stroke-width="3" stroke-opacity="0.85" stroke-linecap="square" stroke-linejoin="miter" /><path d="M896 672 L832 672 L864 672 L800 672 L640 672 L704 672" fill="none" stroke="#22d3ee" stroke-width="4" stroke-opacity="0.85" stroke-linecap="square" stroke-linejoin="miter" /><path d="M1504 896 L1504 960 L1504 1024 L1504 1024 L1504 1024 L1504 960 L1504 1024" fill="none" stroke="#22d3ee" stroke-width="3" stroke-opacity="0.85" stroke-linecap="square" stroke-linejoin="miter" /><path d="M1408 672 L1376 672 L1472 672 L1536 672" fill="none" stroke="#d946ef" stroke-width="4" stroke-opacity="0.85" stroke-linecap="square" stroke-linejoin="miter" /><path d="M96 512 L96 448 L96 352 L96 224 L96 192 L96 224" fill="none" stroke="#d946ef" stroke-width="4" stroke-opacity="0.85" stroke-linecap="square" stroke-linejoin="miter" /><path d="M576 96 L480 96 L608 96 L448 96 L416 96" fill="none" stroke="#22d3ee" stroke-width="3" stroke-opacity="0.85" stroke-linecap="square" stroke-linejoin="miter" /><path d="M1248 128 L1248 128 L1248 224 L1248 192 L1248 128" fill="none" stroke="#22d3ee" stroke-width="2" stroke-opacity="0.85" stroke-linecap="square" stroke-linejoin="miter" /><path d="M1280 32 L1408 32 L1536 32 L1504 32" fill="none" stroke="#d946ef" stroke-width="2" stroke-opacity="0.85" stroke-linecap="square" stroke-linejoin="miter" /><path d="M1504 384 L1504 320 L1504 416 L1504 384 L1504 288" fill="none" stroke="#22d3ee" stroke-width="4" stroke-opacity="0.85" stroke-linecap="square" stroke-linejoin="miter" /><path d="M512 288 L576 288 L736 288 L864 288 L960 288 L960 288" fill="none" stroke="#d946ef" stroke-width="4" stroke-opacity="0.85" stroke-linecap="square" stroke-linejoin="miter" /><path d="M1120 0 L1120 0 L1120 32 L1120 64 L1120 160" fill="none" stroke="#d946ef" stroke-width="2" stroke-opacity="0.85" stroke-linecap="square" stroke-linejoin="miter" /><path d="M1152 416 L1120 416 L1056 416 L1120 416 L992 416 L1024 416" fill="none" stroke="#22d3ee" stroke-width="2" stroke-opacity="0.85" stroke-linecap="square" stroke-linejoin="miter" /><path d="M736 640 L736 768 L736 768 L736 704 L736 800 L736 928 L736 800" fill="none" stroke="#d946ef" stroke-width="3" stroke-opacity="0.85" stroke-linecap="square" stroke-linejoin="miter" /><path d="M128 416 L128 416 L128 416 L224 416 L192 416 L96 416 L224 416 L160 416" fill="none" stroke="#22d3ee" stroke-width="2" stroke-opacity="0.85" stroke-linecap="square" stroke-linejoin="miter" /><path d="M96 0 L96 0 L96 32 L96 0 L96 0 L96 0 L96 0" fill="none" stroke="#22d3ee" stroke-width="3" stroke-opacity="0.85" stroke-linecap="square" stroke-linejoin="miter" /><path d="M1024 288 L928 288 L1056 288 L1184 288 L1280 288" fill="none" stroke="#d946ef" stroke-width="3" stroke-opacity="0.85" stroke-linecap="square" stroke-linejoin="miter" /><path d="M1440 576 L1440 512 L1440 384 L1440 512 L1440 544 L1440 672 L1440 576" fill="none" stroke="#d946ef" stroke-width="4" stroke-opacity="0.85" stroke-linecap="square" stroke-linejoin="miter" /><path d="M576 608 L608 608 L640 608 L768 608 L768 608 L832 608" fill="none" stroke="#22d3ee" stroke-width="3" stroke-opacity="0.85" stroke-linecap="square" stroke-linejoin="miter" /><path d="M928 576 L928 704 L928 800 L928 864 L928 864 L928 768 L928 704 L928 800" fill="none" stroke="#22d3ee" stroke-width="3" stroke-opacity="0.85" stroke-linecap="square" stroke-linejoin="miter" /><path d="M0 288 L0 288 L0 288 L128 288 L64 288 L160 288 L96 288 L64 288" fill="none" stroke="#22d3ee" stroke-width="2" stroke-opacity="0.85" stroke-linecap="square" stroke-linejoin="miter" /><path d="M480 384 L480 288 L480 192 L480 128" fill="none" stroke="#d946ef" stroke-width="2" stroke-opacity="0.85" stroke-linecap="square" stroke-linejoin="miter" /><path d="M1088 608 L1152 608 L1248 608 L1344 608 L1440 608 L1472 608" fill="none" stroke="#d946ef" stroke-width="3" stroke-opacity="0.85" stroke-linecap="square" stroke-linejoin="miter" /><path d="M1440 576 L1440 512 L1440 640 L1440 608 L1440 736" fill="none" stroke="#22d3ee" stroke-width="3" stroke-opacity="0.85" stroke-linecap="square" stroke-linejoin="miter" /><path d="M192 736 L160 736 L32 736 L0 736 L0 736 L64 736 L0 736" fill="none" stroke="#d946ef" stroke-width="3" stroke-opacity="0.85" stroke-linecap="square" stroke-linejoin="miter" /><path d="M736 640 L736 608 L736 640 L736 736 L736 672 L736 608 L736 672 L736 608" fill="none" stroke="#22d3ee" stroke-width="3" stroke-opacity="0.85" stroke-linecap="square" stroke-linejoin="miter" /><path d="M1088 608 L1088 608 L1216 608 L1216 608" fill="none" stroke="#d946ef" stroke-width="2" stroke-opacity="0.85" stroke-linecap="square" stroke-linejoin="miter" /><path d="M1056 192 L1056 256 L1056 160 L1056 32 L1056 0 L1056 128 L1056 32 L1056 96" fill="none" stroke="#22d3ee" stroke-width="2" stroke-opacity="0.85" stroke-linecap="square" stroke-linejoin="miter" /><path d="M1152 416 L1280 416 L1120 416 L1216 416 L1344 416" fill="none" stroke="#22d3ee" stroke-width="2" stroke-opacity="0.85" stroke-linecap="square" stroke-linejoin="miter" /><path d="M1056 192 L1056 320 L1056 256 L1056 352 L1056 352 L1056 416 L1056 352" fill="none" stroke="#22d3ee" stroke-width="2" stroke-opacity="0.85" stroke-linecap="square" stroke-linejoin="miter" /><path d="M1216 736 L1152 736 L992 736 L992 736 L992 736 L1056 736 L1216 736 L1056 736" fill="none" stroke="#22d3ee" stroke-width="2" stroke-opacity="0.85" stroke-linecap="square" stroke-linejoin="miter" /><path d="M928 576 L928 704 L928 576 L928 608 L928 512 L928 416" fill="none" stroke="#d946ef" stroke-width="4" stroke-opacity="0.85" stroke-linecap="square" stroke-linejoin="miter" /><path d="M128 416 L192 416 L192 416 L224 416 L352 416 L320 416 L192 416" fill="none" stroke="#22d3ee" stroke-width="2" stroke-opacity="0.85" stroke-linecap="square" stroke-linejoin="miter" /><circle cx="928" cy="64" r="7" fill="#0b0f17" stroke="#22d3ee" stroke-width="3" /><circle cx="928" cy="224" r="7" fill="#0b0f17" stroke="#22d3ee" stroke-width="3" /><circle cx="1024" cy="800" r="7" fill="#0b0f17" stroke="#22d3ee" stroke-width="3" /><circle cx="1088" cy="800" r="7" fill="#0b0f17" stroke="#22d3ee" stroke-width="3" /><circle cx="992" cy="896" r="7" fill="#0b0f17" stroke="#22d3ee" stroke-width="3" /><circle cx="992" cy="1024" r="7" fill="#0b0f17" stroke="#22d3ee" stroke-width="3" /><circle cx="384" cy="672" r="7" fill="#0b0f17" stroke="#22d3ee" stroke-width="3" /><circle cx="384" cy="672" r="7" fill="#0b0f17" stroke="#22d3ee" stroke-width="3" /><circle cx="1120" cy="512" r="7" fill="#0b0f17" stroke="#22d3ee" stroke-width="3" /><circle cx="1120" cy="992" r="7" fill="#0b0f17" stroke="#22d3ee" stroke-width="3" /><circle cx="1152" cy="928" r="7" fill="#0b0f17" stroke="#22d3ee" stroke-width="3" /><circle cx="1440" cy="928" r="7" fill="#0b0f17" stroke="#22d3ee" stroke-width="3" /><circle cx="608" cy="512" r="7" fill="#0b0f17" stroke="#22d3ee" stroke-width="3" /><circle cx="608" cy="960" r="7" fill="#0b0f17" stroke="#22d3ee" stroke-width="3" /><circle cx="1472" cy="992" r="7" fill="#0b0f17" stroke="#22d3ee" stroke-width="3" /><circle cx="1280" cy="992" r="7" fill="#0b0f17" stroke="#22d3ee" stroke-width="3" /><circle cx="96" cy="512" r="7" fill="#0b0f17" stroke="#22d3ee" stroke-width="3" /><circle cx="96" cy="640" r="7" fill="#0b0f17" stroke="#22d3ee" stroke-width="3" /><circle cx="192" cy="224" r="7" fill="#0b0f17" stroke="#22d3ee" stroke-width="3" /><circle cx="0" cy="224" r="7" fill="#0b0f17" stroke="#22d3ee" stroke-width="3" /><circle cx="544" cy="704" r="7" fill="#0b0f17" stroke="#22d3ee" stroke-width="3" /><circle cx="544" cy="800" r="7" fill="#0b0f17" stroke="#22d3ee" stroke-width="3" /><circle cx="320" cy="352" r="7" fill="#0b0f17" stroke="#22d3ee" stroke-width="3" /><circle cx="992" cy="352" r="7" fill="#0b0f17" stroke="#22d3ee" stroke-width="3" /><circle cx="544" cy="704" r="7" fill="#0b0f17" stroke="#22d3ee" stroke-width="3" /><circle cx="544" cy="832" r="7" fill="#0b0f17" stroke="#22d3ee" stroke-width="3" /><circle cx="768" cy="32" r="7" fill="#0b0f17" stroke="#22d3ee" stroke-width="3" /><circle cx="992" cy="32" r="7" fill="#0b0f17" stroke="#22d3ee" stroke-width="3" /><circle cx="480" cy="384" r="7" fill="#0b0f17" stroke="#22d3ee" stroke-width="3" /><circle cx="480" cy="544" r="7" fill="#0b0f17" stroke="#22d3ee" stroke-width="3" /><circle cx="0" cy="288" r="7" fill="#0b0f17" stroke="#22d3ee" stroke-width="3" /><circle cx="128" cy="288" r="7" fill="#0b0f17" stroke="#22d3ee" stroke-width="3" /><circle cx="1248" cy="640" r="7" fill="#0b0f17" stroke="#22d3ee" stroke-width="3" /><circle cx="1248" cy="640" r="7" fill="#0b0f17" stroke="#22d3ee" stroke-width="3" /><circle cx="1344" cy="864" r="7" fill="#0b0f17" stroke="#22d3ee" stroke-width="3" /><circle cx="1536" cy="864" r="7" fill="#0b0f17" stroke="#22d3ee" stroke-width="3" /><circle cx="1504" cy="896" r="7" fill="#0b0f17" stroke="#22d3ee" stroke-width="3" /><circle cx="1504" cy="896" r="7" fill="#0b0f17" stroke="#22d3ee" stroke-width="3" /><circle cx="1472" cy="992" r="7" fill="#0b0f17" stroke="#22d3ee" stroke-width="3" /><circle cx="1536" cy="992" r="7" fill="#0b0f17" stroke="#22d3ee" stroke-width="3" /><circle cx="608" cy="512" r="7" fill="#0b0f17" stroke="#22d3ee" stroke-width="3" /><circle cx="608" cy="672" r="7" fill="#0b0f17" stroke="#22d3ee" stroke-width="3" /><circle cx="576" cy="96" r="7" fill="#0b0f17" stroke="#22d3ee" stroke-width="3" /><circle cx="480" cy="96" r="7" fill="#0b0f17" stroke="#22d3ee" stroke-width="3" /><circle cx="288" cy="448" r="7" fill="#0b0f17" stroke="#22d3ee" stroke-width="3" /><circle cx="288" cy="384" r="7" fill="#0b0f17" stroke="#22d3ee" stroke-width="3" /><circle cx="64" cy="96" r="7" fill="#0b0f17" stroke="#22d3ee" stroke-width="3" /><circle cx="32" cy="96" r="7" fill="#0b0f17" stroke="#22d3ee" stroke-width="3" /><circle cx="32" cy="704" r="7" fill="#0b0f17" stroke="#22d3ee" stroke-width="3" /><circle cx="32" cy="736" r="7" fill="#0b0f17" stroke="#22d3ee" stroke-width="3" /><circle cx="1152" cy="928" r="7" fill="#0b0f17" stroke="#22d3ee" stroke-width="3" /><circle cx="1248" cy="928" r="7" fill="#0b0f17" stroke="#22d3ee" stroke-width="3" /><circle cx="352" cy="768" r="7" fill="#0b0f17" stroke="#22d3ee" stroke-width="3" /><circle cx="352" cy="576" r="7" fill="#0b0f17" stroke="#22d3ee" stroke-width="3" /><circle cx="768" cy="32" r="7" fill="#0b0f17" stroke="#22d3ee" stroke-width="3" /><circle cx="608" cy="32" r="7" fill="#0b0f17" stroke="#22d3ee" stroke-width="3" /><circle cx="224" cy="128" r="7" fill="#0b0f17" stroke="#22d3ee" stroke-width="3" /><circle cx="224" cy="128" r="7" fill="#0b0f17" stroke="#22d3ee" stroke-width="3" /><circle cx="576" cy="96" r="7" fill="#0b0f17" stroke="#22d3ee" stroke-width="3" /><circle cx="672" cy="96" r="7" fill="#0b0f17" stroke="#22d3ee" stroke-width="3" /><circle cx="96" cy="512" r="7" fill="#0b0f17" stroke="#22d3ee" stroke-width="3" /><circle cx="96" cy="448" r="7" fill="#0b0f17" stroke="#22d3ee" stroke-width="3" /><circle cx="448" cy="992" r="7" fill="#0b0f17" stroke="#22d3ee" stroke-width="3" /><circle cx="0" cy="992" r="7" fill="#0b0f17" stroke="#22d3ee" stroke-width="3" /><circle cx="1504" cy="896" r="7" fill="#0b0f17" stroke="#22d3ee" stroke-width="3" /><circle cx="1504" cy="832" r="7" fill="#0b0f17" stroke="#22d3ee" stroke-width="3" /><circle cx="896" cy="672" r="7" fill="#0b0f17" stroke="#22d3ee" stroke-width="3" /><circle cx="704" cy="672" r="7" fill="#0b0f17" stroke="#22d3ee" stroke-width="3" /><circle cx="1504" cy="896" r="7" fill="#0b0f17" stroke="#22d3ee" stroke-width="3" /><circle cx="1504" cy="1024" r="7" fill="#0b0f17" stroke="#22d3ee" stroke-width="3" /><circle cx="1408" cy="672" r="7" fill="#0b0f17" stroke="#22d3ee" stroke-width="3" /><circle cx="1536" cy="672" r="7" fill="#0b0f17" stroke="#22d3ee" stroke-width="3" /><circle cx="96" cy="512" r="7" fill="#0b0f17" stroke="#22d3ee" stroke-width="3" /><circle cx="96" cy="224" r="7" fill="#0b0f17" stroke="#22d3ee" stroke-width="3" /><circle cx="576" cy="96" r="7" fill="#0b0f17" stroke="#22d3ee" stroke-width="3" /><circle cx="416" cy="96" r="7" fill="#0b0f17" stroke="#22d3ee" stroke-width="3" /><circle cx="1248" cy="128" r="7" fill="#0b0f17" stroke="#22d3ee" stroke-width="3" /><circle cx="1248" cy="128" r="7" fill="#0b0f17" stroke="#22d3ee" stroke-width="3" /><circle cx="1280" cy="32" r="7" fill="#0b0f17" stroke="#22d3ee" stroke-width="3" /><circle cx="1504" cy="32" r="7" fill="#0b0f17" stroke="#22d3ee" stroke-width="3" /><circle cx="1504" cy="384" r="7" fill="#0b0f17" stroke="#22d3ee" stroke-width="3" /><circle cx="1504" cy="288" r="7" fill="#0b0f17" stroke="#22d3ee" stroke-width="3" /><circle cx="512" cy="288" r="7" fill="#0b0f17" stroke="#22d3ee" stroke-width="3" /><circle cx="960" cy="288" r="7" fill="#0b0f17" stroke="#22d3ee" stroke-width="3" /><circle cx="1120" cy="0" r="7" fill="#0b0f17" stroke="#22d3ee" stroke-width="3" /><circle cx="1120" cy="160" r="7" fill="#0b0f17" stroke="#22d3ee" stroke-width="3" /><circle cx="1152" cy="416" r="7" fill="#0b0f17" stroke="#22d3ee" stroke-width="3" /><circle cx="1024" cy="416" r="7" fill="#0b0f17" stroke="#22d3ee" stroke-width="3" /><circle cx="736" cy="640" r="7" fill="#0b0f17" stroke="#22d3ee" stroke-width="3" /><circle cx="736" cy="800" r="7" fill="#0b0f17" stroke="#22d3ee" stroke-width="3" /><circle cx="128" cy="416" r="7" fill="#0b0f17" stroke="#22d3ee" stroke-width="3" /><circle cx="160" cy="416" r="7" fill="#0b0f17" stroke="#22d3ee" stroke-width="3" /><circle cx="96" cy="0" r="7" fill="#0b0f17" stroke="#22d3ee" stroke-width="3" /><circle cx="96" cy="0" r="7" fill="#0b0f17" stroke="#22d3ee" stroke-width="3" /><circle cx="1024" cy="288" r="7" fill="#0b0f17" stroke="#22d3ee" stroke-width="3" /><circle cx="1280" cy="288" r="7" fill="#0b0f17" stroke="#22d3ee" stroke-width="3" /><circle cx="1440" cy="576" r="7" fill="#0b0f17" stroke="#22d3ee" stroke-width="3" /><circle cx="1440" cy="576" r="7" fill="#0b0f17" stroke="#22d3ee" stroke-width="3" /><circle cx="576" cy="608" r="7" fill="#0b0f17" stroke="#22d3ee" stroke-width="3" /><circle cx="832" cy="608" r="7" fill="#0b0f17" stroke="#22d3ee" stroke-width="3" /><circle cx="928" cy="576" r="7" fill="#0b0f17" stroke="#22d3ee" stroke-width="3" /><circle cx="928" cy="800" r="7" fill="#0b0f17" stroke="#22d3ee" stroke-width="3" /><circle cx="0" cy="288" r="7" fill="#0b0f17" stroke="#22d3ee" stroke-width="3" /><circle cx="64" cy="288" r="7" fill="#0b0f17" stroke="#22d3ee" stroke-width="3" /><circle cx="480" cy="384" r="7" fill="#0b0f17" stroke="#22d3ee" stroke-width="3" /><circle cx="480" cy="128" r="7" fill="#0b0f17" stroke="#22d3ee" stroke-width="3" /><circle cx="1088" cy="608" r="7" fill="#0b0f17" stroke="#22d3ee" stroke-width="3" /><circle cx="1472" cy="608" r="7" fill="#0b0f17" stroke="#22d3ee" stroke-width="3" /><circle cx="1440" cy="576" r="7" fill="#0b0f17" stroke="#22d3ee" stroke-width="3" /><circle cx="1440" cy="736" r="7" fill="#0b0f17" stroke="#22d3ee" stroke-width="3" /><circle cx="192" cy="736" r="7" fill="#0b0f17" stroke="#22d3ee" stroke-width="3" /><circle cx="0" cy="736" r="7" fill="#0b0f17" stroke="#22d3ee" stroke-width="3" /><circle cx="736" cy="640" r="7" fill="#0b0f17" stroke="#22d3ee" stroke-width="3" /><circle cx="736" cy="608" r="7" fill="#0b0f17" stroke="#22d3ee" stroke-width="3" /><circle cx="1088" cy="608" r="7" fill="#0b0f17" stroke="#22d3ee" stroke-width="3" /><circle cx="1216" cy="608" r="7" fill="#0b0f17" stroke="#22d3ee" stroke-width="3" /><circle cx="1056" cy="192" r="7" fill="#0b0f17" stroke="#22d3ee" stroke-width="3" /><circle cx="1056" cy="96" r="7" fill="#0b0f17" stroke="#22d3ee" stroke-width="3" /><circle cx="1152" cy="416" r="7" fill="#0b0f17" stroke="#22d3ee" stroke-width="3" /><circle cx="1344" cy="416" r="7" fill="#0b0f17" stroke="#22d3ee" stroke-width="3" /><circle cx="1056" cy="192" r="7" fill="#0b0f17" stroke="#22d3ee" stroke-width="3" /><circle cx="1056" cy="352" r="7" fill="#0b0f17" stroke="#22d3ee" stroke-width="3" /><circle cx="1216" cy="736" r="7" fill="#0b0f17" stroke="#22d3ee" stroke-width="3" /><circle cx="1056" cy="736" r="7" fill="#0b0f17" stroke="#22d3ee" stroke-width="3" /><circle cx="928" cy="576" r="7" fill="#0b0f17" stroke="#22d3ee" stroke-width="3" /><circle cx="928" cy="416" r="7" fill="#0b0f17" stroke="#22d3ee" stroke-width="3" /><circle cx="128" cy="416" r="7" fill="#0b0f17" stroke="#22d3ee" stroke-width="3" /><circle cx="192" cy="416" r="7" fill="#0b0f17" stroke="#22d3ee" stroke-width="3" /><rect x="416" y="448" width="96" height="64" rx="6" fill="#2b2a5e" stroke="#f5f3ff" stroke-width="2" /><rect x="424" y="512" width="6" height="10" fill="#f5f3ff" /><rect x="440" y="512" width="6" height="10" fill="#f5f3ff" /><rect x="456" y="512" width="6" height="10" fill="#f5f3ff" /><rect x="472" y="512" width="6" height="10" fill="#f5f3ff" /><rect x="488" y="512" width="6" height="10" fill="#f5f3ff" /><rect x="504" y="512" width="6" height="10" fill="#f5f3ff" /><rect x="800" y="320" width="96" height="64" rx="6" fill="#2b2a5e" stroke="#f5f3ff" stroke-width="2" /><rect x="808" y="384" width="6" height="10" fill="#f5f3ff" /><rect x="824" y="384" width="6" height="10" fill="#f5f3ff" /><rect x="840" y="384" width="6" height="10" fill="#f5f3ff" /><rect x="856" y="384" width="6" height="10" fill="#f5f3ff" /><rect x="872" y="384" width="6" height="10" fill="#f5f3ff" /><rect x="888" y="384" width="6" height="10" fill="#f5f3ff" /><rect x="928" y="832" width="128" height="64" rx="6" fill="#2b2a5e" stroke="#f5f3ff" stroke-width="2" /><rect x="936" y="896" width="6" height="10" fill="#f5f3ff" /><rect x="952" y="896" width="6" height="10" fill="#f5f3ff" /><rect x="968" y="896" width="6" height="10" fill="#f5f3ff" /><rect x="984" y="896" width="6" height="10" fill="#f5f3ff" /><rect x="1000" y="896" width="6" height="10" fill="#f5f3ff" /><rect x="1016" y="896" width="6" height="10" fill="#f5f3ff" /><rect x="1032" y="896" width="6" height="10" fill="#f5f3ff" /><rect x="1048" y="896" width="6" height="10" fill="#f5f3ff" /><rect x="32" y="576" width="96" height="64" rx="6" fill="#2b2a5e" stroke="#f5f3ff" stroke-width="2" /><rect x="40" y="640" width="6" height="10" fill="#f5f3ff" /><rect x="56" y="640" width="6" height="10" fill="#f5f3ff" /><rect x="72" y="640" width="6" height="10" fill="#f5f3ff" /><rect x="88" y="640" width="6" height="10" fill="#f5f3ff" /><rect x="104" y="640" width="6" height="10" fill="#f5f3ff" /><rect x="120" y="640" width="6" height="10" fill="#f5f3ff" /><rect x="544" y="448" width="160" height="64" rx="6" fill="#2b2a5e" stroke="#f5f3ff" stroke-width="2" /><rect x="552" y="512" width="6" height="10" fill="#f5f3ff" /><rect x="568" y="512" width="6" height="10" fill="#f5f3ff" /><rect x="584" y="512" width="6" height="10" fill="#f5f3ff" /><rect x="600" y="512" width="6" height="10" fill="#f5f3ff" /><rect x="616" y="512" width="6" height="10" fill="#f5f3ff" /><rect x="632" y="512" width="6" height="10" fill="#f5f3ff" /><rect x="648" y="512" width="6" height="10" fill="#f5f3ff" /><rect x="664" y="512" width="6" height="10" fill="#f5f3ff" /><rect x="680" y="512" width="6" height="10" fill="#f5f3ff" /><rect x="696" y="512" width="6" height="10" fill="#f5f3ff" /><rect x="1248" y="192" width="128" height="64" rx="6" fill="#2b2a5e" stroke="#f5f3ff" stroke-width="2" /><rect x="1256" y="256" width="6" height="10" fill="#f5f3ff" /><rect x="1272" y="256" width="6" height="10" fill="#f5f3ff" /><rect x="1288" y="256" width="6" height="10" fill="#f5f3ff" /><rect x="1304" y="256" width="6" height="10" fill="#f5f3ff" /><rect x="1320" y="256" width="6" height="10" fill="#f5f3ff" /><rect x="1336" y="256" width="6" height="10" fill="#f5f3ff" /><rect x="1352" y="256" width="6" height="10" fill="#f5f3ff" /><rect x="1368" y="256" width="6" height="10" fill="#f5f3ff" /></svg>