<svg xmlns="http://www.w3.org/2000/svg" viewBox="0 0 1536 1024" width="1536" height="1024"><rect width="1536" height="1024" fill="#232931" /><rect y="0" width="1536" height="128" fill="#393e46" opacity="0.25" /><rect y="128" width="1536" height="128" fill="#393e46" opacity="0.37" /><rect y="256" width="1536" height="128" fill="#393e46" opacity="0.49" /><circle cx="1130" cy="295" r="166" fill="#f95959" /><circle cx="1130" cy="295" r="140" fill="#eeeeee" /><rect x="965" y="307" width="330" height="10" fill="#232931" /><rect x="970" y="333" width="320" height="10" fill="#232931" /><rect x="980" y="359" width="300" height="10" fill="#232931" /><polygon points="-40,1024 -40,539 102,539 102,613 340,613 340,495 490,495 490,713 588,713 588,511 750,511 750,629 874,629 874,739 1036,739 1036,653 1128,653 1128,675 1298,675 1298,585 1418,585 1418,707 1528,707 1528,657 1670,657 1616,1024" fill="#4ecca3" /><polygon points="-40,1024 -40,407 62,407 62,561 300,561 300,367 444,367 444,433 614,433 614,379 792,379 792,593 886,593 886,647 1062,647 1062,501 1290,501 1290,575 1450,575 1450,529 1678,529 1616,1024" fill="#a5ecd7" /><polygon points="-40,1024 -40,507 92,507 92,329 246,329 246,519 364,519 364,401 484,401 484,307 722,307 722,377 944,377 944,491 1072,491 1072,493 1276,493 1276,447 1430,447 1430,549 1630,549 1616,1024" fill="#393e46" /><rect x="1485" y="130" width="6" height="6" fill="#eeeeee" /><rect x="1488" y="457" width="6" height="6" fill="#eeeeee" /><rect x="495" y="252" width="6" height="6" fill="#eeeeee" /><rect x="474" y="11" width="4" height="4" fill="#eeeeee" /><rect x="1281" y="422" width="3" height="3" fill="#eeeeee" /><rect x="404" y="61" width="3" height="3" fill="#eeeeee" /><rect x="899" y="256" width="6" height="6" fill="#eeeeee" /><rect x="382" y="223" width="7" height="7" fill="#eeeeee" /><rect x="1013" y="394" width="3" height="3" fill="#eeeeee" /><rect x="1048" y="113" width="6" height="6" fill="#eeeeee" /><rect x="727" y="452" width="4" height="4" fill="#eeeeee" /><rect x="1506" y="371" width="7" height="7" fill="#eeeeee" /><rect x="169" y="46" width="6" height="6" fill="#eeeeee" /><rect x="348" y="101" width="7" height="7" fill="#eeeeee" /><rect x="491" y="328" width="4" height="4" fill="#eeeeee" /><rect x="774" y="455" width="5" height="5" fill="#eeeeee" /><rect x="1309" y="402" width="7" height="7" fill="#eeeeee" /><rect x="864" y="25" width="5" height="5" fill="#eeeeee" /><rect x="1215" y="396" width="5" height="5" fill="#eeeeee" /><rect x="1258" y="475" width="3" height="3" fill="#eeeeee" /><rect x="849" y="438" width="5" height="5" fill="#eeeeee" /><rect x="1060" y="397" width="7" height="7" fill="#eeeeee" /><rect x="851" y="144" width="3" height="3" fill="#eeeeee" /><rect x="910" y="431" width="3" height="3" fill="#eeeeee" /><rect x="325" y="154" width="3" height="3" fill="#eeeeee" /><rect x="424" y="193" width="3" height="3" fill="#eeeeee" /><rect x="423" y="84" width="3" height="3" fill="#eeeeee" /><rect x="1266" y="323" width="7" height="7" fill="#eeeeee" /><rect x="249" y="62" width="6" height="6" fill="#eeeeee" /><rect x="492" y="437" width="7" height="7" fill="#eeeeee" /><rect x="1467" y="216" width="3" height="3" fill="#eeeeee" /><rect x="278" y="151" width="7" height="7" fill="#eeeeee" /><rect x="109" y="162" width="3" height="3" fill="#eeeeee" /><rect x="752" y="105" width="4" height="4" fill="#eeeeee" /><rect x="911" y="28" width="6" height="6" fill="#eeeeee" /><rect x="1018" y="427" width="7" height="7" fill="#eeeeee" /><rect x="1441" y="454" width="4" height="4" fill="#eeeeee" /><rect x="1204" y="221" width="3" height="3" fill="#eeeeee" /><rect x="291" y="32" width="5" height="5" fill="#eeeeee" /><rect x="1438" y="127" width="5" height="5" fill="#eeeeee" /><rect y="0" width="1536" height="1" fill="#000" opacity="0.10" /><rect y="8" width="1536" height="1" fill="#000" opacity="0.10" /><rect y="16" width="1536" height="1" fill="#000" opacity="0.10" /><rect y="24" width="1536" height="1" fill="#000" opacity="0.10" /><rect y="32" width="1536" height="1" fill="#000" opacity="0.10" /><rect y="40" width="1536" height="1" fill="#000" opacity="0.10" /><rect y="48" width="1536" height="1" fill="#000" opacity="0.10" /><rect y="56" width="1536" height="1" fill="#000" opacity="0.10" /><rect y="64" width="1536" height="1" fill="#000" opacity="0.10" /><rect y="72" width="1536" height="1" fill="#000" opacity="0.10" /><rect y="80" width="1536" height="1" fill="#000" opacity="0.10" /><rect y="88" width="1536" height="1" fill="#000" opacity="0.10" /><rect y="96" width="1536" height="1" fill="#000" opacity="0.10" /><rect y="104" width="1536" height="1" fill="#000" opacity="0.10" /><rect y="112" width="1536" height="1" fill="#000" opacity="0.10" /><rect y="120" width="1536" height="1" fill="#000" opacity="0.10" /><rect y="128" width="1536" height="1" fill="#000" opacity="0.10" /><rect y="136" width="1536" height="1" fill="#000" opacity="0.10" /><rect y="144" width="1536" height="1" fill="#000" opacity="0.10" /><rect y="152" width="1536" height="1" fill="#000" opacity="0.10" /><rect y="160" width="1536" height="1" fill="#000" opacity="0.10" /><rect y="168" width="1536" height="1" fill="#000" opacity="0.10" /><rect y="176" width="1536" height="1" fill="#000" opacity="0.10" /><rect y="184" width="1536" height="1" fill="#000" opacity="0.10" /><rect y="192" width="1536" height="1" fill="#000" opacity="0.10" /><rect y="200" width="1536" height="1" fill="#000" opacity="0.10" /><rect y="208" width="1536" height="1" fill="#000" opacity="0.10" /><rect y="216" width="1536" height="1" fill="#000" opacity="0.10" /><rect y="224" width="1536" height="1" fill="#000" opacity="0.10" /><rect y="232" width="1536" height="1" fill="#000" opacity="0.10" /><rect y="240" width="1536" height="1" fill="#000" opacity="0.10" /><rect y="248" width="1536" height="1" fill="#000" opacity="0.10" /><rect y="256" width="1536" height="1" fill="#000" opacity="0.10" /><rect y="264" width="1536" height="1" fill="#000" opacity="0.10" /><rect y="272" width="1536" height="1" fill="#000" opacity="0.10" /><rect y="280" width="1536" height="1" fill="#000" opacity="0.10" /><rect y="288" width="1536" height="1" fill="#000" opacity="0.10" /><rect y="296" width="1536" height="1" fill="#000" opacity="0.10" /><rect y="304" width="1536" height="1" fill="#000" opacity="0.10" /><rect y="312" width="1536" height="1" fill="#000" opacity="0.10" /><rect y="320" width="1536" height="1" fill="#000" opacity="0.10" /><rect y="328" width="1536" height="1" fill="#000" opacity="0.10" /><rect y="336" width="1536" height="1" fill="#000" opacity="0.10" /><rect y="344" width="1536" height="1" fill="#000" opacity="0.10" /><rect y="352" width="1536" height="1" fill="#000" opacity="0.10" /><rect y="360" width="1536" height="1" fill="#000" opacity="0.10" /><rect y="368" width="1536" height="1" fill="#000" opacity="0.10" /><rect y="376" width="1536" height="1" fill="#000" opacity="0.10" /><rect y="384" width="1536" height="1" fill="#000" opacity="0.10" /><rect y="392" width="1536" height="1" fill="#000" opacity="0.10" /><rect y="400" width="1536" height="1" fill="#000" opacity="0.10" /><rect y="408" width="1536" height="1" fill="#000" opacity="0.10" /><rect y="416" width="1536" height="1" fill="#000" opacity="0.10" /><rect y="424" width="1536" height="1" fill="#000" opacity="0.10" /><rect y="432" width="1536" height="1" fill="#000" opacity="0.10" /><rect y="440" width="1536" height="1" fill="#000" opacity="0.10" /><rect y="448" width="1536" height="1" fill="#000" opacity="0.10" /><rect y="456" width="1536" height="1" fill="#000" opacity="0.10" /><rect y="464" width="1536" height="1" fill="#000" opacity="0.10" /><rect y="472" width="1536" height="1" fill="#000" opacity="0.10" /><rect y="480" width="1536" height="1" fill="#000" opacity="0.10" /><rect y="488" width="1536" height="1" fill="#000" opacity="0.10" /><rect y="496" width="1536" height="1" fill="#000" opacity="0.10" /><rect y="504" width="1536" height="1" fill="#000" opacity="0.10" /><rect y="512" width="1536" height="1" fill="#000" opacity="0.10" /><rect y="520" width="1536" height="1" fill="#000" opacity="0.10" /><rect y="528" width="1536" height="1" fill="#000" opacity="0.10" /><rect y="536" width="1536" height="1" fill="#000" opacity="0.10" /><rect y="544" width="1536" height="1" fill="#000" opacity="0.10" /><rect y="552" width="1536" height="1" fill="#000" opacity="0.10" /><rect y="560" width="1536" height="1" fill="#000" opacity="0.10" /><rect y="568" width="1536" height="1" fill="#000" opacity="0.10" /><rect y="576" width="1536" height="1" fill="#000" opacity="0.10" /><rect y="584" width="1536" height="1" fill="#000" opacity="0.10" /><rect y="592" width="1536" height="1" fill="#000" opacity="0.10" /><rect y="600" width="1536" height="1" fill="#000" opacity="0.10" /><rect y="608" width="1536" height="1" fill="#000" opacity="0.10" /><rect y="616" width="1536" height="1" fill="#000" opacity="0.10" /><rect y="624" width="1536" height="1" fill="#000" opacity="0.10" /><rect y="632" width="1536" height="1" fill="#000" opacity="0.10" /><rect y="640" width="1536" height="1" fill="#000" opacity="0.10" /><rect y="648" width="1536" height="1" fill="#000" opacity="0.10" /><rect y="656" width="1536" height="1" fill="#000" opacity="0.10" /><rect y="664" width="1536" height="1" fill="#000" opacity="0.10" /><rect y="672" width="1536" height="1" fill="#000" opacity="0.10" /><rect y="680" width="1536" height="1" fill="#000" opacity="0.10" /><rect y="688" width="1536" height="1" fill="#000" opacity="0.10" /><rect y="696" width="1536" height="1" fill="#000" opacity="0.10" /><rect y="704" width="1536" height="1" fill="#000" opacity="0.10" /><rect y="712" width="1536" height="1" fill="#000" opacity="0.10" /><rect y="720" width="1536" height="1" fill="#000" opacity="0.10" /><rect y="728" width="1536" height="1" fill="#000" opacity="0.10" /><rect y="736" width="1536" height="1" fill="#000" opacity="0.10" /><rect y="744" width="1536" height="1" fill="#000" opacity="0.10" /><rect y="752" width="1536" height="1" fill="#000" opacity="0.10" /><rect y="760" width="1536" height="1" fill="#000" opacity="0.10" /><rect y="768" width="1536" height="1" fill="#000" opacity="0.10" /><rect y="776" width="1536" height="1" fill="#000" opacity="0.10" /><rect y="784" width="1536" height="1" fill="#000" opacity="0.10" /><rect y="792" width="1536" height="1" fill="#000" opacity="0.10" /><rect y="800" width="1536" height="1" fill="#000" opacity="0.10" /><rect y="808" width="1536" height="1" fill="#000" opacity="0.10" /><rect y="816" width="1536" height="1" fill="#000" opacity="0.10" /><rect y="824" width="1536" height="1" fill="#000" opacity="0.10" /><rect y="832" width="1536" height="1" fill="#000" opacity="0.10" /><rect y="840" width="1536" height="1" fill="#000" opacity="0.10" /><rect y="848" width="1536" height="1" fill="#000" opacity="0.10" /><rect y="856" width="1536" height="1" fill="#000" opacity="0.10" /><rect y="864" width="1536" height="1" fill="#000" opacity="0.10" /><rect y="872" width="1536" height="1" fill="#000" opacity="0.10" /><rect y="880" width="1536" height="1" fill="#000" opacity="0.10" /><rect y="888" width="1536" height="1" fill="#000" opacity="0.10" /><rect y="896" width="1536" height="1" fill="#000" opacity="0.10" /><rect y="904" width="1536" height="1" fill="#000" opacity="0.10" /><rect y="912" width="1536" height="1" fill="#000" opacity="0.10" /><rect y="920" width="1536" height="1" fill="#000" opacity="0.10" /><rect y="928" width="1536" height="1" fill="#000" opacity="0.10" /><rect y="936" width="1536" height="1" fill="#000" opacity="0.10" /><rect y="944" width="1536" height="1" fill="#000" opacity="0.10" /><rect y="952" width="1536" height="1" fill="#000" opacity="0.10" /><rect y="960" width="1536" height="1" fill="#000" opacity="0.10" /><rect y="968" width="1536" height="1" fill="#000" opacity="0.10" /><rect y="976" width="1536" height="1" fill="#000" opacity="0.10" /><rect y="984" width="1536" height="1" fill="#000" opacity="0.10" /><rect y="992" width="1536" height="1" fill="#000" opacity="0.10" /><rect y="1000" width="1536" height="1" fill="#000" opacity="0.10" /><rect y="1008" width="1536" height="1" fill="#000" opacity="0.10" /><rect y="1016" width="1536" height="1" fill="#000" opacity="0.10" /><rect width="1536" height="26" fill="#000" opacity="0.35" /><rect y="998" width="1536" height="26" fill="#000" opacity="0.35" /></svg>