<svg xmlns="http://www.w3.org/2000/svg" viewBox="0 0 1536 1024" width="1536" height="1024"><rect width="1536" height="1024" fill="#2d132c" /><rect y="0" width="1536" height="128" fill="#801336" opacity="0.25" /><rect y="128" width="1536" height="128" fill="#801336" opacity="0.37" /><rect y="256" width="1536" height="128" fill="#801336" opacity="0.49" /><circle cx="1093" cy="376" r="195" fill="#f4f4f4" /><circle cx="1093" cy="376" r="169" fill="#f9d276" /><rect x="899" y="388" width="388" height="10" fill="#2d132c" /><rect x="903" y="414" width="380" height="10" fill="#2d132c" /><rect x="911" y="440" width="364" height="10" fill="#2d132c" /><polygon points="-40,1024 -40,590 199,590 199,552 316,552 316,638 529,638 529,636 756,636 756,546 895,546 895,520 1054,520 1054,530 1171,530 1171,644 1352,644 1352,666 1591,666 1591,548 1820,548 1616,1024" fill="#c72c41" /><polygon points="-40,1024 -40,482 95,482 95,648 282,648 282,422 475,422 475,464 614,464 614,542 847,542 847,652 1064,652 1064,402 1155,402 1155,612 1336,612 1336,514 1519,514 1519,472 1726,472 1616,1024" fill="#ee4540" /><polygon points="-40,1024 -40,478 95,478 95,292 320,292 320,418 447,418 447,384 614,384 614,402 783,402 783,312 930,312 930,286 1145,286 1145,560 1300,560 1300,546 1435,546 1435,452 1570,452 1570,482 1661,482 1616,1024" fill="#801336" /><rect x="136" y="33" width="7" height="7" fill="#f9d276" /><rect x="1031" y="308" width="3" height="3" fill="#f9d276" /><rect x="1234" y="419" width="7" height="7" fill="#f9d276" /><rect x="89" y="30" width="3" height="3" fill="#f9d276" /><rect x="204" y="277" width="5" height="5" fill="#f9d276" /><rect x="27" y="440" width="6" height="6" fill="#f9d276" /><rect x="1270" y="247" width="6" height="6" fill="#f9d276" /><rect x="1485" y="130" width="3" height="3" fill="#f9d276" /><rect x="976" y="457" width="3" height="3" fill="#f9d276" /><rect x="1519" y="252" width="6" height="6" fill="#f9d276" /><rect x="474" y="11" width="6" height="6" fill="#f9d276" /><rect x="769" y="422" width="6" height="6" fill="#f9d276" /><rect x="404" y="61" width="3" height="3" fill="#f9d276" /><rect x="387" y="256" width="4" height="4" fill="#f9d276" /><rect x="1406" y="223" width="5" height="5" fill="#f9d276" /><rect x="501" y="394" width="4" height="4" fill="#f9d276" /><rect x="24" y="113" width="6" height="6" fill="#f9d276" /><rect x="727" y="452" width="5" height="5" fill="#f9d276" /><rect x="1506" y="371" width="5" height="5" fill="#f9d276" /><rect x="1193" y="46" width="4" height="4" fill="#f9d276" /><rect x="1372" y="101" width="6" height="6" fill="#f9d276" /><rect x="491" y="328" width="7" height="7" fill="#f9d276" /><rect x="774" y="455" width="6" height="6" fill="#f9d276" /><rect x="1309" y="402" width="5" height="5" fill="#f9d276" /><rect x="1376" y="25" width="4" height="4" fill="#f9d276" /><rect x="1215" y="396" width="5" height="5" fill="#f9d276" /><rect x="746" y="475" width="4" height="4" fill="#f9d276" /><rect x="337" y="438" width="4" height="4" fill="#f9d276" /><rect x="1060" y="397" width="5" height="5" fill="#f9d276" /><rect x="851" y="144" width="6" height="6" fill="#f9d276" /><rect x="910" y="431" width="7" height="7" fill="#f9d276" /><rect x="1349" y="154" width="3" height="3" fill="#f9d276" /><rect x="936" y="193" width="5" height="5" fill="#f9d276" /><rect x="935" y="84" width="6" height="6" fill="#f9d276" /><rect x="1266" y="323" width="7" height="7" fill="#f9d276" /><rect x="249" y="62" width="3" height="3" fill="#f9d276" /><rect x="1004" y="437" width="4" height="4" fill="#f9d276" /><rect x="443" y="216" width="4" height="4" fill="#f9d276" /><rect x="278" y="151" width="7" height="7" fill="#f9d276" /><rect x="621" y="162" width="5" height="5" fill="#f9d276" /><rect y="0" width="1536" height="1" fill="#000" opacity="0.10" /><rect y="8" width="1536" height="1" fill="#000" opacity="0.10" /><rect y="16" width="1536" height="1" fill="#000" opacity="0.10" /><rect y="24" width="1536" height="1" fill="#000" opacity="0.10" /><rect y="32" width="1536" height="1" fill="#000" opacity="0.10" /><rect y="40" width="1536" height="1" fill="#000" opacity="0.10" /><rect y="48" width="1536" height="1" fill="#000" opacity="0.10" /><rect y="56" width="1536" height="1" fill="#000" opacity="0.10" /><rect y="64" width="1536" height="1" fill="#000" opacity="0.10" /><rect y="72" width="1536" height="1" fill="#000" opacity="0.10" /><rect y="80" width="1536" height="1" fill="#000" opacity="0.10" /><rect y="88" width="1536" height="1" fill="#000" opacity="0.10" /><rect y="96" width="1536" height="1" fill="#000" opacity="0.10" /><rect y="104" width="1536" height="1" fill="#000" opacity="0.10" /><rect y="112" width="1536" height="1" fill="#000" opacity="0.10" /><rect y="120" width="1536" height="1" fill="#000" opacity="0.10" /><rect y="128" width="1536" height="1" fill="#000" opacity="0.10" /><rect y="136" width="1536" height="1" fill="#000" opacity="0.10" /><rect y="144" width="1536" height="1" fill="#000" opacity="0.10" /><rect y="152" width="1536" height="1" fill="#000" opacity="0.10" /><rect y="160" width="1536" height="1" fill="#000" opacity="0.10" /><rect y="168" width="1536" height="1" fill="#000" opacity="0.10" /><rect y="176" width="1536" height="1" fill="#000" opacity="0.10" /><rect y="184" width="1536" height="1" fill="#000" opacity="0.10" /><rect y="192" width="1536" height="1" fill="#000" opacity="0.10" /><rect y="200" width="1536" height="1" fill="#000" opacity="0.10" /><rect y="208" width="1536" height="1" fill="#000" opacity="0.10" /><rect y="216" width="1536" height="1" fill="#000" opacity="0.10" /><rect y="224" width="1536" height="1" fill="#000" opacity="0.10" /><rect y="232" width="1536" height="1" fill="#000" opacity="0.10" /><rect y="240" width="1536" height="1" fill="#000" opacity="0.10" /><rect y="248" width="1536" height="1" fill="#000" opacity="0.10" /><rect y="256" width="1536" height="1" fill="#000" opacity="0.10" /><rect y="264" width="1536" height="1" fill="#000" opacity="0.10" /><rect y="272" width="1536" height="1" fill="#000" opacity="0.10" /><rect y="280" width="1536" height="1" fill="#000" opacity="0.10" /><rect y="288" width="1536" height="1" fill="#000" opacity="0.10" /><rect y="296" width="1536" height="1" fill="#000" opacity="0.10" /><rect y="304" width="1536" height="1" fill="#000" opacity="0.10" /><rect y="312" width="1536" height="1" fill="#000" opacity="0.10" /><rect y="320" width="1536" height="1" fill="#000" opacity="0.10" /><rect y="328" width="1536" height="1" fill="#000" opacity="0.10" /><rect y="336" width="1536" height="1" fill="#000" opacity="0.10" /><rect y="344" width="1536" height="1" fill="#000" opacity="0.10" /><rect y="352" width="1536" height="1" fill="#000" opacity="0.10" /><rect y="360" width="1536" height="1" fill="#000" opacity="0.10" /><rect y="368" width="1536" height="1" fill="#000" opacity="0.10" /><rect y="376" width="1536" height="1" fill="#000" opacity="0.10" /><rect y="384" width="1536" height="1" fill="#000" opacity="0.10" /><rect y="392" width="1536" height="1" fill="#000" opacity="0.10" /><rect y="400" width="1536" height="1" fill="#000" opacity="0.10" /><rect y="408" width="1536" height="1" fill="#000" opacity="0.10" /><rect y="416" width="1536" height="1" fill="#000" opacity="0.10" /><rect y="424" width="1536" height="1" fill="#000" opacity="0.10" /><rect y="432" width="1536" height="1" fill="#000" opacity="0.10" /><rect y="440" width="1536" height="1" fill="#000" opacity="0.10" /><rect y="448" width="1536" height="1" fill="#000" opacity="0.10" /><rect y="456" width="1536" height="1" fill="#000" opacity="0.10" /><rect y="464" width="1536" height="1" fill="#000" opacity="0.10" /><rect y="472" width="1536" height="1" fill="#000" opacity="0.10" /><rect y="480" width="1536" height="1" fill="#000" opacity="0.10" /><rect y="488" width="1536" height="1" fill="#000" opacity="0.10" /><rect y="496" width="1536" height="1" fill="#000" opacity="0.10" /><rect y="504" width="1536" height="1" fill="#000" opacity="0.10" /><rect y="512" width="1536" height="1" fill="#000" opacity="0.10" /><rect y="520" width="1536" height="1" fill="#000" opacity="0.10" /><rect y="528" width="1536" height="1" fill="#000" opacity="0.10" /><rect y="536" width="1536" height="1" fill="#000" opacity="0.10" /><rect y="544" width="1536" height="1" fill="#000" opacity="0.10" /><rect y="552" width="1536" height="1" fill="#000" opacity="0.10" /><rect y="560" width="1536" height="1" fill="#000" opacity="0.10" /><rect y="568" width="1536" height="1" fill="#000" opacity="0.10" /><rect y="576" width="1536" height="1" fill="#000" opacity="0.10" /><rect y="584" width="1536" height="1" fill="#000" opacity="0.10" /><rect y="592" width="1536" height="1" fill="#000" opacity="0.10" /><rect y="600" width="1536" height="1" fill="#000" opacity="0.10" /><rect y="608" width="1536" height="1" fill="#000" opacity="0.10" /><rect y="616" width="1536" height="1" fill="#000" opacity="0.10" /><rect y="624" width="1536" height="1" fill="#000" opacity="0.10" /><rect y="632" width="1536" height="1" fill="#000" opacity="0.10" /><rect y="640" width="1536" height="1" fill="#000" opacity="0.10" /><rect y="648" width="1536" height="1" fill="#000" opacity="0.10" /><rect y="656" width="1536" height="1" fill="#000" opacity="0.10" /><rect y="664" width="1536" height="1" fill="#000" opacity="0.10" /><rect y="672" width="1536" height="1" fill="#000" opacity="0.10" /><rect y="680" width="1536" height="1" fill="#000" opacity="0.10" /><rect y="688" width="1536" height="1" fill="#000" opacity="0.10" /><rect y="696" width="1536" height="1" fill="#000" opacity="0.10" /><rect y="704" width="1536" height="1" fill="#000" opacity="0.10" /><rect y="712" width="1536" height="1" fill="#000" opacity="0.10" /><rect y="720" width="1536" height="1" fill="#000" opacity="0.10" /><rect y="728" width="1536" height="1" fill="#000" opacity="0.10" /><rect y="736" width="1536" height="1" fill="#000" opacity="0.10" /><rect y="744" width="1536" height="1" fill="#000" opacity="0.10" /><rect y="752" width="1536" height="1" fill="#000" opacity="0.10" /><rect y="760" width="1536" height="1" fill="#000" opacity="0.10" /><rect y="768" width="1536" height="1" fill="#000" opacity="0.10" /><rect y="776" width="1536" height="1" fill="#000" opacity="0.10" /><rect y="784" width="1536" height="1" fill="#000" opacity="0.10" /><rect y="792" width="1536" height="1" fill="#000" opacity="0.10" /><rect y="800" width="1536" height="1" fill="#000" opacity="0.10" /><rect y="808" width="1536" height="1" fill="#000" opacity="0.10" /><rect y="816" width="1536" height="1" fill="#000" opacity="0.10" /><rect y="824" width="1536" height="1" fill="#000" opacity="0.10" /><rect y="832" width="1536" height="1" fill="#000" opacity="0.10" /><rect y="840" width="1536" height="1" fill="#000" opacity="0.10" /><rect y="848" width="1536" height="1" fill="#000" opacity="0.10" /><rect y="856" width="1536" height="1" fill="#000" opacity="0.10" /><rect y="864" width="1536" height="1" fill="#000" opacity="0.10" /><rect y="872" width="1536" height="1" fill="#000" opacity="0.10" /><rect y="880" width="1536" height="1" fill="#000" opacity="0.10" /><rect y="888" width="1536" height="1" fill="#000" opacity="0.10" /><rect y="896" width="1536" height="1" fill="#000" opacity="0.10" /><rect y="904" width="1536" height="1" fill="#000" opacity="0.10" /><rect y="912" width="1536" height="1" fill="#000" opacity="0.10" /><rect y="920" width="1536" height="1" fill="#000" opacity="0.10" /><rect y="928" width="1536" height="1" fill="#000" opacity="0.10" /><rect y="936" width="1536" height="1" fill="#000" opacity="0.10" /><rect y="944" width="1536" height="1" fill="#000" opacity="0.10" /><rect y="952" width="1536" height="1" fill="#000" opacity="0.10" /><rect y="960" width="1536" height="1" fill="#000" opacity="0.10" /><rect y="968" width="1536" height="1" fill="#000" opacity="0.10" /><rect y="976" width="1536" height="1" fill="#000" opacity="0.10" /><rect y="984" width="1536" height="1" fill="#000" opacity="0.10" /><rect y="992" width="1536" height="1" fill="#000" opacity="0.10" /><rect y="1000" width="1536" height="1" fill="#000" opacity="0.10" /><rect y="1008" width="1536" height="1" fill="#000" opacity="0.10" /><rect y="1016" width="1536" height="1" fill="#000" opacity="0.10" /><rect width="1536" height="26" fill="#000" opacity="0.35" /><rect y="998" width="1536" height="26" fill="#000" opacity="0.35" /></svg>