<svg xmlns="http://www.w3.org/2000/svg" viewBox="0 0 1536 1024" width="1536" height="1024"><rect width="1536" height="1024" fill="#10002b" /><rect y="0" width="1536" height="128" fill="#3c096c" opacity="0.25" /><rect y="128" width="1536" height="128" fill="#3c096c" opacity="0.37" /><rect y="256" width="1536" height="128" fill="#3c096c" opacity="0.49" /><circle cx="1084" cy="381" r="148" fill="#72efdd" /><circle cx="1084" cy="381" r="122" fill="#e0aaff" /><rect x="937" y="393" width="294" height="10" fill="#10002b" /><rect x="943" y="419" width="282" height="10" fill="#10002b" /><rect x="954" y="445" width="260" height="10" fill="#10002b" /><polygon points="-40,1024 -40,557 116,557 116,583 274,583 274,721 432,721 432,479 544,479 544,713 674,713 674,539 866,539 866,689 1064,689 1064,679 1252,679 1252,573 1420,573 1420,723 1626,723 1616,1024" fill="#7b2cbf" /><polygon points="-40,1024 -40,457 142,457 142,543 378,543 378,589 598,589 598,575 764,575 764,561 990,561 990,471 1214,471 1214,397 1354,397 1354,627 1448,627 1448,425 1676,425 1616,1024" fill="#c77dff" /><polygon points="-40,1024 -40,347 192,347 192,273 336,273 336,547 462,547 462,529 642,529 642,287 748,287 748,409 938,409 938,347 1036,347 1036,413 1210,413 1210,443 1316,443 1316,417 1546,417 1546,479 1682,479 1616,1024" fill="#3c096c" /><rect x="919" y="388" width="7" height="7" fill="#e0aaff" /><rect x="1442" y="51" width="7" height="7" fill="#e0aaff" /><rect x="1385" y="494" width="5" height="5" fill="#e0aaff" /><rect x="284" y="293" width="7" height="7" fill="#e0aaff" /><rect x="1195" y="264" width="7" height="7" fill="#e0aaff" /><rect x="1222" y="135" width="3" height="3" fill="#e0aaff" /><rect x="1501" y="338" width="7" height="7" fill="#e0aaff" /><rect x="1312" y="217" width="7" height="7" fill="#e0aaff" /><rect x="895" y="332" width="4" height="4" fill="#e0aaff" /><rect x="170" y="155" width="7" height="7" fill="#e0aaff" /><rect x="1041" y="374" width="7" height="7" fill="#e0aaff" /><rect x="1508" y="77" width="4" height="4" fill="#e0aaff" /><rect x="19" y="80" width="7" height="7" fill="#e0aaff" /><rect x="1358" y="111" width="7" height="7" fill="#e0aaff" /><rect x="517" y="90" width="3" height="3" fill="#e0aaff" /><rect x="872" y="385" width="5" height="5" fill="#e0aaff" /><rect x="1127" y="20" width="6" height="6" fill="#e0aaff" /><rect x="1202" y="3" width="4" height="4" fill="#e0aaff" /><rect x="1465" y="510" width="3" height="3" fill="#e0aaff" /><rect x="428" y="117" width="7" height="7" fill="#e0aaff" /><rect x="123" y="152" width="4" height="4" fill="#e0aaff" /><rect x="214" y="343" width="3" height="3" fill="#e0aaff" /><rect x="301" y="98" width="6" height="6" fill="#e0aaff" /><rect x="688" y="297" width="6" height="6" fill="#e0aaff" /><rect x="1103" y="476" width="6" height="6" fill="#e0aaff" /><rect x="954" y="107" width="6" height="6" fill="#e0aaff" /><rect x="97" y="390" width="7" height="7" fill="#e0aaff" /><rect x="1140" y="413" width="6" height="6" fill="#e0aaff" /><rect x="995" y="480" width="6" height="6" fill="#e0aaff" /><rect x="1374" y="319" width="4" height="4" fill="#e0aaff" /><rect x="1365" y="362" width="6" height="6" fill="#e0aaff" /><rect x="760" y="465" width="7" height="7" fill="#e0aaff" /><rect x="311" y="164" width="6" height="6" fill="#e0aaff" /><rect x="962" y="467" width="6" height="6" fill="#e0aaff" /><rect x="521" y="14" width="7" height="7" fill="#e0aaff" /><rect x="60" y="453" width="6" height="6" fill="#e0aaff" /><rect x="75" y="40" width="4" height="4" fill="#e0aaff" /><rect x="230" y="39" width="3" height="3" fill="#e0aaff" /><rect x="125" y="370" width="3" height="3" fill="#e0aaff" /><rect x="576" y="377" width="7" height="7" fill="#e0aaff" /><rect y="0" width="1536" height="1" fill="#000" opacity="0.10" /><rect y="8" width="1536" height="1" fill="#000" opacity="0.10" /><rect y="16" width="1536" height="1" fill="#000" opacity="0.10" /><rect y="24" width="1536" height="1" fill="#000" opacity="0.10" /><rect y="32" width="1536" height="1" fill="#000" opacity="0.10" /><rect y="40" width="1536" height="1" fill="#000" opacity="0.10" /><rect y="48" width="1536" height="1" fill="#000" opacity="0.10" /><rect y="56" width="1536" height="1" fill="#000" opacity="0.10" /><rect y="64" width="1536" height="1" fill="#000" opacity="0.10" /><rect y="72" width="1536" height="1" fill="#000" opacity="0.10" /><rect y="80" width="1536" height="1" fill="#000" opacity="0.10" /><rect y="88" width="1536" height="1" fill="#000" opacity="0.10" /><rect y="96" width="1536" height="1" fill="#000" opacity="0.10" /><rect y="104" width="1536" height="1" fill="#000" opacity="0.10" /><rect y="112" width="1536" height="1" fill="#000" opacity="0.10" /><rect y="120" width="1536" height="1" fill="#000" opacity="0.10" /><rect y="128" width="1536" height="1" fill="#000" opacity="0.10" /><rect y="136" width="1536" height="1" fill="#000" opacity="0.10" /><rect y="144" width="1536" height="1" fill="#000" opacity="0.10" /><rect y="152" width="1536" height="1" fill="#000" opacity="0.10" /><rect y="160" width="1536" height="1" fill="#000" opacity="0.10" /><rect y="168" width="1536" height="1" fill="#000" opacity="0.10" /><rect y="176" width="1536" height="1" fill="#000" opacity="0.10" /><rect y="184" width="1536" height="1" fill="#000" opacity="0.10" /><rect y="192" width="1536" height="1" fill="#000" opacity="0.10" /><rect y="200" width="1536" height="1" fill="#000" opacity="0.10" /><rect y="208" width="1536" height="1" fill="#000" opacity="0.10" /><rect y="216" width="1536" height="1" fill="#000" opacity="0.10" /><rect y="224" width="1536" height="1" fill="#000" opacity="0.10" /><rect y="232" width="1536" height="1" fill="#000" opacity="0.10" /><rect y="240" width="1536" height="1" fill="#000" opacity="0.10" /><rect y="248" width="1536" height="1" fill="#000" opacity="0.10" /><rect y="256" width="1536" height="1" fill="#000" opacity="0.10" /><rect y="264" width="1536" height="1" fill="#000" opacity="0.10" /><rect y="272" width="1536" height="1" fill="#000" opacity="0.10" /><rect y="280" width="1536" height="1" fill="#000" opacity="0.10" /><rect y="288" width="1536" height="1" fill="#000" opacity="0.10" /><rect y="296" width="1536" height="1" fill="#000" opacity="0.10" /><rect y="304" width="1536" height="1" fill="#000" opacity="0.10" /><rect y="312" width="1536" height="1" fill="#000" opacity="0.10" /><rect y="320" width="1536" height="1" fill="#000" opacity="0.10" /><rect y="328" width="1536" height="1" fill="#000" opacity="0.10" /><rect y="336" width="1536" height="1" fill="#000" opacity="0.10" /><rect y="344" width="1536" height="1" fill="#000" opacity="0.10" /><rect y="352" width="1536" height="1" fill="#000" opacity="0.10" /><rect y="360" width="1536" height="1" fill="#000" opacity="0.10" /><rect y="368" width="1536" height="1" fill="#000" opacity="0.10" /><rect y="376" width="1536" height="1" fill="#000" opacity="0.10" /><rect y="384" width="1536" height="1" fill="#000" opacity="0.10" /><rect y="392" width="1536" height="1" fill="#000" opacity="0.10" /><rect y="400" width="1536" height="1" fill="#000" opacity="0.10" /><rect y="408" width="1536" height="1" fill="#000" opacity="0.10" /><rect y="416" width="1536" height="1" fill="#000" opacity="0.10" /><rect y="424" width="1536" height="1" fill="#000" opacity="0.10" /><rect y="432" width="1536" height="1" fill="#000" opacity="0.10" /><rect y="440" width="1536" height="1" fill="#000" opacity="0.10" /><rect y="448" width="1536" height="1" fill="#000" opacity="0.10" /><rect y="456" width="1536" height="1" fill="#000" opacity="0.10" /><rect y="464" width="1536" height="1" fill="#000" opacity="0.10" /><rect y="472" width="1536" height="1" fill="#000" opacity="0.10" /><rect y="480" width="1536" height="1" fill="#000" opacity="0.10" /><rect y="488" width="1536" height="1" fill="#000" opacity="0.10" /><rect y="496" width="1536" height="1" fill="#000" opacity="0.10" /><rect y="504" width="1536" height="1" fill="#000" opacity="0.10" /><rect y="512" width="1536" height="1" fill="#000" opacity="0.10" /><rect y="520" width="1536" height="1" fill="#000" opacity="0.10" /><rect y="528" width="1536" height="1" fill="#000" opacity="0.10" /><rect y="536" width="1536" height="1" fill="#000" opacity="0.10" /><rect y="544" width="1536" height="1" fill="#000" opacity="0.10" /><rect y="552" width="1536" height="1" fill="#000" opacity="0.10" /><rect y="560" width="1536" height="1" fill="#000" opacity="0.10" /><rect y="568" width="1536" height="1" fill="#000" opacity="0.10" /><rect y="576" width="1536" height="1" fill="#000" opacity="0.10" /><rect y="584" width="1536" height="1" fill="#000" opacity="0.10" /><rect y="592" width="1536" height="1" fill="#000" opacity="0.10" /><rect y="600" width="1536" height="1" fill="#000" opacity="0.10" /><rect y="608" width="1536" height="1" fill="#000" opacity="0.10" /><rect y="616" width="1536" height="1" fill="#000" opacity="0.10" /><rect y="624" width="1536" height="1" fill="#000" opacity="0.10" /><rect y="632" width="1536" height="1" fill="#000" opacity="0.10" /><rect y="640" width="1536" height="1" fill="#000" opacity="0.10" /><rect y="648" width="1536" height="1" fill="#000" opacity="0.10" /><rect y="656" width="1536" height="1" fill="#000" opacity="0.10" /><rect y="664" width="1536" height="1" fill="#000" opacity="0.10" /><rect y="672" width="1536" height="1" fill="#000" opacity="0.10" /><rect y="680" width="1536" height="1" fill="#000" opacity="0.10" /><rect y="688" width="1536" height="1" fill="#000" opacity="0.10" /><rect y="696" width="1536" height="1" fill="#000" opacity="0.10" /><rect y="704" width="1536" height="1" fill="#000" opacity="0.10" /><rect y="712" width="1536" height="1" fill="#000" opacity="0.10" /><rect y="720" width="1536" height="1" fill="#000" opacity="0.10" /><rect y="728" width="1536" height="1" fill="#000" opacity="0.10" /><rect y="736" width="1536" height="1" fill="#000" opacity="0.10" /><rect y="744" width="1536" height="1" fill="#000" opacity="0.10" /><rect y="752" width="1536" height="1" fill="#000" opacity="0.10" /><rect y="760" width="1536" height="1" fill="#000" opacity="0.10" /><rect y="768" width="1536" height="1" fill="#000" opacity="0.10" /><rect y="776" width="1536" height="1" fill="#000" opacity="0.10" /><rect y="784" width="1536" height="1" fill="#000" opacity="0.10" /><rect y="792" width="1536" height="1" fill="#000" opacity="0.10" /><rect y="800" width="1536" height="1" fill="#000" opacity="0.10" /><rect y="808" width="1536" height="1" fill="#000" opacity="0.10" /><rect y="816" width="1536" height="1" fill="#000" opacity="0.10" /><rect y="824" width="1536" height="1" fill="#000" opacity="0.10" /><rect y="832" width="1536" height="1" fill="#000" opacity="0.10" /><rect y="840" width="1536" height="1" fill="#000" opacity="0.10" /><rect y="848" width="1536" height="1" fill="#000" opacity="0.10" /><rect y="856" width="1536" height="1" fill="#000" opacity="0.10" /><rect y="864" width="1536" height="1" fill="#000" opacity="0.10" /><rect y="872" width="1536" height="1" fill="#000" opacity="0.10" /><rect y="880" width="1536" height="1" fill="#000" opacity="0.10" /><rect y="888" width="1536" height="1" fill="#000" opacity="0.10" /><rect y="896" width="1536" height="1" fill="#000" opacity="0.10" /><rect y="904" width="1536" height="1" fill="#000" opacity="0.10" /><rect y="912" width="1536" height="1" fill="#000" opacity="0.10" /><rect y="920" width="1536" height="1" fill="#000" opacity="0.10" /><rect y="928" width="1536" height="1" fill="#000" opacity="0.10" /><rect y="936" width="1536" height="1" fill="#000" opacity="0.10" /><rect y="944" width="1536" height="1" fill="#000" opacity="0.10" /><rect y="952" width="1536" height="1" fill="#000" opacity="0.10" /><rect y="960" width="1536" height="1" fill="#000" opacity="0.10" /><rect y="968" width="1536" height="1" fill="#000" opacity="0.10" /><rect y="976" width="1536" height="1" fill="#000" opacity="0.10" /><rect y="984" width="1536" height="1" fill="#000" opacity="0.10" /><rect y="992" width="1536" height="1" fill="#000" opacity="0.10" /><rect y="1000" width="1536" height="1" fill="#000" opacity="0.10" /><rect y="1008" width="1536" height="1" fill="#000" opacity="0.10" /><rect y="1016" width="1536" height="1" fill="#000" opacity="0.10" /><rect width="1536" height="26" fill="#000" opacity="0.35" /><rect y="998" width="1536" height="26" fill="#000" opacity="0.35" /></svg>