<svg xmlns="http://www.w3.org/2000/svg" viewBox="0 0 1536 1024" width="1536" height="1024"><rect width="1536" height="1024" fill="#141e30" /><rect y="0" width="1536" height="128" fill="#243b55" opacity="0.25" /><rect y="128" width="1536" height="128" fill="#243b55" opacity="0.37" /><rect y="256" width="1536" height="128" fill="#243b55" opacity="0.49" /><circle cx="886" cy="379" r="186" fill="#e55039" /><circle cx="886" cy="379" r="160" fill="#f8c291" /><rect x="701" y="391" width="370" height="10" fill="#141e30" /><rect x="706" y="417" width="360" height="10" fill="#141e30" /><rect x="714" y="443" width="344" height="10" fill="#141e30" /><polygon points="-40,1024 -40,575 164,575 164,601 358,601 358,551 544,551 544,501 690,501 690,763 808,763 808,605 934,605 934,535 1144,535 1144,749 1314,749 1314,763 1446,763 1446,593 1622,593 1616,1024" fill="#3c6382" /><polygon points="-40,1024 -40,651 54,651 54,561 260,561 260,387 378,387 378,561 480,561 480,495 712,495 712,541 886,541 886,367 1116,367 1116,393 1306,393 1306,547 1470,547 1470,481 1580,481 1580,391 1792,391 1616,1024" fill="#82ccdd" /><polygon points="-40,1024 -40,385 84,385 84,523 260,523 260,505 418,505 418,275 534,275 534,513 750,513 750,435 846,435 846,329 1034,329 1034,467 1234,467 1234,529 1442,529 1442,355 1570,355 1570,317 1752,317 1616,1024" fill="#243b55" /><rect x="1121" y="390" width="3" height="3" fill="#f8c291" /><rect x="1140" y="413" width="7" height="7" fill="#f8c291" /><rect x="483" y="480" width="4" height="4" fill="#f8c291" /><rect x="350" y="319" width="7" height="7" fill="#f8c291" /><rect x="853" y="362" width="6" height="6" fill="#f8c291" /><rect x="1272" y="465" width="6" height="6" fill="#f8c291" /><rect x="823" y="164" width="6" height="6" fill="#f8c291" /><rect x="962" y="467" width="3" height="3" fill="#f8c291" /><rect x="521" y="14" width="7" height="7" fill="#f8c291" /><rect x="60" y="453" width="5" height="5" fill="#f8c291" /><rect x="1099" y="40" width="6" height="6" fill="#f8c291" /><rect x="742" y="39" width="6" height="6" fill="#f8c291" /><rect x="125" y="370" width="6" height="6" fill="#f8c291" /><rect x="1088" y="377" width="7" height="7" fill="#f8c291" /><rect x="287" y="108" width="4" height="4" fill="#f8c291" /><rect x="1226" y="59" width="7" height="7" fill="#f8c291" /><rect x="1201" y="406" width="6" height="6" fill="#f8c291" /><rect x="772" y="237" width="3" height="3" fill="#f8c291" /><rect x="1459" y="368" width="7" height="7" fill="#f8c291" /><rect x="1390" y="15" width="6" height="6" fill="#f8c291" /><rect x="165" y="122" width="3" height="3" fill="#f8c291" /><rect x="1160" y="33" width="7" height="7" fill="#f8c291" /><rect x="1031" y="308" width="6" height="6" fill="#f8c291" /><rect x="722" y="419" width="6" height="6" fill="#f8c291" /><rect x="1113" y="30" width="4" height="4" fill="#f8c291" /><rect x="204" y="277" width="6" height="6" fill="#f8c291" /><rect x="27" y="440" width="4" height="4" fill="#f8c291" /><rect x="1270" y="247" width="7" height="7" fill="#f8c291" /><rect x="461" y="130" width="3" height="3" fill="#f8c291" /><rect x="464" y="457" width="5" height="5" fill="#f8c291" /><rect x="1007" y="252" width="4" height="4" fill="#f8c291" /><rect x="474" y="11" width="3" height="3" fill="#f8c291" /><rect x="1281" y="422" width="5" height="5" fill="#f8c291" /><rect x="916" y="61" width="6" height="6" fill="#f8c291" /><rect x="387" y="256" width="3" height="3" fill="#f8c291" /><rect x="1406" y="223" width="6" height="6" fill="#f8c291" /><rect x="1525" y="394" width="3" height="3" fill="#f8c291" /><rect x="536" y="113" width="7" height="7" fill="#f8c291" /><rect x="1239" y="452" width="6" height="6" fill="#f8c291" /><rect x="1506" y="371" width="4" height="4" fill="#f8c291" /><rect y="0" width="1536" height="1" fill="#000" opacity="0.10" /><rect y="8" width="1536" height="1" fill="#000" opacity="0.10" /><rect y="16" width="1536" height="1" fill="#000" opacity="0.10" /><rect y="24" width="1536" height="1" fill="#000" opacity="0.10" /><rect y="32" width="1536" height="1" fill="#000" opacity="0.10" /><rect y="40" width="1536" height="1" fill="#000" opacity="0.10" /><rect y="48" width="1536" height="1" fill="#000" opacity="0.10" /><rect y="56" width="1536" height="1" fill="#000" opacity="0.10" /><rect y="64" width="1536" height="1" fill="#000" opacity="0.10" /><rect y="72" width="1536" height="1" fill="#000" opacity="0.10" /><rect y="80" width="1536" height="1" fill="#000" opacity="0.10" /><rect y="88" width="1536" height="1" fill="#000" opacity="0.10" /><rect y="96" width="1536" height="1" fill="#000" opacity="0.10" /><rect y="104" width="1536" height="1" fill="#000" opacity="0.10" /><rect y="112" width="1536" height="1" fill="#000" opacity="0.10" /><rect y="120" width="1536" height="1" fill="#000" opacity="0.10" /><rect y="128" width="1536" height="1" fill="#000" opacity="0.10" /><rect y="136" width="1536" height="1" fill="#000" opacity="0.10" /><rect y="144" width="1536" height="1" fill="#000" opacity="0.10" /><rect y="152" width="1536" height="1" fill="#000" opacity="0.10" /><rect y="160" width="1536" height="1" fill="#000" opacity="0.10" /><rect y="168" width="1536" height="1" fill="#000" opacity="0.10" /><rect y="176" width="1536" height="1" fill="#000" opacity="0.10" /><rect y="184" width="1536" height="1" fill="#000" opacity="0.10" /><rect y="192" width="1536" height="1" fill="#000" opacity="0.10" /><rect y="200" width="1536" height="1" fill="#000" opacity="0.10" /><rect y="208" width="1536" height="1" fill="#000" opacity="0.10" /><rect y="216" width="1536" height="1" fill="#000" opacity="0.10" /><rect y="224" width="1536" height="1" fill="#000" opacity="0.10" /><rect y="232" width="1536" height="1" fill="#000" opacity="0.10" /><rect y="240" width="1536" height="1" fill="#000" opacity="0.10" /><rect y="248" width="1536" height="1" fill="#000" opacity="0.10" /><rect y="256" width="1536" height="1" fill="#000" opacity="0.10" /><rect y="264" width="1536" height="1" fill="#000" opacity="0.10" /><rect y="272" width="1536" height="1" fill="#000" opacity="0.10" /><rect y="280" width="1536" height="1" fill="#000" opacity="0.10" /><rect y="288" width="1536" height="1" fill="#000" opacity="0.10" /><rect y="296" width="1536" height="1" fill="#000" opacity="0.10" /><rect y="304" width="1536" height="1" fill="#000" opacity="0.10" /><rect y="312" width="1536" height="1" fill="#000" opacity="0.10" /><rect y="320" width="1536" height="1" fill="#000" opacity="0.10" /><rect y="328" width="1536" height="1" fill="#000" opacity="0.10" /><rect y="336" width="1536" height="1" fill="#000" opacity="0.10" /><rect y="344" width="1536" height="1" fill="#000" opacity="0.10" /><rect y="352" width="1536" height="1" fill="#000" opacity="0.10" /><rect y="360" width="1536" height="1" fill="#000" opacity="0.10" /><rect y="368" width="1536" height="1" fill="#000" opacity="0.10" /><rect y="376" width="1536" height="1" fill="#000" opacity="0.10" /><rect y="384" width="1536" height="1" fill="#000" opacity="0.10" /><rect y="392" width="1536" height="1" fill="#000" opacity="0.10" /><rect y="400" width="1536" height="1" fill="#000" opacity="0.10" /><rect y="408" width="1536" height="1" fill="#000" opacity="0.10" /><rect y="416" width="1536" height="1" fill="#000" opacity="0.10" /><rect y="424" width="1536" height="1" fill="#000" opacity="0.10" /><rect y="432" width="1536" height="1" fill="#000" opacity="0.10" /><rect y="440" width="1536" height="1" fill="#000" opacity="0.10" /><rect y="448" width="1536" height="1" fill="#000" opacity="0.10" /><rect y="456" width="1536" height="1" fill="#000" opacity="0.10" /><rect y="464" width="1536" height="1" fill="#000" opacity="0.10" /><rect y="472" width="1536" height="1" fill="#000" opacity="0.10" /><rect y="480" width="1536" height="1" fill="#000" opacity="0.10" /><rect y="488" width="1536" height="1" fill="#000" opacity="0.10" /><rect y="496" width="1536" height="1" fill="#000" opacity="0.10" /><rect y="504" width="1536" height="1" fill="#000" opacity="0.10" /><rect y="512" width="1536" height="1" fill="#000" opacity="0.10" /><rect y="520" width="1536" height="1" fill="#000" opacity="0.10" /><rect y="528" width="1536" height="1" fill="#000" opacity="0.10" /><rect y="536" width="1536" height="1" fill="#000" opacity="0.10" /><rect y="544" width="1536" height="1" fill="#000" opacity="0.10" /><rect y="552" width="1536" height="1" fill="#000" opacity="0.10" /><rect y="560" width="1536" height="1" fill="#000" opacity="0.10" /><rect y="568" width="1536" height="1" fill="#000" opacity="0.10" /><rect y="576" width="1536" height="1" fill="#000" opacity="0.10" /><rect y="584" width="1536" height="1" fill="#000" opacity="0.10" /><rect y="592" width="1536" height="1" fill="#000" opacity="0.10" /><rect y="600" width="1536" height="1" fill="#000" opacity="0.10" /><rect y="608" width="1536" height="1" fill="#000" opacity="0.10" /><rect y="616" width="1536" height="1" fill="#000" opacity="0.10" /><rect y="624" width="1536" height="1" fill="#000" opacity="0.10" /><rect y="632" width="1536" height="1" fill="#000" opacity="0.10" /><rect y="640" width="1536" height="1" fill="#000" opacity="0.10" /><rect y="648" width="1536" height="1" fill="#000" opacity="0.10" /><rect y="656" width="1536" height="1" fill="#000" opacity="0.10" /><rect y="664" width="1536" height="1" fill="#000" opacity="0.10" /><rect y="672" width="1536" height="1" fill="#000" opacity="0.10" /><rect y="680" width="1536" height="1" fill="#000" opacity="0.10" /><rect y="688" width="1536" height="1" fill="#000" opacity="0.10" /><rect y="696" width="1536" height="1" fill="#000" opacity="0.10" /><rect y="704" width="1536" height="1" fill="#000" opacity="0.10" /><rect y="712" width="1536" height="1" fill="#000" opacity="0.10" /><rect y="720" width="1536" height="1" fill="#000" opacity="0.10" /><rect y="728" width="1536" height="1" fill="#000" opacity="0.10" /><rect y="736" width="1536" height="1" fill="#000" opacity="0.10" /><rect y="744" width="1536" height="1" fill="#000" opacity="0.10" /><rect y="752" width="1536" height="1" fill="#000" opacity="0.10" /><rect y="760" width="1536" height="1" fill="#000" opacity="0.10" /><rect y="768" width="1536" height="1" fill="#000" opacity="0.10" /><rect y="776" width="1536" height="1" fill="#000" opacity="0.10" /><rect y="784" width="1536" height="1" fill="#000" opacity="0.10" /><rect y="792" width="1536" height="1" fill="#000" opacity="0.10" /><rect y="800" width="1536" height="1" fill="#000" opacity="0.10" /><rect y="808" width="1536" height="1" fill="#000" opacity="0.10" /><rect y="816" width="1536" height="1" fill="#000" opacity="0.10" /><rect y="824" width="1536" height="1" fill="#000" opacity="0.10" /><rect y="832" width="1536" height="1" fill="#000" opacity="0.10" /><rect y="840" width="1536" height="1" fill="#000" opacity="0.10" /><rect y="848" width="1536" height="1" fill="#000" opacity="0.10" /><rect y="856" width="1536" height="1" fill="#000" opacity="0.10" /><rect y="864" width="1536" height="1" fill="#000" opacity="0.10" /><rect y="872" width="1536" height="1" fill="#000" opacity="0.10" /><rect y="880" width="1536" height="1" fill="#000" opacity="0.10" /><rect y="888" width="1536" height="1" fill="#000" opacity="0.10" /><rect y="896" width="1536" height="1" fill="#000" opacity="0.10" /><rect y="904" width="1536" height="1" fill="#000" opacity="0.10" /><rect y="912" width="1536" height="1" fill="#000" opacity="0.10" /><rect y="920" width="1536" height="1" fill="#000" opacity="0.10" /><rect y="928" width="1536" height="1" fill="#000" opacity="0.10" /><rect y="936" width="1536" height="1" fill="#000" opacity="0.10" /><rect y="944" width="1536" height="1" fill="#000" opacity="0.10" /><rect y="952" width="1536" height="1" fill="#000" opacity="0.10" /><rect y="960" width="1536" height="1" fill="#000" opacity="0.10" /><rect y="968" width="1536" height="1" fill="#000" opacity="0.10" /><rect y="976" width="1536" height="1" fill="#000" opacity="0.10" /><rect y="984" width="1536" height="1" fill="#000" opacity="0.10" /><rect y="992" width="1536" height="1" fill="#000" opacity="0.10" /><rect y="1000" width="1536" height="1" fill="#000" opacity="0.10" /><rect y="1008" width="1536" height="1" fill="#000" opacity="0.10" /><rect y="1016" width="1536" height="1" fill="#000" opacity="0.10" /><rect width="1536" height="26" fill="#000" opacity="0.35" /><rect y="998" width="1536" height="26" fill="#000" opacity="0.35" /></svg>