<svg xmlns="http://www.w3.org/2000/svg" viewBox="0 0 1536 1024" width="1536" height="1024" role="img" aria-labelledby="t d" data-generator="trace-bloom/1" data-seed="1275344179">
<title id="t">The byline picker can't tell a typo from a section</title>
<desc id="d">Trace Bloom generative banner for “The byline picker can't tell a typo from a section”. A organic lattice probed by 4 emitters; interference blooms mark where the wavefronts meet. Seed 1275344179.</desc>
<style>
@keyframes tb-sweep{from{opacity:.3}to{opacity:1}}
@keyframes tb-breathe{0%,100%{opacity:.68}50%{opacity:1}}
@keyframes tb-probe{0%,100%{opacity:.6}50%{opacity:1}}
.sig{animation:tb-sweep .7s cubic-bezier(.2,.7,.3,1) both}
.b0{animation-delay:0.00s}.b1{animation-delay:0.19s}.b2{animation-delay:0.37s}.b3{animation-delay:0.56s}.b4{animation-delay:0.74s}.b5{animation-delay:0.93s}.b6{animation-delay:1.11s}.b7{animation-delay:1.30s}.b8{animation-delay:1.49s}.b9{animation-delay:1.67s}.b10{animation-delay:1.86s}.b11{animation-delay:2.04s}.b12{animation-delay:2.23s}.b13{animation-delay:2.41s}
.bloom{animation:tb-breathe 7s ease-in-out infinite}
.probe{animation:tb-probe 4.2s ease-in-out infinite}
@media (prefers-reduced-motion:reduce){
.sig,.bloom,.probe{animation:none!important;opacity:1!important}
}</style>
<defs>
<linearGradient id="bg" x1="0" y1="0" x2="1" y2="1">
<stop offset="0" stop-color="#060d0c"/><stop offset="1" stop-color="#0c1a18"/></linearGradient>
<linearGradient id="scrim" x1="0" y1="0" x2="1" y2="0">
<stop offset="0" stop-color="#060d0c" stop-opacity="0.94"/>
<stop offset="0.38" stop-color="#060d0c" stop-opacity="0.8"/>
<stop offset="0.72" stop-color="#060d0c" stop-opacity="0.12"/>
<stop offset="0.9" stop-color="#060d0c" stop-opacity="0"/></linearGradient>
<linearGradient id="floor" x1="0" y1="1" x2="0" y2="0">
<stop offset="0" stop-color="#060d0c" stop-opacity="0.5"/>
<stop offset="0.46" stop-color="#060d0c" stop-opacity="0"/></linearGradient>
<radialGradient id="bc">
<stop offset="0" stop-color="#2dd4bf" stop-opacity="0.95"/>
<stop offset="0.18" stop-color="#2dd4bf" stop-opacity="0.5"/>
<stop offset="0.5" stop-color="#2dd4bf" stop-opacity="0.14"/>
<stop offset="1" stop-color="#2dd4bf" stop-opacity="0"/></radialGradient>
<radialGradient id="bw">
<stop offset="0" stop-color="#fb7185" stop-opacity="0.95"/>
<stop offset="0.18" stop-color="#fb7185" stop-opacity="0.5"/>
<stop offset="0.5" stop-color="#fb7185" stop-opacity="0.14"/>
<stop offset="1" stop-color="#fb7185" stop-opacity="0"/></radialGradient>
<pattern id="scan" width="4" height="4" patternUnits="userSpaceOnUse">
<rect width="4" height="1" fill="#060d0c" opacity="0.22"/></pattern>
</defs>
<rect width="1536" height="1024" fill="url(#bg)"/>
<path d="M0 0L-1.9 56.3M0 0L67.8 -3.8M0 0L67.7 51.7M67.8 -3.8L67.7 51.7M67.8 -3.8L139.9 -5.8M139.9 -5.8L140.2 57.5M139.9 -5.8L208.9 -1.6M208.9 -1.6L208.7 63.8M208.9 -1.6L280.2 0.6M280.2 0.6L342.2 1.5M280.2 0.6L278.7 66.6M342.2 1.5L344.9 65.6M342.2 1.5L413.3 -0.5M413.3 -0.5L411.2 62.6M413.3 -0.5L488.3 -0.5M488.3 -0.5L483.8 58M488.3 -0.5L564 1.7M564 1.7L558.3 62.4M564 1.7L627.6 -0.2M627.6 -0.2L625.1 60.6M627.6 -0.2L696.4 -1.4M696.4 -1.4L697.5 60.8M696.4 -1.4L767.4 1.3M767.4 1.3L769.9 66M767.4 1.3L835.4 2.7M835.4 2.7L834.9 67M835.4 2.7L908.3 7.2M908.3 7.2L903.7 67.8M908.3 7.2L977.2 0.6M977.2 0.6L976.2 58.7M977.2 0.6L1049.4 0.4M1049.4 0.4L1050.7 61.7M1049.4 0.4L1123.8 0.3M1123.8 0.3L1190.8 1.7M1123.8 0.3L1129.9 67.1M1190.8 1.7L1191.8 66M1190.8 1.7L1255.3 -1.3M1255.3 -1.3L1257.1 64.1M1255.3 -1.3L1325.1 -1.3M1325.1 -1.3L1328.6 61.6M1325.1 -1.3L1395 -1.7M1395 -1.7L1403.8 65.5M1395 -1.7L1468.5 1M1468.5 1L1472.6 62.7M1468.5 1L1532.3 -2.6M1532.3 -2.6L1539.6 59.9M1532.3 -2.6L1472.6 62.7M-1.9 56.3L-0.5 115.9M-1.9 56.3L67.7 51.7M67.7 51.7L71.1 114.8M140.2 57.5L139.6 124.8M140.2 57.5L208.7 63.8M208.7 63.8L211.5 128.2M278.7 66.6L279.3 123.1M278.7 66.6L344.9 65.6M344.9 65.6L348.8 119.3M411.2 62.6L412.8 118.7M411.2 62.6L344.9 65.6M483.8 58L482.5 118.4M483.8 58L411.2 62.6M558.3 62.4L557.1 125.1M558.3 62.4L625.1 60.6M625.1 60.6L626 122.9M697.5 60.8L697.5 121.3M697.5 60.8L625.1 60.6M769.9 66L767.4 127.6M769.9 66L834.9 67M834.9 67L836.6 126.2M903.7 67.8L903.1 125.3M903.7 67.8L834.9 67M976.2 58.7L978.2 121.3M976.2 58.7L903.7 67.8M1050.7 61.7L1048.9 120.4M1050.7 61.7L976.2 58.7M1129.9 67.1L1122.2 125.9M1129.9 67.1L1191.8 66M1191.8 66L1186.3 125.2M1257.1 64.1L1256.9 124.3M1257.1 64.1L1191.8 66M1328.6 61.6L1323.3 123.2M1328.6 61.6L1257.1 64.1M1403.8 65.5L1400.5 128.9M1403.8 65.5L1472.6 62.7M1472.6 62.7L1471.4 125.9M1472.6 62.7L1539.6 59.9M1539.6 59.9L1542.6 124.7M-0.5 115.9L1.1 179.1M-0.5 115.9L71.1 114.8M71.1 114.8L139.6 124.8M71.1 114.8L72.1 184.7M139.6 124.8L137.3 188.9M211.5 128.2L208 188.3M211.5 128.2L279.3 123.1M279.3 123.1L279.6 180.7M348.8 119.3L353.4 174.1M348.8 119.3L412.8 118.7M412.8 118.7L416 173.5M482.5 118.4L485.6 179.1M482.5 118.4L412.8 118.7M557.1 125.1L554.2 182.2M557.1 125.1L626 122.9M626 122.9L627.4 184.4M697.5 121.3L701 175.9M697.5 121.3L767.4 127.6M767.4 127.6L767.5 182.1M767.4 127.6L836.6 126.2M836.6 126.2L833.5 186.7M836.6 126.2L903.1 125.3M903.1 125.3L900.2 177.9M978.2 121.3L977.4 179.6M978.2 121.3L1048.9 120.4M1048.9 120.4L1047.5 183.9M1122.2 125.9L1118 185.9M1122.2 125.9L1186.3 125.2M1186.3 125.2L1187.2 182.5M1256.9 124.3L1256.8 184.2M1256.9 124.3L1323.3 123.2M1323.3 123.2L1327.7 182.2M1400.5 128.9L1398.3 183.3M1400.5 128.9L1471.4 125.9M1471.4 125.9L1466.4 183M1542.6 124.7L1536.9 179.6M1542.6 124.7L1471.4 125.9M1.1 179.1L-0.7 242.4M1.1 179.1L72.1 184.7M72.1 184.7L69.7 243.9M72.1 184.7L137.3 188.9M137.3 188.9L140.7 246.1M208 188.3L209.6 243.2M208 188.3L137.3 188.9M279.6 180.7L278.2 236.3M279.6 180.7L208 188.3M353.4 174.1L416 173.5M353.4 174.1L358.9 238M416 173.5L425.6 239.7M485.6 179.1L491.3 244M485.6 179.1L554.2 182.2M554.2 182.2L559.2 243.8M627.4 184.4L629.4 237.4M627.4 184.4L554.2 182.2M701 175.9L699 236.3M701 175.9L767.5 182.1M767.5 182.1L768.4 242.6M767.5 182.1L833.5 186.7M833.5 186.7L834.9 241.3M900.2 177.9L902.9 238.2M900.2 177.9L833.5 186.7M977.4 179.6L977.5 239.7M977.4 179.6L1047.5 183.9M1047.5 183.9L1046.7 246.9M1118 185.9L1126.6 246.2M1118 185.9L1187.2 182.5M1187.2 182.5L1192.1 240.4M1256.8 184.2L1256.6 236.7M1256.8 184.2L1187.2 182.5M1327.7 182.2L1327.2 241.1M1327.7 182.2L1398.3 183.3M1398.3 183.3L1393.8 241.4M1398.3 183.3L1466.4 183M1466.4 183L1464.7 241.4M1536.9 179.6L1535 237.7M1536.9 179.6L1466.4 183M-0.7 242.4L-1.7 304.8M-0.7 242.4L69.7 243.9M69.7 243.9L73.1 303.4M140.7 246.1L141.1 305.8M140.7 246.1L209.6 243.2M209.6 243.2L210.5 298.9M209.6 243.2L278.2 236.3M278.2 236.3L279.4 299.3M358.9 238L358.9 301.5M358.9 238L425.6 239.7M425.6 239.7L429 303.5M425.6 239.7L491.3 244M491.3 244L497.7 307.1M559.2 243.8L559.1 306.5M559.2 243.8L491.3 244M629.4 237.4L627.5 300.7M629.4 237.4L699 236.3M699 236.3L699.5 295.5M699 236.3L768.4 242.6M768.4 242.6L759.9 298.4M768.4 242.6L834.9 241.3M834.9 241.3L824.7 296M902.9 238.2L903.5 296.9M902.9 238.2L834.9 241.3M977.5 239.7L979.4 300.1M977.5 239.7L1046.7 246.9M1046.7 246.9L1051.5 298.8M1126.6 246.2L1126.3 303.3M1126.6 246.2L1192.1 240.4M1192.1 240.4L1189.5 297.8M1192.1 240.4L1256.6 236.7M1256.6 236.7L1257.2 296.2M1327.2 241.1L1325.1 300.8M1327.2 241.1L1393.8 241.4M1393.8 241.4L1390.7 302.4M1464.7 241.4L1459.2 301.2M1464.7 241.4L1535 237.7M1535 237.7L1531 295.3M-1.7 304.8L0 358.3M-1.7 304.8L73.1 303.4M73.1 303.4L70.3 359M73.1 303.4L141.1 305.8M141.1 305.8L138.1 361.9M210.5 298.9L209.6 363.3M210.5 298.9L279.4 299.3M279.4 299.3L275.8 369.1M358.9 301.5L346.7 366.3M358.9 301.5L429 303.5M429 303.5L421.4 367.7M429 303.5L497.7 307.1M497.7 307.1L493.2 363.5M497.7 307.1L559.1 306.5M559.1 306.5L558.2 364.2M627.5 300.7L632 364M627.5 300.7L559.1 306.5M699.5 295.5L699.9 355.7M699.5 295.5L759.9 298.4M759.9 298.4L762 353.1M824.7 296L828 357.4M824.7 296L759.9 298.4M903.5 296.9L901.2 357.2M903.5 296.9L979.4 300.1M979.4 300.1L976.2 362.5M979.4 300.1L1051.5 298.8M1051.5 298.8L1047.4 362.6M1126.3 303.3L1116.9 361.2M1126.3 303.3L1189.5 297.8M1189.5 297.8L1182.5 357.1M1257.2 296.2L1254.7 356.5M1257.2 296.2L1189.5 297.8M1325.1 300.8L1325.7 363.1M1325.1 300.8L1390.7 302.4M1390.7 302.4L1393.5 361.8M1459.2 301.2L1461.8 365.3M1459.2 301.2L1390.7 302.4M1531 295.3L1535.5 360.7M1531 295.3L1459.2 301.2M0 358.3L0.4 421.3M0 358.3L70.3 359M70.3 359L71.5 420.6M70.3 359L138.1 361.9M138.1 361.9L138.4 420.9M209.6 363.3L208.3 420.5M209.6 363.3L275.8 369.1M275.8 369.1L279.2 426.8M346.7 366.3L346.4 426.2M346.7 366.3L275.8 369.1M421.4 367.7L421.4 429.8M421.4 367.7L493.2 363.5M493.2 363.5L488.8 421.7M493.2 363.5L558.2 364.2M558.2 364.2L558.4 419.6M632 364L629.6 421.8M632 364L699.9 355.7M699.9 355.7L762 353.1M699.9 355.7L702.9 419M762 353.1L828 357.4M828 357.4L833.5 419.5M901.2 357.2L898.4 414.8M901.2 357.2L828 357.4M976.2 362.5L976.2 421.5M976.2 362.5L1047.4 362.6M1047.4 362.6L1046.2 420.6M1047.4 362.6L1116.9 361.2M1116.9 361.2L1116.2 421.1M1116.9 361.2L1182.5 357.1M1182.5 357.1L1187.8 419.8M1254.7 356.5L1255.7 420.7M1254.7 356.5L1325.7 363.1M1325.7 363.1L1327.2 429.1M1325.7 363.1L1393.5 361.8M1393.5 361.8L1395.5 424.8M1461.8 365.3L1465.1 420.4M1461.8 365.3L1393.5 361.8M1535.5 360.7L1537.4 423.1M1535.5 360.7L1461.8 365.3M0.4 421.3L1.2 480.6M0.4 421.3L71.5 420.6M71.5 420.6L69.5 480.7M71.5 420.6L138.4 420.9M138.4 420.9L138.9 482.7M208.3 420.5L211.8 476.1M208.3 420.5L138.4 420.9M279.2 426.8L283.9 479.9M279.2 426.8L346.4 426.2M346.4 426.2L352.9 481.9M421.4 429.8L420.6 481M421.4 429.8L488.8 421.7M488.8 421.7L481.6 480.2M558.4 419.6L550.1 480.7M558.4 419.6L488.8 421.7M629.6 421.8L628.9 483.4M629.6 421.8L558.4 419.6M702.9 419L766.6 421.5M702.9 419L702 483.5M766.6 421.5L767.3 485.7M766.6 421.5L833.5 419.5M833.5 419.5L835.9 479M833.5 419.5L898.4 414.8M898.4 414.8L906.6 478.1M976.2 421.5L976.8 483.8M976.2 421.5L1046.2 420.6M1046.2 420.6L1047.6 486.1M1046.2 420.6L1116.2 421.1M1116.2 421.1L1119.1 482.4M1187.8 419.8L1188.6 482.4M1187.8 419.8L1255.7 420.7M1255.7 420.7L1258.2 488.7M1327.2 429.1L1324.9 488.9M1327.2 429.1L1395.5 424.8M1395.5 424.8L1397.2 486.5M1465.1 420.4L1467.6 479.3M1465.1 420.4L1395.5 424.8M1537.4 423.1L1543.9 479M1537.4 423.1L1465.1 420.4M1.2 480.6L0.2 541.9M1.2 480.6L69.5 480.7M69.5 480.7L72.4 542.1M138.9 482.7L144.7 545.2M138.9 482.7L69.5 480.7M211.8 476.1L217.2 544.7M211.8 476.1L283.9 479.9M283.9 479.9L283.7 540.2M283.9 479.9L352.9 481.9M352.9 481.9L352.8 544.1M352.9 481.9L420.6 481M420.6 481L414.3 538.5M420.6 481L481.6 480.2M481.6 480.2L482.7 542.8M550.1 480.7L548 546.4M550.1 480.7L481.6 480.2M628.9 483.4L629.7 547.6M628.9 483.4L702 483.5M702 483.5L705.3 546.7M702 483.5L767.3 485.7M767.3 485.7L773.5 549.3M835.9 479L843.7 544.4M835.9 479L767.3 485.7M906.6 478.1L913.3 546.1M906.6 478.1L976.8 483.8M976.8 483.8L985.8 548.3M1047.6 486.1L1053 551M1047.6 486.1L976.8 483.8M1119.1 482.4L1117.1 547.9M1119.1 482.4L1188.6 482.4M1188.6 482.4L1184 545M1258.2 488.7L1256.9 547.7M1258.2 488.7L1324.9 488.9M1324.9 488.9L1329.8 548.4M1397.2 486.5L1403.1 548.1M1397.2 486.5L1467.6 479.3M1467.6 479.3L1474 541.9M1543.9 479L1543.5 543.4M1543.9 479L1467.6 479.3M0.2 541.9L-2 599.6M0.2 541.9L72.4 542.1M72.4 542.1L69 605.1M144.7 545.2L147.9 606.9M144.7 545.2L72.4 542.1M217.2 544.7L219.3 610.3M217.2 544.7L283.7 540.2M283.7 540.2L280.1 602.9M352.8 544.1L349.1 599.1M352.8 544.1L414.3 538.5M414.3 538.5L419.3 598.3M482.7 542.8L488.1 603.3M482.7 542.8L548 546.4M548 546.4L555.9 605.1M629.7 547.6L629.1 606.5M629.7 547.6L705.3 546.7M705.3 546.7L705.5 605.6M705.3 546.7L773.5 549.3M773.5 549.3L775.6 603.8M843.7 544.4L838.7 606.5M843.7 544.4L913.3 546.1M913.3 546.1L912 608.1M985.8 548.3L981.2 607.5M985.8 548.3L1053 551M1053 551L1046.1 605M1053 551L1117.1 547.9M1117.1 547.9L1111.1 604.4M1184 545L1184.9 602.9M1184 545L1117.1 547.9M1256.9 547.7L1255 606.8M1256.9 547.7L1329.8 548.4M1329.8 548.4L1332.9 604.5M1403.1 548.1L1407.9 605.6M1403.1 548.1L1474 541.9M1474 541.9L1469.3 604.6M1474 541.9L1543.5 543.4M1543.5 543.4L1535.1 601.8M-2 599.6L0.5 664.7M-2 599.6L69 605.1M69 605.1L64.5 667.4M147.9 606.9L141.1 668.1M147.9 606.9L219.3 610.3M219.3 610.3L212.3 663.5M219.3 610.3L280.1 602.9M280.1 602.9L273 658.8M349.1 599.1L346.7 657.6M349.1 599.1L280.1 602.9M419.3 598.3L419.9 658.8M419.3 598.3L488.1 603.3M488.1 603.3L488.2 661.7M488.1 603.3L555.9 605.1M555.9 605.1L556.3 662M629.1 606.5L628.9 669.3M629.1 606.5L555.9 605.1M705.5 605.6L699 664.5M705.5 605.6L775.6 603.8M775.6 603.8L765.8 662.8M775.6 603.8L838.7 606.5M838.7 606.5L835 661.9M912 608.1L911.5 660.7M912 608.1L981.2 607.5M981.2 607.5L978.2 661.2M981.2 607.5L1046.1 605M1046.1 605L1042.6 659M1111.1 604.4L1110.4 662.3M1111.1 604.4L1046.1 605M1184.9 602.9L1187.2 661.6M1184.9 602.9L1255 606.8M1255 606.8L1257.1 659.9M1332.9 604.5L1332.6 662M1332.9 604.5L1407.9 605.6M1407.9 605.6L1400.5 663.3M1407.9 605.6L1469.3 604.6M1469.3 604.6L1469.5 664.5M1535.1 601.8L1531.8 659.8M1535.1 601.8L1469.3 604.6M0.5 664.7L-3.3 727.1M0.5 664.7L64.5 667.4M64.5 667.4L61 730.8M141.1 668.1L141.4 726.9M141.1 668.1L212.3 663.5M212.3 663.5L213.7 721.9M212.3 663.5L273 658.8M273 658.8L274.4 723.9M346.7 657.6L349.9 717.6M346.7 657.6L419.9 658.8M419.9 658.8L419.3 716M419.9 658.8L488.2 661.7M488.2 661.7L492 718.4M488.2 661.7L556.3 662M556.3 662L555 723.2M628.9 669.3L627.1 728.2M628.9 669.3L699 664.5M699 664.5L689.9 726.4M699 664.5L765.8 662.8M765.8 662.8L760.3 718.9M835 661.9L830 719M835 661.9L765.8 662.8M911.5 660.7L905.8 720.7M911.5 660.7L978.2 661.2M978.2 661.2L975 719.8M978.2 661.2L1042.6 659M1042.6 659L1044.4 715.4M1110.4 662.3L1110 716.9M1110.4 662.3L1042.6 659M1187.2 661.6L1183.9 718.4M1187.2 661.6L1257.1 659.9M1257.1 659.9L1266.4 719.4M1332.6 662L1335.2 723.8M1332.6 662L1400.5 663.3M1400.5 663.3L1404.4 721.4M1469.5 664.5L1467.1 721.6M1469.5 664.5L1531.8 659.8M1531.8 659.8L1537.1 718.8M-3.3 727.1L-5.1 791.4M-3.3 727.1L61 730.8M61 730.8L64.6 789.6M141.4 726.9L140.6 785.4M141.4 726.9L213.7 721.9M213.7 721.9L213 778.9M213.7 721.9L274.4 723.9M274.4 723.9L274.1 785.5M349.9 717.6L347 781.8M349.9 717.6L419.3 716M419.3 716L414.8 771.7M492 718.4L485.1 776.7M492 718.4L555 723.2M555 723.2L555.2 780.1M627.1 728.2L622.1 787.1M627.1 728.2L689.9 726.4M689.9 726.4L692.4 789.4M760.3 718.9L765.8 784.4M760.3 718.9L830 719M830 719L834.2 779.5M905.8 720.7L906.8 782M905.8 720.7L975 719.8M975 719.8L979.6 779.9M1044.4 715.4L1055.3 772.8M1044.4 715.4L1110 716.9M1110 716.9L1121.5 777.4M1183.9 718.4L1188.9 783.9M1183.9 718.4L1110 716.9M1266.4 719.4L1262.6 786.2M1266.4 719.4L1335.2 723.8M1335.2 723.8L1334 786M1404.4 721.4L1405.8 780.6M1404.4 721.4L1467.1 721.6M1467.1 721.6L1469 774.5M1537.1 718.8L1536 774.3M1537.1 718.8L1467.1 721.6M-5.1 791.4L-1.6 845.7M-5.1 791.4L64.6 789.6M64.6 789.6L73.3 845.3M140.6 785.4L147.7 847M140.6 785.4L213 778.9M213 778.9L274.1 785.5M213 778.9L211.9 843.4M274.1 785.5L274.5 842.5M347 781.8L342.8 844M347 781.8L414.8 771.7M414.8 771.7L412 840.3M485.1 776.7L485.4 842.3M485.1 776.7L555.2 780.1M555.2 780.1L562.6 842.7M555.2 780.1L622.1 787.1M622.1 787.1L627 847M692.4 789.4L695 851.2M692.4 789.4L622.1 787.1M765.8 784.4L766.6 845.4M765.8 784.4L834.2 779.5M834.2 779.5L839.3 842.6M906.8 782L903.7 844.3M906.8 782L834.2 779.5M979.6 779.9L977 843.8M979.6 779.9L906.8 782M1055.3 772.8L1121.5 777.4M1055.3 772.8L1052.7 840.9M1121.5 777.4L1119.3 837.5M1188.9 783.9L1185.2 838.3M1188.9 783.9L1121.5 777.4M1262.6 786.2L1257.1 844.1M1262.6 786.2L1334 786M1334 786L1333.3 847M1334 786L1405.8 780.6M1405.8 780.6L1469 774.5M1405.8 780.6L1403.9 841.5M1469 774.5L1471.1 838.4M1536 774.3L1538.2 840.5M1536 774.3L1469 774.5M-1.6 845.7L-0.4 899.7M-1.6 845.7L73.3 845.3M73.3 845.3L74.7 899.6M73.3 845.3L147.7 847M147.7 847L145.4 901M147.7 847L211.9 843.4M211.9 843.4L213.8 902.6M211.9 843.4L274.5 842.5M274.5 842.5L276.5 901.6M342.8 844L339 902.1M342.8 844L274.5 842.5M412 840.3L414.9 903.4M412 840.3L342.8 844M485.4 842.3L492.6 905.6M485.4 842.3L412 840.3M562.6 842.7L627 847M562.6 842.7L566.1 907.4M627 847L630.4 909.3M695 851.2L702.1 902.5M695 851.2L627 847M766.6 845.4L773.5 897.7M766.6 845.4L695 851.2M839.3 842.6L845.5 900M839.3 842.6L903.7 844.3M903.7 844.3L904.2 906.1M977 843.8L975.5 905.5M977 843.8L903.7 844.3M1052.7 840.9L1048.8 902M1052.7 840.9L1119.3 837.5M1119.3 837.5L1112.5 898.6M1119.3 837.5L1185.2 838.3M1185.2 838.3L1179.7 895.2M1257.1 844.1L1251.2 897.9M1257.1 844.1L1185.2 838.3M1333.3 847L1322 900.2M1333.3 847L1403.9 841.5M1403.9 841.5L1396.9 896.4M1403.9 841.5L1471.1 838.4M1471.1 838.4L1538.2 840.5M1538.2 840.5L1536.8 904.8M-0.4 899.7L6.7 958.5M-0.4 899.7L74.7 899.6M74.7 899.6L75.6 954.6M74.7 899.6L145.4 901M145.4 901L144.4 955.9M145.4 901L213.8 902.6M213.8 902.6L206.6 957.2M213.8 902.6L276.5 901.6M276.5 901.6L271.6 957.6M276.5 901.6L339 902.1M339 902.1L341.9 961.3M414.9 903.4L412.6 964M414.9 903.4L339 902.1M492.6 905.6L487.9 963.1M492.6 905.6L566.1 907.4M566.1 907.4L562.7 966.2M566.1 907.4L630.4 909.3M630.4 909.3L631.5 960.7M702.1 902.5L704.1 955.1M702.1 902.5L773.5 897.7M773.5 897.7L774.7 958.4M845.5 900L904.2 906.1M845.5 900L842.6 960.2M904.2 906.1L902.3 971.6M975.5 905.5L971.4 972.6M975.5 905.5L904.2 906.1M1048.8 902L1112.5 898.6M1048.8 902L1044 966.9M1112.5 898.6L1110.9 963.6M1179.7 895.2L1182.4 959.6M1179.7 895.2L1112.5 898.6M1251.2 897.9L1252.4 964M1251.2 897.9L1322 900.2M1322 900.2L1319.7 968.7M1322 900.2L1396.9 896.4M1396.9 896.4L1394.8 965.7M1396.9 896.4L1466 904.6M1466 904.6L1468.1 966.3M1466 904.6L1471.1 838.4M1536.8 904.8L1533.4 960.1M1536.8 904.8L1466 904.6M6.7 958.5L3.9 1017.7M6.7 958.5L75.6 954.6M75.6 954.6L75.3 1013.2M75.6 954.6L144.4 955.9M144.4 955.9L149.7 1015.5M144.4 955.9L206.6 957.2M206.6 957.2L271.6 957.6M271.6 957.6L274.8 1022.1M341.9 961.3L348.8 1025.9M341.9 961.3L271.6 957.6M412.6 964L417.5 1026.7M412.6 964L341.9 961.3M487.9 963.1L482.6 1023.1M487.9 963.1L562.7 966.2M562.7 966.2L555.1 1022.1M562.7 966.2L631.5 960.7M631.5 960.7L630.3 1019.3M704.1 955.1L702.6 1017M704.1 955.1L774.7 958.4M774.7 958.4L765.5 1023.5M774.7 958.4L842.6 960.2M842.6 960.2L902.3 971.6M842.6 960.2L837.6 1023.6M902.3 971.6L908.2 1029M971.4 972.6L973.9 1028.4M971.4 972.6L902.3 971.6M1044 966.9L1043.5 1026M1044 966.9L1110.9 963.6M1110.9 963.6L1110.1 1026.1M1182.4 959.6L1181.7 1025.9M1182.4 959.6L1110.9 963.6M1252.4 964L1253 1027.8M1252.4 964L1319.7 968.7M1319.7 968.7L1325.8 1031.1M1319.7 968.7L1394.8 965.7M1394.8 965.7L1394.2 1037.5M1394.8 965.7L1468.1 966.3M1468.1 966.3L1468 1025.8M1533.4 960.1L1534.8 1021.2M1533.4 960.1L1468.1 966.3M3.9 1017.7L75.3 1013.2M3.9 1017.7L75.6 954.6M75.3 1013.2L149.7 1015.5M149.7 1015.5L209.7 1024.3M209.7 1024.3L274.8 1022.1M209.7 1024.3L206.6 957.2M274.8 1022.1L348.8 1025.9M348.8 1025.9L417.5 1026.7M417.5 1026.7L482.6 1023.1M482.6 1023.1L555.1 1022.1M555.1 1022.1L630.3 1019.3M630.3 1019.3L702.6 1017M702.6 1017L765.5 1023.5M765.5 1023.5L837.6 1023.6M837.6 1023.6L908.2 1029M908.2 1029L973.9 1028.4M973.9 1028.4L1043.5 1026M1043.5 1026L1110.1 1026.1M1110.1 1026.1L1181.7 1025.9M1181.7 1025.9L1253 1027.8M1253 1027.8L1325.8 1031.1M1325.8 1031.1L1394.2 1037.5M1394.2 1037.5L1468 1025.8M1468 1025.8L1534.8 1021.2M1534.8 1021.2L1468.1 966.3" stroke="#1d3a36" stroke-width="1.5" fill="none" stroke-opacity="0.95"/>
<path class="sig b0" d="M1325.1 -1.3L1395 -1.7M1395 -1.7L1403.8 65.5M1395 -1.7L1468.5 1M1468.5 1L1472.6 62.7M1468.5 1L1532.3 -2.6M1538.2 840.5L1536.8 904.8M1466 904.6L1468.1 966.3M1536.8 904.8L1466 904.6" stroke="#f97084" stroke-width="4.4" stroke-opacity="1" fill="none" stroke-linecap="round"/>
<path class="sig b0" d="M976.2 362.5L1047.4 362.6M1047.4 362.6L1046.2 420.6M1047.4 362.6L1116.9 361.2M1116.9 361.2L1116.2 421.1M976.2 421.5L1046.2 420.6M1046.2 420.6L1047.6 486.1M1046.2 420.6L1116.2 421.1M1116.2 421.1L1119.1 482.4M906.8 782L903.7 844.3M839.3 842.6L903.7 844.3M977 843.8L975.5 905.5M977 843.8L903.7 844.3" stroke="#2dd2be" stroke-width="4.4" stroke-opacity="1" fill="none" stroke-linecap="round"/>
<path class="sig b0" d="M1532.3 -2.6L1472.6 62.7M1403.8 65.5L1472.6 62.7M1472.6 62.7L1471.4 125.9M1536.8 904.8L1533.4 960.1M1394.8 965.7L1468.1 966.3M1468.1 966.3L1468 1025.8M1533.4 960.1L1468.1 966.3M1468 1025.8L1534.8 1021.2M1534.8 1021.2L1468.1 966.3" stroke="#c86473" stroke-width="2.6" stroke-opacity="0.85" fill="none" stroke-linecap="round"/>
<path class="sig b0" d="M1051.5 298.8L1047.4 362.6M976.2 362.5L976.2 421.5M1047.6 486.1L1053 551M839.3 842.6L845.5 900M903.7 844.3L904.2 906.1M975.5 905.5L971.4 972.6M975.5 905.5L904.2 906.1" stroke="#29b19f" stroke-width="2.6" stroke-opacity="0.85" fill="none" stroke-linecap="round"/>
<path class="sig b0" d="M1047.6 486.1L976.8 483.8M845.5 900L904.2 906.1M845.5 900L842.6 960.2M842.6 960.2L902.3 971.6" stroke="#268f81" stroke-width="1.7" stroke-opacity="0.6" fill="none" stroke-linecap="round"/>
<path class="sig b0" d="M1533.4 960.1L1534.8 1021.2" stroke="#975861" stroke-width="1.7" stroke-opacity="0.6" fill="none" stroke-linecap="round"/>
<path class="sig b1" d="M1047.5 183.9L1046.7 246.9M1126.6 246.2L1126.3 303.3M1126.3 303.3L1189.5 297.8M1189.5 297.8L1182.5 357.1M906.6 478.1L976.8 483.8M976.8 483.8L985.8 548.3M981.2 607.5L1046.1 605M1046.1 605L1042.6 659M1111.1 604.4L1046.1 605M1536 774.3L1538.2 840.5M1403.9 841.5L1396.9 896.4M1403.9 841.5L1471.1 838.4M1471.1 838.4L1538.2 840.5M1396.9 896.4L1394.8 965.7M1396.9 896.4L1466 904.6M1466 904.6L1471.1 838.4" stroke="#f97084" stroke-width="4.4" stroke-opacity="1" fill="none" stroke-linecap="round"/>
<path class="sig b1" d="M1119.1 482.4L1188.6 482.4M911.5 660.7L905.8 720.7M830 719L834.2 779.5M905.8 720.7L906.8 782M905.8 720.7L975 719.8M834.2 779.5L839.3 842.6M906.8 782L834.2 779.5M979.6 779.9L977 843.8M979.6 779.9L906.8 782" stroke="#2dd2be" stroke-width="4.4" stroke-opacity="1" fill="none" stroke-linecap="round"/>
<path class="sig b1" d="M1539.6 59.9L1542.6 124.7M1400.5 128.9L1398.3 183.3M1542.6 124.7L1536.9 179.6M1398.3 183.3L1466.4 183M1466.4 183L1464.7 241.4M1119.1 482.4L1117.1 547.9M704.1 955.1L774.7 958.4M774.7 958.4L765.5 1023.5M774.7 958.4L842.6 960.2" stroke="#29b19f" stroke-width="2.6" stroke-opacity="0.85" fill="none" stroke-linecap="round"/>
<path class="sig b1" d="M985.8 548.3L1053 551M1053 551L1046.1 605M1117.1 547.9L1111.1 604.4M1469 774.5L1471.1 838.4M1536 774.3L1469 774.5M1319.7 968.7L1394.8 965.7" stroke="#c86473" stroke-width="2.6" stroke-opacity="0.85" fill="none" stroke-linecap="round"/>
<path class="sig b1" d="M1542.6 124.7L1471.4 125.9M1536.9 179.6L1466.4 183M979.4 300.1L976.2 362.5M765.8 784.4L834.2 779.5M842.6 960.2L837.6 1023.6M765.5 1023.5L837.6 1023.6" stroke="#268f81" stroke-width="1.7" stroke-opacity="0.6" fill="none" stroke-linecap="round"/>
<path class="sig b1" d="M977.5 239.7L1046.7 246.9M1046.7 246.9L1051.5 298.8M1126.3 303.3L1116.9 361.2M1394.8 965.7L1394.2 1037.5M908.2 1029L973.9 1028.4" stroke="#975861" stroke-width="1.7" stroke-opacity="0.6" fill="none" stroke-linecap="round"/>
<path class="sig b2" d="M1123.8 0.3L1190.8 1.7M1190.8 1.7L1191.8 66M1190.8 1.7L1255.3 -1.3M1255.3 -1.3L1257.1 64.1M1257.1 64.1L1256.9 124.3M1257.1 64.1L1191.8 66M1328.6 61.6L1323.3 123.2M1328.6 61.6L1257.1 64.1M1256.9 124.3L1323.3 123.2M1323.3 123.2L1327.7 182.2M1327.7 182.2L1398.3 183.3M1398.3 183.3L1393.8 241.4M1535.1 601.8L1531.8 659.8M1469.5 664.5L1531.8 659.8M1531.8 659.8L1537.1 718.8M975 719.8L979.6 779.9" stroke="#2dd2be" stroke-width="4.4" stroke-opacity="1" fill="none" stroke-linecap="round"/>
<path class="sig b2" d="M1050.7 61.7L1048.9 120.4M978.2 121.3L1048.9 120.4M1048.9 120.4L1047.5 183.9M1122.2 125.9L1118 185.9M977.4 179.6L1047.5 183.9M1118 185.9L1126.6 246.2M1118 185.9L1187.2 182.5M1126.6 246.2L1192.1 240.4M1192.1 240.4L1189.5 297.8M1257.2 296.2L1189.5 297.8M901.2 357.2L898.4 414.8M833.5 419.5L898.4 414.8M898.4 414.8L906.6 478.1M906.6 478.1L913.3 546.1M843.7 544.4L913.3 546.1M913.3 546.1L912 608.1M985.8 548.3L981.2 607.5M912 608.1L981.2 607.5M981.2 607.5L978.2 661.2M1111.1 604.4L1110.4 662.3M978.2 661.2L1042.6 659M1042.6 659L1044.4 715.4M1110.4 662.3L1110 716.9M1110.4 662.3L1042.6 659M1044.4 715.4L1055.3 772.8M1044.4 715.4L1110 716.9M766.6 845.4L695 851.2" stroke="#f97084" stroke-width="4.4" stroke-opacity="1" fill="none" stroke-linecap="round"/>
<path class="sig b2" d="M1464.7 241.4L1459.2 301.2M1459.2 301.2L1390.7 302.4M1469.5 664.5L1467.1 721.6M1537.1 718.8L1467.1 721.6" stroke="#29b19f" stroke-width="2.6" stroke-opacity="0.85" fill="none" stroke-linecap="round"/>
<path class="sig b2" d="M760.3 718.9L765.8 784.4M765.8 784.4L766.6 845.4M1405.8 780.6L1403.9 841.5M766.6 845.4L773.5 897.7M1333.3 847L1403.9 841.5M702.1 902.5L773.5 897.7M1322 900.2L1396.9 896.4M1044 966.9L1043.5 1026M973.9 1028.4L1043.5 1026M1043.5 1026L1110.1 1026.1" stroke="#c86473" stroke-width="2.6" stroke-opacity="0.85" fill="none" stroke-linecap="round"/>
<path class="sig b2" d="M978.2 121.3L977.4 179.6M977.4 179.6L977.5 239.7M1535 237.7L1531 295.3M903.5 296.9L901.2 357.2M1182.5 357.1L1187.8 419.8M838.7 606.5L835 661.9M1405.8 780.6L1469 774.5M1333.3 847L1322 900.2M702.1 902.5L704.1 955.1M1322 900.2L1319.7 968.7" stroke="#975861" stroke-width="1.7" stroke-opacity="0.6" fill="none" stroke-linecap="round"/>
<path class="sig b2" d="M902.9 238.2L903.5 296.9M1464.7 241.4L1535 237.7M1459.2 301.2L1461.8 365.3M1187.8 419.8L1188.6 482.4M1188.6 482.4L1184 545M835 661.9L830 719M1251.2 897.9L1252.4 964M1251.2 897.9L1322 900.2M704.1 955.1L702.6 1017M1252.4 964L1253 1027.8M702.6 1017L765.5 1023.5M1253 1027.8L1325.8 1031.1M1325.8 1031.1L1394.2 1037.5" stroke="#268f81" stroke-width="1.7" stroke-opacity="0.6" fill="none" stroke-linecap="round"/>
<path class="sig b3" d="M1049.4 0.4L1123.8 0.3M1123.8 0.3L1129.9 67.1M903.1 125.3L900.2 177.9M833.5 186.7L834.9 241.3M900.2 177.9L902.9 238.2M900.2 177.9L833.5 186.7M1327.7 182.2L1327.2 241.1M834.9 241.3L824.7 296M1327.2 241.1L1325.1 300.8M1327.2 241.1L1393.8 241.4M1393.8 241.4L1390.7 302.4M702.9 419L766.6 421.5M1257.1 844.1L1251.2 897.9M1257.1 844.1L1185.2 838.3" stroke="#2dd2be" stroke-width="4.4" stroke-opacity="1" fill="none" stroke-linecap="round"/>
<path class="sig b3" d="M1187.2 182.5L1192.1 240.4M1192.1 240.4L1256.6 236.7M1256.6 236.7L1257.2 296.2M692.4 789.4L695 851.2M695 851.2L702.1 902.5M695 851.2L627 847" stroke="#f97084" stroke-width="4.4" stroke-opacity="1" fill="none" stroke-linecap="round"/>
<path class="sig b3" d="M1129.9 67.1L1191.8 66M1191.8 66L1186.3 125.2M1256.9 124.3L1256.8 184.2M768.4 242.6L834.9 241.3M902.9 238.2L834.9 241.3M824.7 296L828 357.4M1325.1 300.8L1390.7 302.4M1390.7 302.4L1393.5 361.8M762 353.1L828 357.4M766.6 421.5L767.3 485.7M1543.5 543.4L1535.1 601.8M1535.1 601.8L1469.3 604.6M1262.6 786.2L1257.1 844.1" stroke="#29b19f" stroke-width="2.6" stroke-opacity="0.85" fill="none" stroke-linecap="round"/>
<path class="sig b3" d="M1186.3 125.2L1187.2 182.5M1257.2 296.2L1254.7 356.5M1531 295.3L1535.5 360.7M833.5 419.5L835.9 479M835.9 479L843.7 544.4M843.7 544.4L838.7 606.5M765.8 662.8L760.3 718.9M1044 966.9L1110.9 963.6M1110.9 963.6L1110.1 1026.1" stroke="#c86473" stroke-width="2.6" stroke-opacity="0.85" fill="none" stroke-linecap="round"/>
<path class="sig b3" d="M976.2 58.7L978.2 121.3M1050.7 61.7L976.2 58.7M1129.9 67.1L1122.2 125.9M1122.2 125.9L1186.3 125.2M1256.8 184.2L1187.2 182.5M1254.7 356.5L1255.7 420.7M1254.7 356.5L1325.7 363.1M1461.8 365.3L1465.1 420.4M1535.5 360.7L1461.8 365.3M1255.7 420.7L1258.2 488.7M1184.9 602.9L1187.2 661.6M1184.9 602.9L1255 606.8M699 664.5L765.8 662.8M1110 716.9L1121.5 777.4M1183.9 718.4L1110 716.9M1055.3 772.8L1121.5 777.4M1055.3 772.8L1052.7 840.9M1052.7 840.9L1048.8 902M1048.8 902L1112.5 898.6M1048.8 902L1044 966.9M1112.5 898.6L1110.9 963.6M1182.4 959.6L1110.9 963.6M1110.1 1026.1L1181.7 1025.9" stroke="#975861" stroke-width="1.7" stroke-opacity="0.6" fill="none" stroke-linecap="round"/>
<path class="sig b3" d="M1325.1 300.8L1325.7 363.1M835.9 479L767.3 485.7M773.5 549.3L775.6 603.8M1255 606.8L1257.1 659.9M1469.3 604.6L1469.5 664.5M1400.5 663.3L1404.4 721.4M1335.2 723.8L1334 786M1404.4 721.4L1467.1 721.6M1262.6 786.2L1334 786M630.3 1019.3L702.6 1017" stroke="#268f81" stroke-width="1.7" stroke-opacity="0.6" fill="none" stroke-linecap="round"/>
<path class="sig b4" d="M836.6 126.2L833.5 186.7M824.7 296L759.9 298.4M699.9 355.7L762 353.1M699.9 355.7L702.9 419M702.9 419L702 483.5M702 483.5L705.3 546.7M702 483.5L767.3 485.7M705.3 546.7L705.5 605.6M705.3 546.7L773.5 549.3M1188.9 783.9L1185.2 838.3M1119.3 837.5L1185.2 838.3" stroke="#2dd2be" stroke-width="4.4" stroke-opacity="1" fill="none" stroke-linecap="round"/>
<path class="sig b4" d="M1535.5 360.7L1537.4 423.1M1465.1 420.4L1467.6 479.3M1537.4 423.1L1543.9 479M1537.4 423.1L1465.1 420.4M1397.2 486.5L1467.6 479.3M1467.6 479.3L1474 541.9M1543.9 479L1467.6 479.3M689.9 726.4L692.4 789.4M622.1 787.1L627 847M692.4 789.4L622.1 787.1" stroke="#f97084" stroke-width="4.4" stroke-opacity="1" fill="none" stroke-linecap="round"/>
<path class="sig b4" d="M903.7 67.8L903.1 125.3M836.6 126.2L903.1 125.3M767.5 182.1L833.5 186.7M768.4 242.6L759.9 298.4M759.9 298.4L762 353.1M632 364L699.9 355.7M767.3 485.7L773.5 549.3M1185.2 838.3L1179.7 895.2" stroke="#29b19f" stroke-width="2.6" stroke-opacity="0.85" fill="none" stroke-linecap="round"/>
<path class="sig b4" d="M1395.5 424.8L1397.2 486.5M1465.1 420.4L1395.5 424.8M1397.2 486.5L1403.1 548.1M1403.1 548.1L1474 541.9M699 664.5L689.9 726.4M627.1 728.2L622.1 787.1M627.1 728.2L689.9 726.4M562.6 842.7L627 847M627 847L630.4 909.3" stroke="#c86473" stroke-width="2.6" stroke-opacity="0.85" fill="none" stroke-linecap="round"/>
<path class="sig b4" d="M908.3 7.2L977.2 0.6M701 175.9L699 236.3M701 175.9L767.5 182.1M699 236.3L699.5 295.5M1393.5 361.8L1395.5 424.8M1327.2 429.1L1395.5 424.8M1543.9 479L1543.5 543.4M628.9 669.3L627.1 728.2M628.9 669.3L699 664.5M555.2 780.1L622.1 787.1M482.6 1023.1L555.1 1022.1" stroke="#975861" stroke-width="1.7" stroke-opacity="0.6" fill="none" stroke-linecap="round"/>
<path class="sig b4" d="M834.9 67L836.6 126.2M903.7 67.8L834.9 67M767.4 127.6L836.6 126.2M767.5 182.1L768.4 242.6M699.5 295.5L699.9 355.7M699.5 295.5L759.9 298.4M705.5 605.6L775.6 603.8M1332.9 604.5L1407.9 605.6M1407.9 605.6L1400.5 663.3M1407.9 605.6L1469.3 604.6M1257.1 659.9L1266.4 719.4M1332.6 662L1335.2 723.8M1183.9 718.4L1188.9 783.9M1266.4 719.4L1262.6 786.2M1266.4 719.4L1335.2 723.8M1121.5 777.4L1119.3 837.5M1188.9 783.9L1121.5 777.4M562.6 842.7L566.1 907.4M1052.7 840.9L1119.3 837.5M1119.3 837.5L1112.5 898.6M566.1 907.4L562.7 966.2M566.1 907.4L630.4 909.3M487.9 963.1L562.7 966.2" stroke="#268f81" stroke-width="1.7" stroke-opacity="0.6" fill="none" stroke-linecap="round"/>
<path class="sig b5" d="M627.4 184.4L629.4 237.4" stroke="#f97084" stroke-width="4.4" stroke-opacity="1" fill="none" stroke-linecap="round"/>
<path class="sig b5" d="M629.6 421.8L628.9 483.4M628.9 483.4L629.7 547.6M628.9 483.4L702 483.5M629.7 547.6L705.3 546.7M492 718.4L485.1 776.7M492 718.4L555 723.2M485.1 776.7L485.4 842.3M485.4 842.3L492.6 905.6" stroke="#2dd2be" stroke-width="4.4" stroke-opacity="1" fill="none" stroke-linecap="round"/>
<path class="sig b5" d="M697.5 121.3L701 175.9M629.4 237.4L627.5 300.7M629.4 237.4L699 236.3" stroke="#c86473" stroke-width="2.6" stroke-opacity="0.85" fill="none" stroke-linecap="round"/>
<path class="sig b5" d="M556.3 662L555 723.2M555 723.2L555.2 780.1M485.1 776.7L555.2 780.1M492.6 905.6L487.9 963.1M492.6 905.6L566.1 907.4" stroke="#29b19f" stroke-width="2.6" stroke-opacity="0.85" fill="none" stroke-linecap="round"/>
<path class="sig b5" d="M767.4 1.3L835.4 2.7M835.4 2.7L908.3 7.2M697.5 60.8L697.5 121.3M697.5 121.3L767.4 127.6M627.5 300.7L632 364M417.5 1026.7L482.6 1023.1" stroke="#975861" stroke-width="1.7" stroke-opacity="0.6" fill="none" stroke-linecap="round"/>
<path class="sig b5" d="M632 364L629.6 421.8M629.7 547.6L629.1 606.5M555.9 605.1L556.3 662" stroke="#268f81" stroke-width="1.7" stroke-opacity="0.6" fill="none" stroke-linecap="round"/>
<path class="sig b6" d="M626 122.9L627.4 184.4" stroke="#f97084" stroke-width="4.4" stroke-opacity="1" fill="none" stroke-linecap="round"/>
<path class="sig b6" d="M488.2 661.7L492 718.4" stroke="#2dd2be" stroke-width="4.4" stroke-opacity="1" fill="none" stroke-linecap="round"/>
<path class="sig b6" d="M625.1 60.6L626 122.9M557.1 125.1L554.2 182.2M557.1 125.1L626 122.9M554.2 182.2L559.2 243.8M627.4 184.4L554.2 182.2M559.2 243.8L559.1 306.5M497.7 307.1L559.1 306.5M559.1 306.5L558.2 364.2M627.5 300.7L559.1 306.5M558.2 364.2L558.4 419.6M558.4 419.6L550.1 480.7M558.4 419.6L488.8 421.7" stroke="#c86473" stroke-width="2.6" stroke-opacity="0.85" fill="none" stroke-linecap="round"/>
<path class="sig b6" d="M485.4 842.3L412 840.3" stroke="#29b19f" stroke-width="2.6" stroke-opacity="0.85" fill="none" stroke-linecap="round"/>
<path class="sig b6" d="M697.5 60.8L625.1 60.6M485.6 179.1L554.2 182.2M550.1 480.7L548 546.4M339 902.1L341.9 961.3M341.9 961.3L271.6 957.6" stroke="#975861" stroke-width="1.7" stroke-opacity="0.6" fill="none" stroke-linecap="round"/>
<path class="sig b6" d="M488.1 603.3L488.2 661.7M419.9 658.8L488.2 661.7M488.2 661.7L556.3 662M412 840.3L414.9 903.4M209.7 1024.3L274.8 1022.1" stroke="#268f81" stroke-width="1.7" stroke-opacity="0.6" fill="none" stroke-linecap="round"/>
<path class="sig b7" d="M421.4 429.8L488.8 421.7M488.8 421.7L481.6 480.2" stroke="#f97084" stroke-width="4.4" stroke-opacity="1" fill="none" stroke-linecap="round"/>
<path class="sig b7" d="M425.6 239.7L429 303.5M425.6 239.7L491.3 244" stroke="#29b19f" stroke-width="2.6" stroke-opacity="0.85" fill="none" stroke-linecap="round"/>
<path class="sig b7" d="M493.2 363.5L488.8 421.7M493.2 363.5L558.2 364.2M421.4 429.8L420.6 481M420.6 481L414.3 538.5M420.6 481L481.6 480.2M481.6 480.2L482.7 542.8M550.1 480.7L481.6 480.2M274.5 842.5L276.5 901.6M342.8 844L274.5 842.5M213.8 902.6L276.5 901.6M276.5 901.6L271.6 957.6M276.5 901.6L339 902.1" stroke="#c86473" stroke-width="2.6" stroke-opacity="0.85" fill="none" stroke-linecap="round"/>
<path class="sig b7" d="M564 1.7L627.6 -0.2M627.6 -0.2L696.4 -1.4M483.8 58L482.5 118.4M482.5 118.4L485.6 179.1M482.5 118.4L412.8 118.7M485.6 179.1L491.3 244M358.9 301.5L429 303.5M419.9 658.8L419.3 716M414.8 771.7L412 840.3" stroke="#268f81" stroke-width="1.7" stroke-opacity="0.6" fill="none" stroke-linecap="round"/>
<path class="sig b7" d="M558.3 62.4L557.1 125.1M558.3 62.4L625.1 60.6M497.7 307.1L493.2 363.5M421.4 367.7L421.4 429.8M421.4 367.7L493.2 363.5M352.8 544.1L414.3 538.5M414.3 538.5L419.3 598.3M347 781.8L342.8 844M342.8 844L339 902.1M206.6 957.2L271.6 957.6" stroke="#975861" stroke-width="1.7" stroke-opacity="0.6" fill="none" stroke-linecap="round"/>
<path class="sig b8" d="M412.8 118.7L416 173.5M416 173.5L425.6 239.7M358.9 238L425.6 239.7" stroke="#2dd2be" stroke-width="4.4" stroke-opacity="1" fill="none" stroke-linecap="round"/>
<path class="sig b8" d="M411.2 62.6L412.8 118.7M348.8 119.3L412.8 118.7M358.9 238L358.9 301.5M358.9 301.5L346.7 366.3" stroke="#29b19f" stroke-width="2.6" stroke-opacity="0.85" fill="none" stroke-linecap="round"/>
<path class="sig b8" d="M274.4 723.9L274.1 785.5M213 778.9L274.1 785.5M213 778.9L211.9 843.4M274.1 785.5L274.5 842.5M147.7 847L211.9 843.4M211.9 843.4L213.8 902.6M211.9 843.4L274.5 842.5" stroke="#c86473" stroke-width="2.6" stroke-opacity="0.85" fill="none" stroke-linecap="round"/>
<path class="sig b8" d="M483.8 58L411.2 62.6M346.7 366.3L346.4 426.2M283.9 479.9L352.9 481.9" stroke="#268f81" stroke-width="1.7" stroke-opacity="0.6" fill="none" stroke-linecap="round"/>
<path class="sig b8" d="M352.9 481.9L352.8 544.1M352.9 481.9L420.6 481M352.8 544.1L349.1 599.1M349.1 599.1L346.7 657.6M349.9 717.6L347 781.8M145.4 901L213.8 902.6M213.8 902.6L206.6 957.2" stroke="#975861" stroke-width="1.7" stroke-opacity="0.6" fill="none" stroke-linecap="round"/>
<path class="sig b9" d="M353.4 174.1L416 173.5M353.4 174.1L358.9 238" stroke="#2dd2be" stroke-width="4.4" stroke-opacity="1" fill="none" stroke-linecap="round"/>
<path class="sig b9" d="M348.8 119.3L353.4 174.1M275.8 369.1L279.2 426.8M346.7 366.3L275.8 369.1M279.2 426.8L283.9 479.9M211.8 476.1L217.2 544.7M211.8 476.1L283.9 479.9M283.9 479.9L283.7 540.2M217.2 544.7L283.7 540.2" stroke="#29b19f" stroke-width="2.6" stroke-opacity="0.85" fill="none" stroke-linecap="round"/>
<path class="sig b9" d="M342.2 1.5L413.3 -0.5M213.7 721.9L213 778.9M213.7 721.9L274.4 723.9M140.6 785.4L213 778.9M147.7 847L145.4 901" stroke="#975861" stroke-width="1.7" stroke-opacity="0.6" fill="none" stroke-linecap="round"/>
<path class="sig b9" d="M344.9 65.6L348.8 119.3M411.2 62.6L344.9 65.6M279.4 299.3L275.8 369.1M209.6 363.3L275.8 369.1M279.2 426.8L346.4 426.2M217.2 544.7L219.3 610.3M283.7 540.2L280.1 602.9M147.9 606.9L219.3 610.3M73.3 845.3L74.7 899.6M-0.4 899.7L6.7 958.5M-0.4 899.7L74.7 899.6M74.7 899.6L75.6 954.6M6.7 958.5L75.6 954.6" stroke="#268f81" stroke-width="1.7" stroke-opacity="0.6" fill="none" stroke-linecap="round"/>
<path class="sig b10" d="M279.3 123.1L279.6 180.7M279.6 180.7L278.2 236.3M209.6 243.2L210.5 298.9M209.6 243.2L278.2 236.3" stroke="#c86473" stroke-width="2.6" stroke-opacity="0.85" fill="none" stroke-linecap="round"/>
<path class="sig b10" d="M208.3 420.5L211.8 476.1M61 730.8L64.6 789.6M-5.1 791.4L-1.6 845.7M-5.1 791.4L64.6 789.6M-1.6 845.7L-0.4 899.7M-1.6 845.7L73.3 845.3" stroke="#29b19f" stroke-width="2.6" stroke-opacity="0.85" fill="none" stroke-linecap="round"/>
<path class="sig b10" d="M280.2 0.6L342.2 1.5M211.5 128.2L279.3 123.1M278.2 236.3L279.4 299.3M210.5 298.9L209.6 363.3M210.5 298.9L279.4 299.3" stroke="#975861" stroke-width="1.7" stroke-opacity="0.6" fill="none" stroke-linecap="round"/>
<path class="sig b10" d="M209.6 363.3L208.3 420.5M144.7 545.2L147.9 606.9M147.9 606.9L141.1 668.1M64.6 789.6L73.3 845.3" stroke="#268f81" stroke-width="1.7" stroke-opacity="0.6" fill="none" stroke-linecap="round"/>
<path class="sig b11" d="M208 188.3L209.6 243.2M140.7 246.1L209.6 243.2" stroke="#f97084" stroke-width="4.4" stroke-opacity="1" fill="none" stroke-linecap="round"/>
<path class="sig b11" d="M211.5 128.2L208 188.3M137.3 188.9L140.7 246.1M208 188.3L137.3 188.9M279.6 180.7L208 188.3M140.7 246.1L141.1 305.8" stroke="#c86473" stroke-width="2.6" stroke-opacity="0.85" fill="none" stroke-linecap="round"/>
<path class="sig b11" d="M139.9 -5.8L140.2 57.5M144.7 545.2L72.4 542.1M64.5 667.4L61 730.8M-3.3 727.1L-5.1 791.4M-3.3 727.1L61 730.8" stroke="#268f81" stroke-width="1.7" stroke-opacity="0.6" fill="none" stroke-linecap="round"/>
<path class="sig b11" d="M208.7 63.8L211.5 128.2M141.1 305.8L138.1 361.9M70.3 359L71.5 420.6M70.3 359L138.1 361.9M0.4 421.3L71.5 420.6M71.5 420.6L69.5 480.7" stroke="#975861" stroke-width="1.7" stroke-opacity="0.6" fill="none" stroke-linecap="round"/>
<path class="sig b12" d="M0 0L67.7 51.7M67.8 -3.8L67.7 51.7M67.8 -3.8L139.9 -5.8M-1.7 304.8L0 358.3" stroke="#268f81" stroke-width="1.7" stroke-opacity="0.6" fill="none" stroke-linecap="round"/>
<path class="sig b12" d="M139.6 124.8L137.3 188.9M73.1 303.4L141.1 305.8M0.4 421.3L1.2 480.6M1.2 480.6L0.2 541.9M1.2 480.6L69.5 480.7M0.2 541.9L-2 599.6" stroke="#975861" stroke-width="1.7" stroke-opacity="0.6" fill="none" stroke-linecap="round"/>
<path class="sig b13" d="M-0.5 115.9L1.1 179.1M1.1 179.1L-0.7 242.4" stroke="#29b19f" stroke-width="2.6" stroke-opacity="0.85" fill="none" stroke-linecap="round"/>
<path class="sig b13" d="M-1.9 56.3L-0.5 115.9M-1.9 56.3L67.7 51.7M67.7 51.7L71.1 114.8M-0.5 115.9L71.1 114.8M71.1 114.8L139.6 124.8M71.1 114.8L72.1 184.7M1.1 179.1L72.1 184.7M-0.7 242.4L-1.7 304.8M-0.7 242.4L69.7 243.9" stroke="#268f81" stroke-width="1.7" stroke-opacity="0.6" fill="none" stroke-linecap="round"/>
<circle class="sig bloom b3" cx="1123.8" cy="0.3" r="54.3" fill="url(#bc)"/>
<circle class="sig bloom b2" cx="1190.8" cy="1.7" r="54.3" fill="url(#bc)"/>
<circle class="sig bloom b0" cx="1395" cy="-1.7" r="54.3" fill="url(#bw)"/>
<circle class="sig bloom b0" cx="1468.5" cy="1" r="54.3" fill="url(#bw)"/>
<circle class="sig bloom b2" cx="1047.5" cy="183.9" r="54.3" fill="url(#bw)"/>
<circle class="sig bloom b2" cx="1118" cy="185.9" r="54.3" fill="url(#bw)"/>
<circle class="sig bloom b2" cx="1126.6" cy="246.2" r="54.3" fill="url(#bw)"/>
<circle class="sig bloom b2" cx="1192.1" cy="240.4" r="54.3" fill="url(#bw)"/>
<circle class="sig bloom b2" cx="1189.5" cy="297.8" r="54.3" fill="url(#bw)"/>
<circle class="sig bloom b4" cx="702.9" cy="419" r="54.3" fill="url(#bc)"/>
<circle class="sig bloom b2" cx="898.4" cy="414.8" r="54.3" fill="url(#bw)"/>
<circle class="sig bloom b0" cx="1046.2" cy="420.6" r="54.3" fill="url(#bc)"/>
<circle class="sig bloom b0" cx="1116.2" cy="421.1" r="54.3" fill="url(#bc)"/>
<circle class="sig bloom b4" cx="702" cy="483.5" r="54.3" fill="url(#bc)"/>
<circle class="sig b3" cx="1123.8" cy="0.3" r="3.8" fill="#2dd4bf" fill-opacity="0.9"/>
<circle class="sig b2" cx="1190.8" cy="1.7" r="3.8" fill="#2dd4bf" fill-opacity="0.9"/>
<circle class="sig b0" cx="1395" cy="-1.7" r="3.8" fill="#fb7185" fill-opacity="0.9"/>
<circle class="sig b0" cx="1468.5" cy="1" r="3.8" fill="#fb7185" fill-opacity="0.9"/>
<circle class="sig b2" cx="1047.5" cy="183.9" r="3.8" fill="#fb7185" fill-opacity="0.9"/>
<circle class="sig b2" cx="1118" cy="185.9" r="3.8" fill="#fb7185" fill-opacity="0.9"/>
<g class="sig probe b0"><circle cx="1046.2" cy="420.6" r="15" fill="none" stroke="#eafffb" stroke-width="2.2" stroke-opacity="0.75"/><circle cx="1046.2" cy="420.6" r="4.5" fill="#eafffb" fill-opacity="0.9"/></g>
<g class="sig probe b0"><circle cx="1533.4" cy="960.1" r="15" fill="none" stroke="#eafffb" stroke-width="2.2" stroke-opacity="0.75"/><circle cx="1533.4" cy="960.1" r="4.5" fill="#eafffb" fill-opacity="0.9"/></g>
<g class="sig probe b0"><circle cx="1468.5" cy="1" r="15" fill="none" stroke="#eafffb" stroke-width="2.2" stroke-opacity="0.75"/><circle cx="1468.5" cy="1" r="4.5" fill="#eafffb" fill-opacity="0.9"/></g>
<g class="sig probe b0"><circle cx="904.2" cy="906.1" r="15" fill="none" stroke="#eafffb" stroke-width="2.2" stroke-opacity="0.75"/><circle cx="904.2" cy="906.1" r="4.5" fill="#eafffb" fill-opacity="0.9"/></g>
<g class="sig b13" opacity="0.6"><circle cx="1394.8" cy="965.7" r="26" fill="none" stroke="#79a8a1" stroke-width="1.6" stroke-dasharray="5 7"/><circle cx="1394.8" cy="965.7" r="3" fill="#79a8a1"/></g>
<rect width="1536" height="1024" fill="url(#scan)" opacity="0.5"/>
<rect width="1536" height="1024" fill="url(#floor)"/>
<rect width="1536" height="1024" fill="url(#scrim)"/>
<g class="type">
<text x="96" y="294.8" font-family="ui-monospace, 'SF Mono', SFMono-Regular, Menlo, Consolas, 'Liberation Mono', monospace" font-size="26" font-weight="600" letter-spacing="6" fill="#fb7185">FIELD NOTES   ·   2026-08-09</text>
<text x="96" y="430.8" font-family="Inter, 'Helvetica Neue', Helvetica, Arial, sans-serif" font-size="92" font-weight="700" letter-spacing="-2" fill="#eafffb">The byline picker</text>
<text x="96" y="532.0" font-family="Inter, 'Helvetica Neue', Helvetica, Arial, sans-serif" font-size="92" font-weight="700" letter-spacing="-2" fill="#eafffb">can't tell a typo</text>
<text x="96" y="633.2" font-family="Inter, 'Helvetica Neue', Helvetica, Arial, sans-serif" font-size="92" font-weight="700" letter-spacing="-2" fill="#eafffb">from a section</text>
<rect x="96" y="685.2" width="112" height="4" fill="#fb7185" opacity="0.9"/>
<text x="96" y="743.2" font-family="ui-monospace, 'SF Mono', SFMono-Regular, Menlo, Consolas, 'Liberation Mono', monospace" font-size="24" font-weight="500" letter-spacing="1" fill="#79a8a1">by edge   ·   lifehacker.dev</text>
</g>
</svg>
