<svg xmlns="http://www.w3.org/2000/svg" viewBox="0 0 1536 1024" width="1536" height="1024" role="img" aria-labelledby="t d" data-generator="trace-bloom/1" data-seed="2424003693">
<title id="t">Two posts, one banner: the cover-art promise a 32-bit seed can't keep</title>
<desc id="d">Trace Bloom generative banner for “Two posts, one banner: the cover-art promise a 32-bit seed can't keep”. A organic lattice probed by 2 emitters; interference blooms mark where the wavefronts meet. Seed 2424003693.</desc>
<style>
@keyframes tb-sweep{from{opacity:.3}to{opacity:1}}
@keyframes tb-breathe{0%,100%{opacity:.68}50%{opacity:1}}
@keyframes tb-probe{0%,100%{opacity:.6}50%{opacity:1}}
.sig{animation:tb-sweep .7s cubic-bezier(.2,.7,.3,1) both}
.b0{animation-delay:0.00s}.b1{animation-delay:0.19s}.b2{animation-delay:0.37s}.b3{animation-delay:0.56s}.b4{animation-delay:0.74s}.b5{animation-delay:0.93s}.b6{animation-delay:1.11s}.b7{animation-delay:1.30s}.b8{animation-delay:1.49s}.b9{animation-delay:1.67s}.b10{animation-delay:1.86s}.b11{animation-delay:2.04s}.b12{animation-delay:2.23s}.b13{animation-delay:2.41s}
.bloom{animation:tb-breathe 7s ease-in-out infinite}
.probe{animation:tb-probe 4.2s ease-in-out infinite}
@media (prefers-reduced-motion:reduce){
.sig,.bloom,.probe,.motif{animation:none!important;opacity:1!important}
}</style>
<defs>
<linearGradient id="bg" x1="0" y1="0" x2="1" y2="1">
<stop offset="0" stop-color="#060d0c"/><stop offset="1" stop-color="#0c1a18"/></linearGradient>
<linearGradient id="scrim" x1="0" y1="0" x2="1" y2="0">
<stop offset="0" stop-color="#060d0c" stop-opacity="0.94"/>
<stop offset="0.38" stop-color="#060d0c" stop-opacity="0.8"/>
<stop offset="0.72" stop-color="#060d0c" stop-opacity="0.12"/>
<stop offset="0.9" stop-color="#060d0c" stop-opacity="0"/></linearGradient>
<linearGradient id="floor" x1="0" y1="1" x2="0" y2="0">
<stop offset="0" stop-color="#060d0c" stop-opacity="0.5"/>
<stop offset="0.46" stop-color="#060d0c" stop-opacity="0"/></linearGradient>
<radialGradient id="bc">
<stop offset="0" stop-color="#2dd4bf" stop-opacity="0.95"/>
<stop offset="0.18" stop-color="#2dd4bf" stop-opacity="0.5"/>
<stop offset="0.5" stop-color="#2dd4bf" stop-opacity="0.14"/>
<stop offset="1" stop-color="#2dd4bf" stop-opacity="0"/></radialGradient>
<radialGradient id="bw">
<stop offset="0" stop-color="#fb7185" stop-opacity="0.95"/>
<stop offset="0.18" stop-color="#fb7185" stop-opacity="0.5"/>
<stop offset="0.5" stop-color="#fb7185" stop-opacity="0.14"/>
<stop offset="1" stop-color="#fb7185" stop-opacity="0"/></radialGradient>
<pattern id="scan" width="4" height="4" patternUnits="userSpaceOnUse">
<rect width="4" height="1" fill="#060d0c" opacity="0.22"/></pattern>
</defs>
<rect width="1536" height="1024" fill="url(#bg)"/>
<path d="M0 0L1.3 66.1M0 0L75.9 -4.2M0 0L78.4 64.6M75.9 -4.2L78.4 64.6M75.9 -4.2L157.3 -3M157.3 -3L158.8 66.6M157.3 -3L242.9 -1.7M242.9 -1.7L241.4 71.2M242.9 -1.7L324.4 3M324.4 3L325.7 72.7M324.4 3L407.5 4.6M407.5 4.6L410.9 70.6M407.5 4.6L489.3 1.6M489.3 1.6L492.8 72M489.3 1.6L566.2 0.2M566.2 0.2L571.3 72.5M566.2 0.2L646.5 -2M646.5 -2L650.1 69.2M646.5 -2L723.1 -3.5M723.1 -3.5L726.6 63.3M723.1 -3.5L806.2 -1.6M806.2 -1.6L810.7 63.6M806.2 -1.6L889.7 1M889.7 1L892.5 68.6M889.7 1L971.8 2M971.8 2L971.5 66M971.8 2L1049.2 -2.3M1049.2 -2.3L1050 66.7M1049.2 -2.3L1132.6 0.6M1132.6 0.6L1134.8 71M1132.6 0.6L1214.7 -0.4M1214.7 -0.4L1218 71.7M1214.7 -0.4L1297.9 0.1M1297.9 0.1L1297.5 67.9M1297.9 0.1L1374.8 0.7M1374.8 0.7L1376.7 63.3M1374.8 0.7L1455.6 -0.3M1455.6 -0.3L1456.9 63.8M1455.6 -0.3L1536.4 0.7M1536.4 0.7L1535.5 68.9M1536.4 0.7L1456.9 63.8M1.3 66.1L-0.5 132.2M1.3 66.1L78.4 64.6M78.4 64.6L79.7 134.4M158.8 66.6L159.8 135.2M158.8 66.6L78.4 64.6M241.4 71.2L240.9 140.8M241.4 71.2L158.8 66.6M325.7 72.7L325.5 139M325.7 72.7L241.4 71.2M410.9 70.6L407.7 138.8M410.9 70.6L492.8 72M492.8 72L487.8 141.7M492.8 72L571.3 72.5M571.3 72.5L570.4 140.7M650.1 69.2L652 139.3M650.1 69.2L726.6 63.3M726.6 63.3L732.7 137.8M810.7 63.6L814.4 133.7M810.7 63.6L892.5 68.6M892.5 68.6L893.4 138.9M892.5 68.6L971.5 66M971.5 66L976.7 138.3M971.5 66L1050 66.7M1050 66.7L1053.3 135.5M1134.8 71L1137 135.5M1134.8 71L1218 71.7M1218 71.7L1219.4 138.1M1218 71.7L1297.5 67.9M1297.5 67.9L1297.4 134.8M1297.5 67.9L1376.7 63.3M1376.7 63.3L1375.4 129.6M1456.9 63.8L1454.1 133.3M1456.9 63.8L1535.5 68.9M1535.5 68.9L1533 138.3M-0.5 132.2L0.8 203.7M-0.5 132.2L79.7 134.4M79.7 134.4L80.8 204.6M79.7 134.4L159.8 135.2M159.8 135.2L162.3 206.3M240.9 140.8L243.8 205.7M240.9 140.8L159.8 135.2M325.5 139L326.4 205.5M325.5 139L407.7 138.8M407.7 138.8L406.7 204.6M407.7 138.8L487.8 141.7M487.8 141.7L487.6 202.8M570.4 140.7L568.2 204.2M570.4 140.7L652 139.3M652 139.3L650.9 207.5M652 139.3L732.7 137.8M732.7 137.8L733.4 204.1M814.4 133.7L810.8 201.4M814.4 133.7L893.4 138.9M893.4 138.9L892.3 207.3M976.7 138.3L971.1 206.4M976.7 138.3L1053.3 135.5M1053.3 135.5L1054.5 202M1137 135.5L1133.4 201.1M1137 135.5L1219.4 138.1M1219.4 138.1L1213.2 205.1M1219.4 138.1L1297.4 134.8M1297.4 134.8L1292.3 202.5M1375.4 129.6L1374 203.4M1375.4 129.6L1297.4 134.8M1454.1 133.3L1454.9 203.2M1454.1 133.3L1375.4 129.6M1533 138.3L1535.6 206M1533 138.3L1454.1 133.3M0.8 203.7L-0.1 272.9M0.8 203.7L80.8 204.6M80.8 204.6L82.1 272.1M162.3 206.3L159.7 270.7M162.3 206.3L80.8 204.6M243.8 205.7L240.3 270.9M243.8 205.7L162.3 206.3M326.4 205.5L322.7 271.2M326.4 205.5L406.7 204.6M406.7 204.6L401.4 268.9M487.6 202.8L482.6 266.7M487.6 202.8L568.2 204.2M568.2 204.2L563.9 272.1M650.9 207.5L649.1 274.8M650.9 207.5L733.4 204.1M733.4 204.1L732.1 272.4M733.4 204.1L810.8 201.4M810.8 201.4L809.2 269.9M892.3 207.3L888.6 273.4M892.3 207.3L971.1 206.4M971.1 206.4L966.6 275M1054.5 202L1052.3 273M1054.5 202L1133.4 201.1M1133.4 201.1L1133.1 272.8M1213.2 205.1L1213.3 275.9M1213.2 205.1L1292.3 202.5M1292.3 202.5L1294.1 274.9M1374 203.4L1373 275.4M1374 203.4L1454.9 203.2M1454.9 203.2L1454.4 274.4M1535.6 206L1534.1 275.4M1535.6 206L1454.9 203.2M-0.1 272.9L2.9 344.1M-0.1 272.9L82.1 272.1M82.1 272.1L87.6 342.4M82.1 272.1L159.7 270.7M159.7 270.7L163.3 340.8M240.3 270.9L239.8 338.4M240.3 270.9L159.7 270.7M322.7 271.2L324.1 337.5M322.7 271.2L401.4 268.9M401.4 268.9L402.8 336.3M482.6 266.7L484.4 336.6M482.6 266.7L401.4 268.9M563.9 272.1L563.4 339.2M563.9 272.1L482.6 266.7M649.1 274.8L646.3 341.7M649.1 274.8L732.1 272.4M732.1 272.4L731.2 337.2M732.1 272.4L809.2 269.9M809.2 269.9L811.8 337.5M888.6 273.4L889 338.6M888.6 273.4L966.6 275M966.6 275L969 342.8M1052.3 273L1052.3 340.7M1052.3 273L1133.1 272.8M1133.1 272.8L1134.2 342.6M1133.1 272.8L1213.3 275.9M1213.3 275.9L1210.5 343.5M1294.1 274.9L1292.2 344M1294.1 274.9L1373 275.4M1373 275.4L1378.4 339.1M1454.4 274.4L1453.7 344.6M1454.4 274.4L1534.1 275.4M1534.1 275.4L1534 347.4M2.9 344.1L3.7 413.5M2.9 344.1L87.6 342.4M87.6 342.4L86.9 411.4M87.6 342.4L163.3 340.8M163.3 340.8L160 410.1M239.8 338.4L240.4 407.2M239.8 338.4L163.3 340.8M324.1 337.5L324.9 408M324.1 337.5L402.8 336.3M402.8 336.3L406.4 408.8M484.4 336.6L488.8 409.1M484.4 336.6L563.4 339.2M563.4 339.2L569.5 412M646.3 341.7L649 411.2M646.3 341.7L563.4 339.2M731.2 337.2L728.1 405.3M731.2 337.2L811.8 337.5M811.8 337.5L809.2 405M811.8 337.5L889 338.6M889 338.6L888.4 407.2M969 342.8L974.6 407.4M969 342.8L889 338.6M1052.3 340.7L1053.2 405.5M1052.3 340.7L1134.2 342.6M1134.2 342.6L1132.9 409.1M1134.2 342.6L1210.5 343.5M1210.5 343.5L1209.9 408.7M1292.2 344L1294.6 407.6M1292.2 344L1210.5 343.5M1378.4 339.1L1377.4 406.3M1378.4 339.1L1453.7 344.6M1453.7 344.6L1456.1 407.9M1534 347.4L1530.7 411.6M1534 347.4L1453.7 344.6M3.7 413.5L-0.3 478.2M3.7 413.5L86.9 411.4M86.9 411.4L82.4 478.3M86.9 411.4L160 410.1M160 410.1L161.9 477.6M240.4 407.2L245 476.3M240.4 407.2L160 410.1M324.9 408L323.6 478.8M324.9 408L406.4 408.8M406.4 408.8L402.7 477.8M488.8 409.1L485.3 479.7M488.8 409.1L569.5 412M569.5 412L567.3 479M569.5 412L649 411.2M649 411.2L648.4 475.2M649 411.2L728.1 405.3M728.1 405.3L728 473.3M809.2 405L807.9 475M809.2 405L888.4 407.2M888.4 407.2L889.4 476.5M974.6 407.4L977.1 478.2M974.6 407.4L1053.2 405.5M1053.2 405.5L1053.9 477.5M1132.9 409.1L1134.4 477.8M1132.9 409.1L1209.9 408.7M1209.9 408.7L1209.8 476.2M1294.6 407.6L1292.2 477.6M1294.6 407.6L1377.4 406.3M1377.4 406.3L1377.9 478.7M1377.4 406.3L1456.1 407.9M1456.1 407.9L1454.5 478.4M1456.1 407.9L1530.7 411.6M1530.7 411.6L1530.2 481.6M-0.3 478.2L-2.6 542M-0.3 478.2L82.4 478.3M82.4 478.3L81 545.1M82.4 478.3L161.9 477.6M161.9 477.6L160.5 547.8M245 476.3L238.4 549.6M245 476.3L323.6 478.8M323.6 478.8L319.4 551.3M402.7 477.8L404.1 545.1M402.7 477.8L323.6 478.8M485.3 479.7L484.5 544.2M485.3 479.7L567.3 479M567.3 479L562.4 544M567.3 479L648.4 475.2M648.4 475.2L645.3 543M648.4 475.2L728 473.3M728 473.3L722.1 542M807.9 475L801.3 543.8M807.9 475L728 473.3M889.4 476.5L886.5 545M889.4 476.5L807.9 475M977.1 478.2L971.1 545.5M977.1 478.2L1053.9 477.5M1053.9 477.5L1052.6 543.7M1134.4 477.8L1129.8 548.3M1134.4 477.8L1209.8 476.2M1209.8 476.2L1208.8 549.1M1292.2 477.6L1294.7 547.7M1292.2 477.6L1209.8 476.2M1377.9 478.7L1378.5 546.4M1377.9 478.7L1454.5 478.4M1454.5 478.4L1457.1 547.6M1454.5 478.4L1530.2 481.6M1530.2 481.6L1535 552.3M-2.6 542L-4.5 610.9M-2.6 542L81 545.1M81 545.1L81.7 611.5M81 545.1L160.5 547.8M160.5 547.8L161.3 615M160.5 547.8L238.4 549.6M238.4 549.6L241.5 617.1M319.4 551.3L324.2 619.2M319.4 551.3L238.4 549.6M404.1 545.1L401.6 618.5M404.1 545.1L484.5 544.2M484.5 544.2L483.8 612.7M484.5 544.2L562.4 544M562.4 544L565 610.3M645.3 543L649.7 611M645.3 543L722.1 542M722.1 542L723 610.2M801.3 543.8L796.3 612.7M801.3 543.8L722.1 542M886.5 545L885.1 610.2M886.5 545L971.1 545.5M971.1 545.5L974.8 617.3M971.1 545.5L1052.6 543.7M1052.6 543.7L1053.3 618.2M1052.6 543.7L1129.8 548.3M1129.8 548.3L1130 617.6M1208.8 549.1L1206.9 618.9M1208.8 549.1L1129.8 548.3M1294.7 547.7L1290.6 614.4M1294.7 547.7L1378.5 546.4M1378.5 546.4L1374.5 610.8M1378.5 546.4L1457.1 547.6M1457.1 547.6L1459.9 615.1M1457.1 547.6L1535 552.3M1535 552.3L1539.4 617.4M-4.5 610.9L-1.9 682.4M-4.5 610.9L81.7 611.5M81.7 611.5L82.2 681.9M81.7 611.5L161.3 615M161.3 615L166.8 681.9M241.5 617.1L246.8 683.3M241.5 617.1L161.3 615M324.2 619.2L325.1 686M324.2 619.2L401.6 618.5M401.6 618.5L402.4 686.5M483.8 612.7L483.2 685.7M483.8 612.7L565 610.3M565 610.3L566 683.2M649.7 611L647.8 680.5M649.7 611L723 610.2M723 610.2L723.2 680.3M796.3 612.7L798.4 683.6M796.3 612.7L723 610.2M885.1 610.2L890 688M885.1 610.2L974.8 617.3M974.8 617.3L980.5 687.3M974.8 617.3L1053.3 618.2M1053.3 618.2L1054.2 686M1053.3 618.2L1130 617.6M1130 617.6L1129.2 685.7M1130 617.6L1206.9 618.9M1206.9 618.9L1206.4 683.5M1290.6 614.4L1290 681M1290.6 614.4L1206.9 618.9M1374.5 610.8L1373.8 681.9M1374.5 610.8L1290.6 614.4M1459.9 615.1L1457.2 682.8M1459.9 615.1L1539.4 617.4M1539.4 617.4L1541 681.8M-1.9 682.4L1 750.6M-1.9 682.4L82.2 681.9M82.2 681.9L84.3 753.3M166.8 681.9L166.8 751.5M166.8 681.9L246.8 683.3M246.8 683.3L245.1 751.3M246.8 683.3L325.1 686M325.1 686L319.4 748.8M325.1 686L402.4 686.5M402.4 686.5L399.3 754.9M483.2 685.7L479.9 756.6M483.2 685.7L402.4 686.5M566 683.2L565.4 750.8M566 683.2L647.8 680.5M647.8 680.5L645.2 746.4M647.8 680.5L723.2 680.3M723.2 680.3L726.9 747.2M798.4 683.6L800.9 751.2M798.4 683.6L723.2 680.3M890 688L890.4 758.5M890 688L980.5 687.3M980.5 687.3L981 757.1M980.5 687.3L1054.2 686M1054.2 686L1058.1 755.9M1054.2 686L1129.2 685.7M1129.2 685.7L1135.5 749M1206.4 683.5L1210.6 747.3M1206.4 683.5L1129.2 685.7M1290 681L1287.9 747.4M1290 681L1206.4 683.5M1373.8 681.9L1370.3 749.8M1373.8 681.9L1457.2 682.8M1457.2 682.8L1453.6 750.2M1541 681.8L1535.3 754.5M1541 681.8L1457.2 682.8M1 750.6L0.2 818.6M1 750.6L84.3 753.3M84.3 753.3L81.5 819.2M84.3 753.3L166.8 751.5M166.8 751.5L166.2 820.1M166.8 751.5L245.1 751.3M245.1 751.3L240.1 815.6M245.1 751.3L319.4 748.8M319.4 748.8L317 815.9M399.3 754.9L398.7 819.9M399.3 754.9L319.4 748.8M479.9 756.6L480.6 825M479.9 756.6L399.3 754.9M565.4 750.8L565.6 824.5M565.4 750.8L645.2 746.4M645.2 746.4L645.3 821.1M726.9 747.2L726 818.9M726.9 747.2L800.9 751.2M800.9 751.2L807.6 818.7M890.4 758.5L891 823.7M890.4 758.5L800.9 751.2M981 757.1L979.6 823.4M981 757.1L1058.1 755.9M1058.1 755.9L1059.1 822M1135.5 749L1136.7 814.1M1135.5 749L1210.6 747.3M1210.6 747.3L1218 816.7M1287.9 747.4L1292.5 817.5M1287.9 747.4L1210.6 747.3M1370.3 749.8L1371.5 820M1370.3 749.8L1287.9 747.4M1453.6 750.2L1451.2 824.3M1453.6 750.2L1535.3 754.5M1535.3 754.5L1537.2 825.3M0.2 818.6L-0.2 887.3M0.2 818.6L81.5 819.2M81.5 819.2L79.7 885.7M166.2 820.1L159.8 884.9M166.2 820.1L240.1 815.6M240.1 815.6L240.4 885.3M317 815.9L319.3 884.4M317 815.9L240.1 815.6M398.7 819.9L406.3 882.6M398.7 819.9L317 815.9M480.6 825L488.3 889.2M480.6 825L398.7 819.9M565.6 824.5L567.9 888.4M565.6 824.5L645.3 821.1M645.3 821.1L643.1 890.3M726 818.9L723.6 888.1M726 818.9L645.3 821.1M807.6 818.7L806.1 887.3M807.6 818.7L891 823.7M891 823.7L889 891.2M979.6 823.4L973.2 888.8M979.6 823.4L1059.1 822M1059.1 822L1053.5 884M1059.1 822L1136.7 814.1M1136.7 814.1L1133.7 884.4M1218 816.7L1214.3 887M1218 816.7L1292.5 817.5M1292.5 817.5L1293.3 888.7M1371.5 820L1375 888.8M1371.5 820L1292.5 817.5M1451.2 824.3L1458.3 889.1M1451.2 824.3L1371.5 820M1537.2 825.3L1534.4 890.1M1537.2 825.3L1451.2 824.3M-0.2 887.3L-1 954.9M-0.2 887.3L79.7 885.7M79.7 885.7L79.8 956.6M159.8 884.9L161.3 954.7M159.8 884.9L79.7 885.7M240.4 885.3L239 955.6M240.4 885.3L319.3 884.4M319.3 884.4L323.6 954.5M406.3 882.6L408.1 950.7M406.3 882.6L488.3 889.2M488.3 889.2L491.8 954.9M488.3 889.2L567.9 888.4M567.9 888.4L567.4 955.1M567.9 888.4L643.1 890.3M643.1 890.3L643.6 957M723.6 888.1L721.4 954.8M723.6 888.1L643.1 890.3M806.1 887.3L803.5 955.3M806.1 887.3L889 891.2M889 891.2L889.9 957.6M973.2 888.8L972.1 957.3M973.2 888.8L1053.5 884M1053.5 884L1055.8 953.9M1053.5 884L1133.7 884.4M1133.7 884.4L1134.5 953.4M1214.3 887L1212.3 957M1214.3 887L1293.3 888.7M1293.3 888.7L1293 960.4M1375 888.8L1376.1 956.7M1375 888.8L1293.3 888.7M1458.3 889.1L1455.5 957.3M1458.3 889.1L1534.4 890.1M1534.4 890.1L1533.4 955.2M-1 954.9L1.1 1026.4M-1 954.9L79.8 956.6M79.8 956.6L80.3 1024.3M161.3 954.7L160.4 1024.1M161.3 954.7L239 955.6M239 955.6L243.3 1025.9M323.6 954.5L326.4 1024.4M323.6 954.5L408.1 950.7M408.1 950.7L406.9 1021.6M408.1 950.7L491.8 954.9M491.8 954.9L488.1 1023.4M491.8 954.9L567.4 955.1M567.4 955.1L561.7 1024.1M643.6 957L641.6 1024.9M643.6 957L567.4 955.1M721.4 954.8L723.7 1023.6M721.4 954.8L643.6 957M803.5 955.3L809 1022.7M803.5 955.3L721.4 954.8M889.9 957.6L893.7 1023.5M889.9 957.6L972.1 957.3M972.1 957.3L976.9 1024.7M1055.8 953.9L1055.6 1025.6M1055.8 953.9L1134.5 953.4M1134.5 953.4L1128.8 1027.1M1134.5 953.4L1212.3 957M1212.3 957L1207.7 1027.5M1293 960.4L1294.3 1026.6M1293 960.4L1212.3 957M1376.1 956.7L1375.6 1021.9M1376.1 956.7L1455.5 957.3M1455.5 957.3L1452.1 1019.7M1455.5 957.3L1533.4 955.2M1533.4 955.2L1530.4 1022.1M1.1 1026.4L80.3 1024.3M1.1 1026.4L79.8 956.6M80.3 1024.3L160.4 1024.1M160.4 1024.1L243.3 1025.9M243.3 1025.9L326.4 1024.4M326.4 1024.4L406.9 1021.6M406.9 1021.6L488.1 1023.4M488.1 1023.4L561.7 1024.1M561.7 1024.1L641.6 1024.9M641.6 1024.9L723.7 1023.6M723.7 1023.6L809 1022.7M809 1022.7L893.7 1023.5M893.7 1023.5L976.9 1024.7M976.9 1024.7L1055.6 1025.6M1055.6 1025.6L1128.8 1027.1M1128.8 1027.1L1207.7 1027.5M1207.7 1027.5L1294.3 1026.6M1294.3 1026.6L1375.6 1021.9M1375.6 1021.9L1452.1 1019.7M1452.1 1019.7L1530.4 1022.1M1530.4 1022.1L1455.5 957.3" stroke="#1d3a36" stroke-width="1.5" fill="none" stroke-opacity="0.95"/>
<path class="sig b0" d="M731.2 337.2L728.1 405.3M649 411.2L728.1 405.3M728.1 405.3L728 473.3" stroke="#2dd2be" stroke-width="4.4" stroke-opacity="1" fill="none" stroke-linecap="round"/>
<path class="sig b0" d="M1451.2 824.3L1458.3 889.1M1458.3 889.1L1455.5 957.3M1458.3 889.1L1534.4 890.1" stroke="#f97084" stroke-width="4.4" stroke-opacity="1" fill="none" stroke-linecap="round"/>
<path class="sig b1" d="M733.4 204.1L732.1 272.4M649.1 274.8L732.1 272.4" stroke="#f97084" stroke-width="4.4" stroke-opacity="1" fill="none" stroke-linecap="round"/>
<path class="sig b1" d="M1370.3 749.8L1371.5 820M1533.4 955.2L1530.4 1022.1M1452.1 1019.7L1530.4 1022.1" stroke="#2dd2be" stroke-width="4.4" stroke-opacity="1" fill="none" stroke-linecap="round"/>
<path class="sig b1" d="M732.1 272.4L809.2 269.9M809.2 269.9L811.8 337.5M648.4 475.2L645.3 543M645.3 543L722.1 542M1453.6 750.2L1451.2 824.3M1537.2 825.3L1451.2 824.3" stroke="#c86473" stroke-width="2.6" stroke-opacity="0.85" fill="none" stroke-linecap="round"/>
<path class="sig b1" d="M648.4 475.2L728 473.3M728 473.3L722.1 542M1457.2 682.8L1453.6 750.2M1376.1 956.7L1375.6 1021.9M1375.6 1021.9L1452.1 1019.7" stroke="#29b19f" stroke-width="2.6" stroke-opacity="0.85" fill="none" stroke-linecap="round"/>
<path class="sig b1" d="M646.3 341.7L649 411.2M569.5 412L649 411.2M722.1 542L723 610.2M801.3 543.8L722.1 542M1451.2 824.3L1371.5 820M1376.1 956.7L1455.5 957.3" stroke="#975861" stroke-width="1.7" stroke-opacity="0.6" fill="none" stroke-linecap="round"/>
<path class="sig b1" d="M731.2 337.2L811.8 337.5M807.9 475L728 473.3M1453.6 750.2L1535.3 754.5M1535.3 754.5L1537.2 825.3M1371.5 820L1375 888.8M1530.4 1022.1L1455.5 957.3" stroke="#268f81" stroke-width="1.7" stroke-opacity="0.6" fill="none" stroke-linecap="round"/>
<path class="sig b2" d="M732.7 137.8L733.4 204.1M650.9 207.5L649.1 274.8M650.9 207.5L733.4 204.1M733.4 204.1L810.8 201.4M810.8 201.4L809.2 269.9M563.9 272.1L563.4 339.2M649.1 274.8L646.3 341.7M563.4 339.2L569.5 412M646.3 341.7L563.4 339.2M488.8 409.1L569.5 412M569.5 412L567.3 479M888.4 407.2L889.4 476.5M485.3 479.7L567.3 479M567.3 479L562.4 544M889.4 476.5L886.5 545M889.4 476.5L807.9 475" stroke="#f97084" stroke-width="4.4" stroke-opacity="1" fill="none" stroke-linecap="round"/>
<path class="sig b2" d="M1373.8 681.9L1370.3 749.8M1373.8 681.9L1457.2 682.8M1287.9 747.4L1292.5 817.5M1370.3 749.8L1287.9 747.4M1218 816.7L1292.5 817.5M1292.5 817.5L1293.3 888.7M1371.5 820L1292.5 817.5" stroke="#2dd2be" stroke-width="4.4" stroke-opacity="1" fill="none" stroke-linecap="round"/>
<path class="sig b2" d="M889 338.6L888.4 407.2M969 342.8L889 338.6M809.2 405L807.9 475M809.2 405L888.4 407.2M567.3 479L648.4 475.2M807.9 475L801.3 543.8M645.3 543L649.7 611M801.3 543.8L796.3 612.7M723 610.2L723.2 680.3M796.3 612.7L723 610.2" stroke="#c86473" stroke-width="2.6" stroke-opacity="0.85" fill="none" stroke-linecap="round"/>
<path class="sig b2" d="M1459.9 615.1L1457.2 682.8M1541 681.8L1457.2 682.8M1375 888.8L1293.3 888.7M1294.3 1026.6L1375.6 1021.9" stroke="#29b19f" stroke-width="2.6" stroke-opacity="0.85" fill="none" stroke-linecap="round"/>
<path class="sig b2" d="M888.6 273.4L889 338.6M811.8 337.5L809.2 405M811.8 337.5L889 338.6M649.7 611L723 610.2" stroke="#975861" stroke-width="1.7" stroke-opacity="0.6" fill="none" stroke-linecap="round"/>
<path class="sig b2" d="M1541 681.8L1535.3 754.5M1375 888.8L1376.1 956.7" stroke="#268f81" stroke-width="1.7" stroke-opacity="0.6" fill="none" stroke-linecap="round"/>
<path class="sig b3" d="M484.4 336.6L488.8 409.1M484.4 336.6L563.4 339.2M488.8 409.1L485.3 479.7" stroke="#f97084" stroke-width="4.4" stroke-opacity="1" fill="none" stroke-linecap="round"/>
<path class="sig b3" d="M814.4 133.7L810.8 201.4M484.5 544.2L562.4 544M796.3 612.7L798.4 683.6M723.2 680.3L726.9 747.2M798.4 683.6L723.2 680.3" stroke="#c86473" stroke-width="2.6" stroke-opacity="0.85" fill="none" stroke-linecap="round"/>
<path class="sig b3" d="M1374.5 610.8L1373.8 681.9M1290 681L1287.9 747.4M1210.6 747.3L1218 816.7M1287.9 747.4L1210.6 747.3M1218 816.7L1214.3 887" stroke="#29b19f" stroke-width="2.6" stroke-opacity="0.85" fill="none" stroke-linecap="round"/>
<path class="sig b3" d="M726.6 63.3L732.7 137.8M652 139.3L650.9 207.5M652 139.3L732.7 137.8M969 342.8L974.6 407.4M485.3 479.7L484.5 544.2M562.4 544L565 610.3M886.5 545L885.1 610.2M886.5 545L971.1 545.5M1293 960.4L1294.3 1026.6M1207.7 1027.5L1294.3 1026.6" stroke="#975861" stroke-width="1.7" stroke-opacity="0.6" fill="none" stroke-linecap="round"/>
<path class="sig b3" d="M482.6 266.7L484.4 336.6M888.6 273.4L966.6 275M1457.1 547.6L1459.9 615.1M1214.3 887L1293.3 888.7" stroke="#268f81" stroke-width="1.7" stroke-opacity="0.6" fill="none" stroke-linecap="round"/>
<path class="sig b4" d="M646.5 -2L723.1 -3.5M723.1 -3.5L806.2 -1.6M570.4 140.7L568.2 204.2M487.6 202.8L482.6 266.7M487.6 202.8L568.2 204.2M892.3 207.3L971.1 206.4M971.1 206.4L966.6 275M482.6 266.7L401.4 268.9M971.1 545.5L974.8 617.3M971.1 545.5L1052.6 543.7M566 683.2L647.8 680.5M647.8 680.5L645.2 746.4" stroke="#2dd2be" stroke-width="4.4" stroke-opacity="1" fill="none" stroke-linecap="round"/>
<path class="sig b4" d="M1454.5 478.4L1530.2 481.6M1530.2 481.6L1535 552.3M1535 552.3L1539.4 617.4M1212.3 957L1207.7 1027.5" stroke="#f97084" stroke-width="4.4" stroke-opacity="1" fill="none" stroke-linecap="round"/>
<path class="sig b4" d="M723.1 -3.5L726.6 63.3M806.2 -1.6L810.7 63.6M650.1 69.2L652 139.3M650.1 69.2L726.6 63.3M570.4 140.7L652 139.3M893.4 138.9L892.3 207.3M404.1 545.1L484.5 544.2M565 610.3L566 683.2M885.1 610.2L890 688M885.1 610.2L974.8 617.3M726 818.9L723.6 888.1" stroke="#29b19f" stroke-width="2.6" stroke-opacity="0.85" fill="none" stroke-linecap="round"/>
<path class="sig b4" d="M1456.1 407.9L1454.5 478.4M1377.9 478.7L1454.5 478.4M1457.1 547.6L1535 552.3M1206.4 683.5L1210.6 747.3M1290 681L1206.4 683.5M1135.5 749L1210.6 747.3M1293 960.4L1212.3 957M1128.8 1027.1L1207.7 1027.5" stroke="#c86473" stroke-width="2.6" stroke-opacity="0.85" fill="none" stroke-linecap="round"/>
<path class="sig b4" d="M977.1 478.2L971.1 545.5M484.5 544.2L483.8 612.7M483.8 612.7L565 610.3M726.9 747.2L726 818.9M800.9 751.2L807.6 818.7" stroke="#268f81" stroke-width="1.7" stroke-opacity="0.6" fill="none" stroke-linecap="round"/>
<path class="sig b4" d="M1454.5 478.4L1457.1 547.6M1290.6 614.4L1290 681M1374.5 610.8L1290.6 614.4M1214.3 887L1212.3 957" stroke="#975861" stroke-width="1.7" stroke-opacity="0.6" fill="none" stroke-linecap="round"/>
<path class="sig b5" d="M646.5 -2L650.1 69.2M571.3 72.5L570.4 140.7M487.8 141.7L487.6 202.8M976.7 138.3L971.1 206.4M402.7 477.8L404.1 545.1M1053.9 477.5L1052.6 543.7M404.1 545.1L401.6 618.5M1052.6 543.7L1053.3 618.2M1052.6 543.7L1129.8 548.3M974.8 617.3L980.5 687.3M974.8 617.3L1053.3 618.2M566 683.2L565.4 750.8M890 688L890.4 758.5M890 688L980.5 687.3M565.4 750.8L645.2 746.4M645.2 746.4L645.3 821.1M645.3 821.1L643.1 890.3M726 818.9L645.3 821.1" stroke="#2dd2be" stroke-width="4.4" stroke-opacity="1" fill="none" stroke-linecap="round"/>
<path class="sig b5" d="M1530.7 411.6L1530.2 481.6M1208.8 549.1L1206.9 618.9M1130 617.6L1129.2 685.7M1130 617.6L1206.9 618.9M1206.9 618.9L1206.4 683.5M1290.6 614.4L1206.9 618.9M1129.2 685.7L1135.5 749M1206.4 683.5L1129.2 685.7M1135.5 749L1136.7 814.1" stroke="#f97084" stroke-width="4.4" stroke-opacity="1" fill="none" stroke-linecap="round"/>
<path class="sig b5" d="M406.7 204.6L401.4 268.9M322.7 271.2L401.4 268.9M401.4 268.9L402.8 336.3M1053.2 405.5L1053.9 477.5M565.6 824.5L645.3 821.1M723.6 888.1L643.1 890.3" stroke="#29b19f" stroke-width="2.6" stroke-opacity="0.85" fill="none" stroke-linecap="round"/>
<path class="sig b5" d="M1294.7 547.7L1290.6 614.4" stroke="#c86473" stroke-width="2.6" stroke-opacity="0.85" fill="none" stroke-linecap="round"/>
<path class="sig b5" d="M566.2 0.2L571.3 72.5M566.2 0.2L646.5 -2M806.2 -1.6L889.7 1M492.8 72L487.8 141.7M492.8 72L571.3 72.5M810.7 63.6L892.5 68.6M892.5 68.6L893.4 138.9M971.5 66L976.7 138.3M1052.3 340.7L1053.2 405.5M977.1 478.2L1053.9 477.5M483.8 612.7L483.2 685.7M565.4 750.8L565.6 824.5M890.4 758.5L800.9 751.2" stroke="#268f81" stroke-width="1.7" stroke-opacity="0.6" fill="none" stroke-linecap="round"/>
<path class="sig b5" d="M1453.7 344.6L1456.1 407.9M1456.1 407.9L1530.7 411.6M1292.2 477.6L1294.7 547.7M1377.9 478.7L1378.5 546.4M1294.7 547.7L1378.5 546.4M1134.5 953.4L1128.8 1027.1M1134.5 953.4L1212.3 957M1055.6 1025.6L1128.8 1027.1" stroke="#975861" stroke-width="1.7" stroke-opacity="0.6" fill="none" stroke-linecap="round"/>
<path class="sig b6" d="M1052.3 273L1133.1 272.8M1133.1 272.8L1134.2 342.6" stroke="#f97084" stroke-width="4.4" stroke-opacity="1" fill="none" stroke-linecap="round"/>
<path class="sig b6" d="M489.3 1.6L492.8 72M489.3 1.6L566.2 0.2M889.7 1L971.8 2M971.8 2L971.5 66M410.9 70.6L407.7 138.8M410.9 70.6L492.8 72M325.5 139L407.7 138.8M1134.2 342.6L1132.9 409.1M402.4 686.5L399.3 754.9M1054.2 686L1129.2 685.7M479.9 756.6L480.6 825M479.9 756.6L399.3 754.9M891 823.7L889 891.2M806.1 887.3L803.5 955.3M806.1 887.3L889 891.2M721.4 954.8L723.7 1023.6M721.4 954.8L643.6 957M803.5 955.3L721.4 954.8" stroke="#c86473" stroke-width="2.6" stroke-opacity="0.85" fill="none" stroke-linecap="round"/>
<path class="sig b6" d="M976.7 138.3L1053.3 135.5M1378.4 339.1L1377.4 406.3M406.4 408.8L402.7 477.8M1294.6 407.6L1377.4 406.3M1134.4 477.8L1129.8 548.3M980.5 687.3L981 757.1M980.5 687.3L1054.2 686M1053.5 884L1055.8 953.9M1053.5 884L1133.7 884.4M976.9 1024.7L1055.6 1025.6" stroke="#29b19f" stroke-width="2.6" stroke-opacity="0.85" fill="none" stroke-linecap="round"/>
<path class="sig b6" d="M971.5 66L1050 66.7M326.4 205.5L322.7 271.2M1054.5 202L1052.3 273M322.7 271.2L324.1 337.5M1052.3 273L1052.3 340.7M1454.4 274.4L1453.7 344.6M1052.3 340.7L1134.2 342.6M1534 347.4L1453.7 344.6M324.9 408L323.6 478.8M324.9 408L406.4 408.8M323.6 478.8L319.4 551.3M1209.8 476.2L1208.8 549.1M325.1 686L402.4 686.5M1059.1 822L1136.7 814.1" stroke="#975861" stroke-width="1.7" stroke-opacity="0.6" fill="none" stroke-linecap="round"/>
<path class="sig b6" d="M402.8 336.3L406.4 408.8M1378.4 339.1L1453.7 344.6M1294.6 407.6L1292.2 477.6M402.7 477.8L323.6 478.8M1129.8 548.3L1130 617.6M324.2 619.2L401.6 618.5M401.6 618.5L402.4 686.5M1053.3 618.2L1054.2 686M1053.3 618.2L1130 617.6M1059.1 822L1053.5 884M1133.7 884.4L1134.5 953.4M1055.8 953.9L1055.6 1025.6M1055.8 953.9L1134.5 953.4" stroke="#268f81" stroke-width="1.7" stroke-opacity="0.6" fill="none" stroke-linecap="round"/>
<path class="sig b7" d="M407.5 4.6L410.9 70.6M407.5 4.6L489.3 1.6M971.8 2L1049.2 -2.3M325.5 139L326.4 205.5M1133.4 201.1L1133.1 272.8M1133.1 272.8L1213.3 275.9M399.3 754.9L398.7 819.9M480.6 825L398.7 819.9M643.6 957L641.6 1024.9M641.6 1024.9L723.7 1023.6" stroke="#f97084" stroke-width="4.4" stroke-opacity="1" fill="none" stroke-linecap="round"/>
<path class="sig b7" d="M1374 203.4L1373 275.4M1373 275.4L1378.4 339.1" stroke="#2dd2be" stroke-width="4.4" stroke-opacity="1" fill="none" stroke-linecap="round"/>
<path class="sig b7" d="M1049.2 -2.3L1050 66.7M325.7 72.7L325.5 139M1054.5 202L1133.4 201.1M1213.3 275.9L1210.5 343.5M324.1 337.5L324.9 408M1134.2 342.6L1210.5 343.5M240.4 407.2L245 476.3M245 476.3L238.4 549.6M319.4 551.3L238.4 549.6M399.3 754.9L319.4 748.8M480.6 825L488.3 889.2M889 891.2L889.9 957.6M643.6 957L567.4 955.1M803.5 955.3L809 1022.7M723.7 1023.6L809 1022.7" stroke="#c86473" stroke-width="2.6" stroke-opacity="0.85" fill="none" stroke-linecap="round"/>
<path class="sig b7" d="M1292.2 344L1294.6 407.6M972.1 957.3L976.9 1024.7M893.7 1023.5L976.9 1024.7" stroke="#29b19f" stroke-width="2.6" stroke-opacity="0.85" fill="none" stroke-linecap="round"/>
<path class="sig b7" d="M1454.9 203.2L1454.4 274.4M1534.1 275.4L1534 347.4M973.2 888.8L972.1 957.3M973.2 888.8L1053.5 884" stroke="#268f81" stroke-width="1.7" stroke-opacity="0.6" fill="none" stroke-linecap="round"/>
<path class="sig b7" d="M1132.9 409.1L1134.4 477.8M1132.9 409.1L1209.9 408.7M245 476.3L323.6 478.8M319.4 551.3L324.2 619.2M324.2 619.2L325.1 686M246.8 683.3L325.1 686M325.1 686L319.4 748.8M488.3 889.2L567.9 888.4M567.9 888.4L567.4 955.1" stroke="#975861" stroke-width="1.7" stroke-opacity="0.6" fill="none" stroke-linecap="round"/>
<path class="sig b8" d="M1294.1 274.9L1373 275.4" stroke="#2dd2be" stroke-width="4.4" stroke-opacity="1" fill="none" stroke-linecap="round"/>
<path class="sig b8" d="M1213.2 205.1L1213.3 275.9M398.7 819.9L406.3 882.6M398.7 819.9L317 815.9M561.7 1024.1L641.6 1024.9" stroke="#c86473" stroke-width="2.6" stroke-opacity="0.85" fill="none" stroke-linecap="round"/>
<path class="sig b8" d="M1374 203.4L1454.9 203.2M491.8 954.9L488.1 1023.4" stroke="#29b19f" stroke-width="2.6" stroke-opacity="0.85" fill="none" stroke-linecap="round"/>
<path class="sig b8" d="M324.4 3L407.5 4.6M1456.9 63.8L1454.1 133.3M1137 135.5L1133.4 201.1M1454.1 133.3L1375.4 129.6M1533 138.3L1535.6 206M1533 138.3L1454.1 133.3M239.8 338.4L240.4 407.2M240.4 407.2L160 410.1M160.5 547.8L238.4 549.6M238.4 549.6L241.5 617.1M319.4 748.8L317 815.9M406.3 882.6L488.3 889.2M567.4 955.1L561.7 1024.1" stroke="#975861" stroke-width="1.7" stroke-opacity="0.6" fill="none" stroke-linecap="round"/>
<path class="sig b8" d="M1292.3 202.5L1294.1 274.9M1294.1 274.9L1292.2 344M488.1 1023.4L561.7 1024.1" stroke="#268f81" stroke-width="1.7" stroke-opacity="0.6" fill="none" stroke-linecap="round"/>
<path class="sig b9" d="M1455.6 -0.3L1456.9 63.8" stroke="#f97084" stroke-width="4.4" stroke-opacity="1" fill="none" stroke-linecap="round"/>
<path class="sig b9" d="M1134.8 71L1218 71.7M406.9 1021.6L488.1 1023.4" stroke="#2dd2be" stroke-width="4.4" stroke-opacity="1" fill="none" stroke-linecap="round"/>
<path class="sig b9" d="M242.9 -1.7L241.4 71.2M242.9 -1.7L324.4 3M1132.6 0.6L1134.8 71M1132.6 0.6L1214.7 -0.4M241.4 71.2L240.9 140.8M241.4 71.2L158.8 66.6M1134.8 71L1137 135.5M166.8 751.5L245.1 751.3M245.1 751.3L240.1 815.6M408.1 950.7L406.9 1021.6" stroke="#29b19f" stroke-width="2.6" stroke-opacity="0.85" fill="none" stroke-linecap="round"/>
<path class="sig b9" d="M1536.4 0.7L1456.9 63.8M1376.7 63.3L1375.4 129.6M1456.9 63.8L1535.5 68.9M1535.5 68.9L1533 138.3" stroke="#c86473" stroke-width="2.6" stroke-opacity="0.85" fill="none" stroke-linecap="round"/>
<path class="sig b9" d="M1137 135.5L1219.4 138.1M240.3 270.9L239.8 338.4M163.3 340.8L160 410.1M239.8 338.4L163.3 340.8M86.9 411.4L160 410.1M160 410.1L161.9 477.6M161.9 477.6L160.5 547.8M81 545.1L160.5 547.8M161.3 615L166.8 681.9M241.5 617.1L161.3 615M166.8 681.9L166.8 751.5M317 815.9L240.1 815.6M240.4 885.3L319.3 884.4M323.6 954.5L408.1 950.7M408.1 950.7L491.8 954.9" stroke="#268f81" stroke-width="1.7" stroke-opacity="0.6" fill="none" stroke-linecap="round"/>
<path class="sig b9" d="M1375.4 129.6L1297.4 134.8" stroke="#975861" stroke-width="1.7" stroke-opacity="0.6" fill="none" stroke-linecap="round"/>
<path class="sig b10" d="M1214.7 -0.4L1218 71.7" stroke="#2dd2be" stroke-width="4.4" stroke-opacity="1" fill="none" stroke-linecap="round"/>
<path class="sig b10" d="M1374.8 0.7L1376.7 63.3M1374.8 0.7L1455.6 -0.3M1455.6 -0.3L1536.4 0.7" stroke="#f97084" stroke-width="4.4" stroke-opacity="1" fill="none" stroke-linecap="round"/>
<path class="sig b10" d="M157.3 -3L158.8 66.6M157.3 -3L242.9 -1.7M1214.7 -0.4L1297.9 0.1M158.8 66.6L159.8 135.2M158.8 66.6L78.4 64.6M240.9 140.8L243.8 205.7M240.9 140.8L159.8 135.2M243.8 205.7L240.3 270.9M159.7 270.7L163.3 340.8M240.3 270.9L159.7 270.7M87.6 342.4L86.9 411.4M87.6 342.4L163.3 340.8M3.7 413.5L86.9 411.4M86.9 411.4L82.4 478.3M82.4 478.3L81 545.1M82.4 478.3L161.9 477.6M-2.6 542L81 545.1M84.3 753.3L166.8 751.5M166.8 751.5L166.2 820.1M166.2 820.1L159.8 884.9M166.2 820.1L240.1 815.6M240.1 815.6L240.4 885.3M326.4 1024.4L406.9 1021.6" stroke="#29b19f" stroke-width="2.6" stroke-opacity="0.85" fill="none" stroke-linecap="round"/>
<path class="sig b10" d="M1536.4 0.7L1535.5 68.9M1297.5 67.9L1376.7 63.3" stroke="#c86473" stroke-width="2.6" stroke-opacity="0.85" fill="none" stroke-linecap="round"/>
<path class="sig b10" d="M1218 71.7L1219.4 138.1M162.3 206.3L159.7 270.7M243.8 205.7L162.3 206.3M81 545.1L81.7 611.5M81.7 611.5L161.3 615" stroke="#268f81" stroke-width="1.7" stroke-opacity="0.6" fill="none" stroke-linecap="round"/>
<path class="sig b10" d="M1297.5 67.9L1297.4 134.8" stroke="#975861" stroke-width="1.7" stroke-opacity="0.6" fill="none" stroke-linecap="round"/>
<path class="sig b11" d="M0 0L1.3 66.1M-1.9 682.4L1 750.6M-1.9 682.4L82.2 681.9M1 750.6L0.2 818.6M239 955.6L243.3 1025.9" stroke="#c86473" stroke-width="2.6" stroke-opacity="0.85" fill="none" stroke-linecap="round"/>
<path class="sig b11" d="M0 0L75.9 -4.2M79.7 134.4L80.8 204.6M-0.1 272.9L2.9 344.1M-0.1 272.9L82.1 272.1M0.2 818.6L81.5 819.2M161.3 954.7L239 955.6M243.3 1025.9L326.4 1024.4" stroke="#975861" stroke-width="1.7" stroke-opacity="0.6" fill="none" stroke-linecap="round"/>
<path class="sig b11" d="M159.8 135.2L162.3 206.3M82.1 272.1L87.6 342.4M82.1 272.1L159.7 270.7M2.9 344.1L3.7 413.5M2.9 344.1L87.6 342.4M3.7 413.5L-0.3 478.2M-0.3 478.2L-2.6 542M-0.3 478.2L82.4 478.3" stroke="#268f81" stroke-width="1.7" stroke-opacity="0.6" fill="none" stroke-linecap="round"/>
<path class="sig b12" d="M1.3 66.1L-0.5 132.2M-0.5 132.2L0.8 203.7M-0.5 132.2L79.7 134.4M0.8 203.7L-0.1 272.9M0.8 203.7L80.8 204.6M0.2 818.6L-0.2 887.3M161.3 954.7L160.4 1024.1M160.4 1024.1L243.3 1025.9" stroke="#c86473" stroke-width="2.6" stroke-opacity="0.85" fill="none" stroke-linecap="round"/>
<path class="sig b12" d="M-4.5 610.9L-1.9 682.4M-0.2 887.3L79.7 885.7" stroke="#975861" stroke-width="1.7" stroke-opacity="0.6" fill="none" stroke-linecap="round"/>
<path class="sig b13" d="M-0.2 887.3L-1 954.9M80.3 1024.3L160.4 1024.1" stroke="#975861" stroke-width="1.7" stroke-opacity="0.6" fill="none" stroke-linecap="round"/>
<path class="sig b13" d="M-1 954.9L1.1 1026.4M1.1 1026.4L80.3 1024.3" stroke="#268f81" stroke-width="1.7" stroke-opacity="0.6" fill="none" stroke-linecap="round"/>
<circle class="sig bloom b2" cx="733.4" cy="204.1" r="78.9" fill="url(#bw)"/>
<circle class="sig bloom b2" cx="649.1" cy="274.8" r="78.9" fill="url(#bw)"/>
<circle class="sig bloom b0" cx="728.1" cy="405.3" r="78.9" fill="url(#bc)"/>
<circle class="sig bloom b2" cx="889.4" cy="476.5" r="78.9" fill="url(#bw)"/>
<circle class="sig bloom b5" cx="1052.6" cy="543.7" r="78.9" fill="url(#bc)"/>
<circle class="sig bloom b5" cx="974.8" cy="617.3" r="78.9" fill="url(#bc)"/>
<circle class="sig bloom b5" cx="1206.9" cy="618.9" r="78.9" fill="url(#bw)"/>
<circle class="sig bloom b2" cx="1370.3" cy="749.8" r="78.9" fill="url(#bc)"/>
<circle class="sig bloom b2" cx="1292.5" cy="817.5" r="78.9" fill="url(#bc)"/>
<circle class="sig bloom b0" cx="1458.3" cy="889.1" r="78.9" fill="url(#bw)"/>
<circle class="sig bloom b2" cx="563.4" cy="339.2" r="78.9" fill="url(#bw)"/>
<circle class="sig bloom b4" cx="971.1" cy="206.4" r="78.9" fill="url(#bc)"/>
<circle class="sig bloom b4" cx="1135.5" cy="749" r="78.9" fill="url(#bw)"/>
<circle class="sig bloom b7" cx="1373" cy="275.4" r="78.9" fill="url(#bc)"/>
<circle class="sig b2" cx="733.4" cy="204.1" r="5.5" fill="#fb7185" fill-opacity="0.9"/>
<circle class="sig b2" cx="649.1" cy="274.8" r="5.5" fill="#fb7185" fill-opacity="0.9"/>
<circle class="sig b0" cx="728.1" cy="405.3" r="5.5" fill="#2dd4bf" fill-opacity="0.9"/>
<circle class="sig b2" cx="889.4" cy="476.5" r="5.5" fill="#fb7185" fill-opacity="0.9"/>
<circle class="sig b5" cx="1052.6" cy="543.7" r="5.5" fill="#2dd4bf" fill-opacity="0.9"/>
<circle class="sig b5" cx="974.8" cy="617.3" r="5.5" fill="#2dd4bf" fill-opacity="0.9"/>
<g class="sig probe b0"><circle cx="728.1" cy="405.3" r="15" fill="none" stroke="#eafffb" stroke-width="2.2" stroke-opacity="0.75"/><circle cx="728.1" cy="405.3" r="4.5" fill="#eafffb" fill-opacity="0.9"/></g>
<g class="sig probe b0"><circle cx="1458.3" cy="889.1" r="15" fill="none" stroke="#eafffb" stroke-width="2.2" stroke-opacity="0.75"/><circle cx="1458.3" cy="889.1" r="4.5" fill="#eafffb" fill-opacity="0.9"/></g>
<g class="sig b13" opacity="0.6"><circle cx="890" cy="688" r="26" fill="none" stroke="#79a8a1" stroke-width="1.6" stroke-dasharray="5 7"/><circle cx="890" cy="688" r="3" fill="#79a8a1"/></g>
<rect width="1536" height="1024" fill="url(#scan)" opacity="0.5"/>
<rect width="1536" height="1024" fill="url(#floor)"/>
<rect width="1536" height="1024" fill="url(#scrim)"/>
<g class="type">
<text x="96" y="278.6" font-family="ui-monospace, 'SF Mono', SFMono-Regular, Menlo, Consolas, 'Liberation Mono', monospace" font-size="26" font-weight="600" letter-spacing="6" fill="#fb7185">FIELD NOTES   ·   2026-08-25</text>
<text x="96" y="398.6" font-family="Inter, 'Helvetica Neue', Helvetica, Arial, sans-serif" font-size="76" font-weight="700" letter-spacing="-2" fill="#eafffb">Two posts, one</text>
<text x="96" y="482.2" font-family="Inter, 'Helvetica Neue', Helvetica, Arial, sans-serif" font-size="76" font-weight="700" letter-spacing="-2" fill="#eafffb">banner: the cover-art</text>
<text x="96" y="565.8" font-family="Inter, 'Helvetica Neue', Helvetica, Arial, sans-serif" font-size="76" font-weight="700" letter-spacing="-2" fill="#eafffb">promise a 32-bit seed</text>
<text x="96" y="649.4" font-family="Inter, 'Helvetica Neue', Helvetica, Arial, sans-serif" font-size="76" font-weight="700" letter-spacing="-2" fill="#eafffb">can't keep</text>
<rect x="96" y="701.4000000000001" width="112" height="4" fill="#fb7185" opacity="0.9"/>
<text x="96" y="759.4000000000001" font-family="ui-monospace, 'SF Mono', SFMono-Regular, Menlo, Consolas, 'Liberation Mono', monospace" font-size="24" font-weight="500" letter-spacing="1" fill="#79a8a1">by edge   ·   lifehacker.dev</text>
</g>
</svg>
