<svg xmlns="http://www.w3.org/2000/svg" viewBox="0 0 1536 1024" width="1536" height="1024"><rect width="1536" height="1024" fill="#0d1b2a" /><rect y="0" width="1536" height="128" fill="#1b263b" opacity="0.25" /><rect y="128" width="1536" height="128" fill="#1b263b" opacity="0.37" /><rect y="256" width="1536" height="128" fill="#1b263b" opacity="0.49" /><circle cx="1100" cy="317" r="164" fill="#ffb703" /><circle cx="1100" cy="317" r="138" fill="#e0e1dd" /><rect x="937" y="329" width="326" height="10" fill="#0d1b2a" /><rect x="942" y="355" width="316" height="10" fill="#0d1b2a" /><rect x="952" y="381" width="296" height="10" fill="#0d1b2a" /><polygon points="-40,1024 -40,713 198,713 198,511 322,511 322,605 552,605 552,763 652,763 652,693 888,693 888,603 1122,603 1122,729 1328,729 1328,611 1466,611 1466,665 1630,665 1616,1024" fill="#415a77" /><polygon points="-40,1024 -40,523 108,523 108,553 322,553 322,659 546,659 546,405 720,405 720,631 814,631 814,461 1014,461 1014,487 1224,487 1224,505 1424,505 1424,383 1576,383 1576,517 1678,517 1616,1024" fill="#778da9" /><polygon points="-40,1024 -40,339 176,339 176,401 338,401 338,283 442,283 442,325 540,325 540,423 640,423 640,269 742,269 742,375 910,375 910,357 1032,357 1032,507 1224,507 1224,373 1406,373 1406,451 1500,451 1500,265 1642,265 1616,1024" fill="#1b263b" /><rect x="173" y="482" width="6" height="6" fill="#e0e1dd" /><rect x="48" y="169" width="7" height="7" fill="#e0e1dd" /><rect x="463" y="348" width="4" height="4" fill="#e0e1dd" /><rect x="314" y="491" width="6" height="6" fill="#e0e1dd" /><rect x="481" y="262" width="6" height="6" fill="#e0e1dd" /><rect x="1524" y="285" width="4" height="4" fill="#e0e1dd" /><rect x="355" y="352" width="4" height="4" fill="#e0e1dd" /><rect x="222" y="191" width="6" height="6" fill="#e0e1dd" /><rect x="725" y="234" width="5" height="5" fill="#e0e1dd" /><rect x="1144" y="337" width="4" height="4" fill="#e0e1dd" /><rect x="695" y="36" width="4" height="4" fill="#e0e1dd" /><rect x="1346" y="339" width="6" height="6" fill="#e0e1dd" /><rect x="1417" y="398" width="6" height="6" fill="#e0e1dd" /><rect x="444" y="325" width="3" height="3" fill="#e0e1dd" /><rect x="971" y="424" width="4" height="4" fill="#e0e1dd" /><rect x="614" y="423" width="7" height="7" fill="#e0e1dd" /><rect x="509" y="242" width="6" height="6" fill="#e0e1dd" /><rect x="448" y="249" width="6" height="6" fill="#e0e1dd" /><rect x="159" y="492" width="7" height="7" fill="#e0e1dd" /><rect x="74" y="443" width="5" height="5" fill="#e0e1dd" /><rect x="561" y="278" width="6" height="6" fill="#e0e1dd" /><rect x="1156" y="109" width="7" height="7" fill="#e0e1dd" /><rect x="819" y="240" width="3" height="3" fill="#e0e1dd" /><rect x="238" y="399" width="6" height="6" fill="#e0e1dd" /><rect x="549" y="506" width="7" height="7" fill="#e0e1dd" /><rect x="520" y="417" width="3" height="3" fill="#e0e1dd" /><rect x="1415" y="180" width="7" height="7" fill="#e0e1dd" /><rect x="82" y="291" width="6" height="6" fill="#e0e1dd" /><rect x="985" y="414" width="4" height="4" fill="#e0e1dd" /><rect x="76" y="149" width="5" height="5" fill="#e0e1dd" /><rect x="411" y="312" width="7" height="7" fill="#e0e1dd" /><rect x="1142" y="119" width="3" height="3" fill="#e0e1dd" /><rect x="845" y="2" width="6" height="6" fill="#e0e1dd" /><rect x="848" y="329" width="4" height="4" fill="#e0e1dd" /><rect x="879" y="124" width="5" height="5" fill="#e0e1dd" /><rect x="858" y="395" width="3" height="3" fill="#e0e1dd" /><rect x="641" y="294" width="5" height="5" fill="#e0e1dd" /><rect x="788" y="445" width="7" height="7" fill="#e0e1dd" /><rect x="1283" y="128" width="4" height="4" fill="#e0e1dd" /><rect x="766" y="95" width="6" height="6" fill="#e0e1dd" /><rect y="0" width="1536" height="1" fill="#000" opacity="0.10" /><rect y="8" width="1536" height="1" fill="#000" opacity="0.10" /><rect y="16" width="1536" height="1" fill="#000" opacity="0.10" /><rect y="24" width="1536" height="1" fill="#000" opacity="0.10" /><rect y="32" width="1536" height="1" fill="#000" opacity="0.10" /><rect y="40" width="1536" height="1" fill="#000" opacity="0.10" /><rect y="48" width="1536" height="1" fill="#000" opacity="0.10" /><rect y="56" width="1536" height="1" fill="#000" opacity="0.10" /><rect y="64" width="1536" height="1" fill="#000" opacity="0.10" /><rect y="72" width="1536" height="1" fill="#000" opacity="0.10" /><rect y="80" width="1536" height="1" fill="#000" opacity="0.10" /><rect y="88" width="1536" height="1" fill="#000" opacity="0.10" /><rect y="96" width="1536" height="1" fill="#000" opacity="0.10" /><rect y="104" width="1536" height="1" fill="#000" opacity="0.10" /><rect y="112" width="1536" height="1" fill="#000" opacity="0.10" /><rect y="120" width="1536" height="1" fill="#000" opacity="0.10" /><rect y="128" width="1536" height="1" fill="#000" opacity="0.10" /><rect y="136" width="1536" height="1" fill="#000" opacity="0.10" /><rect y="144" width="1536" height="1" fill="#000" opacity="0.10" /><rect y="152" width="1536" height="1" fill="#000" opacity="0.10" /><rect y="160" width="1536" height="1" fill="#000" opacity="0.10" /><rect y="168" width="1536" height="1" fill="#000" opacity="0.10" /><rect y="176" width="1536" height="1" fill="#000" opacity="0.10" /><rect y="184" width="1536" height="1" fill="#000" opacity="0.10" /><rect y="192" width="1536" height="1" fill="#000" opacity="0.10" /><rect y="200" width="1536" height="1" fill="#000" opacity="0.10" /><rect y="208" width="1536" height="1" fill="#000" opacity="0.10" /><rect y="216" width="1536" height="1" fill="#000" opacity="0.10" /><rect y="224" width="1536" height="1" fill="#000" opacity="0.10" /><rect y="232" width="1536" height="1" fill="#000" opacity="0.10" /><rect y="240" width="1536" height="1" fill="#000" opacity="0.10" /><rect y="248" width="1536" height="1" fill="#000" opacity="0.10" /><rect y="256" width="1536" height="1" fill="#000" opacity="0.10" /><rect y="264" width="1536" height="1" fill="#000" opacity="0.10" /><rect y="272" width="1536" height="1" fill="#000" opacity="0.10" /><rect y="280" width="1536" height="1" fill="#000" opacity="0.10" /><rect y="288" width="1536" height="1" fill="#000" opacity="0.10" /><rect y="296" width="1536" height="1" fill="#000" opacity="0.10" /><rect y="304" width="1536" height="1" fill="#000" opacity="0.10" /><rect y="312" width="1536" height="1" fill="#000" opacity="0.10" /><rect y="320" width="1536" height="1" fill="#000" opacity="0.10" /><rect y="328" width="1536" height="1" fill="#000" opacity="0.10" /><rect y="336" width="1536" height="1" fill="#000" opacity="0.10" /><rect y="344" width="1536" height="1" fill="#000" opacity="0.10" /><rect y="352" width="1536" height="1" fill="#000" opacity="0.10" /><rect y="360" width="1536" height="1" fill="#000" opacity="0.10" /><rect y="368" width="1536" height="1" fill="#000" opacity="0.10" /><rect y="376" width="1536" height="1" fill="#000" opacity="0.10" /><rect y="384" width="1536" height="1" fill="#000" opacity="0.10" /><rect y="392" width="1536" height="1" fill="#000" opacity="0.10" /><rect y="400" width="1536" height="1" fill="#000" opacity="0.10" /><rect y="408" width="1536" height="1" fill="#000" opacity="0.10" /><rect y="416" width="1536" height="1" fill="#000" opacity="0.10" /><rect y="424" width="1536" height="1" fill="#000" opacity="0.10" /><rect y="432" width="1536" height="1" fill="#000" opacity="0.10" /><rect y="440" width="1536" height="1" fill="#000" opacity="0.10" /><rect y="448" width="1536" height="1" fill="#000" opacity="0.10" /><rect y="456" width="1536" height="1" fill="#000" opacity="0.10" /><rect y="464" width="1536" height="1" fill="#000" opacity="0.10" /><rect y="472" width="1536" height="1" fill="#000" opacity="0.10" /><rect y="480" width="1536" height="1" fill="#000" opacity="0.10" /><rect y="488" width="1536" height="1" fill="#000" opacity="0.10" /><rect y="496" width="1536" height="1" fill="#000" opacity="0.10" /><rect y="504" width="1536" height="1" fill="#000" opacity="0.10" /><rect y="512" width="1536" height="1" fill="#000" opacity="0.10" /><rect y="520" width="1536" height="1" fill="#000" opacity="0.10" /><rect y="528" width="1536" height="1" fill="#000" opacity="0.10" /><rect y="536" width="1536" height="1" fill="#000" opacity="0.10" /><rect y="544" width="1536" height="1" fill="#000" opacity="0.10" /><rect y="552" width="1536" height="1" fill="#000" opacity="0.10" /><rect y="560" width="1536" height="1" fill="#000" opacity="0.10" /><rect y="568" width="1536" height="1" fill="#000" opacity="0.10" /><rect y="576" width="1536" height="1" fill="#000" opacity="0.10" /><rect y="584" width="1536" height="1" fill="#000" opacity="0.10" /><rect y="592" width="1536" height="1" fill="#000" opacity="0.10" /><rect y="600" width="1536" height="1" fill="#000" opacity="0.10" /><rect y="608" width="1536" height="1" fill="#000" opacity="0.10" /><rect y="616" width="1536" height="1" fill="#000" opacity="0.10" /><rect y="624" width="1536" height="1" fill="#000" opacity="0.10" /><rect y="632" width="1536" height="1" fill="#000" opacity="0.10" /><rect y="640" width="1536" height="1" fill="#000" opacity="0.10" /><rect y="648" width="1536" height="1" fill="#000" opacity="0.10" /><rect y="656" width="1536" height="1" fill="#000" opacity="0.10" /><rect y="664" width="1536" height="1" fill="#000" opacity="0.10" /><rect y="672" width="1536" height="1" fill="#000" opacity="0.10" /><rect y="680" width="1536" height="1" fill="#000" opacity="0.10" /><rect y="688" width="1536" height="1" fill="#000" opacity="0.10" /><rect y="696" width="1536" height="1" fill="#000" opacity="0.10" /><rect y="704" width="1536" height="1" fill="#000" opacity="0.10" /><rect y="712" width="1536" height="1" fill="#000" opacity="0.10" /><rect y="720" width="1536" height="1" fill="#000" opacity="0.10" /><rect y="728" width="1536" height="1" fill="#000" opacity="0.10" /><rect y="736" width="1536" height="1" fill="#000" opacity="0.10" /><rect y="744" width="1536" height="1" fill="#000" opacity="0.10" /><rect y="752" width="1536" height="1" fill="#000" opacity="0.10" /><rect y="760" width="1536" height="1" fill="#000" opacity="0.10" /><rect y="768" width="1536" height="1" fill="#000" opacity="0.10" /><rect y="776" width="1536" height="1" fill="#000" opacity="0.10" /><rect y="784" width="1536" height="1" fill="#000" opacity="0.10" /><rect y="792" width="1536" height="1" fill="#000" opacity="0.10" /><rect y="800" width="1536" height="1" fill="#000" opacity="0.10" /><rect y="808" width="1536" height="1" fill="#000" opacity="0.10" /><rect y="816" width="1536" height="1" fill="#000" opacity="0.10" /><rect y="824" width="1536" height="1" fill="#000" opacity="0.10" /><rect y="832" width="1536" height="1" fill="#000" opacity="0.10" /><rect y="840" width="1536" height="1" fill="#000" opacity="0.10" /><rect y="848" width="1536" height="1" fill="#000" opacity="0.10" /><rect y="856" width="1536" height="1" fill="#000" opacity="0.10" /><rect y="864" width="1536" height="1" fill="#000" opacity="0.10" /><rect y="872" width="1536" height="1" fill="#000" opacity="0.10" /><rect y="880" width="1536" height="1" fill="#000" opacity="0.10" /><rect y="888" width="1536" height="1" fill="#000" opacity="0.10" /><rect y="896" width="1536" height="1" fill="#000" opacity="0.10" /><rect y="904" width="1536" height="1" fill="#000" opacity="0.10" /><rect y="912" width="1536" height="1" fill="#000" opacity="0.10" /><rect y="920" width="1536" height="1" fill="#000" opacity="0.10" /><rect y="928" width="1536" height="1" fill="#000" opacity="0.10" /><rect y="936" width="1536" height="1" fill="#000" opacity="0.10" /><rect y="944" width="1536" height="1" fill="#000" opacity="0.10" /><rect y="952" width="1536" height="1" fill="#000" opacity="0.10" /><rect y="960" width="1536" height="1" fill="#000" opacity="0.10" /><rect y="968" width="1536" height="1" fill="#000" opacity="0.10" /><rect y="976" width="1536" height="1" fill="#000" opacity="0.10" /><rect y="984" width="1536" height="1" fill="#000" opacity="0.10" /><rect y="992" width="1536" height="1" fill="#000" opacity="0.10" /><rect y="1000" width="1536" height="1" fill="#000" opacity="0.10" /><rect y="1008" width="1536" height="1" fill="#000" opacity="0.10" /><rect y="1016" width="1536" height="1" fill="#000" opacity="0.10" /><rect width="1536" height="26" fill="#000" opacity="0.35" /><rect y="998" width="1536" height="26" fill="#000" opacity="0.35" /></svg>