<svg xmlns="http://www.w3.org/2000/svg" viewBox="0 0 1536 1024" width="1536" height="1024"><rect width="1536" height="1024" fill="#232931" /><rect y="0" width="1536" height="128" fill="#393e46" opacity="0.25" /><rect y="128" width="1536" height="128" fill="#393e46" opacity="0.37" /><rect y="256" width="1536" height="128" fill="#393e46" opacity="0.49" /><circle cx="910" cy="387" r="162" fill="#f95959" /><circle cx="910" cy="387" r="136" fill="#eeeeee" /><rect x="749" y="399" width="322" height="10" fill="#232931" /><rect x="754" y="425" width="312" height="10" fill="#232931" /><rect x="764" y="451" width="292" height="10" fill="#232931" /><polygon points="-40,1024 -40,531 132,531 132,701 240,701 240,743 372,743 372,605 586,605 586,623 764,623 764,469 896,469 896,635 1012,635 1012,741 1130,741 1130,711 1306,711 1306,581 1420,581 1420,507 1656,507 1616,1024" fill="#4ecca3" /><polygon points="-40,1024 -40,549 184,549 184,611 298,611 298,649 440,649 440,471 616,471 616,557 736,557 736,395 910,395 910,661 1132,661 1132,631 1228,631 1228,577 1392,577 1392,551 1562,551 1562,613 1664,613 1616,1024" fill="#a5ecd7" /><polygon points="-40,1024 -40,375 88,375 88,417 240,417 240,363 334,363 334,317 538,317 538,443 670,443 670,561 854,561 854,395 1090,395 1090,341 1288,341 1288,359 1520,359 1520,537 1632,537 1616,1024" fill="#393e46" /><rect x="1353" y="78" width="3" height="3" fill="#eeeeee" /><rect x="124" y="261" width="6" height="6" fill="#eeeeee" /><rect x="395" y="104" width="7" height="7" fill="#eeeeee" /><rect x="806" y="359" width="4" height="4" fill="#eeeeee" /><rect x="1469" y="434" width="3" height="3" fill="#eeeeee" /><rect x="1152" y="185" width="6" height="6" fill="#eeeeee" /><rect x="95" y="172" width="4" height="4" fill="#eeeeee" /><rect x="1290" y="379" width="7" height="7" fill="#eeeeee" /><rect x="1521" y="470" width="4" height="4" fill="#eeeeee" /><rect x="324" y="45" width="4" height="4" fill="#eeeeee" /><rect x="243" y="432" width="5" height="5" fill="#eeeeee" /><rect x="1454" y="335" width="5" height="5" fill="#eeeeee" /><rect x="1509" y="186" width="4" height="4" fill="#eeeeee" /><rect x="1224" y="353" width="3" height="3" fill="#eeeeee" /><rect x="1351" y="372" width="6" height="6" fill="#eeeeee" /><rect x="274" y="227" width="4" height="4" fill="#eeeeee" /><rect x="1433" y="94" width="6" height="6" fill="#eeeeee" /><rect x="1292" y="85" width="4" height="4" fill="#eeeeee" /><rect x="347" y="504" width="6" height="6" fill="#eeeeee" /><rect x="822" y="55" width="5" height="5" fill="#eeeeee" /><rect x="781" y="194" width="4" height="4" fill="#eeeeee" /><rect x="528" y="265" width="7" height="7" fill="#eeeeee" /><rect x="303" y="316" width="7" height="7" fill="#eeeeee" /><rect x="1050" y="331" width="6" height="6" fill="#eeeeee" /><rect x="1089" y="486" width="6" height="6" fill="#eeeeee" /><rect x="980" y="381" width="7" height="7" fill="#eeeeee" /><rect x="707" y="320" width="4" height="4" fill="#eeeeee" /><rect x="1470" y="31" width="3" height="3" fill="#eeeeee" /><rect x="1333" y="458" width="6" height="6" fill="#eeeeee" /><rect x="1112" y="433" width="6" height="6" fill="#eeeeee" /><rect x="23" y="4" width="5" height="5" fill="#eeeeee" /><rect x="1058" y="179" width="6" height="6" fill="#eeeeee" /><rect x="1513" y="110" width="6" height="6" fill="#eeeeee" /><rect x="412" y="421" width="7" height="7" fill="#eeeeee" /><rect x="1323" y="392" width="7" height="7" fill="#eeeeee" /><rect x="326" y="263" width="5" height="5" fill="#eeeeee" /><rect x="1117" y="466" width="4" height="4" fill="#eeeeee" /><rect x="1440" y="345" width="7" height="7" fill="#eeeeee" /><rect x="1023" y="460" width="4" height="4" fill="#eeeeee" /><rect x="298" y="283" width="5" height="5" fill="#eeeeee" /><rect y="0" width="1536" height="1" fill="#000" opacity="0.10" /><rect y="8" width="1536" height="1" fill="#000" opacity="0.10" /><rect y="16" width="1536" height="1" fill="#000" opacity="0.10" /><rect y="24" width="1536" height="1" fill="#000" opacity="0.10" /><rect y="32" width="1536" height="1" fill="#000" opacity="0.10" /><rect y="40" width="1536" height="1" fill="#000" opacity="0.10" /><rect y="48" width="1536" height="1" fill="#000" opacity="0.10" /><rect y="56" width="1536" height="1" fill="#000" opacity="0.10" /><rect y="64" width="1536" height="1" fill="#000" opacity="0.10" /><rect y="72" width="1536" height="1" fill="#000" opacity="0.10" /><rect y="80" width="1536" height="1" fill="#000" opacity="0.10" /><rect y="88" width="1536" height="1" fill="#000" opacity="0.10" /><rect y="96" width="1536" height="1" fill="#000" opacity="0.10" /><rect y="104" width="1536" height="1" fill="#000" opacity="0.10" /><rect y="112" width="1536" height="1" fill="#000" opacity="0.10" /><rect y="120" width="1536" height="1" fill="#000" opacity="0.10" /><rect y="128" width="1536" height="1" fill="#000" opacity="0.10" /><rect y="136" width="1536" height="1" fill="#000" opacity="0.10" /><rect y="144" width="1536" height="1" fill="#000" opacity="0.10" /><rect y="152" width="1536" height="1" fill="#000" opacity="0.10" /><rect y="160" width="1536" height="1" fill="#000" opacity="0.10" /><rect y="168" width="1536" height="1" fill="#000" opacity="0.10" /><rect y="176" width="1536" height="1" fill="#000" opacity="0.10" /><rect y="184" width="1536" height="1" fill="#000" opacity="0.10" /><rect y="192" width="1536" height="1" fill="#000" opacity="0.10" /><rect y="200" width="1536" height="1" fill="#000" opacity="0.10" /><rect y="208" width="1536" height="1" fill="#000" opacity="0.10" /><rect y="216" width="1536" height="1" fill="#000" opacity="0.10" /><rect y="224" width="1536" height="1" fill="#000" opacity="0.10" /><rect y="232" width="1536" height="1" fill="#000" opacity="0.10" /><rect y="240" width="1536" height="1" fill="#000" opacity="0.10" /><rect y="248" width="1536" height="1" fill="#000" opacity="0.10" /><rect y="256" width="1536" height="1" fill="#000" opacity="0.10" /><rect y="264" width="1536" height="1" fill="#000" opacity="0.10" /><rect y="272" width="1536" height="1" fill="#000" opacity="0.10" /><rect y="280" width="1536" height="1" fill="#000" opacity="0.10" /><rect y="288" width="1536" height="1" fill="#000" opacity="0.10" /><rect y="296" width="1536" height="1" fill="#000" opacity="0.10" /><rect y="304" width="1536" height="1" fill="#000" opacity="0.10" /><rect y="312" width="1536" height="1" fill="#000" opacity="0.10" /><rect y="320" width="1536" height="1" fill="#000" opacity="0.10" /><rect y="328" width="1536" height="1" fill="#000" opacity="0.10" /><rect y="336" width="1536" height="1" fill="#000" opacity="0.10" /><rect y="344" width="1536" height="1" fill="#000" opacity="0.10" /><rect y="352" width="1536" height="1" fill="#000" opacity="0.10" /><rect y="360" width="1536" height="1" fill="#000" opacity="0.10" /><rect y="368" width="1536" height="1" fill="#000" opacity="0.10" /><rect y="376" width="1536" height="1" fill="#000" opacity="0.10" /><rect y="384" width="1536" height="1" fill="#000" opacity="0.10" /><rect y="392" width="1536" height="1" fill="#000" opacity="0.10" /><rect y="400" width="1536" height="1" fill="#000" opacity="0.10" /><rect y="408" width="1536" height="1" fill="#000" opacity="0.10" /><rect y="416" width="1536" height="1" fill="#000" opacity="0.10" /><rect y="424" width="1536" height="1" fill="#000" opacity="0.10" /><rect y="432" width="1536" height="1" fill="#000" opacity="0.10" /><rect y="440" width="1536" height="1" fill="#000" opacity="0.10" /><rect y="448" width="1536" height="1" fill="#000" opacity="0.10" /><rect y="456" width="1536" height="1" fill="#000" opacity="0.10" /><rect y="464" width="1536" height="1" fill="#000" opacity="0.10" /><rect y="472" width="1536" height="1" fill="#000" opacity="0.10" /><rect y="480" width="1536" height="1" fill="#000" opacity="0.10" /><rect y="488" width="1536" height="1" fill="#000" opacity="0.10" /><rect y="496" width="1536" height="1" fill="#000" opacity="0.10" /><rect y="504" width="1536" height="1" fill="#000" opacity="0.10" /><rect y="512" width="1536" height="1" fill="#000" opacity="0.10" /><rect y="520" width="1536" height="1" fill="#000" opacity="0.10" /><rect y="528" width="1536" height="1" fill="#000" opacity="0.10" /><rect y="536" width="1536" height="1" fill="#000" opacity="0.10" /><rect y="544" width="1536" height="1" fill="#000" opacity="0.10" /><rect y="552" width="1536" height="1" fill="#000" opacity="0.10" /><rect y="560" width="1536" height="1" fill="#000" opacity="0.10" /><rect y="568" width="1536" height="1" fill="#000" opacity="0.10" /><rect y="576" width="1536" height="1" fill="#000" opacity="0.10" /><rect y="584" width="1536" height="1" fill="#000" opacity="0.10" /><rect y="592" width="1536" height="1" fill="#000" opacity="0.10" /><rect y="600" width="1536" height="1" fill="#000" opacity="0.10" /><rect y="608" width="1536" height="1" fill="#000" opacity="0.10" /><rect y="616" width="1536" height="1" fill="#000" opacity="0.10" /><rect y="624" width="1536" height="1" fill="#000" opacity="0.10" /><rect y="632" width="1536" height="1" fill="#000" opacity="0.10" /><rect y="640" width="1536" height="1" fill="#000" opacity="0.10" /><rect y="648" width="1536" height="1" fill="#000" opacity="0.10" /><rect y="656" width="1536" height="1" fill="#000" opacity="0.10" /><rect y="664" width="1536" height="1" fill="#000" opacity="0.10" /><rect y="672" width="1536" height="1" fill="#000" opacity="0.10" /><rect y="680" width="1536" height="1" fill="#000" opacity="0.10" /><rect y="688" width="1536" height="1" fill="#000" opacity="0.10" /><rect y="696" width="1536" height="1" fill="#000" opacity="0.10" /><rect y="704" width="1536" height="1" fill="#000" opacity="0.10" /><rect y="712" width="1536" height="1" fill="#000" opacity="0.10" /><rect y="720" width="1536" height="1" fill="#000" opacity="0.10" /><rect y="728" width="1536" height="1" fill="#000" opacity="0.10" /><rect y="736" width="1536" height="1" fill="#000" opacity="0.10" /><rect y="744" width="1536" height="1" fill="#000" opacity="0.10" /><rect y="752" width="1536" height="1" fill="#000" opacity="0.10" /><rect y="760" width="1536" height="1" fill="#000" opacity="0.10" /><rect y="768" width="1536" height="1" fill="#000" opacity="0.10" /><rect y="776" width="1536" height="1" fill="#000" opacity="0.10" /><rect y="784" width="1536" height="1" fill="#000" opacity="0.10" /><rect y="792" width="1536" height="1" fill="#000" opacity="0.10" /><rect y="800" width="1536" height="1" fill="#000" opacity="0.10" /><rect y="808" width="1536" height="1" fill="#000" opacity="0.10" /><rect y="816" width="1536" height="1" fill="#000" opacity="0.10" /><rect y="824" width="1536" height="1" fill="#000" opacity="0.10" /><rect y="832" width="1536" height="1" fill="#000" opacity="0.10" /><rect y="840" width="1536" height="1" fill="#000" opacity="0.10" /><rect y="848" width="1536" height="1" fill="#000" opacity="0.10" /><rect y="856" width="1536" height="1" fill="#000" opacity="0.10" /><rect y="864" width="1536" height="1" fill="#000" opacity="0.10" /><rect y="872" width="1536" height="1" fill="#000" opacity="0.10" /><rect y="880" width="1536" height="1" fill="#000" opacity="0.10" /><rect y="888" width="1536" height="1" fill="#000" opacity="0.10" /><rect y="896" width="1536" height="1" fill="#000" opacity="0.10" /><rect y="904" width="1536" height="1" fill="#000" opacity="0.10" /><rect y="912" width="1536" height="1" fill="#000" opacity="0.10" /><rect y="920" width="1536" height="1" fill="#000" opacity="0.10" /><rect y="928" width="1536" height="1" fill="#000" opacity="0.10" /><rect y="936" width="1536" height="1" fill="#000" opacity="0.10" /><rect y="944" width="1536" height="1" fill="#000" opacity="0.10" /><rect y="952" width="1536" height="1" fill="#000" opacity="0.10" /><rect y="960" width="1536" height="1" fill="#000" opacity="0.10" /><rect y="968" width="1536" height="1" fill="#000" opacity="0.10" /><rect y="976" width="1536" height="1" fill="#000" opacity="0.10" /><rect y="984" width="1536" height="1" fill="#000" opacity="0.10" /><rect y="992" width="1536" height="1" fill="#000" opacity="0.10" /><rect y="1000" width="1536" height="1" fill="#000" opacity="0.10" /><rect y="1008" width="1536" height="1" fill="#000" opacity="0.10" /><rect y="1016" width="1536" height="1" fill="#000" opacity="0.10" /><rect width="1536" height="26" fill="#000" opacity="0.35" /><rect y="998" width="1536" height="26" fill="#000" opacity="0.35" /></svg>