<svg xmlns="http://www.w3.org/2000/svg" viewBox="0 0 1000 1000" width="1000" height="1000" role="img"
     data-schema="trace-bloom-motif/1" data-model="grok-4-1-fast-non-reasoning" data-attempts="1" data-digest="3404749b">
<title>A laptop silhouette with its back panel removed, exposing a glowing SSH private-key file and a leaking cloud-credential token that drip onto a command-history tape, all framed by a faint grid of dotfiles.</title>
<!-- Preview only: the banner compositor ignores this block and resolves the
     tokens against the article's own section palette. -->
<style>:root{--ink:#fff4e0;--cool:#f59e0b;--warm:#ef4444;--accent:#f97316;--grid:#3d2a14;--muted:#a88960;--bg0:#0a0704;--bg1:#1a1008}</style>
  <g>
    <rect x="220" y="280" width="560" height="420" rx="20" fill="none" stroke="var(--ink)" stroke-width="12"/>
    <rect x="300" y="320" width="400" height="340" rx="8" fill="var(--bg0)" stroke="var(--muted)" stroke-width="6"/>
    <rect x="360" y="380" width="280" height="120" fill="none" stroke="var(--cool)" stroke-width="10"/>
    <line x1="380" y1="410" x2="620" y2="410" stroke="var(--cool)" stroke-width="6"/>
    <line x1="380" y1="440" x2="580" y2="440" stroke="var(--cool)" stroke-width="6"/>
    <circle cx="520" cy="520" r="18" fill="var(--warm)"/>
    <polyline points="520,538 520,620 505,650 535,650 520,620" fill="none" stroke="var(--warm)" stroke-width="8"/>
    <rect x="340" y="680" width="320" height="30" fill="none" stroke="var(--muted)" stroke-width="6"/>
    <line x1="360" y1="695" x2="640" y2="695" stroke="var(--muted)" stroke-width="4"/>
    <line x1="240" y1="300" x2="760" y2="300" stroke="var(--grid)" stroke-width="4"/>
    <line x1="240" y1="740" x2="760" y2="740" stroke="var(--grid)" stroke-width="4"/>
    <line x1="240" y1="300" x2="240" y2="740" stroke="var(--grid)" stroke-width="4"/>
    <line x1="760" y1="300" x2="760" y2="740" stroke="var(--grid)" stroke-width="4"/>
  </g>
</svg>
