<svg xmlns="http://www.w3.org/2000/svg" viewBox="0 0 1000 1000" width="1000" height="1000" role="img"
     data-schema="trace-bloom-motif/1" data-model="claude-in-the-loop" data-attempts="1" data-digest="a4dd9586">
<title>A YAML config file — window bar, key squares and value lines — under a magnifying glass, with two warning triangles beside coerced boolean lines and a crossed-out error marker on a duplicate key.</title>
<!-- Preview only: the banner compositor ignores this block and resolves the
     tokens against the article's own section palette. -->
<style>:root{--ink:#f6efff;--cool:#a78bfa;--warm:#fbbf24;--accent:#fbbf24;--grid:#33215a;--muted:#9d8ac4;--bg0:#0a0614;--bg1:#170c28}</style>
  <g fill="none" stroke-linejoin="round" stroke-linecap="round">
    <rect x="200" y="150" width="420" height="700" rx="24" fill="var(--cool)" stroke="var(--ink)" stroke-width="12"/>
    <rect x="200" y="150" width="420" height="92" rx="24" fill="var(--ink)"/>
    <circle cx="252" cy="196" r="17" fill="var(--warm)"/>
    <circle cx="308" cy="196" r="17" fill="var(--accent)"/>
    <rect x="240" y="305" width="48" height="48" rx="8" fill="var(--accent)" stroke="var(--ink)" stroke-width="6"/>
    <line x1="320" y1="330" x2="560" y2="330" stroke="var(--grid)" stroke-width="14"/>
    <rect x="240" y="395" width="48" height="48" rx="8" fill="var(--warm)" stroke="var(--ink)" stroke-width="6"/>
    <line x1="320" y1="420" x2="560" y2="420" stroke="var(--grid)" stroke-width="14"/>
    <rect x="240" y="485" width="48" height="48" rx="8" fill="var(--accent)" stroke="var(--ink)" stroke-width="6"/>
    <line x1="320" y1="510" x2="560" y2="510" stroke="var(--grid)" stroke-width="14"/>
    <rect x="240" y="575" width="48" height="48" rx="8" fill="var(--warm)" stroke="var(--ink)" stroke-width="6"/>
    <line x1="320" y1="600" x2="560" y2="600" stroke="var(--grid)" stroke-width="14"/>
    <rect x="240" y="665" width="48" height="48" rx="8" fill="var(--accent)" stroke="var(--ink)" stroke-width="6"/>
    <line x1="320" y1="690" x2="560" y2="690" stroke="var(--grid)" stroke-width="14"/>
    <rect x="240" y="755" width="48" height="48" rx="8" fill="var(--accent)" stroke="var(--ink)" stroke-width="6"/>
    <line x1="320" y1="780" x2="560" y2="780" stroke="var(--grid)" stroke-width="14"/>
    <polygon points="660,392 702,462 618,462" fill="var(--warm)" stroke="var(--ink)" stroke-width="6"/>
    <line x1="660" y1="418" x2="660" y2="440" stroke="var(--ink)" stroke-width="8"/>
    <polygon points="660,572 702,642 618,642" fill="var(--warm)" stroke="var(--ink)" stroke-width="6"/>
    <line x1="660" y1="598" x2="660" y2="620" stroke="var(--ink)" stroke-width="8"/>
    <circle cx="660" cy="780" r="42" fill="none" stroke="var(--warm)" stroke-width="12"/>
    <line x1="641" y1="761" x2="679" y2="799" stroke="var(--ink)" stroke-width="10"/>
    <line x1="679" y1="761" x2="641" y2="799" stroke="var(--ink)" stroke-width="10"/>
    <circle cx="520" cy="430" r="150" fill="none" stroke="var(--accent)" stroke-width="18"/>
    <line x1="628" y1="538" x2="760" y2="672" stroke="var(--accent)" stroke-width="26"/>
  </g>
</svg>
